G04*
G04 #@! TF.GenerationSoftware,Altium Limited,Altium Designer,22.5.1 (42)*
G04*
G04 Layer_Color=128*
%FSLAX44Y44*%
%MOMM*%
G71*
G04*
G04 #@! TF.SameCoordinates,5869CC21-DB5A-444C-B007-87784FBE0E84*
G04*
G04*
G04 #@! TF.FilePolarity,Positive*
G04*
G01*
G75*
%ADD102C,0.0508*%
D102*
X91570Y1208170D02*
X99570D01*
X95570Y1204170D02*
Y1212170D01*
X111570Y1208170D02*
X119570D01*
X115570Y1204170D02*
Y1212170D01*
X131570Y1208170D02*
X139570D01*
X135570Y1204170D02*
Y1212170D01*
X91570Y1258170D02*
X99570D01*
X95570Y1254170D02*
Y1262170D01*
X111570Y1258170D02*
X119570D01*
X115570Y1254170D02*
Y1262170D01*
X131570Y1258170D02*
X139570D01*
X135570Y1254170D02*
Y1262170D01*
X1032420Y604520D02*
X1040220D01*
X1036320Y600620D02*
Y608420D01*
X1108620Y525120D02*
X1116420D01*
X1112520Y521220D02*
Y529020D01*
X1083220Y525120D02*
X1091020D01*
X1087120Y521220D02*
Y529020D01*
X1057820Y525120D02*
X1065620D01*
X1061720Y521220D02*
Y529020D01*
X1032420Y525120D02*
X1040220D01*
X1036320Y521220D02*
Y529020D01*
X1057820Y604520D02*
X1065620D01*
X1061720Y600620D02*
Y608420D01*
X1083220Y604520D02*
X1091020D01*
X1087120Y600620D02*
Y608420D01*
X1108620Y604520D02*
X1116420D01*
X1112520Y600620D02*
Y608420D01*
X1478050Y1559600D02*
X1488050D01*
X1483050Y1554600D02*
Y1564600D01*
X112120Y1060450D02*
X157120D01*
X134620Y1037950D02*
Y1082950D01*
X112120Y869950D02*
X157120D01*
X134620Y847450D02*
Y892450D01*
X1829816Y882650D02*
X1837944D01*
X1833880Y878586D02*
Y886714D01*
X1804416Y882650D02*
X1812544D01*
X1808480Y878586D02*
Y886714D01*
X1779016Y882650D02*
X1787144D01*
X1783080Y878586D02*
Y886714D01*
X1753616Y882650D02*
X1761744D01*
X1757680Y878586D02*
Y886714D01*
X1728216Y882650D02*
X1736344D01*
X1732280Y878586D02*
Y886714D01*
X1702816Y882650D02*
X1710944D01*
X1706880Y878586D02*
Y886714D01*
X146920Y1357620D02*
X156920D01*
X151920Y1352620D02*
Y1362620D01*
X116920Y1404620D02*
X126920D01*
X121920Y1399620D02*
Y1409620D01*
X176920Y1404620D02*
X186920D01*
X181920Y1399620D02*
Y1409620D01*
X2165550Y1244600D02*
X2190550D01*
X2178050Y1232100D02*
Y1257100D01*
X1415550Y1244600D02*
X1440550D01*
X1428050Y1232100D02*
Y1257100D01*
X2165550Y1554600D02*
X2190550D01*
X2178050Y1542100D02*
Y1567100D01*
X1415550Y1554600D02*
X1440550D01*
X1428050Y1542100D02*
Y1567100D01*
X1859050Y1559600D02*
X1869050D01*
X1864050Y1554600D02*
Y1564600D01*
X1833650Y1559600D02*
X1843650D01*
X1838650Y1554600D02*
Y1564600D01*
X1808250Y1559600D02*
X1818250D01*
X1813250Y1554600D02*
Y1564600D01*
X1782850Y1559600D02*
X1792850D01*
X1787850Y1554600D02*
Y1564600D01*
X1757450Y1559600D02*
X1767450D01*
X1762450Y1554600D02*
Y1564600D01*
X1732050Y1559600D02*
X1742050D01*
X1737050Y1554600D02*
Y1564600D01*
X1706650Y1559600D02*
X1716650D01*
X1711650Y1554600D02*
Y1564600D01*
X1681250Y1559600D02*
X1691250D01*
X1686250Y1554600D02*
Y1564600D01*
X1655850Y1559600D02*
X1665850D01*
X1660850Y1554600D02*
Y1564600D01*
X1630450Y1559600D02*
X1640450D01*
X1635450Y1554600D02*
Y1564600D01*
X1605050Y1559600D02*
X1615050D01*
X1610050Y1554600D02*
Y1564600D01*
X1579650Y1559600D02*
X1589650D01*
X1584650Y1554600D02*
Y1564600D01*
X1554250Y1559600D02*
X1564250D01*
X1559250Y1554600D02*
Y1564600D01*
X1528850Y1559600D02*
X1538850D01*
X1533850Y1554600D02*
Y1564600D01*
X1503450Y1559600D02*
X1513450D01*
X1508450Y1554600D02*
Y1564600D01*
X1317070Y1579880D02*
X1327070D01*
X1322070Y1574880D02*
Y1584880D01*
X1317070Y1554480D02*
X1327070D01*
X1322070Y1549480D02*
Y1559480D01*
X156990Y387350D02*
X165990D01*
X161490Y382850D02*
Y391850D01*
X308990Y387350D02*
X317990D01*
X313490Y382850D02*
Y391850D01*
X89780Y158750D02*
X98180D01*
X93980Y154550D02*
Y162950D01*
X107560Y158750D02*
X115960D01*
X111760Y154550D02*
Y162950D01*
X125340Y158750D02*
X133740D01*
X129540Y154550D02*
Y162950D01*
X339170Y185420D02*
X349170D01*
X344170Y180420D02*
Y190420D01*
X288370Y185420D02*
X298370D01*
X293370Y180420D02*
Y190420D01*
X237570Y185420D02*
X247570D01*
X242570Y180420D02*
Y190420D01*
X161370Y185420D02*
X171370D01*
X166370Y180420D02*
Y190420D01*
X161370Y261620D02*
X171370D01*
X166370Y256620D02*
Y266620D01*
X237570Y261620D02*
X247570D01*
X242570Y256620D02*
Y266620D01*
X288370Y261620D02*
X298370D01*
X293370Y256620D02*
Y266620D01*
X339170Y261620D02*
X349170D01*
X344170Y256620D02*
Y266620D01*
X717810Y116840D02*
X724910D01*
X721360Y113290D02*
Y120390D01*
X717810Y142240D02*
X724910D01*
X721360Y138690D02*
Y145790D01*
X717810Y167640D02*
X724910D01*
X721360Y164090D02*
Y171190D01*
X934030Y1513840D02*
X943030D01*
X938530Y1509340D02*
Y1518340D01*
X934030Y1593840D02*
X943030D01*
X938530Y1589340D02*
Y1598340D01*
X1060060Y1545590D02*
X1068460D01*
X1064260Y1541390D02*
Y1549790D01*
X1060060Y1527810D02*
X1068460D01*
X1064260Y1523610D02*
Y1532010D01*
X1060060Y1510030D02*
X1068460D01*
X1064260Y1505830D02*
Y1514230D01*
X285260Y951230D02*
X294260D01*
X289760Y946730D02*
Y955730D01*
X437260Y951230D02*
X446260D01*
X441760Y946730D02*
Y955730D01*
X656770Y951230D02*
X665770D01*
X661270Y946730D02*
Y955730D01*
X504770Y951230D02*
X513770D01*
X509270Y946730D02*
Y955730D01*
X562870Y867410D02*
X569970D01*
X566420Y863860D02*
Y870960D01*
X588270Y867410D02*
X595370D01*
X591820Y863860D02*
Y870960D01*
X613670Y867410D02*
X620770D01*
X617220Y863860D02*
Y870960D01*
X354590Y867410D02*
X361690D01*
X358140Y863860D02*
Y870960D01*
X379990Y867410D02*
X387090D01*
X383540Y863860D02*
Y870960D01*
X405390Y867410D02*
X412490D01*
X408940Y863860D02*
Y870960D01*
X1172790Y67510D02*
X1181790D01*
X1177290Y63010D02*
Y72010D01*
X1172790Y219510D02*
X1181790D01*
X1177290Y215010D02*
Y224010D01*
X1124330Y214630D02*
X1133330D01*
X1128830Y210130D02*
Y219130D01*
X972330Y214630D02*
X981330D01*
X976830Y210130D02*
Y219130D01*
X933830Y137160D02*
X942830D01*
X938330Y132660D02*
Y141660D01*
X781830Y137160D02*
X790830D01*
X786330Y132660D02*
Y141660D01*
X933830Y68580D02*
X942830D01*
X938330Y64080D02*
Y73080D01*
X781830Y68580D02*
X790830D01*
X786330Y64080D02*
Y73080D01*
X933830Y213360D02*
X942830D01*
X938330Y208860D02*
Y217860D01*
X781830Y213360D02*
X790830D01*
X786330Y208860D02*
Y217860D01*
X1331010Y123190D02*
X1341610D01*
X1336310Y117890D02*
Y128490D01*
X1434610Y123190D02*
X1445210D01*
X1439910Y117890D02*
Y128490D01*
X1380750Y665480D02*
X1387850D01*
X1384300Y661930D02*
Y669030D01*
X1355350Y665480D02*
X1362450D01*
X1358900Y661930D02*
Y669030D01*
X1329950Y665480D02*
X1337050D01*
X1333500Y661930D02*
Y669030D01*
X1347380Y306400D02*
X1355180D01*
X1351280Y302500D02*
Y310300D01*
X1372780Y306400D02*
X1380580D01*
X1376680Y302500D02*
Y310300D01*
X1398180Y306400D02*
X1405980D01*
X1402080Y302500D02*
Y310300D01*
X1423580Y306400D02*
X1431380D01*
X1427480Y302500D02*
Y310300D01*
X1448980Y306400D02*
X1456780D01*
X1452880Y302500D02*
Y310300D01*
X1474380Y306400D02*
X1482180D01*
X1478280Y302500D02*
Y310300D01*
X1499780Y306400D02*
X1507580D01*
X1503680Y302500D02*
Y310300D01*
X1525180Y306400D02*
X1532980D01*
X1529080Y302500D02*
Y310300D01*
X1525180Y227000D02*
X1532980D01*
X1529080Y223100D02*
Y230900D01*
X1499780Y227000D02*
X1507580D01*
X1503680Y223100D02*
Y230900D01*
X1474380Y227000D02*
X1482180D01*
X1478280Y223100D02*
Y230900D01*
X1448980Y227000D02*
X1456780D01*
X1452880Y223100D02*
Y230900D01*
X1423580Y227000D02*
X1431380D01*
X1427480Y223100D02*
Y230900D01*
X1398180Y227000D02*
X1405980D01*
X1402080Y223100D02*
Y230900D01*
X1372780Y227000D02*
X1380580D01*
X1376680Y223100D02*
Y230900D01*
X1347380Y227000D02*
X1355180D01*
X1351280Y223100D02*
Y230900D01*
X949070Y689610D02*
X958070D01*
X953570Y685110D02*
Y694110D01*
X797070Y689610D02*
X806070D01*
X801570Y685110D02*
Y694110D01*
X949070Y607060D02*
X958070D01*
X953570Y602560D02*
Y611560D01*
X797070Y607060D02*
X806070D01*
X801570Y602560D02*
Y611560D01*
X1182950Y488080D02*
X1191950D01*
X1187450Y483580D02*
Y492580D01*
X1182950Y640080D02*
X1191950D01*
X1187450Y635580D02*
Y644580D01*
X717810Y674370D02*
X724910D01*
X721360Y670820D02*
Y677920D01*
X717810Y648970D02*
X724910D01*
X721360Y645420D02*
Y652520D01*
X717810Y623570D02*
X724910D01*
X721360Y620020D02*
Y627120D01*
X1150800Y690880D02*
X1159800D01*
X1155300Y686380D02*
Y695380D01*
X998800Y690880D02*
X1007800D01*
X1003300Y686380D02*
Y695380D01*
X1285820Y235150D02*
X1294820D01*
X1290320Y230650D02*
Y239650D01*
X1285820Y387150D02*
X1294820D01*
X1290320Y382650D02*
Y391650D01*
X1285820Y599240D02*
X1294820D01*
X1290320Y594740D02*
Y603740D01*
X1285820Y447240D02*
X1294820D01*
X1290320Y442740D02*
Y451740D01*
X900340Y368300D02*
X908140D01*
X904240Y364400D02*
Y372200D01*
X874940Y368300D02*
X882740D01*
X878840Y364400D02*
Y372200D01*
X849540Y368300D02*
X857340D01*
X853440Y364400D02*
Y372200D01*
X824140Y288900D02*
X831940D01*
X828040Y285000D02*
Y292800D01*
X849540Y288900D02*
X857340D01*
X853440Y285000D02*
Y292800D01*
X874940Y288900D02*
X882740D01*
X878840Y285000D02*
Y292800D01*
X900340Y288900D02*
X908140D01*
X904240Y285000D02*
Y292800D01*
X824140Y368300D02*
X831940D01*
X828040Y364400D02*
Y372200D01*
X713050Y384610D02*
X722050D01*
X717550Y380110D02*
Y389110D01*
X713050Y232610D02*
X722050D01*
X717550Y228110D02*
Y237110D01*
X717710Y511810D02*
X724810D01*
X721260Y508260D02*
Y515360D01*
X717710Y486410D02*
X724810D01*
X721260Y482860D02*
Y489960D01*
X717710Y461010D02*
X724810D01*
X721260Y457460D02*
Y464560D01*
X1108620Y140970D02*
X1116420D01*
X1112520Y137070D02*
Y144870D01*
X1083220Y140970D02*
X1091020D01*
X1087120Y137070D02*
Y144870D01*
X1057820Y140970D02*
X1065620D01*
X1061720Y137070D02*
Y144870D01*
X1032420Y61570D02*
X1040220D01*
X1036320Y57670D02*
Y65470D01*
X1057820Y61570D02*
X1065620D01*
X1061720Y57670D02*
Y65470D01*
X1083220Y61570D02*
X1091020D01*
X1087120Y57670D02*
Y65470D01*
X1108620Y61570D02*
X1116420D01*
X1112520Y57670D02*
Y65470D01*
X1032420Y140970D02*
X1040220D01*
X1036320Y137070D02*
Y144870D01*
X949070Y524510D02*
X958070D01*
X953570Y520010D02*
Y529010D01*
X797070Y524510D02*
X806070D01*
X801570Y520010D02*
Y529010D01*
X949070Y434340D02*
X958070D01*
X953570Y429840D02*
Y438840D01*
X797070Y434340D02*
X806070D01*
X801570Y429840D02*
Y438840D01*
X1177870Y283410D02*
X1186870D01*
X1182370Y278910D02*
Y287910D01*
X1177870Y435410D02*
X1186870D01*
X1182370Y430910D02*
Y439910D01*
X1100400Y436680D02*
X1109400D01*
X1104900Y432180D02*
Y441180D01*
X1100400Y284680D02*
X1109400D01*
X1104900Y280180D02*
Y289180D01*
X1022930Y284680D02*
X1031930D01*
X1027430Y280180D02*
Y289180D01*
X1022930Y436680D02*
X1031930D01*
X1027430Y432180D02*
Y441180D01*
X1551450Y664210D02*
X1562050D01*
X1556750Y658910D02*
Y669510D01*
X1447850Y664210D02*
X1458450D01*
X1453150Y658910D02*
Y669510D01*
X1493680Y124460D02*
X1502180D01*
X1497930Y120210D02*
Y128710D01*
X1568680Y124460D02*
X1577180D01*
X1572930Y120210D02*
Y128710D01*
X1437600Y580390D02*
X1445300D01*
X1441450Y576540D02*
Y584240D01*
X1513800Y580390D02*
X1521500D01*
X1517650Y576540D02*
Y584240D01*
X1488400Y580390D02*
X1496100D01*
X1492250Y576540D02*
Y584240D01*
X1463000Y580390D02*
X1470700D01*
X1466850Y576540D02*
Y584240D01*
X1412200Y580390D02*
X1419900D01*
X1416050Y576540D02*
Y584240D01*
X1386800Y580390D02*
X1394500D01*
X1390650Y576540D02*
Y584240D01*
X1361400Y580390D02*
X1369100D01*
X1365250Y576540D02*
Y584240D01*
X1361400Y500990D02*
X1369100D01*
X1365250Y497140D02*
Y504840D01*
X1386800Y500990D02*
X1394500D01*
X1390650Y497140D02*
Y504840D01*
X1412200Y500990D02*
X1419900D01*
X1416050Y497140D02*
Y504840D01*
X1437600Y500990D02*
X1445300D01*
X1441450Y497140D02*
Y504840D01*
X1463000Y500990D02*
X1470700D01*
X1466850Y497140D02*
Y504840D01*
X1488400Y500990D02*
X1496100D01*
X1492250Y497140D02*
Y504840D01*
X1513800Y500990D02*
X1521500D01*
X1517650Y497140D02*
Y504840D01*
X1515490Y406400D02*
X1524490D01*
X1519990Y401900D02*
Y410900D01*
X1363490Y406400D02*
X1372490D01*
X1367990Y401900D02*
Y410900D01*
X440600Y663880D02*
X448400D01*
X444500Y659980D02*
Y667780D01*
X466000Y663880D02*
X473800D01*
X469900Y659980D02*
Y667780D01*
X491400Y663880D02*
X499200D01*
X495300Y659980D02*
Y667780D01*
X516800Y663880D02*
X524600D01*
X520700Y659980D02*
Y667780D01*
X542200Y663880D02*
X550000D01*
X546100Y659980D02*
Y667780D01*
X567600Y663880D02*
X575400D01*
X571500Y659980D02*
Y667780D01*
X593000Y663880D02*
X600800D01*
X596900Y659980D02*
Y667780D01*
X618400Y663880D02*
X626200D01*
X622300Y659980D02*
Y667780D01*
X618400Y743280D02*
X626200D01*
X622300Y739380D02*
Y747180D01*
X593000Y743280D02*
X600800D01*
X596900Y739380D02*
Y747180D01*
X567600Y743280D02*
X575400D01*
X571500Y739380D02*
Y747180D01*
X542200Y743280D02*
X550000D01*
X546100Y739380D02*
Y747180D01*
X516800Y743280D02*
X524600D01*
X520700Y739380D02*
Y747180D01*
X491400Y743280D02*
X499200D01*
X495300Y739380D02*
Y747180D01*
X466000Y743280D02*
X473800D01*
X469900Y739380D02*
Y747180D01*
X440600Y743280D02*
X448400D01*
X444500Y739380D02*
Y747180D01*
X617717Y487009D02*
X626717D01*
X622217Y482509D02*
Y491509D01*
X465718Y487009D02*
X474717D01*
X470218Y482509D02*
Y491509D01*
X490917Y177330D02*
X499917D01*
X495417Y172830D02*
Y181830D01*
X490917Y329329D02*
X499917D01*
X495417Y324829D02*
Y333829D01*
X465718Y401919D02*
X474717D01*
X470218Y397419D02*
Y406419D01*
X617717Y401919D02*
X626717D01*
X622217Y397419D02*
Y406419D01*
X589977Y330599D02*
X598977D01*
X594477Y326099D02*
Y335099D01*
X589977Y178600D02*
X598977D01*
X594477Y174100D02*
Y183100D01*
X1293640Y918210D02*
X1302640D01*
X1298140Y913710D02*
Y922710D01*
X1445640Y918210D02*
X1454640D01*
X1450140Y913710D02*
Y922710D01*
X1293640Y985837D02*
X1302640D01*
X1298140Y981338D02*
Y990338D01*
X1445640Y985837D02*
X1454640D01*
X1450140Y981338D02*
Y990338D01*
X1293640Y1053465D02*
X1302640D01*
X1298140Y1048965D02*
Y1057965D01*
X1445640Y1053465D02*
X1454640D01*
X1450140Y1048965D02*
Y1057965D01*
X1293640Y1121093D02*
X1302640D01*
X1298140Y1116592D02*
Y1125592D01*
X1445640Y1121093D02*
X1454640D01*
X1450140Y1116592D02*
Y1125592D01*
X265210Y1147755D02*
X275810D01*
X270510Y1142455D02*
Y1153055D01*
X265210Y1069665D02*
X275810D01*
X270510Y1064365D02*
Y1074965D01*
X516200Y1030370D02*
X525200D01*
X520700Y1025870D02*
Y1034870D01*
X516200Y1182370D02*
X525200D01*
X520700Y1177870D02*
Y1186870D01*
X581270Y1187450D02*
X589670D01*
X585470Y1183250D02*
Y1191650D01*
X581270Y1169670D02*
X589670D01*
X585470Y1165470D02*
Y1173870D01*
X581270Y1151890D02*
X589670D01*
X585470Y1147690D02*
Y1156090D01*
X651290Y1133785D02*
X661890D01*
X656590Y1128485D02*
Y1139085D01*
X651290Y1055695D02*
X661890D01*
X656590Y1050395D02*
Y1060995D01*
X927680Y1179830D02*
X936680D01*
X932180Y1175330D02*
Y1184330D01*
X927680Y1027830D02*
X936680D01*
X932180Y1023330D02*
Y1032330D01*
X448370Y1037550D02*
X461570D01*
X454970Y1030950D02*
Y1044150D01*
X328370Y1037550D02*
X341570D01*
X334970Y1030950D02*
Y1044150D01*
X328370Y1159550D02*
X341570D01*
X334970Y1152950D02*
Y1166150D01*
X388520Y1179550D02*
X401420D01*
X394970Y1173100D02*
Y1186000D01*
X448370Y1159550D02*
X461570D01*
X454970Y1152950D02*
Y1166150D01*
X846190Y1162050D02*
X859390D01*
X852790Y1155450D02*
Y1168650D01*
X786340Y1182050D02*
X799240D01*
X792790Y1175600D02*
Y1188500D01*
X726190Y1162050D02*
X739390D01*
X732790Y1155450D02*
Y1168650D01*
X726190Y1040050D02*
X739390D01*
X732790Y1033450D02*
Y1046650D01*
X846190Y1040050D02*
X859390D01*
X852790Y1033450D02*
Y1046650D01*
X478350Y1412170D02*
X486850D01*
X482600Y1407920D02*
Y1416420D01*
X478350Y1487170D02*
X486850D01*
X482600Y1482920D02*
Y1491420D01*
X1576705Y1140460D02*
X1585595D01*
X1581150Y1136015D02*
Y1144905D01*
X1602105Y1140460D02*
X1610995D01*
X1606550Y1136015D02*
Y1144905D01*
X1627505Y1140460D02*
X1636395D01*
X1631950Y1136015D02*
Y1144905D01*
X1652905Y1140460D02*
X1661795D01*
X1657350Y1136015D02*
Y1144905D01*
X2059305Y988060D02*
X2068195D01*
X2063750Y983615D02*
Y992505D01*
X2033905Y988060D02*
X2042795D01*
X2038350Y983615D02*
Y992505D01*
X1678305Y1140460D02*
X1687195D01*
X1682750Y1136015D02*
Y1144905D01*
X1703705Y1140460D02*
X1712595D01*
X1708150Y1136015D02*
Y1144905D01*
X1729105Y1140460D02*
X1737995D01*
X1733550Y1136015D02*
Y1144905D01*
X1754505Y1140460D02*
X1763395D01*
X1758950Y1136015D02*
Y1144905D01*
X2008505Y988060D02*
X2017395D01*
X2012950Y983615D02*
Y992505D01*
X1983105Y988060D02*
X1991995D01*
X1987550Y983615D02*
Y992505D01*
X1779905Y1140460D02*
X1788795D01*
X1784350Y1136015D02*
Y1144905D01*
X1805305Y1140460D02*
X1814195D01*
X1809750Y1136015D02*
Y1144905D01*
X1830705Y1140460D02*
X1839595D01*
X1835150Y1136015D02*
Y1144905D01*
X1856105Y1140460D02*
X1864995D01*
X1860550Y1136015D02*
Y1144905D01*
X1957705Y988060D02*
X1966595D01*
X1962150Y983615D02*
Y992505D01*
X1932305Y988060D02*
X1941195D01*
X1936750Y983615D02*
Y992505D01*
X1881505Y1140460D02*
X1890395D01*
X1885950Y1136015D02*
Y1144905D01*
X1906905Y1140460D02*
X1915795D01*
X1911350Y1136015D02*
Y1144905D01*
X1932305Y1140460D02*
X1941195D01*
X1936750Y1136015D02*
Y1144905D01*
X1957705Y1140460D02*
X1966595D01*
X1962150Y1136015D02*
Y1144905D01*
X1906905Y988060D02*
X1915795D01*
X1911350Y983615D02*
Y992505D01*
X1881505Y988060D02*
X1890395D01*
X1885950Y983615D02*
Y992505D01*
X1983105Y1140460D02*
X1991995D01*
X1987550Y1136015D02*
Y1144905D01*
X2008505Y1140460D02*
X2017395D01*
X2012950Y1136015D02*
Y1144905D01*
X1856105Y988060D02*
X1864995D01*
X1860550Y983615D02*
Y992505D01*
X2033905Y1140460D02*
X2042795D01*
X2038350Y1136015D02*
Y1144905D01*
X2059305Y1140460D02*
X2068195D01*
X2063750Y1136015D02*
Y1144905D01*
X1830705Y988060D02*
X1839595D01*
X1835150Y983615D02*
Y992505D01*
X1805305Y988060D02*
X1814195D01*
X1809750Y983615D02*
Y992505D01*
X1779905Y988060D02*
X1788795D01*
X1784350Y983615D02*
Y992505D01*
X1754505Y988060D02*
X1763395D01*
X1758950Y983615D02*
Y992505D01*
X1729105Y988060D02*
X1737995D01*
X1733550Y983615D02*
Y992505D01*
X1703705Y988060D02*
X1712595D01*
X1708150Y983615D02*
Y992505D01*
X1678305Y988060D02*
X1687195D01*
X1682750Y983615D02*
Y992505D01*
X1652905Y988060D02*
X1661795D01*
X1657350Y983615D02*
Y992505D01*
X1627505Y988060D02*
X1636395D01*
X1631950Y983615D02*
Y992505D01*
X1602105Y988060D02*
X1610995D01*
X1606550Y983615D02*
Y992505D01*
X1576705Y988060D02*
X1585595D01*
X1581150Y983615D02*
Y992505D01*
X1155000Y883920D02*
X1162800D01*
X1158900Y880020D02*
Y887820D01*
X1155000Y909320D02*
X1162800D01*
X1158900Y905420D02*
Y913220D01*
X1155000Y934720D02*
X1162800D01*
X1158900Y930820D02*
Y938620D01*
X1155000Y960120D02*
X1162800D01*
X1158900Y956220D02*
Y964020D01*
X1155000Y985520D02*
X1162800D01*
X1158900Y981620D02*
Y989420D01*
X1155000Y1010920D02*
X1162800D01*
X1158900Y1007020D02*
Y1014820D01*
X1155000Y1036320D02*
X1162800D01*
X1158900Y1032420D02*
Y1040220D01*
X1155000Y1061720D02*
X1162800D01*
X1158900Y1057820D02*
Y1065620D01*
X1075600Y1061720D02*
X1083400D01*
X1079500Y1057820D02*
Y1065620D01*
X1075600Y1036320D02*
X1083400D01*
X1079500Y1032420D02*
Y1040220D01*
X1075600Y1010920D02*
X1083400D01*
X1079500Y1007020D02*
Y1014820D01*
X1075600Y985520D02*
X1083400D01*
X1079500Y981620D02*
Y989420D01*
X1075600Y960120D02*
X1083400D01*
X1079500Y956220D02*
Y964020D01*
X1075600Y934720D02*
X1083400D01*
X1079500Y930820D02*
Y938620D01*
X1075600Y909320D02*
X1083400D01*
X1079500Y905420D02*
Y913220D01*
X1075600Y883920D02*
X1083400D01*
X1079500Y880020D02*
Y887820D01*
X1081532Y1360170D02*
X1092708D01*
X1087120Y1354582D02*
Y1365758D01*
X1081532Y1334770D02*
X1092708D01*
X1087120Y1329182D02*
Y1340358D01*
X1081532Y1309370D02*
X1092708D01*
X1087120Y1303782D02*
Y1314958D01*
X1081532Y1283970D02*
X1092708D01*
X1087120Y1278382D02*
Y1289558D01*
X1157732Y1283970D02*
X1168908D01*
X1163320Y1278382D02*
Y1289558D01*
X1157732Y1309370D02*
X1168908D01*
X1163320Y1303782D02*
Y1314958D01*
X1157732Y1334770D02*
X1168908D01*
X1163320Y1329182D02*
Y1340358D01*
X1157732Y1360170D02*
X1168908D01*
X1163320Y1354582D02*
Y1365758D01*
X1223840Y1287110D02*
X1232340D01*
X1228090Y1282860D02*
Y1291360D01*
X1223840Y1362110D02*
X1232340D01*
X1228090Y1357860D02*
Y1366360D01*
X1004130Y1360840D02*
X1012630D01*
X1008380Y1356590D02*
Y1365090D01*
X1004130Y1285840D02*
X1012630D01*
X1008380Y1281590D02*
Y1290090D01*
X99680Y1518050D02*
X113680D01*
X106680Y1511050D02*
Y1525050D01*
X99680Y1568050D02*
X113680D01*
X106680Y1561050D02*
Y1575050D01*
X53620Y1642110D02*
X88620D01*
X71120Y1624610D02*
Y1659610D01*
X292930Y1489109D02*
X301430D01*
X297180Y1484859D02*
Y1493360D01*
X292930Y1414110D02*
X301430D01*
X297180Y1409860D02*
Y1418360D01*
X385640Y1489110D02*
X394140D01*
X389890Y1484860D02*
Y1493360D01*
X385640Y1414110D02*
X394140D01*
X389890Y1409860D02*
Y1418360D01*
X571060Y1489110D02*
X579560D01*
X575310Y1484860D02*
Y1493360D01*
X2168650Y1121010D02*
X2176650D01*
X2172650Y1117010D02*
Y1125010D01*
X2148650Y1121010D02*
X2156650D01*
X2152650Y1117010D02*
Y1125010D01*
X2128650Y1121010D02*
X2136650D01*
X2132650Y1117010D02*
Y1125010D01*
X2168650Y1071010D02*
X2176650D01*
X2172650Y1067010D02*
Y1075010D01*
X2148650Y1071010D02*
X2156650D01*
X2152650Y1067010D02*
Y1075010D01*
X2128650Y1071010D02*
X2136650D01*
X2132650Y1067010D02*
Y1075010D01*
X2215160Y55880D02*
X2250160D01*
X2232660Y38380D02*
Y73380D01*
X1180410Y1597460D02*
X1189410D01*
X1184910Y1592960D02*
Y1601960D01*
X1180410Y1445460D02*
X1189410D01*
X1184910Y1440960D02*
Y1449960D01*
X247910Y1337310D02*
X255010D01*
X251460Y1333760D02*
Y1340860D01*
X273310Y1337310D02*
X280410D01*
X276860Y1333760D02*
Y1340860D01*
X298710Y1337310D02*
X305810D01*
X302260Y1333760D02*
Y1340860D01*
X571060Y1414110D02*
X579560D01*
X575310Y1409860D02*
Y1418360D01*
X1318520Y1203960D02*
X1325620D01*
X1322070Y1200410D02*
Y1207510D01*
X1318520Y1229360D02*
X1325620D01*
X1322070Y1225810D02*
Y1232910D01*
X1318520Y1254760D02*
X1325620D01*
X1322070Y1251210D02*
Y1258310D01*
X1315030Y1485700D02*
X1324030D01*
X1319530Y1481200D02*
Y1490200D01*
X1315030Y1333700D02*
X1324030D01*
X1319530Y1329200D02*
Y1338200D01*
X513460Y1336040D02*
X522460D01*
X517960Y1331540D02*
Y1340540D01*
X361460Y1336040D02*
X370460D01*
X365960Y1331540D02*
Y1340540D01*
X360780Y1573530D02*
X373480D01*
X367130Y1567180D02*
Y1579880D01*
X335280Y1573530D02*
X347980D01*
X341630Y1567180D02*
Y1579880D01*
X309780Y1573530D02*
X322480D01*
X316130Y1567180D02*
Y1579880D01*
X544830Y1574800D02*
X557530D01*
X551180Y1568450D02*
Y1581150D01*
X519330Y1574800D02*
X532030D01*
X525680Y1568450D02*
Y1581150D01*
X493830Y1574800D02*
X506530D01*
X500180Y1568450D02*
Y1581150D01*
X2047620Y882650D02*
X2056620D01*
X2052120Y878150D02*
Y887150D01*
X1895620Y882650D02*
X1904620D01*
X1900120Y878150D02*
Y887150D01*
X2091990Y116570D02*
X2104890D01*
X2098440Y110120D02*
Y123020D01*
X2091990Y241570D02*
X2104890D01*
X2098440Y235120D02*
Y248020D01*
X2141990Y116570D02*
X2154890D01*
X2148440Y110120D02*
Y123020D01*
X2141990Y241570D02*
X2154890D01*
X2148440Y235120D02*
Y248020D01*
X100110Y536265D02*
X110710D01*
X105410Y530965D02*
Y541565D01*
X100110Y614355D02*
X110710D01*
X105410Y609055D02*
Y619655D01*
X97570Y266080D02*
X108170D01*
X102870Y260780D02*
Y271380D01*
X97570Y344170D02*
X108170D01*
X102870Y338870D02*
Y349470D01*
X40920Y53340D02*
X75920D01*
X58420Y35840D02*
Y70840D01*
X2215160Y1640840D02*
X2250160D01*
X2232660Y1623340D02*
Y1658340D01*
X339170Y631190D02*
X349170D01*
X344170Y626190D02*
Y636190D01*
X288370Y631190D02*
X298370D01*
X293370Y626190D02*
Y636190D01*
X237570Y631190D02*
X247570D01*
X242570Y626190D02*
Y636190D01*
X161370Y631190D02*
X171370D01*
X166370Y626190D02*
Y636190D01*
X161370Y554990D02*
X171370D01*
X166370Y549990D02*
Y559990D01*
X237570Y554990D02*
X247570D01*
X242570Y549990D02*
Y559990D01*
X288370Y554990D02*
X298370D01*
X293370Y549990D02*
Y559990D01*
X339170Y554990D02*
X349170D01*
X344170Y549990D02*
Y559990D01*
X156990Y467360D02*
X165990D01*
X161490Y462860D02*
Y471860D01*
X308990Y467360D02*
X317990D01*
X313490Y462860D02*
Y471860D01*
X308990Y325120D02*
X317990D01*
X313490Y320620D02*
Y329620D01*
X156990Y325120D02*
X165990D01*
X161490Y320620D02*
Y329620D01*
X366020Y422910D02*
X373120D01*
X369570Y419360D02*
Y426460D01*
X366020Y397510D02*
X373120D01*
X369570Y393960D02*
Y401060D01*
X366020Y372110D02*
X373120D01*
X369570Y368560D02*
Y375660D01*
X890650Y886460D02*
X899650D01*
X895150Y881960D02*
Y890960D01*
X738650Y886460D02*
X747650D01*
X743150Y881960D02*
Y890960D01*
X997830Y1193800D02*
X1006230D01*
X1002030Y1189600D02*
Y1198000D01*
X997830Y1176020D02*
X1006230D01*
X1002030Y1171820D02*
Y1180220D01*
X997830Y1158240D02*
X1006230D01*
X1002030Y1154040D02*
Y1162440D01*
X893190Y952500D02*
X902190D01*
X897690Y948000D02*
Y957000D01*
X741190Y952500D02*
X750190D01*
X745690Y948000D02*
Y957000D01*
X1847350Y609870D02*
X1860250D01*
X1853800Y603420D02*
Y616320D01*
X1847350Y484870D02*
X1860250D01*
X1853800Y478420D02*
Y491320D01*
X1797350Y609870D02*
X1810250D01*
X1803800Y603420D02*
Y616320D01*
X1797350Y484870D02*
X1810250D01*
X1803800Y478420D02*
Y491320D01*
X1995940Y796560D02*
X2008840D01*
X2002390Y790110D02*
Y803010D01*
X1995940Y671560D02*
X2008840D01*
X2002390Y665110D02*
Y678010D01*
X1945940Y796560D02*
X1958840D01*
X1952390Y790110D02*
Y803010D01*
X1945940Y671560D02*
X1958840D01*
X1952390Y665110D02*
Y678010D01*
X1847350Y796560D02*
X1860250D01*
X1853800Y790110D02*
Y803010D01*
X1847350Y671560D02*
X1860250D01*
X1853800Y665110D02*
Y678010D01*
X1797350Y796560D02*
X1810250D01*
X1803800Y790110D02*
Y803010D01*
X1797350Y671560D02*
X1810250D01*
X1803800Y665110D02*
Y678010D01*
X1995940Y612410D02*
X2008840D01*
X2002390Y605960D02*
Y618860D01*
X1995940Y487410D02*
X2008840D01*
X2002390Y480960D02*
Y493860D01*
X1945940Y612410D02*
X1958840D01*
X1952390Y605960D02*
Y618860D01*
X1945940Y487410D02*
X1958840D01*
X1952390Y480960D02*
Y493860D01*
X1847350Y427413D02*
X1860250D01*
X1853800Y420963D02*
Y433863D01*
X1847350Y302413D02*
X1860250D01*
X1853800Y295963D02*
Y308863D01*
X1797350Y427413D02*
X1810250D01*
X1803800Y420963D02*
Y433863D01*
X1797350Y302413D02*
X1810250D01*
X1803800Y295963D02*
Y308863D01*
X1995940Y427413D02*
X2008840D01*
X2002390Y420963D02*
Y433863D01*
X1995940Y302413D02*
X2008840D01*
X2002390Y295963D02*
Y308863D01*
X1945940Y427413D02*
X1958840D01*
X1952390Y420963D02*
Y433863D01*
X1945940Y302413D02*
X1958840D01*
X1952390Y295963D02*
Y308863D01*
X1847350Y241570D02*
X1860250D01*
X1853800Y235120D02*
Y248020D01*
X1847350Y116570D02*
X1860250D01*
X1853800Y110120D02*
Y123020D01*
X1797350Y241570D02*
X1810250D01*
X1803800Y235120D02*
Y248020D01*
X1797350Y116570D02*
X1810250D01*
X1803800Y110120D02*
Y123020D01*
X1702570Y427413D02*
X1715470D01*
X1709020Y420963D02*
Y433863D01*
X1702570Y302413D02*
X1715470D01*
X1709020Y295963D02*
Y308863D01*
X1652570Y427413D02*
X1665470D01*
X1659020Y420963D02*
Y433863D01*
X1652570Y302413D02*
X1665470D01*
X1659020Y295963D02*
Y308863D01*
X1702570Y241570D02*
X1715470D01*
X1709020Y235120D02*
Y248020D01*
X1702570Y116570D02*
X1715470D01*
X1709020Y110120D02*
Y123020D01*
X1652570Y241570D02*
X1665470D01*
X1659020Y235120D02*
Y248020D01*
X1652570Y116570D02*
X1665470D01*
X1659020Y110120D02*
Y123020D01*
X1995940Y241570D02*
X2008840D01*
X2002390Y235120D02*
Y248020D01*
X1995940Y116570D02*
X2008840D01*
X2002390Y110120D02*
Y123020D01*
X1945940Y241570D02*
X1958840D01*
X1952390Y235120D02*
Y248020D01*
X1945940Y116570D02*
X1958840D01*
X1952390Y110120D02*
Y123020D01*
X1702570Y609870D02*
X1715470D01*
X1709020Y603420D02*
Y616320D01*
X1702570Y484870D02*
X1715470D01*
X1709020Y478420D02*
Y491320D01*
X1652570Y609870D02*
X1665470D01*
X1659020Y603420D02*
Y616320D01*
X1652570Y484870D02*
X1665470D01*
X1659020Y478420D02*
Y491320D01*
X1702570Y796560D02*
X1715470D01*
X1709020Y790110D02*
Y803010D01*
X1702570Y671560D02*
X1715470D01*
X1709020Y665110D02*
Y678010D01*
X1652570Y796560D02*
X1665470D01*
X1659020Y790110D02*
Y803010D01*
X1652570Y671560D02*
X1665470D01*
X1659020Y665110D02*
Y678010D01*
X2141990Y608600D02*
X2154890D01*
X2148440Y602150D02*
Y615050D01*
X2141990Y483600D02*
X2154890D01*
X2148440Y477150D02*
Y490050D01*
X2091990Y608600D02*
X2104890D01*
X2098440Y602150D02*
Y615050D01*
X2091990Y483600D02*
X2104890D01*
X2098440Y477150D02*
Y490050D01*
X2141990Y796560D02*
X2154890D01*
X2148440Y790110D02*
Y803010D01*
X2141990Y671560D02*
X2154890D01*
X2148440Y665110D02*
Y678010D01*
X2091990Y796560D02*
X2104890D01*
X2098440Y790110D02*
Y803010D01*
X2091990Y671560D02*
X2104890D01*
X2098440Y665110D02*
Y678010D01*
X2151507Y969899D02*
X2161413D01*
X2156460Y964946D02*
Y974852D01*
X2151507Y919861D02*
X2161413D01*
X2156460Y914908D02*
Y924814D01*
X2141990Y427413D02*
X2154890D01*
X2148440Y420963D02*
Y433863D01*
X2141990Y302413D02*
X2154890D01*
X2148440Y295963D02*
Y308863D01*
X2091990Y427413D02*
X2104890D01*
X2098440Y420963D02*
Y433863D01*
X2091990Y302413D02*
X2104890D01*
X2098440Y295963D02*
Y308863D01*
X88510Y468630D02*
X96910D01*
X92710Y464430D02*
Y472830D01*
X106290Y468630D02*
X114690D01*
X110490Y464430D02*
Y472830D01*
X124070Y468630D02*
X132470D01*
X128270Y464430D02*
Y472830D01*
X308990Y118110D02*
X317990D01*
X313490Y113610D02*
Y122610D01*
X156990Y118110D02*
X165990D01*
X161490Y113610D02*
Y122610D01*
X1064514Y558800D02*
X1071626D01*
X1068070Y555244D02*
Y562356D01*
X2168970Y1196340D02*
X2176970D01*
X2172970Y1192340D02*
Y1200340D01*
X1950276Y1201166D02*
X1958276D01*
X1954276Y1197166D02*
Y1205166D01*
X1322361Y797279D02*
X1330361D01*
X1326361Y793279D02*
Y801279D01*
X1081088Y1136650D02*
X1089088D01*
X1085088Y1132650D02*
Y1140650D01*
X2203260Y238760D02*
X2211260D01*
X2207260Y234760D02*
Y242760D01*
X2202752Y211836D02*
X2210752D01*
X2206752Y207836D02*
Y215836D01*
X1570850Y703072D02*
X1578850D01*
X1574850Y699072D02*
Y707072D01*
X1594980Y484870D02*
X1602980D01*
X1598980Y480870D02*
Y488870D01*
X1616520Y404876D02*
X1624520D01*
X1620520Y400876D02*
Y408876D01*
X1103440Y883920D02*
X1111440D01*
X1107440Y879920D02*
Y887920D01*
X1595692Y1119378D02*
X1603692D01*
X1599692Y1115378D02*
Y1123378D01*
X1341692Y954278D02*
X1349692D01*
X1345692Y950278D02*
Y958278D01*
X1040019Y1139669D02*
X1048019D01*
X1044019Y1135669D02*
Y1143669D01*
X1853502Y965200D02*
X1861502D01*
X1857502Y961200D02*
Y969200D01*
X1876362Y633730D02*
X1884362D01*
X1880362Y629730D02*
Y637730D01*
X2156524Y995172D02*
X2164524D01*
X2160524Y991172D02*
Y999172D01*
X682308Y547116D02*
X690308D01*
X686308Y543116D02*
Y551116D01*
X1342962Y519938D02*
X1350962D01*
X1346962Y515938D02*
Y523938D01*
X1678750Y1081786D02*
X1686750D01*
X1682750Y1077786D02*
Y1085786D01*
M02*
