G04*
G04 #@! TF.GenerationSoftware,Altium Limited,Altium Designer,22.5.1 (42)*
G04*
G04 Layer_Color=2752767*
%FSLAX44Y44*%
%MOMM*%
G71*
G04*
G04 #@! TF.SameCoordinates,5869CC21-DB5A-444C-B007-87784FBE0E84*
G04*
G04*
G04 #@! TF.FilePolarity,Positive*
G04*
G01*
G75*
%ADD102C,0.0508*%
%ADD103C,0.0677*%
%ADD104C,0.0339*%
D102*
X94554Y1207154D02*
Y1206138D01*
X96586D01*
Y1207154D01*
X97602D01*
Y1209186D01*
X96586D01*
Y1210202D01*
X94554D01*
Y1209186D01*
X93538D01*
Y1207154D01*
X94554D01*
X114554D02*
Y1206138D01*
X116586D01*
Y1207154D01*
X117602D01*
Y1209186D01*
X116586D01*
Y1210202D01*
X114554D01*
Y1209186D01*
X113538D01*
Y1207154D01*
X114554D01*
X134554D02*
Y1206138D01*
X136586D01*
Y1207154D01*
X137602D01*
Y1209186D01*
X136586D01*
Y1210202D01*
X134554D01*
Y1209186D01*
X133538D01*
Y1207154D01*
X134554D01*
X94554Y1257154D02*
Y1256138D01*
X96586D01*
Y1257154D01*
X97602D01*
Y1259186D01*
X96586D01*
Y1260202D01*
X94554D01*
Y1259186D01*
X93538D01*
Y1257154D01*
X94554D01*
X114554D02*
Y1256138D01*
X116586D01*
Y1257154D01*
X117602D01*
Y1259186D01*
X116586D01*
Y1260202D01*
X114554D01*
Y1259186D01*
X113538D01*
Y1257154D01*
X114554D01*
X134554D02*
Y1256138D01*
X136586D01*
Y1257154D01*
X137602D01*
Y1259186D01*
X136586D01*
Y1260202D01*
X134554D01*
Y1259186D01*
X133538D01*
Y1257154D01*
X134554D01*
X1034288Y604520D02*
X1036320Y606552D01*
X1038352Y604520D01*
X1036320Y602488D01*
X1034288Y604520D01*
X1110488Y525120D02*
X1112520Y527152D01*
X1114552Y525120D01*
X1112520Y523088D01*
X1110488Y525120D01*
X1085088D02*
X1087120Y527152D01*
X1089152Y525120D01*
X1087120Y523088D01*
X1085088Y525120D01*
X1059688D02*
X1061720Y527152D01*
X1063752Y525120D01*
X1061720Y523088D01*
X1059688Y525120D01*
X1034288D02*
X1036320Y527152D01*
X1038352Y525120D01*
X1036320Y523088D01*
X1034288Y525120D01*
X1059688Y604520D02*
X1061720Y606552D01*
X1063752Y604520D01*
X1061720Y602488D01*
X1059688Y604520D01*
X1085088D02*
X1087120Y606552D01*
X1089152Y604520D01*
X1087120Y602488D01*
X1085088Y604520D01*
X1110488D02*
X1112520Y606552D01*
X1114552Y604520D01*
X1112520Y602488D01*
X1110488Y604520D01*
X1481018Y1557568D02*
X1482034Y1559600D01*
X1481018Y1561632D01*
X1483050Y1560616D01*
X1485082Y1561632D01*
X1484066Y1559600D01*
X1485082Y1557568D01*
X1483050Y1558584D01*
X1481018Y1557568D01*
X1482034Y1558584D02*
X1482542Y1559600D01*
X1482034Y1560616D01*
X1483050Y1560108D01*
X1484066Y1560616D01*
X1483558Y1559600D01*
X1484066Y1558584D01*
X1483050Y1559092D01*
X1482034Y1558584D01*
X138006Y1065528D02*
X134620D01*
Y1060450D01*
X138006D01*
X134620Y1062989D02*
X136313D01*
X138006Y875028D02*
X134620D01*
Y869950D01*
X138006D01*
X134620Y872489D02*
X136313D01*
X1833880Y887728D02*
Y882650D01*
X1836419D01*
X1837266Y883496D01*
Y886882D01*
X1836419Y887728D01*
X1833880D01*
X1808480D02*
Y882650D01*
X1811019D01*
X1811866Y883496D01*
Y886882D01*
X1811019Y887728D01*
X1808480D01*
X1783080D02*
Y882650D01*
X1785619D01*
X1786466Y883496D01*
Y886882D01*
X1785619Y887728D01*
X1783080D01*
X1757680D02*
Y882650D01*
X1760219D01*
X1761066Y883496D01*
Y886882D01*
X1760219Y887728D01*
X1757680D01*
X1732280D02*
Y882650D01*
X1734819D01*
X1735666Y883496D01*
Y886882D01*
X1734819Y887728D01*
X1732280D01*
X1706880D02*
Y882650D01*
X1709419D01*
X1710266Y883496D01*
Y886882D01*
X1709419Y887728D01*
X1706880D01*
X151920Y1357620D02*
Y1361005D01*
X153613Y1362698D01*
X155306Y1361005D01*
Y1357620D01*
Y1360159D01*
X151920D01*
X121920Y1404620D02*
Y1408006D01*
X123613Y1409698D01*
X125306Y1408006D01*
Y1404620D01*
Y1407159D01*
X121920D01*
X181920Y1409698D02*
Y1404620D01*
X184459D01*
X185305Y1405466D01*
Y1406313D01*
X184459Y1407159D01*
X181920D01*
X184459D01*
X185305Y1408006D01*
Y1408852D01*
X184459Y1409698D01*
X181920D01*
X2176018Y1242568D02*
X2177034D01*
X2178050Y1243584D01*
X2179066Y1242568D01*
X2180082D01*
Y1243584D01*
X2179066Y1244600D01*
X2180082Y1245616D01*
Y1246632D01*
X2179066D01*
X2178050Y1245616D01*
X2177034Y1246632D01*
X2176018D01*
Y1245616D01*
X2177034Y1244600D01*
X2176018Y1243584D01*
Y1242568D01*
X2177034Y1243584D02*
X2177542D01*
X2178050Y1244092D01*
X2178558Y1243584D01*
X2179066D01*
Y1244092D01*
X2178558Y1244600D01*
X2179066Y1245108D01*
Y1245616D01*
X2178558D01*
X2178050Y1245108D01*
X2177542Y1245616D01*
X2177034D01*
Y1245108D01*
X2177542Y1244600D01*
X2177034Y1244092D01*
Y1243584D01*
X1426018Y1242568D02*
X1427034D01*
X1428050Y1243584D01*
X1429066Y1242568D01*
X1430082D01*
Y1243584D01*
X1429066Y1244600D01*
X1430082Y1245616D01*
Y1246632D01*
X1429066D01*
X1428050Y1245616D01*
X1427034Y1246632D01*
X1426018D01*
Y1245616D01*
X1427034Y1244600D01*
X1426018Y1243584D01*
Y1242568D01*
X1427034Y1243584D02*
X1427542D01*
X1428050Y1244092D01*
X1428558Y1243584D01*
X1429066D01*
Y1244092D01*
X1428558Y1244600D01*
X1429066Y1245108D01*
Y1245616D01*
X1428558D01*
X1428050Y1245108D01*
X1427542Y1245616D01*
X1427034D01*
Y1245108D01*
X1427542Y1244600D01*
X1427034Y1244092D01*
Y1243584D01*
X2176018Y1552568D02*
X2177034D01*
X2178050Y1553584D01*
X2179066Y1552568D01*
X2180082D01*
Y1553584D01*
X2179066Y1554600D01*
X2180082Y1555616D01*
Y1556632D01*
X2179066D01*
X2178050Y1555616D01*
X2177034Y1556632D01*
X2176018D01*
Y1555616D01*
X2177034Y1554600D01*
X2176018Y1553584D01*
Y1552568D01*
X2177034Y1553584D02*
X2177542D01*
X2178050Y1554092D01*
X2178558Y1553584D01*
X2179066D01*
Y1554092D01*
X2178558Y1554600D01*
X2179066Y1555108D01*
Y1555616D01*
X2178558D01*
X2178050Y1555108D01*
X2177542Y1555616D01*
X2177034D01*
Y1555108D01*
X2177542Y1554600D01*
X2177034Y1554092D01*
Y1553584D01*
X1426018Y1552568D02*
X1427034D01*
X1428050Y1553584D01*
X1429066Y1552568D01*
X1430082D01*
Y1553584D01*
X1429066Y1554600D01*
X1430082Y1555616D01*
Y1556632D01*
X1429066D01*
X1428050Y1555616D01*
X1427034Y1556632D01*
X1426018D01*
Y1555616D01*
X1427034Y1554600D01*
X1426018Y1553584D01*
Y1552568D01*
X1427034Y1553584D02*
X1427542D01*
X1428050Y1554092D01*
X1428558Y1553584D01*
X1429066D01*
Y1554092D01*
X1428558Y1554600D01*
X1429066Y1555108D01*
Y1555616D01*
X1428558D01*
X1428050Y1555108D01*
X1427542Y1555616D01*
X1427034D01*
Y1555108D01*
X1427542Y1554600D01*
X1427034Y1554092D01*
Y1553584D01*
X1862018Y1557568D02*
X1863034Y1559600D01*
X1862018Y1561632D01*
X1864050Y1560616D01*
X1866082Y1561632D01*
X1865066Y1559600D01*
X1866082Y1557568D01*
X1864050Y1558584D01*
X1862018Y1557568D01*
X1863034Y1558584D02*
X1863542Y1559600D01*
X1863034Y1560616D01*
X1864050Y1560108D01*
X1865066Y1560616D01*
X1864558Y1559600D01*
X1865066Y1558584D01*
X1864050Y1559092D01*
X1863034Y1558584D01*
X1836618Y1557568D02*
X1837634Y1559600D01*
X1836618Y1561632D01*
X1838650Y1560616D01*
X1840682Y1561632D01*
X1839666Y1559600D01*
X1840682Y1557568D01*
X1838650Y1558584D01*
X1836618Y1557568D01*
X1837634Y1558584D02*
X1838142Y1559600D01*
X1837634Y1560616D01*
X1838650Y1560108D01*
X1839666Y1560616D01*
X1839158Y1559600D01*
X1839666Y1558584D01*
X1838650Y1559092D01*
X1837634Y1558584D01*
X1811218Y1557568D02*
X1812234Y1559600D01*
X1811218Y1561632D01*
X1813250Y1560616D01*
X1815282Y1561632D01*
X1814266Y1559600D01*
X1815282Y1557568D01*
X1813250Y1558584D01*
X1811218Y1557568D01*
X1812234Y1558584D02*
X1812742Y1559600D01*
X1812234Y1560616D01*
X1813250Y1560108D01*
X1814266Y1560616D01*
X1813758Y1559600D01*
X1814266Y1558584D01*
X1813250Y1559092D01*
X1812234Y1558584D01*
X1785818Y1557568D02*
X1786834Y1559600D01*
X1785818Y1561632D01*
X1787850Y1560616D01*
X1789882Y1561632D01*
X1788866Y1559600D01*
X1789882Y1557568D01*
X1787850Y1558584D01*
X1785818Y1557568D01*
X1786834Y1558584D02*
X1787342Y1559600D01*
X1786834Y1560616D01*
X1787850Y1560108D01*
X1788866Y1560616D01*
X1788358Y1559600D01*
X1788866Y1558584D01*
X1787850Y1559092D01*
X1786834Y1558584D01*
X1760418Y1557568D02*
X1761434Y1559600D01*
X1760418Y1561632D01*
X1762450Y1560616D01*
X1764482Y1561632D01*
X1763466Y1559600D01*
X1764482Y1557568D01*
X1762450Y1558584D01*
X1760418Y1557568D01*
X1761434Y1558584D02*
X1761942Y1559600D01*
X1761434Y1560616D01*
X1762450Y1560108D01*
X1763466Y1560616D01*
X1762958Y1559600D01*
X1763466Y1558584D01*
X1762450Y1559092D01*
X1761434Y1558584D01*
X1735018Y1557568D02*
X1736034Y1559600D01*
X1735018Y1561632D01*
X1737050Y1560616D01*
X1739082Y1561632D01*
X1738066Y1559600D01*
X1739082Y1557568D01*
X1737050Y1558584D01*
X1735018Y1557568D01*
X1736034Y1558584D02*
X1736542Y1559600D01*
X1736034Y1560616D01*
X1737050Y1560108D01*
X1738066Y1560616D01*
X1737558Y1559600D01*
X1738066Y1558584D01*
X1737050Y1559092D01*
X1736034Y1558584D01*
X1709618Y1557568D02*
X1710634Y1559600D01*
X1709618Y1561632D01*
X1711650Y1560616D01*
X1713682Y1561632D01*
X1712666Y1559600D01*
X1713682Y1557568D01*
X1711650Y1558584D01*
X1709618Y1557568D01*
X1710634Y1558584D02*
X1711142Y1559600D01*
X1710634Y1560616D01*
X1711650Y1560108D01*
X1712666Y1560616D01*
X1712158Y1559600D01*
X1712666Y1558584D01*
X1711650Y1559092D01*
X1710634Y1558584D01*
X1684218Y1557568D02*
X1685234Y1559600D01*
X1684218Y1561632D01*
X1686250Y1560616D01*
X1688282Y1561632D01*
X1687266Y1559600D01*
X1688282Y1557568D01*
X1686250Y1558584D01*
X1684218Y1557568D01*
X1685234Y1558584D02*
X1685742Y1559600D01*
X1685234Y1560616D01*
X1686250Y1560108D01*
X1687266Y1560616D01*
X1686758Y1559600D01*
X1687266Y1558584D01*
X1686250Y1559092D01*
X1685234Y1558584D01*
X1658818Y1557568D02*
X1659834Y1559600D01*
X1658818Y1561632D01*
X1660850Y1560616D01*
X1662882Y1561632D01*
X1661866Y1559600D01*
X1662882Y1557568D01*
X1660850Y1558584D01*
X1658818Y1557568D01*
X1659834Y1558584D02*
X1660342Y1559600D01*
X1659834Y1560616D01*
X1660850Y1560108D01*
X1661866Y1560616D01*
X1661358Y1559600D01*
X1661866Y1558584D01*
X1660850Y1559092D01*
X1659834Y1558584D01*
X1633418Y1557568D02*
X1634434Y1559600D01*
X1633418Y1561632D01*
X1635450Y1560616D01*
X1637482Y1561632D01*
X1636466Y1559600D01*
X1637482Y1557568D01*
X1635450Y1558584D01*
X1633418Y1557568D01*
X1634434Y1558584D02*
X1634942Y1559600D01*
X1634434Y1560616D01*
X1635450Y1560108D01*
X1636466Y1560616D01*
X1635958Y1559600D01*
X1636466Y1558584D01*
X1635450Y1559092D01*
X1634434Y1558584D01*
X1608018Y1557568D02*
X1609034Y1559600D01*
X1608018Y1561632D01*
X1610050Y1560616D01*
X1612082Y1561632D01*
X1611066Y1559600D01*
X1612082Y1557568D01*
X1610050Y1558584D01*
X1608018Y1557568D01*
X1609034Y1558584D02*
X1609542Y1559600D01*
X1609034Y1560616D01*
X1610050Y1560108D01*
X1611066Y1560616D01*
X1610558Y1559600D01*
X1611066Y1558584D01*
X1610050Y1559092D01*
X1609034Y1558584D01*
X1582618Y1557568D02*
X1583634Y1559600D01*
X1582618Y1561632D01*
X1584650Y1560616D01*
X1586682Y1561632D01*
X1585666Y1559600D01*
X1586682Y1557568D01*
X1584650Y1558584D01*
X1582618Y1557568D01*
X1583634Y1558584D02*
X1584142Y1559600D01*
X1583634Y1560616D01*
X1584650Y1560108D01*
X1585666Y1560616D01*
X1585158Y1559600D01*
X1585666Y1558584D01*
X1584650Y1559092D01*
X1583634Y1558584D01*
X1557218Y1557568D02*
X1558234Y1559600D01*
X1557218Y1561632D01*
X1559250Y1560616D01*
X1561282Y1561632D01*
X1560266Y1559600D01*
X1561282Y1557568D01*
X1559250Y1558584D01*
X1557218Y1557568D01*
X1558234Y1558584D02*
X1558742Y1559600D01*
X1558234Y1560616D01*
X1559250Y1560108D01*
X1560266Y1560616D01*
X1559758Y1559600D01*
X1560266Y1558584D01*
X1559250Y1559092D01*
X1558234Y1558584D01*
X1531818Y1557568D02*
X1532834Y1559600D01*
X1531818Y1561632D01*
X1533850Y1560616D01*
X1535882Y1561632D01*
X1534866Y1559600D01*
X1535882Y1557568D01*
X1533850Y1558584D01*
X1531818Y1557568D01*
X1532834Y1558584D02*
X1533342Y1559600D01*
X1532834Y1560616D01*
X1533850Y1560108D01*
X1534866Y1560616D01*
X1534358Y1559600D01*
X1534866Y1558584D01*
X1533850Y1559092D01*
X1532834Y1558584D01*
X1506418Y1557568D02*
X1507434Y1559600D01*
X1506418Y1561632D01*
X1508450Y1560616D01*
X1510482Y1561632D01*
X1509466Y1559600D01*
X1510482Y1557568D01*
X1508450Y1558584D01*
X1506418Y1557568D01*
X1507434Y1558584D02*
X1507942Y1559600D01*
X1507434Y1560616D01*
X1508450Y1560108D01*
X1509466Y1560616D01*
X1508958Y1559600D01*
X1509466Y1558584D01*
X1508450Y1559092D01*
X1507434Y1558584D01*
X1320038Y1577848D02*
X1321054Y1579880D01*
X1320038Y1581912D01*
X1322070Y1580896D01*
X1324102Y1581912D01*
X1323086Y1579880D01*
X1324102Y1577848D01*
X1322070Y1578864D01*
X1320038Y1577848D01*
X1321054Y1578864D02*
X1321562Y1579880D01*
X1321054Y1580896D01*
X1322070Y1580388D01*
X1323086Y1580896D01*
X1322578Y1579880D01*
X1323086Y1578864D01*
X1322070Y1579372D01*
X1321054Y1578864D01*
X1320038Y1552448D02*
X1321054Y1554480D01*
X1320038Y1556512D01*
X1322070Y1555496D01*
X1324102Y1556512D01*
X1323086Y1554480D01*
X1324102Y1552448D01*
X1322070Y1553464D01*
X1320038Y1552448D01*
X1321054Y1553464D02*
X1321562Y1554480D01*
X1321054Y1555496D01*
X1322070Y1554988D01*
X1323086Y1555496D01*
X1322578Y1554480D01*
X1323086Y1553464D01*
X1322070Y1553972D01*
X1321054Y1553464D01*
X159458Y385318D02*
X160474Y387350D01*
X159458Y389382D01*
X161490Y388366D01*
X163522Y389382D01*
X162506Y387350D01*
X163522Y385318D01*
X161490Y386334D01*
X159458Y385318D01*
X311458D02*
X312474Y387350D01*
X311458Y389382D01*
X313490Y388366D01*
X315522Y389382D01*
X314506Y387350D01*
X315522Y385318D01*
X313490Y386334D01*
X311458Y385318D01*
X93980Y156718D02*
X94996Y157734D01*
X96012D01*
X94996Y158750D01*
X96012Y159766D01*
X94996D01*
X93980Y160782D01*
X92964Y159766D01*
X91948D01*
X92964Y158750D01*
X91948Y157734D01*
X92964D01*
X93980Y156718D01*
X111760D02*
X112776Y157734D01*
X113792D01*
X112776Y158750D01*
X113792Y159766D01*
X112776D01*
X111760Y160782D01*
X110744Y159766D01*
X109728D01*
X110744Y158750D01*
X109728Y157734D01*
X110744D01*
X111760Y156718D01*
X129540D02*
X130556Y157734D01*
X131572D01*
X130556Y158750D01*
X131572Y159766D01*
X130556D01*
X129540Y160782D01*
X128524Y159766D01*
X127508D01*
X128524Y158750D01*
X127508Y157734D01*
X128524D01*
X129540Y156718D01*
X342138Y183388D02*
X343154Y185420D01*
X342138Y187452D01*
X344170Y186436D01*
X346202Y187452D01*
X345186Y185420D01*
X346202Y183388D01*
X344170Y184404D01*
X342138Y183388D01*
X343154Y184404D02*
X343662Y185420D01*
X343154Y186436D01*
X344170Y185928D01*
X345186Y186436D01*
X344678Y185420D01*
X345186Y184404D01*
X344170Y184912D01*
X343154Y184404D01*
X291338Y183388D02*
X292354Y185420D01*
X291338Y187452D01*
X293370Y186436D01*
X295402Y187452D01*
X294386Y185420D01*
X295402Y183388D01*
X293370Y184404D01*
X291338Y183388D01*
X292354Y184404D02*
X292862Y185420D01*
X292354Y186436D01*
X293370Y185928D01*
X294386Y186436D01*
X293878Y185420D01*
X294386Y184404D01*
X293370Y184912D01*
X292354Y184404D01*
X240538Y183388D02*
X241554Y185420D01*
X240538Y187452D01*
X242570Y186436D01*
X244602Y187452D01*
X243586Y185420D01*
X244602Y183388D01*
X242570Y184404D01*
X240538Y183388D01*
X241554Y184404D02*
X242062Y185420D01*
X241554Y186436D01*
X242570Y185928D01*
X243586Y186436D01*
X243078Y185420D01*
X243586Y184404D01*
X242570Y184912D01*
X241554Y184404D01*
X164338Y183388D02*
X165354Y185420D01*
X164338Y187452D01*
X166370Y186436D01*
X168402Y187452D01*
X167386Y185420D01*
X168402Y183388D01*
X166370Y184404D01*
X164338Y183388D01*
X165354Y184404D02*
X165862Y185420D01*
X165354Y186436D01*
X166370Y185928D01*
X167386Y186436D01*
X166878Y185420D01*
X167386Y184404D01*
X166370Y184912D01*
X165354Y184404D01*
X164338Y259588D02*
X165354Y261620D01*
X164338Y263652D01*
X166370Y262636D01*
X168402Y263652D01*
X167386Y261620D01*
X168402Y259588D01*
X166370Y260604D01*
X164338Y259588D01*
X165354Y260604D02*
X165862Y261620D01*
X165354Y262636D01*
X166370Y262128D01*
X167386Y262636D01*
X166878Y261620D01*
X167386Y260604D01*
X166370Y261112D01*
X165354Y260604D01*
X240538Y259588D02*
X241554Y261620D01*
X240538Y263652D01*
X242570Y262636D01*
X244602Y263652D01*
X243586Y261620D01*
X244602Y259588D01*
X242570Y260604D01*
X240538Y259588D01*
X241554Y260604D02*
X242062Y261620D01*
X241554Y262636D01*
X242570Y262128D01*
X243586Y262636D01*
X243078Y261620D01*
X243586Y260604D01*
X242570Y261112D01*
X241554Y260604D01*
X291338Y259588D02*
X292354Y261620D01*
X291338Y263652D01*
X293370Y262636D01*
X295402Y263652D01*
X294386Y261620D01*
X295402Y259588D01*
X293370Y260604D01*
X291338Y259588D01*
X292354Y260604D02*
X292862Y261620D01*
X292354Y262636D01*
X293370Y262128D01*
X294386Y262636D01*
X293878Y261620D01*
X294386Y260604D01*
X293370Y261112D01*
X292354Y260604D01*
X342138Y259588D02*
X343154Y261620D01*
X342138Y263652D01*
X344170Y262636D01*
X346202Y263652D01*
X345186Y261620D01*
X346202Y259588D01*
X344170Y260604D01*
X342138Y259588D01*
X343154Y260604D02*
X343662Y261620D01*
X343154Y262636D01*
X344170Y262128D01*
X345186Y262636D01*
X344678Y261620D01*
X345186Y260604D01*
X344170Y261112D01*
X343154Y260604D01*
X936498Y1511808D02*
X937514Y1513840D01*
X936498Y1515872D01*
X938530Y1514856D01*
X940562Y1515872D01*
X939546Y1513840D01*
X940562Y1511808D01*
X938530Y1512824D01*
X936498Y1511808D01*
Y1591808D02*
X937514Y1593840D01*
X936498Y1595872D01*
X938530Y1594856D01*
X940562Y1595872D01*
X939546Y1593840D01*
X940562Y1591808D01*
X938530Y1592824D01*
X936498Y1591808D01*
X1064260Y1543558D02*
X1065276Y1544574D01*
X1066292D01*
X1065276Y1545590D01*
X1066292Y1546606D01*
X1065276D01*
X1064260Y1547622D01*
X1063244Y1546606D01*
X1062228D01*
X1063244Y1545590D01*
X1062228Y1544574D01*
X1063244D01*
X1064260Y1543558D01*
Y1525778D02*
X1065276Y1526794D01*
X1066292D01*
X1065276Y1527810D01*
X1066292Y1528826D01*
X1065276D01*
X1064260Y1529842D01*
X1063244Y1528826D01*
X1062228D01*
X1063244Y1527810D01*
X1062228Y1526794D01*
X1063244D01*
X1064260Y1525778D01*
Y1507998D02*
X1065276Y1509014D01*
X1066292D01*
X1065276Y1510030D01*
X1066292Y1511046D01*
X1065276D01*
X1064260Y1512062D01*
X1063244Y1511046D01*
X1062228D01*
X1063244Y1510030D01*
X1062228Y1509014D01*
X1063244D01*
X1064260Y1507998D01*
X287728Y949198D02*
X288744Y951230D01*
X287728Y953262D01*
X289760Y952246D01*
X291792Y953262D01*
X290776Y951230D01*
X291792Y949198D01*
X289760Y950214D01*
X287728Y949198D01*
X439728D02*
X440744Y951230D01*
X439728Y953262D01*
X441760Y952246D01*
X443792Y953262D01*
X442776Y951230D01*
X443792Y949198D01*
X441760Y950214D01*
X439728Y949198D01*
X659238D02*
X660254Y951230D01*
X659238Y953262D01*
X661270Y952246D01*
X663302Y953262D01*
X662286Y951230D01*
X663302Y949198D01*
X661270Y950214D01*
X659238Y949198D01*
X507238D02*
X508254Y951230D01*
X507238Y953262D01*
X509270Y952246D01*
X511302Y953262D01*
X510286Y951230D01*
X511302Y949198D01*
X509270Y950214D01*
X507238Y949198D01*
X1175258Y65478D02*
X1176274Y67510D01*
X1175258Y69542D01*
X1177290Y68526D01*
X1179322Y69542D01*
X1178306Y67510D01*
X1179322Y65478D01*
X1177290Y66494D01*
X1175258Y65478D01*
Y217478D02*
X1176274Y219510D01*
X1175258Y221542D01*
X1177290Y220526D01*
X1179322Y221542D01*
X1178306Y219510D01*
X1179322Y217478D01*
X1177290Y218494D01*
X1175258Y217478D01*
X1126798Y212598D02*
X1127814Y214630D01*
X1126798Y216662D01*
X1128830Y215646D01*
X1130862Y216662D01*
X1129846Y214630D01*
X1130862Y212598D01*
X1128830Y213614D01*
X1126798Y212598D01*
X974798D02*
X975814Y214630D01*
X974798Y216662D01*
X976830Y215646D01*
X978862Y216662D01*
X977846Y214630D01*
X978862Y212598D01*
X976830Y213614D01*
X974798Y212598D01*
X936298Y135128D02*
X937314Y137160D01*
X936298Y139192D01*
X938330Y138176D01*
X940362Y139192D01*
X939346Y137160D01*
X940362Y135128D01*
X938330Y136144D01*
X936298Y135128D01*
X784298D02*
X785314Y137160D01*
X784298Y139192D01*
X786330Y138176D01*
X788362Y139192D01*
X787346Y137160D01*
X788362Y135128D01*
X786330Y136144D01*
X784298Y135128D01*
X936298Y66548D02*
X937314Y68580D01*
X936298Y70612D01*
X938330Y69596D01*
X940362Y70612D01*
X939346Y68580D01*
X940362Y66548D01*
X938330Y67564D01*
X936298Y66548D01*
X784298D02*
X785314Y68580D01*
X784298Y70612D01*
X786330Y69596D01*
X788362Y70612D01*
X787346Y68580D01*
X788362Y66548D01*
X786330Y67564D01*
X784298Y66548D01*
X936298Y211328D02*
X937314Y213360D01*
X936298Y215392D01*
X938330Y214376D01*
X940362Y215392D01*
X939346Y213360D01*
X940362Y211328D01*
X938330Y212344D01*
X936298Y211328D01*
X784298D02*
X785314Y213360D01*
X784298Y215392D01*
X786330Y214376D01*
X788362Y215392D01*
X787346Y213360D01*
X788362Y211328D01*
X786330Y212344D01*
X784298Y211328D01*
X1336310Y121158D02*
X1334278Y125222D01*
X1338342D01*
X1336310Y121158D01*
X1439910D02*
X1437878Y125222D01*
X1441942D01*
X1439910Y121158D01*
X1349248Y306400D02*
X1351280Y308432D01*
X1353312Y306400D01*
X1351280Y304368D01*
X1349248Y306400D01*
X1374648D02*
X1376680Y308432D01*
X1378712Y306400D01*
X1376680Y304368D01*
X1374648Y306400D01*
X1400048D02*
X1402080Y308432D01*
X1404112Y306400D01*
X1402080Y304368D01*
X1400048Y306400D01*
X1425448D02*
X1427480Y308432D01*
X1429512Y306400D01*
X1427480Y304368D01*
X1425448Y306400D01*
X1450848D02*
X1452880Y308432D01*
X1454912Y306400D01*
X1452880Y304368D01*
X1450848Y306400D01*
X1476248D02*
X1478280Y308432D01*
X1480312Y306400D01*
X1478280Y304368D01*
X1476248Y306400D01*
X1501648D02*
X1503680Y308432D01*
X1505712Y306400D01*
X1503680Y304368D01*
X1501648Y306400D01*
X1527048D02*
X1529080Y308432D01*
X1531112Y306400D01*
X1529080Y304368D01*
X1527048Y306400D01*
Y227000D02*
X1529080Y229032D01*
X1531112Y227000D01*
X1529080Y224968D01*
X1527048Y227000D01*
X1501648D02*
X1503680Y229032D01*
X1505712Y227000D01*
X1503680Y224968D01*
X1501648Y227000D01*
X1476248D02*
X1478280Y229032D01*
X1480312Y227000D01*
X1478280Y224968D01*
X1476248Y227000D01*
X1450848D02*
X1452880Y229032D01*
X1454912Y227000D01*
X1452880Y224968D01*
X1450848Y227000D01*
X1425448D02*
X1427480Y229032D01*
X1429512Y227000D01*
X1427480Y224968D01*
X1425448Y227000D01*
X1400048D02*
X1402080Y229032D01*
X1404112Y227000D01*
X1402080Y224968D01*
X1400048Y227000D01*
X1374648D02*
X1376680Y229032D01*
X1378712Y227000D01*
X1376680Y224968D01*
X1374648Y227000D01*
X1349248D02*
X1351280Y229032D01*
X1353312Y227000D01*
X1351280Y224968D01*
X1349248Y227000D01*
X951538Y687578D02*
X952554Y689610D01*
X951538Y691642D01*
X953570Y690626D01*
X955602Y691642D01*
X954586Y689610D01*
X955602Y687578D01*
X953570Y688594D01*
X951538Y687578D01*
X799538D02*
X800554Y689610D01*
X799538Y691642D01*
X801570Y690626D01*
X803602Y691642D01*
X802586Y689610D01*
X803602Y687578D01*
X801570Y688594D01*
X799538Y687578D01*
X951538Y605028D02*
X952554Y607060D01*
X951538Y609092D01*
X953570Y608076D01*
X955602Y609092D01*
X954586Y607060D01*
X955602Y605028D01*
X953570Y606044D01*
X951538Y605028D01*
X799538D02*
X800554Y607060D01*
X799538Y609092D01*
X801570Y608076D01*
X803602Y609092D01*
X802586Y607060D01*
X803602Y605028D01*
X801570Y606044D01*
X799538Y605028D01*
X1185418Y486048D02*
X1186434Y488080D01*
X1185418Y490112D01*
X1187450Y489096D01*
X1189482Y490112D01*
X1188466Y488080D01*
X1189482Y486048D01*
X1187450Y487064D01*
X1185418Y486048D01*
Y638048D02*
X1186434Y640080D01*
X1185418Y642112D01*
X1187450Y641096D01*
X1189482Y642112D01*
X1188466Y640080D01*
X1189482Y638048D01*
X1187450Y639064D01*
X1185418Y638048D01*
X1153268Y688848D02*
X1154284Y690880D01*
X1153268Y692912D01*
X1155300Y691896D01*
X1157332Y692912D01*
X1156316Y690880D01*
X1157332Y688848D01*
X1155300Y689864D01*
X1153268Y688848D01*
X1001268D02*
X1002284Y690880D01*
X1001268Y692912D01*
X1003300Y691896D01*
X1005332Y692912D01*
X1004316Y690880D01*
X1005332Y688848D01*
X1003300Y689864D01*
X1001268Y688848D01*
X1288288Y233118D02*
X1289304Y235150D01*
X1288288Y237182D01*
X1290320Y236166D01*
X1292352Y237182D01*
X1291336Y235150D01*
X1292352Y233118D01*
X1290320Y234134D01*
X1288288Y233118D01*
Y385118D02*
X1289304Y387150D01*
X1288288Y389182D01*
X1290320Y388166D01*
X1292352Y389182D01*
X1291336Y387150D01*
X1292352Y385118D01*
X1290320Y386134D01*
X1288288Y385118D01*
Y597208D02*
X1289304Y599240D01*
X1288288Y601272D01*
X1290320Y600256D01*
X1292352Y601272D01*
X1291336Y599240D01*
X1292352Y597208D01*
X1290320Y598224D01*
X1288288Y597208D01*
Y445208D02*
X1289304Y447240D01*
X1288288Y449272D01*
X1290320Y448256D01*
X1292352Y449272D01*
X1291336Y447240D01*
X1292352Y445208D01*
X1290320Y446224D01*
X1288288Y445208D01*
X902208Y368300D02*
X904240Y370332D01*
X906272Y368300D01*
X904240Y366268D01*
X902208Y368300D01*
X876808D02*
X878840Y370332D01*
X880872Y368300D01*
X878840Y366268D01*
X876808Y368300D01*
X851408D02*
X853440Y370332D01*
X855472Y368300D01*
X853440Y366268D01*
X851408Y368300D01*
X826008Y288900D02*
X828040Y290932D01*
X830072Y288900D01*
X828040Y286868D01*
X826008Y288900D01*
X851408D02*
X853440Y290932D01*
X855472Y288900D01*
X853440Y286868D01*
X851408Y288900D01*
X876808D02*
X878840Y290932D01*
X880872Y288900D01*
X878840Y286868D01*
X876808Y288900D01*
X902208D02*
X904240Y290932D01*
X906272Y288900D01*
X904240Y286868D01*
X902208Y288900D01*
X826008Y368300D02*
X828040Y370332D01*
X830072Y368300D01*
X828040Y366268D01*
X826008Y368300D01*
X715518Y382578D02*
X716534Y384610D01*
X715518Y386642D01*
X717550Y385626D01*
X719582Y386642D01*
X718566Y384610D01*
X719582Y382578D01*
X717550Y383594D01*
X715518Y382578D01*
Y230578D02*
X716534Y232610D01*
X715518Y234642D01*
X717550Y233626D01*
X719582Y234642D01*
X718566Y232610D01*
X719582Y230578D01*
X717550Y231594D01*
X715518Y230578D01*
X1110488Y140970D02*
X1112520Y143002D01*
X1114552Y140970D01*
X1112520Y138938D01*
X1110488Y140970D01*
X1085088D02*
X1087120Y143002D01*
X1089152Y140970D01*
X1087120Y138938D01*
X1085088Y140970D01*
X1059688D02*
X1061720Y143002D01*
X1063752Y140970D01*
X1061720Y138938D01*
X1059688Y140970D01*
X1034288Y61570D02*
X1036320Y63602D01*
X1038352Y61570D01*
X1036320Y59538D01*
X1034288Y61570D01*
X1059688D02*
X1061720Y63602D01*
X1063752Y61570D01*
X1061720Y59538D01*
X1059688Y61570D01*
X1085088D02*
X1087120Y63602D01*
X1089152Y61570D01*
X1087120Y59538D01*
X1085088Y61570D01*
X1110488D02*
X1112520Y63602D01*
X1114552Y61570D01*
X1112520Y59538D01*
X1110488Y61570D01*
X1034288Y140970D02*
X1036320Y143002D01*
X1038352Y140970D01*
X1036320Y138938D01*
X1034288Y140970D01*
X951538Y522478D02*
X952554Y524510D01*
X951538Y526542D01*
X953570Y525526D01*
X955602Y526542D01*
X954586Y524510D01*
X955602Y522478D01*
X953570Y523494D01*
X951538Y522478D01*
X799538D02*
X800554Y524510D01*
X799538Y526542D01*
X801570Y525526D01*
X803602Y526542D01*
X802586Y524510D01*
X803602Y522478D01*
X801570Y523494D01*
X799538Y522478D01*
X951538Y432308D02*
X952554Y434340D01*
X951538Y436372D01*
X953570Y435356D01*
X955602Y436372D01*
X954586Y434340D01*
X955602Y432308D01*
X953570Y433324D01*
X951538Y432308D01*
X799538D02*
X800554Y434340D01*
X799538Y436372D01*
X801570Y435356D01*
X803602Y436372D01*
X802586Y434340D01*
X803602Y432308D01*
X801570Y433324D01*
X799538Y432308D01*
X1180338Y281378D02*
X1181354Y283410D01*
X1180338Y285442D01*
X1182370Y284426D01*
X1184402Y285442D01*
X1183386Y283410D01*
X1184402Y281378D01*
X1182370Y282394D01*
X1180338Y281378D01*
Y433378D02*
X1181354Y435410D01*
X1180338Y437442D01*
X1182370Y436426D01*
X1184402Y437442D01*
X1183386Y435410D01*
X1184402Y433378D01*
X1182370Y434394D01*
X1180338Y433378D01*
X1102868Y434648D02*
X1103884Y436680D01*
X1102868Y438712D01*
X1104900Y437696D01*
X1106932Y438712D01*
X1105916Y436680D01*
X1106932Y434648D01*
X1104900Y435664D01*
X1102868Y434648D01*
Y282648D02*
X1103884Y284680D01*
X1102868Y286712D01*
X1104900Y285696D01*
X1106932Y286712D01*
X1105916Y284680D01*
X1106932Y282648D01*
X1104900Y283664D01*
X1102868Y282648D01*
X1025398D02*
X1026414Y284680D01*
X1025398Y286712D01*
X1027430Y285696D01*
X1029462Y286712D01*
X1028446Y284680D01*
X1029462Y282648D01*
X1027430Y283664D01*
X1025398Y282648D01*
Y434648D02*
X1026414Y436680D01*
X1025398Y438712D01*
X1027430Y437696D01*
X1029462Y438712D01*
X1028446Y436680D01*
X1029462Y434648D01*
X1027430Y435664D01*
X1025398Y434648D01*
X1556750Y662178D02*
X1554718Y666242D01*
X1558782D01*
X1556750Y662178D01*
X1453150D02*
X1451118Y666242D01*
X1455182D01*
X1453150Y662178D01*
X1495898Y122428D02*
Y126492D01*
X1499962D01*
Y122428D01*
X1495898D01*
X1496914Y123444D02*
Y125476D01*
X1498946D01*
Y123444D01*
X1496914D01*
X1570898Y122428D02*
Y126492D01*
X1574962D01*
Y122428D01*
X1570898D01*
X1571914Y123444D02*
Y125476D01*
X1573946D01*
Y123444D01*
X1571914D01*
X1441450Y578358D02*
X1439418Y582422D01*
X1443482D01*
X1441450Y578358D01*
Y579374D02*
X1440434Y581406D01*
X1442466D01*
X1441450Y579374D01*
X1517650Y578358D02*
X1515618Y582422D01*
X1519682D01*
X1517650Y578358D01*
Y579374D02*
X1516634Y581406D01*
X1518666D01*
X1517650Y579374D01*
X1492250Y578358D02*
X1490218Y582422D01*
X1494282D01*
X1492250Y578358D01*
Y579374D02*
X1491234Y581406D01*
X1493266D01*
X1492250Y579374D01*
X1466850Y578358D02*
X1464818Y582422D01*
X1468882D01*
X1466850Y578358D01*
Y579374D02*
X1465834Y581406D01*
X1467866D01*
X1466850Y579374D01*
X1416050Y578358D02*
X1414018Y582422D01*
X1418082D01*
X1416050Y578358D01*
Y579374D02*
X1415034Y581406D01*
X1417066D01*
X1416050Y579374D01*
X1390650Y578358D02*
X1388618Y582422D01*
X1392682D01*
X1390650Y578358D01*
Y579374D02*
X1389634Y581406D01*
X1391666D01*
X1390650Y579374D01*
X1365250Y578358D02*
X1363218Y582422D01*
X1367282D01*
X1365250Y578358D01*
Y579374D02*
X1364234Y581406D01*
X1366266D01*
X1365250Y579374D01*
Y498958D02*
X1363218Y503022D01*
X1367282D01*
X1365250Y498958D01*
Y499974D02*
X1364234Y502006D01*
X1366266D01*
X1365250Y499974D01*
X1390650Y498958D02*
X1388618Y503022D01*
X1392682D01*
X1390650Y498958D01*
Y499974D02*
X1389634Y502006D01*
X1391666D01*
X1390650Y499974D01*
X1416050Y498958D02*
X1414018Y503022D01*
X1418082D01*
X1416050Y498958D01*
Y499974D02*
X1415034Y502006D01*
X1417066D01*
X1416050Y499974D01*
X1441450Y498958D02*
X1439418Y503022D01*
X1443482D01*
X1441450Y498958D01*
Y499974D02*
X1440434Y502006D01*
X1442466D01*
X1441450Y499974D01*
X1466850Y498958D02*
X1464818Y503022D01*
X1468882D01*
X1466850Y498958D01*
Y499974D02*
X1465834Y502006D01*
X1467866D01*
X1466850Y499974D01*
X1492250Y498958D02*
X1490218Y503022D01*
X1494282D01*
X1492250Y498958D01*
Y499974D02*
X1491234Y502006D01*
X1493266D01*
X1492250Y499974D01*
X1517650Y498958D02*
X1515618Y503022D01*
X1519682D01*
X1517650Y498958D01*
Y499974D02*
X1516634Y502006D01*
X1518666D01*
X1517650Y499974D01*
X1517958Y404368D02*
X1518974Y406400D01*
X1517958Y408432D01*
X1519990Y407416D01*
X1522022Y408432D01*
X1521006Y406400D01*
X1522022Y404368D01*
X1519990Y405384D01*
X1517958Y404368D01*
X1365958D02*
X1366974Y406400D01*
X1365958Y408432D01*
X1367990Y407416D01*
X1370022Y408432D01*
X1369006Y406400D01*
X1370022Y404368D01*
X1367990Y405384D01*
X1365958Y404368D01*
X442468Y663880D02*
X444500Y665912D01*
X446532Y663880D01*
X444500Y661848D01*
X442468Y663880D01*
X467868D02*
X469900Y665912D01*
X471932Y663880D01*
X469900Y661848D01*
X467868Y663880D01*
X493268D02*
X495300Y665912D01*
X497332Y663880D01*
X495300Y661848D01*
X493268Y663880D01*
X518668D02*
X520700Y665912D01*
X522732Y663880D01*
X520700Y661848D01*
X518668Y663880D01*
X544068D02*
X546100Y665912D01*
X548132Y663880D01*
X546100Y661848D01*
X544068Y663880D01*
X569468D02*
X571500Y665912D01*
X573532Y663880D01*
X571500Y661848D01*
X569468Y663880D01*
X594868D02*
X596900Y665912D01*
X598932Y663880D01*
X596900Y661848D01*
X594868Y663880D01*
X620268D02*
X622300Y665912D01*
X624332Y663880D01*
X622300Y661848D01*
X620268Y663880D01*
Y743280D02*
X622300Y745312D01*
X624332Y743280D01*
X622300Y741248D01*
X620268Y743280D01*
X594868D02*
X596900Y745312D01*
X598932Y743280D01*
X596900Y741248D01*
X594868Y743280D01*
X569468D02*
X571500Y745312D01*
X573532Y743280D01*
X571500Y741248D01*
X569468Y743280D01*
X544068D02*
X546100Y745312D01*
X548132Y743280D01*
X546100Y741248D01*
X544068Y743280D01*
X518668D02*
X520700Y745312D01*
X522732Y743280D01*
X520700Y741248D01*
X518668Y743280D01*
X493268D02*
X495300Y745312D01*
X497332Y743280D01*
X495300Y741248D01*
X493268Y743280D01*
X467868D02*
X469900Y745312D01*
X471932Y743280D01*
X469900Y741248D01*
X467868Y743280D01*
X442468D02*
X444500Y745312D01*
X446532Y743280D01*
X444500Y741248D01*
X442468Y743280D01*
X620185Y484977D02*
X621201Y487009D01*
X620185Y489041D01*
X622217Y488025D01*
X624249Y489041D01*
X623233Y487009D01*
X624249Y484977D01*
X622217Y485993D01*
X620185Y484977D01*
X468186D02*
X469202Y487009D01*
X468186Y489041D01*
X470218Y488025D01*
X472249Y489041D01*
X471233Y487009D01*
X472249Y484977D01*
X470218Y485993D01*
X468186Y484977D01*
X493385Y175298D02*
X494401Y177330D01*
X493385Y179362D01*
X495417Y178346D01*
X497449Y179362D01*
X496433Y177330D01*
X497449Y175298D01*
X495417Y176314D01*
X493385Y175298D01*
Y327297D02*
X494401Y329329D01*
X493385Y331361D01*
X495417Y330345D01*
X497449Y331361D01*
X496433Y329329D01*
X497449Y327297D01*
X495417Y328313D01*
X493385Y327297D01*
X468186Y399887D02*
X469202Y401919D01*
X468186Y403951D01*
X470218Y402935D01*
X472249Y403951D01*
X471233Y401919D01*
X472249Y399887D01*
X470218Y400903D01*
X468186Y399887D01*
X620185D02*
X621201Y401919D01*
X620185Y403951D01*
X622217Y402935D01*
X624249Y403951D01*
X623233Y401919D01*
X624249Y399887D01*
X622217Y400903D01*
X620185Y399887D01*
X592445Y328567D02*
X593461Y330599D01*
X592445Y332631D01*
X594477Y331615D01*
X596509Y332631D01*
X595493Y330599D01*
X596509Y328567D01*
X594477Y329583D01*
X592445Y328567D01*
Y176568D02*
X593461Y178600D01*
X592445Y180632D01*
X594477Y179616D01*
X596509Y180632D01*
X595493Y178600D01*
X596509Y176568D01*
X594477Y177584D01*
X592445Y176568D01*
X1296108Y916178D02*
X1297124Y918210D01*
X1296108Y920242D01*
X1298140Y919226D01*
X1300172Y920242D01*
X1299156Y918210D01*
X1300172Y916178D01*
X1298140Y917194D01*
X1296108Y916178D01*
X1448108D02*
X1449124Y918210D01*
X1448108Y920242D01*
X1450140Y919226D01*
X1452172Y920242D01*
X1451156Y918210D01*
X1452172Y916178D01*
X1450140Y917194D01*
X1448108Y916178D01*
X1296108Y983805D02*
X1297124Y985837D01*
X1296108Y987869D01*
X1298140Y986853D01*
X1300172Y987869D01*
X1299156Y985837D01*
X1300172Y983805D01*
X1298140Y984821D01*
X1296108Y983805D01*
X1448108D02*
X1449124Y985837D01*
X1448108Y987869D01*
X1450140Y986853D01*
X1452172Y987869D01*
X1451156Y985837D01*
X1452172Y983805D01*
X1450140Y984821D01*
X1448108Y983805D01*
X1296108Y1051433D02*
X1297124Y1053465D01*
X1296108Y1055497D01*
X1298140Y1054481D01*
X1300172Y1055497D01*
X1299156Y1053465D01*
X1300172Y1051433D01*
X1298140Y1052449D01*
X1296108Y1051433D01*
X1448108D02*
X1449124Y1053465D01*
X1448108Y1055497D01*
X1450140Y1054481D01*
X1452172Y1055497D01*
X1451156Y1053465D01*
X1452172Y1051433D01*
X1450140Y1052449D01*
X1448108Y1051433D01*
X1296108Y1119061D02*
X1297124Y1121093D01*
X1296108Y1123124D01*
X1298140Y1122109D01*
X1300172Y1123124D01*
X1299156Y1121093D01*
X1300172Y1119061D01*
X1298140Y1120077D01*
X1296108Y1119061D01*
X1448108D02*
X1449124Y1121093D01*
X1448108Y1123124D01*
X1450140Y1122109D01*
X1452172Y1123124D01*
X1451156Y1121093D01*
X1452172Y1119061D01*
X1450140Y1120077D01*
X1448108Y1119061D01*
X270510Y1145723D02*
X268478Y1149787D01*
X272542D01*
X270510Y1145723D01*
Y1067633D02*
X268478Y1071697D01*
X272542D01*
X270510Y1067633D01*
X518668Y1028338D02*
X519684Y1030370D01*
X518668Y1032402D01*
X520700Y1031386D01*
X522732Y1032402D01*
X521716Y1030370D01*
X522732Y1028338D01*
X520700Y1029354D01*
X518668Y1028338D01*
Y1180338D02*
X519684Y1182370D01*
X518668Y1184402D01*
X520700Y1183386D01*
X522732Y1184402D01*
X521716Y1182370D01*
X522732Y1180338D01*
X520700Y1181354D01*
X518668Y1180338D01*
X585470Y1185418D02*
X586486Y1186434D01*
X587502D01*
X586486Y1187450D01*
X587502Y1188466D01*
X586486D01*
X585470Y1189482D01*
X584454Y1188466D01*
X583438D01*
X584454Y1187450D01*
X583438Y1186434D01*
X584454D01*
X585470Y1185418D01*
Y1167638D02*
X586486Y1168654D01*
X587502D01*
X586486Y1169670D01*
X587502Y1170686D01*
X586486D01*
X585470Y1171702D01*
X584454Y1170686D01*
X583438D01*
X584454Y1169670D01*
X583438Y1168654D01*
X584454D01*
X585470Y1167638D01*
Y1149858D02*
X586486Y1150874D01*
X587502D01*
X586486Y1151890D01*
X587502Y1152906D01*
X586486D01*
X585470Y1153922D01*
X584454Y1152906D01*
X583438D01*
X584454Y1151890D01*
X583438Y1150874D01*
X584454D01*
X585470Y1149858D01*
X656590Y1131753D02*
X654558Y1135817D01*
X658622D01*
X656590Y1131753D01*
Y1053663D02*
X654558Y1057727D01*
X658622D01*
X656590Y1053663D01*
X930148Y1177798D02*
X931164Y1179830D01*
X930148Y1181862D01*
X932180Y1180846D01*
X934212Y1181862D01*
X933196Y1179830D01*
X934212Y1177798D01*
X932180Y1178814D01*
X930148Y1177798D01*
Y1025798D02*
X931164Y1027830D01*
X930148Y1029862D01*
X932180Y1028846D01*
X934212Y1029862D01*
X933196Y1027830D01*
X934212Y1025798D01*
X932180Y1026814D01*
X930148Y1025798D01*
X452938Y1035518D02*
Y1039582D01*
X457002D01*
Y1035518D01*
X452938D01*
X332938D02*
Y1039582D01*
X337002D01*
Y1035518D01*
X332938D01*
Y1157518D02*
Y1161582D01*
X337002D01*
Y1157518D01*
X332938D01*
X452938D02*
Y1161582D01*
X457002D01*
Y1157518D01*
X452938D01*
X850758Y1160018D02*
Y1164082D01*
X854822D01*
Y1160018D01*
X850758D01*
X730758D02*
Y1164082D01*
X734822D01*
Y1160018D01*
X730758D01*
Y1038018D02*
Y1042082D01*
X734822D01*
Y1038018D01*
X730758D01*
X850758D02*
Y1042082D01*
X854822D01*
Y1038018D01*
X850758D01*
X480568Y1410138D02*
Y1414202D01*
X484632D01*
Y1410138D01*
X480568D01*
X481584Y1411154D02*
Y1413186D01*
X483616D01*
Y1411154D01*
X481584D01*
X480568Y1485138D02*
Y1489202D01*
X484632D01*
Y1485138D01*
X480568D01*
X481584Y1486154D02*
Y1488186D01*
X483616D01*
Y1486154D01*
X481584D01*
X1584536Y1144692D02*
X1583689Y1145538D01*
X1581996D01*
X1581150Y1144692D01*
Y1141306D01*
X1581996Y1140460D01*
X1583689D01*
X1584536Y1141306D01*
X1609936Y1144692D02*
X1609089Y1145538D01*
X1607396D01*
X1606550Y1144692D01*
Y1141306D01*
X1607396Y1140460D01*
X1609089D01*
X1609936Y1141306D01*
X1635336Y1144692D02*
X1634489Y1145538D01*
X1632796D01*
X1631950Y1144692D01*
Y1141306D01*
X1632796Y1140460D01*
X1634489D01*
X1635336Y1141306D01*
X1660736Y1144692D02*
X1659889Y1145538D01*
X1658196D01*
X1657350Y1144692D01*
Y1141306D01*
X1658196Y1140460D01*
X1659889D01*
X1660736Y1141306D01*
X2067136Y992292D02*
X2066289Y993138D01*
X2064596D01*
X2063750Y992292D01*
Y988906D01*
X2064596Y988060D01*
X2066289D01*
X2067136Y988906D01*
X2041736Y992292D02*
X2040889Y993138D01*
X2039196D01*
X2038350Y992292D01*
Y988906D01*
X2039196Y988060D01*
X2040889D01*
X2041736Y988906D01*
X1686136Y1144692D02*
X1685289Y1145538D01*
X1683596D01*
X1682750Y1144692D01*
Y1141306D01*
X1683596Y1140460D01*
X1685289D01*
X1686136Y1141306D01*
X1711536Y1144692D02*
X1710689Y1145538D01*
X1708996D01*
X1708150Y1144692D01*
Y1141306D01*
X1708996Y1140460D01*
X1710689D01*
X1711536Y1141306D01*
X1736936Y1144692D02*
X1736089Y1145538D01*
X1734396D01*
X1733550Y1144692D01*
Y1141306D01*
X1734396Y1140460D01*
X1736089D01*
X1736936Y1141306D01*
X1762336Y1144692D02*
X1761489Y1145538D01*
X1759796D01*
X1758950Y1144692D01*
Y1141306D01*
X1759796Y1140460D01*
X1761489D01*
X1762336Y1141306D01*
X2016336Y992292D02*
X2015489Y993138D01*
X2013796D01*
X2012950Y992292D01*
Y988906D01*
X2013796Y988060D01*
X2015489D01*
X2016336Y988906D01*
X1990936Y992292D02*
X1990089Y993138D01*
X1988396D01*
X1987550Y992292D01*
Y988906D01*
X1988396Y988060D01*
X1990089D01*
X1990936Y988906D01*
X1787736Y1144692D02*
X1786889Y1145538D01*
X1785196D01*
X1784350Y1144692D01*
Y1141306D01*
X1785196Y1140460D01*
X1786889D01*
X1787736Y1141306D01*
X1813136Y1144692D02*
X1812289Y1145538D01*
X1810596D01*
X1809750Y1144692D01*
Y1141306D01*
X1810596Y1140460D01*
X1812289D01*
X1813136Y1141306D01*
X1838536Y1144692D02*
X1837689Y1145538D01*
X1835996D01*
X1835150Y1144692D01*
Y1141306D01*
X1835996Y1140460D01*
X1837689D01*
X1838536Y1141306D01*
X1863936Y1144692D02*
X1863089Y1145538D01*
X1861396D01*
X1860550Y1144692D01*
Y1141306D01*
X1861396Y1140460D01*
X1863089D01*
X1863936Y1141306D01*
X1965536Y992292D02*
X1964689Y993138D01*
X1962996D01*
X1962150Y992292D01*
Y988906D01*
X1962996Y988060D01*
X1964689D01*
X1965536Y988906D01*
X1940136Y992292D02*
X1939289Y993138D01*
X1937596D01*
X1936750Y992292D01*
Y988906D01*
X1937596Y988060D01*
X1939289D01*
X1940136Y988906D01*
X1889336Y1144692D02*
X1888489Y1145538D01*
X1886796D01*
X1885950Y1144692D01*
Y1141306D01*
X1886796Y1140460D01*
X1888489D01*
X1889336Y1141306D01*
X1914736Y1144692D02*
X1913889Y1145538D01*
X1912196D01*
X1911350Y1144692D01*
Y1141306D01*
X1912196Y1140460D01*
X1913889D01*
X1914736Y1141306D01*
X1940136Y1144692D02*
X1939289Y1145538D01*
X1937596D01*
X1936750Y1144692D01*
Y1141306D01*
X1937596Y1140460D01*
X1939289D01*
X1940136Y1141306D01*
X1965536Y1144692D02*
X1964689Y1145538D01*
X1962996D01*
X1962150Y1144692D01*
Y1141306D01*
X1962996Y1140460D01*
X1964689D01*
X1965536Y1141306D01*
X1914736Y992292D02*
X1913889Y993138D01*
X1912196D01*
X1911350Y992292D01*
Y988906D01*
X1912196Y988060D01*
X1913889D01*
X1914736Y988906D01*
X1889336Y992292D02*
X1888489Y993138D01*
X1886796D01*
X1885950Y992292D01*
Y988906D01*
X1886796Y988060D01*
X1888489D01*
X1889336Y988906D01*
X1990936Y1144692D02*
X1990089Y1145538D01*
X1988396D01*
X1987550Y1144692D01*
Y1141306D01*
X1988396Y1140460D01*
X1990089D01*
X1990936Y1141306D01*
X2016336Y1144692D02*
X2015489Y1145538D01*
X2013796D01*
X2012950Y1144692D01*
Y1141306D01*
X2013796Y1140460D01*
X2015489D01*
X2016336Y1141306D01*
X1863936Y992292D02*
X1863089Y993138D01*
X1861396D01*
X1860550Y992292D01*
Y988906D01*
X1861396Y988060D01*
X1863089D01*
X1863936Y988906D01*
X2041736Y1144692D02*
X2040889Y1145538D01*
X2039196D01*
X2038350Y1144692D01*
Y1141306D01*
X2039196Y1140460D01*
X2040889D01*
X2041736Y1141306D01*
X2067136Y1144692D02*
X2066289Y1145538D01*
X2064596D01*
X2063750Y1144692D01*
Y1141306D01*
X2064596Y1140460D01*
X2066289D01*
X2067136Y1141306D01*
X1838536Y992292D02*
X1837689Y993138D01*
X1835996D01*
X1835150Y992292D01*
Y988906D01*
X1835996Y988060D01*
X1837689D01*
X1838536Y988906D01*
X1813136Y992292D02*
X1812289Y993138D01*
X1810596D01*
X1809750Y992292D01*
Y988906D01*
X1810596Y988060D01*
X1812289D01*
X1813136Y988906D01*
X1787736Y992292D02*
X1786889Y993138D01*
X1785196D01*
X1784350Y992292D01*
Y988906D01*
X1785196Y988060D01*
X1786889D01*
X1787736Y988906D01*
X1762336Y992292D02*
X1761489Y993138D01*
X1759796D01*
X1758950Y992292D01*
Y988906D01*
X1759796Y988060D01*
X1761489D01*
X1762336Y988906D01*
X1736936Y992292D02*
X1736089Y993138D01*
X1734396D01*
X1733550Y992292D01*
Y988906D01*
X1734396Y988060D01*
X1736089D01*
X1736936Y988906D01*
X1711536Y992292D02*
X1710689Y993138D01*
X1708996D01*
X1708150Y992292D01*
Y988906D01*
X1708996Y988060D01*
X1710689D01*
X1711536Y988906D01*
X1686136Y992292D02*
X1685289Y993138D01*
X1683596D01*
X1682750Y992292D01*
Y988906D01*
X1683596Y988060D01*
X1685289D01*
X1686136Y988906D01*
X1660736Y992292D02*
X1659889Y993138D01*
X1658196D01*
X1657350Y992292D01*
Y988906D01*
X1658196Y988060D01*
X1659889D01*
X1660736Y988906D01*
X1635336Y992292D02*
X1634489Y993138D01*
X1632796D01*
X1631950Y992292D01*
Y988906D01*
X1632796Y988060D01*
X1634489D01*
X1635336Y988906D01*
X1609936Y992292D02*
X1609089Y993138D01*
X1607396D01*
X1606550Y992292D01*
Y988906D01*
X1607396Y988060D01*
X1609089D01*
X1609936Y988906D01*
X1584536Y992292D02*
X1583689Y993138D01*
X1581996D01*
X1581150Y992292D01*
Y988906D01*
X1581996Y988060D01*
X1583689D01*
X1584536Y988906D01*
X1156868Y883920D02*
X1158900Y885952D01*
X1160932Y883920D01*
X1158900Y881888D01*
X1156868Y883920D01*
Y909320D02*
X1158900Y911352D01*
X1160932Y909320D01*
X1158900Y907288D01*
X1156868Y909320D01*
Y934720D02*
X1158900Y936752D01*
X1160932Y934720D01*
X1158900Y932688D01*
X1156868Y934720D01*
Y960120D02*
X1158900Y962152D01*
X1160932Y960120D01*
X1158900Y958088D01*
X1156868Y960120D01*
Y985520D02*
X1158900Y987552D01*
X1160932Y985520D01*
X1158900Y983488D01*
X1156868Y985520D01*
Y1010920D02*
X1158900Y1012952D01*
X1160932Y1010920D01*
X1158900Y1008888D01*
X1156868Y1010920D01*
Y1036320D02*
X1158900Y1038352D01*
X1160932Y1036320D01*
X1158900Y1034288D01*
X1156868Y1036320D01*
Y1061720D02*
X1158900Y1063752D01*
X1160932Y1061720D01*
X1158900Y1059688D01*
X1156868Y1061720D01*
X1077468D02*
X1079500Y1063752D01*
X1081532Y1061720D01*
X1079500Y1059688D01*
X1077468Y1061720D01*
Y1036320D02*
X1079500Y1038352D01*
X1081532Y1036320D01*
X1079500Y1034288D01*
X1077468Y1036320D01*
Y1010920D02*
X1079500Y1012952D01*
X1081532Y1010920D01*
X1079500Y1008888D01*
X1077468Y1010920D01*
Y985520D02*
X1079500Y987552D01*
X1081532Y985520D01*
X1079500Y983488D01*
X1077468Y985520D01*
Y960120D02*
X1079500Y962152D01*
X1081532Y960120D01*
X1079500Y958088D01*
X1077468Y960120D01*
Y934720D02*
X1079500Y936752D01*
X1081532Y934720D01*
X1079500Y932688D01*
X1077468Y934720D01*
Y909320D02*
X1079500Y911352D01*
X1081532Y909320D01*
X1079500Y907288D01*
X1077468Y909320D01*
Y883920D02*
X1079500Y885952D01*
X1081532Y883920D01*
X1079500Y881888D01*
X1077468Y883920D01*
X1087120Y1358138D02*
X1088136Y1359154D01*
X1089152D01*
X1088136Y1360170D01*
X1089152Y1361186D01*
X1088136D01*
X1087120Y1362202D01*
X1086104Y1361186D01*
X1085088D01*
X1086104Y1360170D01*
X1085088Y1359154D01*
X1086104D01*
X1087120Y1358138D01*
Y1359154D02*
X1087628Y1359662D01*
X1088136D01*
X1087628Y1360170D01*
X1088136Y1360678D01*
X1087628D01*
X1087120Y1361186D01*
X1086612Y1360678D01*
X1086104D01*
X1086612Y1360170D01*
X1086104Y1359662D01*
X1086612D01*
X1087120Y1359154D01*
Y1332738D02*
X1088136Y1333754D01*
X1089152D01*
X1088136Y1334770D01*
X1089152Y1335786D01*
X1088136D01*
X1087120Y1336802D01*
X1086104Y1335786D01*
X1085088D01*
X1086104Y1334770D01*
X1085088Y1333754D01*
X1086104D01*
X1087120Y1332738D01*
Y1333754D02*
X1087628Y1334262D01*
X1088136D01*
X1087628Y1334770D01*
X1088136Y1335278D01*
X1087628D01*
X1087120Y1335786D01*
X1086612Y1335278D01*
X1086104D01*
X1086612Y1334770D01*
X1086104Y1334262D01*
X1086612D01*
X1087120Y1333754D01*
Y1307338D02*
X1088136Y1308354D01*
X1089152D01*
X1088136Y1309370D01*
X1089152Y1310386D01*
X1088136D01*
X1087120Y1311402D01*
X1086104Y1310386D01*
X1085088D01*
X1086104Y1309370D01*
X1085088Y1308354D01*
X1086104D01*
X1087120Y1307338D01*
Y1308354D02*
X1087628Y1308862D01*
X1088136D01*
X1087628Y1309370D01*
X1088136Y1309878D01*
X1087628D01*
X1087120Y1310386D01*
X1086612Y1309878D01*
X1086104D01*
X1086612Y1309370D01*
X1086104Y1308862D01*
X1086612D01*
X1087120Y1308354D01*
Y1281938D02*
X1088136Y1282954D01*
X1089152D01*
X1088136Y1283970D01*
X1089152Y1284986D01*
X1088136D01*
X1087120Y1286002D01*
X1086104Y1284986D01*
X1085088D01*
X1086104Y1283970D01*
X1085088Y1282954D01*
X1086104D01*
X1087120Y1281938D01*
Y1282954D02*
X1087628Y1283462D01*
X1088136D01*
X1087628Y1283970D01*
X1088136Y1284478D01*
X1087628D01*
X1087120Y1284986D01*
X1086612Y1284478D01*
X1086104D01*
X1086612Y1283970D01*
X1086104Y1283462D01*
X1086612D01*
X1087120Y1282954D01*
X1163320Y1281938D02*
X1164336Y1282954D01*
X1165352D01*
X1164336Y1283970D01*
X1165352Y1284986D01*
X1164336D01*
X1163320Y1286002D01*
X1162304Y1284986D01*
X1161288D01*
X1162304Y1283970D01*
X1161288Y1282954D01*
X1162304D01*
X1163320Y1281938D01*
Y1282954D02*
X1163828Y1283462D01*
X1164336D01*
X1163828Y1283970D01*
X1164336Y1284478D01*
X1163828D01*
X1163320Y1284986D01*
X1162812Y1284478D01*
X1162304D01*
X1162812Y1283970D01*
X1162304Y1283462D01*
X1162812D01*
X1163320Y1282954D01*
Y1307338D02*
X1164336Y1308354D01*
X1165352D01*
X1164336Y1309370D01*
X1165352Y1310386D01*
X1164336D01*
X1163320Y1311402D01*
X1162304Y1310386D01*
X1161288D01*
X1162304Y1309370D01*
X1161288Y1308354D01*
X1162304D01*
X1163320Y1307338D01*
Y1308354D02*
X1163828Y1308862D01*
X1164336D01*
X1163828Y1309370D01*
X1164336Y1309878D01*
X1163828D01*
X1163320Y1310386D01*
X1162812Y1309878D01*
X1162304D01*
X1162812Y1309370D01*
X1162304Y1308862D01*
X1162812D01*
X1163320Y1308354D01*
Y1332738D02*
X1164336Y1333754D01*
X1165352D01*
X1164336Y1334770D01*
X1165352Y1335786D01*
X1164336D01*
X1163320Y1336802D01*
X1162304Y1335786D01*
X1161288D01*
X1162304Y1334770D01*
X1161288Y1333754D01*
X1162304D01*
X1163320Y1332738D01*
Y1333754D02*
X1163828Y1334262D01*
X1164336D01*
X1163828Y1334770D01*
X1164336Y1335278D01*
X1163828D01*
X1163320Y1335786D01*
X1162812Y1335278D01*
X1162304D01*
X1162812Y1334770D01*
X1162304Y1334262D01*
X1162812D01*
X1163320Y1333754D01*
Y1358138D02*
X1164336Y1359154D01*
X1165352D01*
X1164336Y1360170D01*
X1165352Y1361186D01*
X1164336D01*
X1163320Y1362202D01*
X1162304Y1361186D01*
X1161288D01*
X1162304Y1360170D01*
X1161288Y1359154D01*
X1162304D01*
X1163320Y1358138D01*
Y1359154D02*
X1163828Y1359662D01*
X1164336D01*
X1163828Y1360170D01*
X1164336Y1360678D01*
X1163828D01*
X1163320Y1361186D01*
X1162812Y1360678D01*
X1162304D01*
X1162812Y1360170D01*
X1162304Y1359662D01*
X1162812D01*
X1163320Y1359154D01*
X1226058Y1285078D02*
Y1289142D01*
X1230122D01*
Y1285078D01*
X1226058D01*
X1227074Y1286094D02*
Y1288126D01*
X1229106D01*
Y1286094D01*
X1227074D01*
X1226058Y1360078D02*
Y1364142D01*
X1230122D01*
Y1360078D01*
X1226058D01*
X1227074Y1361094D02*
Y1363126D01*
X1229106D01*
Y1361094D01*
X1227074D01*
X1006348Y1358808D02*
Y1362872D01*
X1010412D01*
Y1358808D01*
X1006348D01*
X1007364Y1359824D02*
Y1361856D01*
X1009396D01*
Y1359824D01*
X1007364D01*
X1006348Y1283808D02*
Y1287872D01*
X1010412D01*
Y1283808D01*
X1006348D01*
X1007364Y1284824D02*
Y1286856D01*
X1009396D01*
Y1284824D01*
X1007364D01*
X110066Y1523128D02*
X108373D01*
X109219D01*
Y1518896D01*
X108373Y1518050D01*
X107526D01*
X106680Y1518896D01*
X110066Y1573129D02*
X108373D01*
X109219D01*
Y1568897D01*
X108373Y1568050D01*
X107526D01*
X106680Y1568897D01*
X74506Y1647188D02*
X71120D01*
Y1644649D01*
X72813D01*
X71120D01*
Y1642110D01*
X295148Y1487077D02*
Y1491142D01*
X299212D01*
Y1487077D01*
X295148D01*
X296164Y1488094D02*
Y1490125D01*
X298196D01*
Y1488094D01*
X296164D01*
X295148Y1412078D02*
Y1416142D01*
X299212D01*
Y1412078D01*
X295148D01*
X296164Y1413094D02*
Y1415126D01*
X298196D01*
Y1413094D01*
X296164D01*
X387858Y1487078D02*
Y1491142D01*
X391922D01*
Y1487078D01*
X387858D01*
X388874Y1488094D02*
Y1490126D01*
X390906D01*
Y1488094D01*
X388874D01*
X387858Y1412078D02*
Y1416142D01*
X391922D01*
Y1412078D01*
X387858D01*
X388874Y1413094D02*
Y1415126D01*
X390906D01*
Y1413094D01*
X388874D01*
X573278Y1487078D02*
Y1491142D01*
X577342D01*
Y1487078D01*
X573278D01*
X574294Y1488094D02*
Y1490126D01*
X576326D01*
Y1488094D01*
X574294D01*
X2171634Y1119994D02*
Y1118978D01*
X2173666D01*
Y1119994D01*
X2174682D01*
Y1122026D01*
X2173666D01*
Y1123042D01*
X2171634D01*
Y1122026D01*
X2170618D01*
Y1119994D01*
X2171634D01*
X2151634D02*
Y1118978D01*
X2153666D01*
Y1119994D01*
X2154682D01*
Y1122026D01*
X2153666D01*
Y1123042D01*
X2151634D01*
Y1122026D01*
X2150618D01*
Y1119994D01*
X2151634D01*
X2131634D02*
Y1118978D01*
X2133666D01*
Y1119994D01*
X2134682D01*
Y1122026D01*
X2133666D01*
Y1123042D01*
X2131634D01*
Y1122026D01*
X2130618D01*
Y1119994D01*
X2131634D01*
X2171634Y1069994D02*
Y1068978D01*
X2173666D01*
Y1069994D01*
X2174682D01*
Y1072026D01*
X2173666D01*
Y1073042D01*
X2171634D01*
Y1072026D01*
X2170618D01*
Y1069994D01*
X2171634D01*
X2151634D02*
Y1068978D01*
X2153666D01*
Y1069994D01*
X2154682D01*
Y1072026D01*
X2153666D01*
Y1073042D01*
X2151634D01*
Y1072026D01*
X2150618D01*
Y1069994D01*
X2151634D01*
X2131634D02*
Y1068978D01*
X2133666D01*
Y1069994D01*
X2134682D01*
Y1072026D01*
X2133666D01*
Y1073042D01*
X2131634D01*
Y1072026D01*
X2130618D01*
Y1069994D01*
X2131634D01*
X2236046Y60958D02*
X2232660D01*
Y58419D01*
X2234353D01*
X2232660D01*
Y55880D01*
X1182878Y1595428D02*
X1183894Y1597460D01*
X1182878Y1599492D01*
X1184910Y1598476D01*
X1186942Y1599492D01*
X1185926Y1597460D01*
X1186942Y1595428D01*
X1184910Y1596444D01*
X1182878Y1595428D01*
Y1443428D02*
X1183894Y1445460D01*
X1182878Y1447492D01*
X1184910Y1446476D01*
X1186942Y1447492D01*
X1185926Y1445460D01*
X1186942Y1443428D01*
X1184910Y1444444D01*
X1182878Y1443428D01*
X573278Y1412078D02*
Y1416142D01*
X577342D01*
Y1412078D01*
X573278D01*
X574294Y1413094D02*
Y1415126D01*
X576326D01*
Y1413094D01*
X574294D01*
X1317498Y1483668D02*
X1318514Y1485700D01*
X1317498Y1487732D01*
X1319530Y1486716D01*
X1321562Y1487732D01*
X1320546Y1485700D01*
X1321562Y1483668D01*
X1319530Y1484684D01*
X1317498Y1483668D01*
Y1331668D02*
X1318514Y1333700D01*
X1317498Y1335732D01*
X1319530Y1334716D01*
X1321562Y1335732D01*
X1320546Y1333700D01*
X1321562Y1331668D01*
X1319530Y1332684D01*
X1317498Y1331668D01*
X515928Y1334008D02*
X516944Y1336040D01*
X515928Y1338072D01*
X517960Y1337056D01*
X519992Y1338072D01*
X518976Y1336040D01*
X519992Y1334008D01*
X517960Y1335024D01*
X515928Y1334008D01*
X363928D02*
X364944Y1336040D01*
X363928Y1338072D01*
X365960Y1337056D01*
X367992Y1338072D01*
X366976Y1336040D01*
X367992Y1334008D01*
X365960Y1335024D01*
X363928Y1334008D01*
X366114Y1572514D02*
Y1571498D01*
X368146D01*
Y1572514D01*
X369162D01*
Y1574546D01*
X368146D01*
Y1575562D01*
X366114D01*
Y1574546D01*
X365098D01*
Y1572514D01*
X366114D01*
X366622Y1573022D02*
Y1572514D01*
X367638D01*
Y1573022D01*
X368146D01*
Y1574038D01*
X367638D01*
Y1574546D01*
X366622D01*
Y1574038D01*
X366114D01*
Y1573022D01*
X366622D01*
X340614Y1572514D02*
Y1571498D01*
X342646D01*
Y1572514D01*
X343662D01*
Y1574546D01*
X342646D01*
Y1575562D01*
X340614D01*
Y1574546D01*
X339598D01*
Y1572514D01*
X340614D01*
X341122Y1573022D02*
Y1572514D01*
X342138D01*
Y1573022D01*
X342646D01*
Y1574038D01*
X342138D01*
Y1574546D01*
X341122D01*
Y1574038D01*
X340614D01*
Y1573022D01*
X341122D01*
X315114Y1572514D02*
Y1571498D01*
X317146D01*
Y1572514D01*
X318162D01*
Y1574546D01*
X317146D01*
Y1575562D01*
X315114D01*
Y1574546D01*
X314098D01*
Y1572514D01*
X315114D01*
X315622Y1573022D02*
Y1572514D01*
X316638D01*
Y1573022D01*
X317146D01*
Y1574038D01*
X316638D01*
Y1574546D01*
X315622D01*
Y1574038D01*
X315114D01*
Y1573022D01*
X315622D01*
X550164Y1573784D02*
Y1572768D01*
X552196D01*
Y1573784D01*
X553212D01*
Y1575816D01*
X552196D01*
Y1576832D01*
X550164D01*
Y1575816D01*
X549148D01*
Y1573784D01*
X550164D01*
X550672Y1574292D02*
Y1573784D01*
X551688D01*
Y1574292D01*
X552196D01*
Y1575308D01*
X551688D01*
Y1575816D01*
X550672D01*
Y1575308D01*
X550164D01*
Y1574292D01*
X550672D01*
X524664Y1573784D02*
Y1572768D01*
X526696D01*
Y1573784D01*
X527712D01*
Y1575816D01*
X526696D01*
Y1576832D01*
X524664D01*
Y1575816D01*
X523648D01*
Y1573784D01*
X524664D01*
X525172Y1574292D02*
Y1573784D01*
X526188D01*
Y1574292D01*
X526696D01*
Y1575308D01*
X526188D01*
Y1575816D01*
X525172D01*
Y1575308D01*
X524664D01*
Y1574292D01*
X525172D01*
X499164Y1573784D02*
Y1572768D01*
X501196D01*
Y1573784D01*
X502212D01*
Y1575816D01*
X501196D01*
Y1576832D01*
X499164D01*
Y1575816D01*
X498148D01*
Y1573784D01*
X499164D01*
X499672Y1574292D02*
Y1573784D01*
X500688D01*
Y1574292D01*
X501196D01*
Y1575308D01*
X500688D01*
Y1575816D01*
X499672D01*
Y1575308D01*
X499164D01*
Y1574292D01*
X499672D01*
X2050088Y880618D02*
X2051104Y882650D01*
X2050088Y884682D01*
X2052120Y883666D01*
X2054152Y884682D01*
X2053136Y882650D01*
X2054152Y880618D01*
X2052120Y881634D01*
X2050088Y880618D01*
X1898088D02*
X1899104Y882650D01*
X1898088Y884682D01*
X1900120Y883666D01*
X1902152Y884682D01*
X1901136Y882650D01*
X1902152Y880618D01*
X1900120Y881634D01*
X1898088Y880618D01*
X105410Y534233D02*
X103378Y538297D01*
X107442D01*
X105410Y534233D01*
Y612323D02*
X103378Y616387D01*
X107442D01*
X105410Y612323D01*
X102870Y264048D02*
X100838Y268112D01*
X104902D01*
X102870Y264048D01*
Y342138D02*
X100838Y346202D01*
X104902D01*
X102870Y342138D01*
X61806Y58418D02*
X58420D01*
Y55879D01*
X60113D01*
X58420D01*
Y53340D01*
X2236046Y1645918D02*
X2232660D01*
Y1643379D01*
X2234353D01*
X2232660D01*
Y1640840D01*
X342138Y629158D02*
X343154Y631190D01*
X342138Y633222D01*
X344170Y632206D01*
X346202Y633222D01*
X345186Y631190D01*
X346202Y629158D01*
X344170Y630174D01*
X342138Y629158D01*
X343154Y630174D02*
X343662Y631190D01*
X343154Y632206D01*
X344170Y631698D01*
X345186Y632206D01*
X344678Y631190D01*
X345186Y630174D01*
X344170Y630682D01*
X343154Y630174D01*
X291338Y629158D02*
X292354Y631190D01*
X291338Y633222D01*
X293370Y632206D01*
X295402Y633222D01*
X294386Y631190D01*
X295402Y629158D01*
X293370Y630174D01*
X291338Y629158D01*
X292354Y630174D02*
X292862Y631190D01*
X292354Y632206D01*
X293370Y631698D01*
X294386Y632206D01*
X293878Y631190D01*
X294386Y630174D01*
X293370Y630682D01*
X292354Y630174D01*
X240538Y629158D02*
X241554Y631190D01*
X240538Y633222D01*
X242570Y632206D01*
X244602Y633222D01*
X243586Y631190D01*
X244602Y629158D01*
X242570Y630174D01*
X240538Y629158D01*
X241554Y630174D02*
X242062Y631190D01*
X241554Y632206D01*
X242570Y631698D01*
X243586Y632206D01*
X243078Y631190D01*
X243586Y630174D01*
X242570Y630682D01*
X241554Y630174D01*
X164338Y629158D02*
X165354Y631190D01*
X164338Y633222D01*
X166370Y632206D01*
X168402Y633222D01*
X167386Y631190D01*
X168402Y629158D01*
X166370Y630174D01*
X164338Y629158D01*
X165354Y630174D02*
X165862Y631190D01*
X165354Y632206D01*
X166370Y631698D01*
X167386Y632206D01*
X166878Y631190D01*
X167386Y630174D01*
X166370Y630682D01*
X165354Y630174D01*
X164338Y552958D02*
X165354Y554990D01*
X164338Y557022D01*
X166370Y556006D01*
X168402Y557022D01*
X167386Y554990D01*
X168402Y552958D01*
X166370Y553974D01*
X164338Y552958D01*
X165354Y553974D02*
X165862Y554990D01*
X165354Y556006D01*
X166370Y555498D01*
X167386Y556006D01*
X166878Y554990D01*
X167386Y553974D01*
X166370Y554482D01*
X165354Y553974D01*
X240538Y552958D02*
X241554Y554990D01*
X240538Y557022D01*
X242570Y556006D01*
X244602Y557022D01*
X243586Y554990D01*
X244602Y552958D01*
X242570Y553974D01*
X240538Y552958D01*
X241554Y553974D02*
X242062Y554990D01*
X241554Y556006D01*
X242570Y555498D01*
X243586Y556006D01*
X243078Y554990D01*
X243586Y553974D01*
X242570Y554482D01*
X241554Y553974D01*
X291338Y552958D02*
X292354Y554990D01*
X291338Y557022D01*
X293370Y556006D01*
X295402Y557022D01*
X294386Y554990D01*
X295402Y552958D01*
X293370Y553974D01*
X291338Y552958D01*
X292354Y553974D02*
X292862Y554990D01*
X292354Y556006D01*
X293370Y555498D01*
X294386Y556006D01*
X293878Y554990D01*
X294386Y553974D01*
X293370Y554482D01*
X292354Y553974D01*
X342138Y552958D02*
X343154Y554990D01*
X342138Y557022D01*
X344170Y556006D01*
X346202Y557022D01*
X345186Y554990D01*
X346202Y552958D01*
X344170Y553974D01*
X342138Y552958D01*
X343154Y553974D02*
X343662Y554990D01*
X343154Y556006D01*
X344170Y555498D01*
X345186Y556006D01*
X344678Y554990D01*
X345186Y553974D01*
X344170Y554482D01*
X343154Y553974D01*
X159458Y465328D02*
X160474Y467360D01*
X159458Y469392D01*
X161490Y468376D01*
X163522Y469392D01*
X162506Y467360D01*
X163522Y465328D01*
X161490Y466344D01*
X159458Y465328D01*
X311458D02*
X312474Y467360D01*
X311458Y469392D01*
X313490Y468376D01*
X315522Y469392D01*
X314506Y467360D01*
X315522Y465328D01*
X313490Y466344D01*
X311458Y465328D01*
Y323088D02*
X312474Y325120D01*
X311458Y327152D01*
X313490Y326136D01*
X315522Y327152D01*
X314506Y325120D01*
X315522Y323088D01*
X313490Y324104D01*
X311458Y323088D01*
X159458D02*
X160474Y325120D01*
X159458Y327152D01*
X161490Y326136D01*
X163522Y327152D01*
X162506Y325120D01*
X163522Y323088D01*
X161490Y324104D01*
X159458Y323088D01*
X893118Y884428D02*
X894134Y886460D01*
X893118Y888492D01*
X895150Y887476D01*
X897182Y888492D01*
X896166Y886460D01*
X897182Y884428D01*
X895150Y885444D01*
X893118Y884428D01*
X741118D02*
X742134Y886460D01*
X741118Y888492D01*
X743150Y887476D01*
X745182Y888492D01*
X744166Y886460D01*
X745182Y884428D01*
X743150Y885444D01*
X741118Y884428D01*
X1002030Y1191768D02*
X1003046Y1192784D01*
X1004062D01*
X1003046Y1193800D01*
X1004062Y1194816D01*
X1003046D01*
X1002030Y1195832D01*
X1001014Y1194816D01*
X999998D01*
X1001014Y1193800D01*
X999998Y1192784D01*
X1001014D01*
X1002030Y1191768D01*
Y1173988D02*
X1003046Y1175004D01*
X1004062D01*
X1003046Y1176020D01*
X1004062Y1177036D01*
X1003046D01*
X1002030Y1178052D01*
X1001014Y1177036D01*
X999998D01*
X1001014Y1176020D01*
X999998Y1175004D01*
X1001014D01*
X1002030Y1173988D01*
Y1156208D02*
X1003046Y1157224D01*
X1004062D01*
X1003046Y1158240D01*
X1004062Y1159256D01*
X1003046D01*
X1002030Y1160272D01*
X1001014Y1159256D01*
X999998D01*
X1001014Y1158240D01*
X999998Y1157224D01*
X1001014D01*
X1002030Y1156208D01*
X895658Y950468D02*
X896674Y952500D01*
X895658Y954532D01*
X897690Y953516D01*
X899722Y954532D01*
X898706Y952500D01*
X899722Y950468D01*
X897690Y951484D01*
X895658Y950468D01*
X743658D02*
X744674Y952500D01*
X743658Y954532D01*
X745690Y953516D01*
X747722Y954532D01*
X746706Y952500D01*
X747722Y950468D01*
X745690Y951484D01*
X743658Y950468D01*
X2156460Y974977D02*
X2158153D01*
X2157306D01*
Y969899D01*
X2156460D01*
X2158153D01*
X2156460Y924939D02*
X2158153D01*
X2157306D01*
Y919861D01*
X2156460D01*
X2158153D01*
X92710Y466598D02*
X93726Y467614D01*
X94742D01*
X93726Y468630D01*
X94742Y469646D01*
X93726D01*
X92710Y470662D01*
X91694Y469646D01*
X90678D01*
X91694Y468630D01*
X90678Y467614D01*
X91694D01*
X92710Y466598D01*
X110490D02*
X111506Y467614D01*
X112522D01*
X111506Y468630D01*
X112522Y469646D01*
X111506D01*
X110490Y470662D01*
X109474Y469646D01*
X108458D01*
X109474Y468630D01*
X108458Y467614D01*
X109474D01*
X110490Y466598D01*
X128270D02*
X129286Y467614D01*
X130302D01*
X129286Y468630D01*
X130302Y469646D01*
X129286D01*
X128270Y470662D01*
X127254Y469646D01*
X126238D01*
X127254Y468630D01*
X126238Y467614D01*
X127254D01*
X128270Y466598D01*
X311458Y116078D02*
X312474Y118110D01*
X311458Y120142D01*
X313490Y119126D01*
X315522Y120142D01*
X314506Y118110D01*
X315522Y116078D01*
X313490Y117094D01*
X311458Y116078D01*
X159458D02*
X160474Y118110D01*
X159458Y120142D01*
X161490Y119126D01*
X163522Y120142D01*
X162506Y118110D01*
X163522Y116078D01*
X161490Y117094D01*
X159458Y116078D01*
X1066038Y556768D02*
X1067054D01*
X1068070Y557784D01*
X1069086Y556768D01*
X1070102D01*
Y557784D01*
X1069086Y558800D01*
X1070102Y559816D01*
Y560832D01*
X1069086D01*
X1068070Y559816D01*
X1067054Y560832D01*
X1066038D01*
Y559816D01*
X1067054Y558800D01*
X1066038Y557784D01*
Y556768D01*
X2171954Y1195324D02*
Y1194308D01*
X2173986D01*
Y1195324D01*
X2175002D01*
Y1197356D01*
X2173986D01*
Y1198372D01*
X2171954D01*
Y1197356D01*
X2170938D01*
Y1195324D01*
X2171954D01*
X1953260Y1200150D02*
Y1199134D01*
X1955292D01*
Y1200150D01*
X1956308D01*
Y1202182D01*
X1955292D01*
Y1203198D01*
X1953260D01*
Y1202182D01*
X1952244D01*
Y1200150D01*
X1953260D01*
X1325345Y796263D02*
Y795247D01*
X1327377D01*
Y796263D01*
X1328393D01*
Y798295D01*
X1327377D01*
Y799311D01*
X1325345D01*
Y798295D01*
X1324329D01*
Y796263D01*
X1325345D01*
X1084072Y1135634D02*
Y1134618D01*
X1086104D01*
Y1135634D01*
X1087120D01*
Y1137666D01*
X1086104D01*
Y1138682D01*
X1084072D01*
Y1137666D01*
X1083056D01*
Y1135634D01*
X1084072D01*
X2206244Y237744D02*
Y236728D01*
X2208276D01*
Y237744D01*
X2209292D01*
Y239776D01*
X2208276D01*
Y240792D01*
X2206244D01*
Y239776D01*
X2205228D01*
Y237744D01*
X2206244D01*
X2205736Y210820D02*
Y209804D01*
X2207768D01*
Y210820D01*
X2208784D01*
Y212852D01*
X2207768D01*
Y213868D01*
X2205736D01*
Y212852D01*
X2204720D01*
Y210820D01*
X2205736D01*
X1573834Y702056D02*
Y701040D01*
X1575866D01*
Y702056D01*
X1576882D01*
Y704088D01*
X1575866D01*
Y705104D01*
X1573834D01*
Y704088D01*
X1572818D01*
Y702056D01*
X1573834D01*
X1597964Y483854D02*
Y482838D01*
X1599996D01*
Y483854D01*
X1601012D01*
Y485886D01*
X1599996D01*
Y486902D01*
X1597964D01*
Y485886D01*
X1596948D01*
Y483854D01*
X1597964D01*
X1619504Y403860D02*
Y402844D01*
X1621536D01*
Y403860D01*
X1622552D01*
Y405892D01*
X1621536D01*
Y406908D01*
X1619504D01*
Y405892D01*
X1618488D01*
Y403860D01*
X1619504D01*
X1106424Y882904D02*
Y881888D01*
X1108456D01*
Y882904D01*
X1109472D01*
Y884936D01*
X1108456D01*
Y885952D01*
X1106424D01*
Y884936D01*
X1105408D01*
Y882904D01*
X1106424D01*
X1598676Y1118362D02*
Y1117346D01*
X1600708D01*
Y1118362D01*
X1601724D01*
Y1120394D01*
X1600708D01*
Y1121410D01*
X1598676D01*
Y1120394D01*
X1597660D01*
Y1118362D01*
X1598676D01*
X1344676Y953262D02*
Y952246D01*
X1346708D01*
Y953262D01*
X1347724D01*
Y955294D01*
X1346708D01*
Y956310D01*
X1344676D01*
Y955294D01*
X1343660D01*
Y953262D01*
X1344676D01*
X1043003Y1138653D02*
Y1137637D01*
X1045035D01*
Y1138653D01*
X1046051D01*
Y1140685D01*
X1045035D01*
Y1141701D01*
X1043003D01*
Y1140685D01*
X1041987D01*
Y1138653D01*
X1043003D01*
X1856486Y964184D02*
Y963168D01*
X1858518D01*
Y964184D01*
X1859534D01*
Y966216D01*
X1858518D01*
Y967232D01*
X1856486D01*
Y966216D01*
X1855470D01*
Y964184D01*
X1856486D01*
X1879346Y632714D02*
Y631698D01*
X1881378D01*
Y632714D01*
X1882394D01*
Y634746D01*
X1881378D01*
Y635762D01*
X1879346D01*
Y634746D01*
X1878330D01*
Y632714D01*
X1879346D01*
X2159508Y994156D02*
Y993140D01*
X2161540D01*
Y994156D01*
X2162556D01*
Y996188D01*
X2161540D01*
Y997204D01*
X2159508D01*
Y996188D01*
X2158492D01*
Y994156D01*
X2159508D01*
X685292Y546100D02*
Y545084D01*
X687324D01*
Y546100D01*
X688340D01*
Y548132D01*
X687324D01*
Y549148D01*
X685292D01*
Y548132D01*
X684276D01*
Y546100D01*
X685292D01*
X1345946Y518922D02*
Y517906D01*
X1347978D01*
Y518922D01*
X1348994D01*
Y520954D01*
X1347978D01*
Y521970D01*
X1345946D01*
Y520954D01*
X1344930D01*
Y518922D01*
X1345946D01*
X1681734Y1080770D02*
Y1079754D01*
X1683766D01*
Y1080770D01*
X1684782D01*
Y1082802D01*
X1683766D01*
Y1083818D01*
X1681734D01*
Y1082802D01*
X1680718D01*
Y1080770D01*
X1681734D01*
D103*
X723392Y116840D02*
G03*
X723392Y116840I-2032J0D01*
G01*
Y142240D02*
G03*
X723392Y142240I-2032J0D01*
G01*
Y167640D02*
G03*
X723392Y167640I-2032J0D01*
G01*
X568452Y867410D02*
G03*
X568452Y867410I-2032J0D01*
G01*
X593852D02*
G03*
X593852Y867410I-2032J0D01*
G01*
X619252D02*
G03*
X619252Y867410I-2032J0D01*
G01*
X360172D02*
G03*
X360172Y867410I-2032J0D01*
G01*
X385572D02*
G03*
X385572Y867410I-2032J0D01*
G01*
X410972D02*
G03*
X410972Y867410I-2032J0D01*
G01*
X1386332Y665480D02*
G03*
X1386332Y665480I-2032J0D01*
G01*
X1360932D02*
G03*
X1360932Y665480I-2032J0D01*
G01*
X1335532D02*
G03*
X1335532Y665480I-2032J0D01*
G01*
X723392Y674370D02*
G03*
X723392Y674370I-2032J0D01*
G01*
Y648970D02*
G03*
X723392Y648970I-2032J0D01*
G01*
Y623570D02*
G03*
X723392Y623570I-2032J0D01*
G01*
X723292Y511810D02*
G03*
X723292Y511810I-2032J0D01*
G01*
Y486410D02*
G03*
X723292Y486410I-2032J0D01*
G01*
Y461010D02*
G03*
X723292Y461010I-2032J0D01*
G01*
X397002Y1179550D02*
G03*
X397002Y1179550I-2032J0D01*
G01*
X794822Y1182050D02*
G03*
X794822Y1182050I-2032J0D01*
G01*
X253492Y1337310D02*
G03*
X253492Y1337310I-2032J0D01*
G01*
X278892D02*
G03*
X278892Y1337310I-2032J0D01*
G01*
X304292D02*
G03*
X304292Y1337310I-2032J0D01*
G01*
X1324102Y1203960D02*
G03*
X1324102Y1203960I-2032J0D01*
G01*
Y1229360D02*
G03*
X1324102Y1229360I-2032J0D01*
G01*
Y1254760D02*
G03*
X1324102Y1254760I-2032J0D01*
G01*
X2100472Y116570D02*
G03*
X2100472Y116570I-2032J0D01*
G01*
Y241570D02*
G03*
X2100472Y241570I-2032J0D01*
G01*
X2150472Y116570D02*
G03*
X2150472Y116570I-2032J0D01*
G01*
Y241570D02*
G03*
X2150472Y241570I-2032J0D01*
G01*
X371602Y422910D02*
G03*
X371602Y422910I-2032J0D01*
G01*
Y397510D02*
G03*
X371602Y397510I-2032J0D01*
G01*
Y372110D02*
G03*
X371602Y372110I-2032J0D01*
G01*
X1855832Y609870D02*
G03*
X1855832Y609870I-2032J0D01*
G01*
Y484870D02*
G03*
X1855832Y484870I-2032J0D01*
G01*
X1805832Y609870D02*
G03*
X1805832Y609870I-2032J0D01*
G01*
Y484870D02*
G03*
X1805832Y484870I-2032J0D01*
G01*
X2004422Y796560D02*
G03*
X2004422Y796560I-2032J0D01*
G01*
Y671560D02*
G03*
X2004422Y671560I-2032J0D01*
G01*
X1954422Y796560D02*
G03*
X1954422Y796560I-2032J0D01*
G01*
Y671560D02*
G03*
X1954422Y671560I-2032J0D01*
G01*
X1855832Y796560D02*
G03*
X1855832Y796560I-2032J0D01*
G01*
Y671560D02*
G03*
X1855832Y671560I-2032J0D01*
G01*
X1805832Y796560D02*
G03*
X1805832Y796560I-2032J0D01*
G01*
Y671560D02*
G03*
X1805832Y671560I-2032J0D01*
G01*
X2004422Y612410D02*
G03*
X2004422Y612410I-2032J0D01*
G01*
Y487410D02*
G03*
X2004422Y487410I-2032J0D01*
G01*
X1954422Y612410D02*
G03*
X1954422Y612410I-2032J0D01*
G01*
Y487410D02*
G03*
X1954422Y487410I-2032J0D01*
G01*
X1855832Y427413D02*
G03*
X1855832Y427413I-2032J0D01*
G01*
Y302413D02*
G03*
X1855832Y302413I-2032J0D01*
G01*
X1805832Y427413D02*
G03*
X1805832Y427413I-2032J0D01*
G01*
Y302413D02*
G03*
X1805832Y302413I-2032J0D01*
G01*
X2004422Y427413D02*
G03*
X2004422Y427413I-2032J0D01*
G01*
Y302413D02*
G03*
X2004422Y302413I-2032J0D01*
G01*
X1954422Y427413D02*
G03*
X1954422Y427413I-2032J0D01*
G01*
Y302413D02*
G03*
X1954422Y302413I-2032J0D01*
G01*
X1855832Y241570D02*
G03*
X1855832Y241570I-2032J0D01*
G01*
Y116570D02*
G03*
X1855832Y116570I-2032J0D01*
G01*
X1805832Y241570D02*
G03*
X1805832Y241570I-2032J0D01*
G01*
Y116570D02*
G03*
X1805832Y116570I-2032J0D01*
G01*
X1711052Y427413D02*
G03*
X1711052Y427413I-2032J0D01*
G01*
Y302413D02*
G03*
X1711052Y302413I-2032J0D01*
G01*
X1661052Y427413D02*
G03*
X1661052Y427413I-2032J0D01*
G01*
Y302413D02*
G03*
X1661052Y302413I-2032J0D01*
G01*
X1711052Y241570D02*
G03*
X1711052Y241570I-2032J0D01*
G01*
Y116570D02*
G03*
X1711052Y116570I-2032J0D01*
G01*
X1661052Y241570D02*
G03*
X1661052Y241570I-2032J0D01*
G01*
Y116570D02*
G03*
X1661052Y116570I-2032J0D01*
G01*
X2004422Y241570D02*
G03*
X2004422Y241570I-2032J0D01*
G01*
Y116570D02*
G03*
X2004422Y116570I-2032J0D01*
G01*
X1954422Y241570D02*
G03*
X1954422Y241570I-2032J0D01*
G01*
Y116570D02*
G03*
X1954422Y116570I-2032J0D01*
G01*
X1711052Y609870D02*
G03*
X1711052Y609870I-2032J0D01*
G01*
Y484870D02*
G03*
X1711052Y484870I-2032J0D01*
G01*
X1661052Y609870D02*
G03*
X1661052Y609870I-2032J0D01*
G01*
Y484870D02*
G03*
X1661052Y484870I-2032J0D01*
G01*
X1711052Y796560D02*
G03*
X1711052Y796560I-2032J0D01*
G01*
Y671560D02*
G03*
X1711052Y671560I-2032J0D01*
G01*
X1661052Y796560D02*
G03*
X1661052Y796560I-2032J0D01*
G01*
Y671560D02*
G03*
X1661052Y671560I-2032J0D01*
G01*
X2150472Y608600D02*
G03*
X2150472Y608600I-2032J0D01*
G01*
Y483600D02*
G03*
X2150472Y483600I-2032J0D01*
G01*
X2100472Y608600D02*
G03*
X2100472Y608600I-2032J0D01*
G01*
Y483600D02*
G03*
X2100472Y483600I-2032J0D01*
G01*
X2150472Y796560D02*
G03*
X2150472Y796560I-2032J0D01*
G01*
Y671560D02*
G03*
X2150472Y671560I-2032J0D01*
G01*
X2100472Y796560D02*
G03*
X2100472Y796560I-2032J0D01*
G01*
Y671560D02*
G03*
X2100472Y671560I-2032J0D01*
G01*
X2150472Y427413D02*
G03*
X2150472Y427413I-2032J0D01*
G01*
Y302413D02*
G03*
X2150472Y302413I-2032J0D01*
G01*
X2100472Y427413D02*
G03*
X2100472Y427413I-2032J0D01*
G01*
Y302413D02*
G03*
X2100472Y302413I-2032J0D01*
G01*
D104*
X722376Y116840D02*
G03*
X722376Y116840I-1016J0D01*
G01*
Y142240D02*
G03*
X722376Y142240I-1016J0D01*
G01*
Y167640D02*
G03*
X722376Y167640I-1016J0D01*
G01*
X567436Y867410D02*
G03*
X567436Y867410I-1016J0D01*
G01*
X592836D02*
G03*
X592836Y867410I-1016J0D01*
G01*
X618236D02*
G03*
X618236Y867410I-1016J0D01*
G01*
X359156D02*
G03*
X359156Y867410I-1016J0D01*
G01*
X384556D02*
G03*
X384556Y867410I-1016J0D01*
G01*
X409956D02*
G03*
X409956Y867410I-1016J0D01*
G01*
X1385316Y665480D02*
G03*
X1385316Y665480I-1016J0D01*
G01*
X1359916D02*
G03*
X1359916Y665480I-1016J0D01*
G01*
X1334516D02*
G03*
X1334516Y665480I-1016J0D01*
G01*
X722376Y674370D02*
G03*
X722376Y674370I-1016J0D01*
G01*
Y648970D02*
G03*
X722376Y648970I-1016J0D01*
G01*
Y623570D02*
G03*
X722376Y623570I-1016J0D01*
G01*
X722276Y511810D02*
G03*
X722276Y511810I-1016J0D01*
G01*
Y486410D02*
G03*
X722276Y486410I-1016J0D01*
G01*
Y461010D02*
G03*
X722276Y461010I-1016J0D01*
G01*
X252476Y1337310D02*
G03*
X252476Y1337310I-1016J0D01*
G01*
X277876D02*
G03*
X277876Y1337310I-1016J0D01*
G01*
X303276D02*
G03*
X303276Y1337310I-1016J0D01*
G01*
X1323086Y1203960D02*
G03*
X1323086Y1203960I-1016J0D01*
G01*
Y1229360D02*
G03*
X1323086Y1229360I-1016J0D01*
G01*
Y1254760D02*
G03*
X1323086Y1254760I-1016J0D01*
G01*
X370586Y422910D02*
G03*
X370586Y422910I-1016J0D01*
G01*
Y397510D02*
G03*
X370586Y397510I-1016J0D01*
G01*
Y372110D02*
G03*
X370586Y372110I-1016J0D01*
G01*
M02*
