G04*
G04 #@! TF.GenerationSoftware,Altium Limited,Altium Designer,22.1.2 (22)*
G04*
G04 Layer_Physical_Order=1*
G04 Layer_Color=255*
%FSLAX44Y44*%
%MOMM*%
G71*
G04*
G04 #@! TF.SameCoordinates,F6B16036-4E59-49F0-9913-00CB94F758B3*
G04*
G04*
G04 #@! TF.FilePolarity,Positive*
G04*
G01*
G75*
%ADD19C,1.5080*%
%ADD20R,1.5080X1.5080*%
%ADD24C,10.2064*%
%ADD38R,1.4000X1.4000*%
%ADD39C,1.4000*%
%ADD61C,1.9900*%
%ADD62R,1.9900X1.9900*%
%ADD63R,1.5406X1.5406*%
%ADD64C,1.5406*%
%ADD67C,1.0000*%
%ADD68C,1.5000*%
%ADD69C,2.2860*%
%ADD70C,2.0000*%
%ADD71C,1.3080*%
%ADD72R,1.3080X1.3080*%
%ADD73C,1.1300*%
%ADD74R,1.1300X1.1300*%
%ADD75C,1.1628*%
%ADD76R,1.1628X1.1628*%
%ADD77R,3.5000X1.5000*%
%ADD78R,1.5000X3.5000*%
%ADD79R,1.5000X4.0000*%
%ADD80C,5.0000*%
%ADD81R,1.5080X1.5080*%
%ADD82C,1.4080*%
%ADD83O,1.0400X2.0800*%
%ADD84C,1.3000*%
%ADD85R,1.2180X1.2180*%
%ADD86C,1.2180*%
%ADD87O,2.0800X1.0400*%
%ADD88R,1.2180X1.2180*%
%ADD89R,1.5900X1.5900*%
%ADD90C,1.5900*%
%ADD91C,1.4500*%
%ADD92C,1.1700*%
%ADD93R,1.1700X1.1700*%
%ADD94R,1.5900X1.5900*%
%ADD95C,1.9800*%
%ADD96C,1.9350*%
%ADD97R,1.9800X1.9800*%
%ADD98C,1.3970*%
%ADD99R,1.3970X1.3970*%
%ADD100R,1.1300X1.1300*%
%ADD101R,1.6764X1.6764*%
%ADD102C,1.6764*%
%ADD103C,2.1000*%
%ADD104R,2.1000X2.1000*%
%ADD105C,6.0000*%
%ADD106C,1.9100*%
%ADD107R,1.9100X1.9100*%
%ADD108C,2.0000*%
%ADD109C,1.2700*%
G36*
X2275386Y1232481D02*
X2271386Y1231685D01*
X2270685Y1233376D01*
X2268602Y1236092D01*
X2268602Y1236092D01*
X2185544Y1319150D01*
X2182828Y1321234D01*
X2179666Y1322543D01*
X2176272Y1322990D01*
X2176272Y1322990D01*
X2062988D01*
X2062988Y1322990D01*
X2059594Y1322543D01*
X2056432Y1321234D01*
X2053716Y1319150D01*
X1948651Y1214084D01*
X1945680Y1212369D01*
X1943448Y1210137D01*
X1941832Y1210351D01*
X1939448Y1211483D01*
Y1584960D01*
X1939001Y1588354D01*
X1937691Y1591516D01*
X1935608Y1594232D01*
X1935608Y1594232D01*
X1917006Y1612834D01*
X1914290Y1614917D01*
X1911128Y1616227D01*
X1907734Y1616674D01*
X1907734Y1616674D01*
X1781012D01*
X1781012Y1616674D01*
X1777618Y1616227D01*
X1774456Y1614917D01*
X1771740Y1612834D01*
X1771740Y1612834D01*
X1727778Y1568872D01*
X1725695Y1566156D01*
X1721292Y1565980D01*
X1720884Y1566686D01*
X1718736Y1568834D01*
X1716104Y1570354D01*
X1713169Y1571140D01*
X1710131D01*
X1707196Y1570354D01*
X1704564Y1568834D01*
X1702416Y1566686D01*
X1701066Y1564348D01*
X1699427Y1564054D01*
X1698473D01*
X1696834Y1564348D01*
X1695484Y1566686D01*
X1693336Y1568834D01*
X1690704Y1570354D01*
X1687769Y1571140D01*
X1684731D01*
X1681796Y1570354D01*
X1679164Y1568834D01*
X1677016Y1566686D01*
X1675666Y1564348D01*
X1674027Y1564054D01*
X1673073D01*
X1671434Y1564348D01*
X1670084Y1566686D01*
X1667936Y1568834D01*
X1665304Y1570354D01*
X1662369Y1571140D01*
X1659331D01*
X1656396Y1570354D01*
X1653764Y1568834D01*
X1651616Y1566686D01*
X1650266Y1564348D01*
X1648627Y1564054D01*
X1647673D01*
X1646034Y1564348D01*
X1644684Y1566686D01*
X1642536Y1568834D01*
X1639904Y1570354D01*
X1636969Y1571140D01*
X1633931D01*
X1630996Y1570354D01*
X1628364Y1568834D01*
X1626216Y1566686D01*
X1625808Y1565980D01*
X1621406Y1566156D01*
X1619322Y1568872D01*
X1616606Y1570956D01*
X1613444Y1572265D01*
X1610050Y1572712D01*
X1606656Y1572265D01*
X1603494Y1570956D01*
X1600778Y1568872D01*
X1598695Y1566156D01*
X1597385Y1562994D01*
X1596938Y1559600D01*
Y1173842D01*
X1593242Y1172311D01*
X1572362Y1193191D01*
Y1559600D01*
X1571915Y1562994D01*
X1570606Y1566156D01*
X1568522Y1568872D01*
X1565806Y1570956D01*
X1562644Y1572265D01*
X1559250Y1572712D01*
X1555856Y1572265D01*
X1552694Y1570956D01*
X1549978Y1568872D01*
X1548960Y1567545D01*
X1548175Y1567254D01*
X1544925D01*
X1544140Y1567545D01*
X1543122Y1568872D01*
X1540406Y1570956D01*
X1537244Y1572265D01*
X1533850Y1572712D01*
X1530457Y1572265D01*
X1527294Y1570956D01*
X1524578Y1568872D01*
X1523560Y1567545D01*
X1522775Y1567254D01*
X1519525D01*
X1518740Y1567545D01*
X1517722Y1568872D01*
X1515006Y1570956D01*
X1511844Y1572265D01*
X1508450Y1572712D01*
X1505056Y1572265D01*
X1501894Y1570956D01*
X1499178Y1568872D01*
X1497095Y1566156D01*
X1495785Y1562994D01*
X1495338Y1559600D01*
Y1528051D01*
X1319530Y1352244D01*
X1283790Y1387984D01*
X1281074Y1390067D01*
X1277912Y1391377D01*
X1274518Y1391824D01*
X1274518Y1391824D01*
X1123442D01*
X1123442Y1391824D01*
X1120048Y1391377D01*
X1116886Y1390067D01*
X1114170Y1387984D01*
X1098739Y1372552D01*
X1074738D01*
Y1347788D01*
X1077245D01*
X1077462Y1347492D01*
X1078627Y1343788D01*
X1077212Y1342373D01*
X1075582Y1339549D01*
X1074738Y1336400D01*
Y1333140D01*
X1075582Y1329991D01*
X1077212Y1327167D01*
X1079517Y1324862D01*
X1082341Y1323232D01*
X1085490Y1322388D01*
X1088750D01*
X1090338Y1322814D01*
X1094338Y1320445D01*
Y1298295D01*
X1090338Y1295927D01*
X1088750Y1296352D01*
X1085490D01*
X1082341Y1295508D01*
X1079517Y1293878D01*
X1077212Y1291573D01*
X1075582Y1288749D01*
X1074738Y1285600D01*
Y1282340D01*
X1075582Y1279191D01*
X1077212Y1276367D01*
X1079517Y1274062D01*
X1082341Y1272432D01*
X1085490Y1271588D01*
X1088750D01*
X1090338Y1272013D01*
X1094338Y1269645D01*
Y1152094D01*
X1090498Y1149699D01*
X1090338Y1149737D01*
X1086931Y1150650D01*
X1083245D01*
X1079684Y1149696D01*
X1076492Y1147853D01*
X1073885Y1145246D01*
X1072042Y1142054D01*
X1071088Y1138493D01*
Y1134807D01*
X1072042Y1131246D01*
X1073885Y1128054D01*
X1076492Y1125447D01*
X1079463Y1123732D01*
X1080338Y1122857D01*
Y1071370D01*
X1078230D01*
X1075775Y1070712D01*
X1073575Y1069442D01*
X1071778Y1067645D01*
X1070508Y1065445D01*
X1069850Y1062990D01*
Y1060450D01*
X1070508Y1057995D01*
X1071778Y1055795D01*
X1073276Y1054297D01*
X1073590Y1053769D01*
X1073886Y1049249D01*
X1070228Y1045592D01*
X974909Y950272D01*
X912756D01*
X910802Y952500D01*
X910355Y955894D01*
X909045Y959056D01*
X906962Y961772D01*
X904246Y963856D01*
X901084Y965165D01*
X897690Y965612D01*
X811620D01*
X809963Y969612D01*
X866596Y1026245D01*
X869024Y1029203D01*
X870828Y1032579D01*
X871939Y1036241D01*
X872314Y1040050D01*
X871939Y1043859D01*
X870828Y1047522D01*
X869024Y1050897D01*
X866596Y1053856D01*
X863637Y1056284D01*
X860262Y1058088D01*
X856599Y1059199D01*
X852790Y1059574D01*
X848981Y1059199D01*
X845319Y1058088D01*
X841943Y1056284D01*
X838985Y1053856D01*
X783061Y997932D01*
X688448D01*
X684639Y997557D01*
X680976Y996446D01*
X677601Y994642D01*
X674642Y992214D01*
X647464Y965036D01*
X645036Y962077D01*
X643232Y958701D01*
X642121Y955039D01*
X641746Y951230D01*
X642121Y947421D01*
X643232Y943758D01*
X645036Y940383D01*
X647464Y937424D01*
X650423Y934996D01*
X653798Y933192D01*
X657461Y932081D01*
X661270Y931706D01*
X665079Y932081D01*
X668741Y933192D01*
X672117Y934996D01*
X675075Y937424D01*
X696535Y958884D01*
X728305D01*
X729835Y955189D01*
X694285Y919638D01*
X630936D01*
X630936Y919638D01*
X627542Y919191D01*
X624380Y917881D01*
X621664Y915798D01*
X583532Y877666D01*
X579840Y878950D01*
X579532Y879208D01*
Y894080D01*
X579532Y894080D01*
X579085Y897474D01*
X577775Y900636D01*
X575692Y903352D01*
X575692Y903352D01*
X518542Y960502D01*
X515826Y962586D01*
X512664Y963895D01*
X509270Y964342D01*
X505876Y963895D01*
X502714Y962586D01*
X499998Y960502D01*
X497915Y957786D01*
X496605Y954624D01*
X496158Y951230D01*
X496605Y947836D01*
X497915Y944674D01*
X499998Y941958D01*
X553308Y888649D01*
Y867410D01*
X553755Y864016D01*
X555065Y860854D01*
X556330Y859205D01*
Y857320D01*
X558215D01*
X559864Y856055D01*
X563026Y854745D01*
X566420Y854298D01*
X569814Y854745D01*
X572976Y856055D01*
X573020Y856088D01*
X576510Y857320D01*
Y857320D01*
X580282Y859756D01*
X580745D01*
X581530Y859465D01*
X582548Y858138D01*
X585264Y856055D01*
X588426Y854745D01*
X591820Y854298D01*
X595214Y854745D01*
X598376Y856055D01*
X601092Y858138D01*
X604396Y861442D01*
X609146Y861215D01*
X611025Y859336D01*
X613325Y858008D01*
X615892Y857320D01*
X618548D01*
X621115Y858008D01*
X623415Y859336D01*
X625294Y861215D01*
X626622Y863515D01*
X627310Y866082D01*
Y868738D01*
X626622Y871305D01*
X625294Y873605D01*
X623415Y875484D01*
X623188Y880234D01*
X636367Y893414D01*
X699716D01*
X699716Y893414D01*
X703110Y893861D01*
X706272Y895171D01*
X708988Y897254D01*
X754962Y943228D01*
X757046Y945944D01*
X758355Y949106D01*
X758802Y952500D01*
X758488Y954884D01*
X760896Y958884D01*
X791148D01*
X791398Y958909D01*
X793215Y955068D01*
X733878Y895732D01*
X731795Y893016D01*
X730485Y889854D01*
X730038Y886460D01*
X730485Y883066D01*
X731795Y879904D01*
X733878Y877188D01*
X736594Y875105D01*
X739756Y873795D01*
X743150Y873348D01*
X746544Y873795D01*
X749706Y875105D01*
X752422Y877188D01*
X814621Y939388D01*
X818944D01*
X820475Y935692D01*
X712727Y827944D01*
X668453D01*
X668452Y827944D01*
X665059Y827497D01*
X661896Y826188D01*
X659181Y824104D01*
X587628Y752551D01*
X587107Y751873D01*
X582092Y751231D01*
X580772Y752551D01*
X578056Y754635D01*
X574894Y755945D01*
X571500Y756392D01*
X568106Y755945D01*
X564944Y754635D01*
X562228Y752551D01*
X561707Y751873D01*
X556692Y751231D01*
X555372Y752551D01*
X552656Y754635D01*
X549494Y755945D01*
X546100Y756392D01*
X542706Y755945D01*
X539544Y754635D01*
X536828Y752551D01*
X534744Y749836D01*
X533435Y746673D01*
X532988Y743280D01*
X533435Y739886D01*
X534744Y736724D01*
X536828Y734008D01*
X593686Y677150D01*
X593395Y674711D01*
X592625Y672554D01*
X590975Y671602D01*
X589178Y669805D01*
X587908Y667605D01*
X587250Y665150D01*
Y662609D01*
X587908Y660155D01*
X589178Y657955D01*
X590975Y656158D01*
X593175Y654887D01*
X595630Y654230D01*
X598171D01*
X600625Y654887D01*
X602825Y656158D01*
X604622Y657955D01*
X605892Y660155D01*
X606550Y662609D01*
Y665150D01*
X606283Y666148D01*
X608209Y669475D01*
X609043Y670148D01*
X655477D01*
X673196Y652429D01*
Y552273D01*
X672308Y548959D01*
Y545273D01*
X673262Y541712D01*
X675105Y538520D01*
X677712Y535913D01*
X680904Y534070D01*
X684465Y533116D01*
X688151D01*
X691712Y534070D01*
X694904Y535913D01*
X697511Y538520D01*
X699354Y541712D01*
X700308Y545273D01*
Y548959D01*
X699420Y552273D01*
Y657860D01*
X699420Y657860D01*
X698973Y661254D01*
X697663Y664416D01*
X695580Y667132D01*
X695580Y667132D01*
X670180Y692532D01*
X667464Y694615D01*
X664302Y695925D01*
X660908Y696372D01*
X660908Y696372D01*
X611551D01*
X595497Y712426D01*
X597028Y716122D01*
X703326D01*
X703326Y716122D01*
X706720Y716569D01*
X709882Y717878D01*
X712598Y719962D01*
X902683Y910048D01*
X980258D01*
X981789Y906352D01*
X976756Y901320D01*
X974672Y898604D01*
X973363Y895442D01*
X972916Y892048D01*
X972916Y892048D01*
Y685643D01*
X818378Y531105D01*
X814682Y532636D01*
Y607060D01*
X814236Y610454D01*
X812926Y613616D01*
X810842Y616332D01*
X808126Y618415D01*
X804964Y619725D01*
X801570Y620172D01*
X798176Y619725D01*
X795014Y618415D01*
X792298Y616332D01*
X790215Y613616D01*
X788905Y610454D01*
X788458Y607060D01*
Y524510D01*
X788905Y521116D01*
X790215Y517954D01*
X792298Y515238D01*
X794876Y513260D01*
X795020Y513119D01*
X795780Y508508D01*
X776858Y489586D01*
X774774Y486870D01*
X773465Y483708D01*
X773018Y480314D01*
X773018Y480314D01*
Y305562D01*
X773018Y305562D01*
X773465Y302168D01*
X774774Y299006D01*
X776858Y296290D01*
X812418Y260730D01*
X815134Y258647D01*
X818296Y257337D01*
X821690Y256890D01*
X821690Y256890D01*
X834542D01*
X834542Y256890D01*
X837936Y257337D01*
X841098Y258647D01*
X843814Y260730D01*
X862712Y279628D01*
X863730Y280956D01*
X864515Y281246D01*
X867765D01*
X868550Y280956D01*
X869568Y279628D01*
X904214Y244982D01*
X904214Y244982D01*
X906930Y242899D01*
X910092Y241589D01*
X913486Y241142D01*
X913486Y241142D01*
X968151D01*
X979920Y229373D01*
X978625Y226444D01*
X977966Y225670D01*
X975377D01*
X972569Y224918D01*
X970051Y223464D01*
X967996Y221409D01*
X966543Y218891D01*
X965790Y216083D01*
Y213177D01*
X966543Y210369D01*
X967996Y207851D01*
X970051Y205796D01*
X972569Y204342D01*
X975377Y203590D01*
X978284D01*
X981268Y200249D01*
Y78008D01*
X981268Y78008D01*
X981715Y74614D01*
X983025Y71452D01*
X985108Y68736D01*
X1015618Y38226D01*
X1015618Y38226D01*
X1018334Y36142D01*
X1021496Y34833D01*
X1024890Y34386D01*
X1073048D01*
X1073048Y34386D01*
X1076442Y34833D01*
X1079604Y36142D01*
X1082320Y38226D01*
X1096392Y52298D01*
X1096392Y52298D01*
X1100049Y55956D01*
X1104569Y55660D01*
X1105097Y55346D01*
X1106595Y53848D01*
X1108795Y52578D01*
X1111249Y51920D01*
X1113791D01*
X1116245Y52578D01*
X1118445Y53848D01*
X1120242Y55645D01*
X1121512Y57845D01*
X1122170Y60300D01*
Y62841D01*
X1121512Y65295D01*
X1120242Y67495D01*
X1118445Y69292D01*
X1118134Y74041D01*
X1144988Y100895D01*
X1148684Y99364D01*
Y83004D01*
X1148684Y83004D01*
X1149131Y79611D01*
X1150441Y76448D01*
X1152524Y73732D01*
X1168018Y58239D01*
X1170734Y56155D01*
X1173896Y54845D01*
X1177290Y54398D01*
X1180684Y54845D01*
X1183846Y56155D01*
X1186562Y58239D01*
X1188645Y60954D01*
X1189955Y64117D01*
X1190402Y67510D01*
X1189955Y70904D01*
X1188645Y74066D01*
X1186562Y76782D01*
X1174908Y88435D01*
Y207757D01*
X1175837Y208470D01*
X1178743D01*
X1181551Y209222D01*
X1184069Y210676D01*
X1186124Y212731D01*
X1187578Y215249D01*
X1188330Y218056D01*
Y220963D01*
X1187578Y223771D01*
X1186124Y226289D01*
X1184069Y228344D01*
X1181551Y229797D01*
X1178743Y230550D01*
X1175837D01*
X1174908Y231262D01*
Y270352D01*
X1176450Y271687D01*
X1178908Y272908D01*
X1180917Y272370D01*
X1183823D01*
X1186631Y273123D01*
X1189149Y274576D01*
X1191204Y276631D01*
X1192658Y279149D01*
X1193410Y281957D01*
Y284864D01*
X1192658Y287671D01*
X1191204Y290189D01*
X1189149Y292244D01*
X1186631Y293698D01*
X1183823Y294450D01*
X1180917D01*
X1178908Y293912D01*
X1176450Y295133D01*
X1174908Y296469D01*
Y422351D01*
X1176450Y423686D01*
X1178908Y424908D01*
X1180917Y424370D01*
X1183823D01*
X1186631Y425122D01*
X1189149Y426576D01*
X1191204Y428631D01*
X1192658Y431149D01*
X1193410Y433956D01*
Y436863D01*
X1192658Y439671D01*
X1191204Y442189D01*
X1189149Y444244D01*
X1186631Y445698D01*
X1183823Y446450D01*
X1180917D01*
X1178908Y445912D01*
X1176450Y447133D01*
X1174908Y448468D01*
Y479723D01*
X1177615Y480875D01*
X1178908Y481009D01*
X1180671Y479246D01*
X1183189Y477792D01*
X1185997Y477040D01*
X1188903D01*
X1191711Y477792D01*
X1194229Y479246D01*
X1196284Y481301D01*
X1197738Y483819D01*
X1198490Y486626D01*
Y489533D01*
X1197738Y492341D01*
X1196284Y494859D01*
X1194229Y496914D01*
X1191711Y498367D01*
X1188903Y499120D01*
X1185997D01*
X1183189Y498367D01*
X1180671Y496914D01*
X1178908Y495151D01*
X1177615Y495285D01*
X1174908Y496437D01*
Y571403D01*
X1212216Y608710D01*
X1214299Y611426D01*
X1215609Y614588D01*
X1216056Y617982D01*
X1216056Y617982D01*
Y916076D01*
X1216056Y916076D01*
X1215609Y919470D01*
X1214299Y922632D01*
X1212216Y925348D01*
X1212216Y925348D01*
X1168172Y969392D01*
X1165456Y971476D01*
X1162294Y972785D01*
X1158900Y973232D01*
X1155506Y972785D01*
X1152344Y971476D01*
X1149628Y969392D01*
X1147544Y966676D01*
X1146235Y963514D01*
X1145788Y960120D01*
X1146235Y956726D01*
X1147544Y953564D01*
X1149628Y950848D01*
X1153286Y947191D01*
X1152990Y942671D01*
X1152676Y942143D01*
X1151178Y940645D01*
X1149908Y938445D01*
X1149250Y935991D01*
Y933449D01*
X1149908Y930995D01*
X1151178Y928795D01*
X1152975Y926998D01*
X1155175Y925728D01*
X1157629Y925070D01*
X1160170D01*
X1162625Y925728D01*
X1164825Y926998D01*
X1166622Y928795D01*
X1171371Y929106D01*
X1189832Y910645D01*
Y661468D01*
X1186136Y659937D01*
X1168412Y677661D01*
Y690880D01*
X1167966Y694274D01*
X1166656Y697436D01*
X1164572Y700152D01*
X1161856Y702235D01*
X1158694Y703545D01*
X1155300Y703992D01*
X1152238Y703589D01*
X1151766Y703653D01*
X1148238Y706356D01*
Y894284D01*
X1148238Y894284D01*
X1147791Y897678D01*
X1146481Y900840D01*
X1144398Y903556D01*
X1144398Y903556D01*
X1137570Y910384D01*
Y1033880D01*
X1141266Y1035411D01*
X1149628Y1027048D01*
X1152344Y1024965D01*
X1155506Y1023655D01*
X1158900Y1023208D01*
X1162294Y1023655D01*
X1165456Y1024965D01*
X1168172Y1027048D01*
X1170255Y1029764D01*
X1171565Y1032926D01*
X1172012Y1036320D01*
X1171565Y1039714D01*
X1170255Y1042876D01*
X1168172Y1045592D01*
X1157890Y1055873D01*
Y1259997D01*
X1172592Y1274698D01*
X1174676Y1277414D01*
X1175985Y1280576D01*
X1176432Y1283970D01*
X1175985Y1287364D01*
X1174676Y1290526D01*
X1172592Y1293242D01*
X1170684Y1294705D01*
X1170363Y1297744D01*
X1170680Y1299322D01*
X1170923Y1299462D01*
X1173228Y1301767D01*
X1174858Y1304591D01*
X1175702Y1307740D01*
Y1311000D01*
X1174858Y1314149D01*
X1173228Y1316973D01*
X1170923Y1319278D01*
X1170079Y1319765D01*
Y1324375D01*
X1170923Y1324862D01*
X1173228Y1327167D01*
X1174858Y1329991D01*
X1175702Y1333140D01*
Y1336400D01*
X1174858Y1339549D01*
X1173228Y1342373D01*
X1170923Y1344678D01*
X1170965Y1349272D01*
X1172592Y1350898D01*
X1174676Y1353614D01*
X1175985Y1356776D01*
X1176432Y1360170D01*
X1176244Y1361600D01*
X1179077Y1365600D01*
X1269087D01*
X1306418Y1328269D01*
Y1282760D01*
X1306418Y1282760D01*
X1306865Y1279366D01*
X1308174Y1276204D01*
X1308958Y1275183D01*
Y1254760D01*
X1309405Y1251366D01*
X1310715Y1248204D01*
X1312798Y1245488D01*
X1313477Y1244967D01*
X1314119Y1239952D01*
X1312798Y1238632D01*
X1310715Y1235916D01*
X1309405Y1232754D01*
X1308958Y1229360D01*
X1309405Y1225966D01*
X1310715Y1222804D01*
X1312798Y1220088D01*
X1315514Y1218005D01*
X1318676Y1216695D01*
X1322070Y1216248D01*
X1325464Y1216695D01*
X1328626Y1218005D01*
X1331342Y1220088D01*
X1542138Y1430885D01*
X1545830Y1429600D01*
X1546138Y1429343D01*
Y1187760D01*
X1546138Y1187760D01*
X1546585Y1184366D01*
X1547895Y1181204D01*
X1549978Y1178488D01*
X1571199Y1157268D01*
X1569668Y1153572D01*
X1414018D01*
X1414018Y1153572D01*
X1410624Y1153125D01*
X1407462Y1151815D01*
X1404746Y1149732D01*
X1389760Y1134746D01*
X1387677Y1132030D01*
X1386367Y1128868D01*
X1385920Y1125474D01*
X1385920Y1125474D01*
Y838043D01*
X1344361Y796484D01*
X1340361Y798141D01*
Y799122D01*
X1339473Y802436D01*
Y937309D01*
X1343473Y940379D01*
X1343849Y940278D01*
X1347535D01*
X1351096Y941232D01*
X1354288Y943075D01*
X1356895Y945682D01*
X1358738Y948874D01*
X1359692Y952435D01*
Y956121D01*
X1358804Y959435D01*
Y1073540D01*
X1358804Y1073540D01*
X1358357Y1076934D01*
X1357047Y1080096D01*
X1354964Y1082812D01*
X1354964Y1082812D01*
X1307411Y1130364D01*
X1304696Y1132448D01*
X1301533Y1133758D01*
X1298140Y1134205D01*
X1294746Y1133758D01*
X1291584Y1132448D01*
X1288868Y1130364D01*
X1286784Y1127649D01*
X1285474Y1124486D01*
X1285027Y1121093D01*
X1285474Y1117699D01*
X1286784Y1114536D01*
X1288868Y1111821D01*
X1332580Y1068109D01*
Y1042794D01*
X1328884Y1041264D01*
X1307411Y1062737D01*
X1304696Y1064820D01*
X1301533Y1066130D01*
X1298140Y1066577D01*
X1294746Y1066130D01*
X1291584Y1064820D01*
X1288868Y1062737D01*
X1286784Y1060021D01*
X1285474Y1056859D01*
X1285027Y1053465D01*
X1285474Y1050071D01*
X1286784Y1046909D01*
X1288868Y1044193D01*
X1313249Y1019812D01*
Y802436D01*
X1312361Y799122D01*
Y795436D01*
X1313315Y791875D01*
X1315158Y788683D01*
X1317765Y786076D01*
X1320957Y784233D01*
X1324518Y783279D01*
X1325499D01*
X1327156Y779279D01*
X1300606Y752730D01*
X1298522Y750014D01*
X1297213Y746852D01*
X1296766Y743458D01*
X1296766Y743458D01*
Y612509D01*
X1292766Y610014D01*
X1291773Y610280D01*
X1288867D01*
X1286059Y609528D01*
X1283541Y608074D01*
X1281486Y606019D01*
X1280032Y603501D01*
X1279280Y600693D01*
Y597786D01*
X1280032Y594979D01*
X1281486Y592461D01*
X1283541Y590406D01*
X1286059Y588952D01*
X1288867Y588200D01*
X1291773D01*
X1292766Y588466D01*
X1296766Y585970D01*
Y462411D01*
X1292766Y460030D01*
X1290320Y460352D01*
X1286926Y459906D01*
X1283764Y458596D01*
X1281048Y456512D01*
X1278964Y453796D01*
X1277655Y450634D01*
X1277208Y447240D01*
Y387150D01*
X1277655Y383756D01*
X1278964Y380594D01*
X1281048Y377878D01*
X1283764Y375794D01*
X1286926Y374484D01*
X1290320Y374038D01*
X1292766Y374360D01*
X1296766Y371979D01*
Y248420D01*
X1292766Y245924D01*
X1291773Y246190D01*
X1288867D01*
X1286059Y245438D01*
X1283541Y243984D01*
X1281486Y241929D01*
X1280032Y239411D01*
X1279280Y236604D01*
Y233697D01*
X1280032Y230889D01*
X1281486Y228371D01*
X1283541Y226316D01*
X1286059Y224862D01*
X1288867Y224110D01*
X1291773D01*
X1292766Y224376D01*
X1296766Y221881D01*
Y149622D01*
X1296766Y149622D01*
X1297213Y146229D01*
X1298522Y143066D01*
X1300606Y140351D01*
X1324360Y116597D01*
Y111240D01*
X1331190D01*
X1332917Y110525D01*
X1336310Y110078D01*
X1339704Y110525D01*
X1341431Y111240D01*
X1348260D01*
Y118069D01*
X1348976Y119796D01*
X1349422Y123190D01*
Y217350D01*
X1360930D01*
Y220600D01*
X1364930Y221396D01*
X1365325Y220444D01*
X1367408Y217728D01*
X1370124Y215644D01*
X1373286Y214334D01*
X1376680Y213888D01*
X1380074Y214334D01*
X1383236Y215644D01*
X1385952Y217728D01*
X1388035Y220444D01*
X1389049Y222891D01*
X1391601Y223248D01*
X1393255Y222986D01*
X1394358Y221075D01*
X1396155Y219278D01*
X1398355Y218007D01*
X1400809Y217350D01*
X1403351D01*
X1405805Y218007D01*
X1408005Y219278D01*
X1409802Y221075D01*
X1411072Y223275D01*
X1411730Y225729D01*
Y228270D01*
X1411072Y230725D01*
X1409802Y232925D01*
X1408005Y234722D01*
X1405805Y235992D01*
X1403351Y236650D01*
X1400809D01*
X1398355Y235992D01*
X1396155Y234722D01*
X1394358Y232925D01*
X1393792Y231945D01*
X1389792Y233017D01*
Y275568D01*
X1411352Y297128D01*
X1412370Y298455D01*
X1413155Y298745D01*
X1416405D01*
X1417190Y298455D01*
X1418208Y297128D01*
X1420924Y295044D01*
X1424086Y293734D01*
X1427480Y293288D01*
X1430874Y293734D01*
X1434036Y295044D01*
X1436752Y297128D01*
X1437770Y298455D01*
X1438555Y298745D01*
X1441805Y298745D01*
X1442590Y298455D01*
X1443608Y297128D01*
X1446324Y295044D01*
X1449486Y293734D01*
X1452880Y293288D01*
X1456274Y293734D01*
X1459436Y295044D01*
X1462152Y297128D01*
X1463472Y298449D01*
X1468487Y297807D01*
X1469008Y297128D01*
X1471724Y295044D01*
X1474886Y293734D01*
X1478280Y293288D01*
X1481674Y293734D01*
X1484836Y295044D01*
X1487552Y297128D01*
X1491209Y300785D01*
X1495729Y300489D01*
X1496257Y300176D01*
X1497755Y298678D01*
X1499955Y297407D01*
X1502410Y296750D01*
X1504951D01*
X1507405Y297407D01*
X1509605Y298678D01*
X1511402Y300474D01*
X1512672Y302675D01*
X1513330Y305129D01*
Y307670D01*
X1512672Y310124D01*
X1511402Y312325D01*
X1509605Y314122D01*
X1509294Y318871D01*
X1558602Y368178D01*
X1558602Y368178D01*
X1560258Y370336D01*
X1562322Y370136D01*
X1564258Y369240D01*
Y167356D01*
X1564258Y167356D01*
X1564705Y163962D01*
X1566015Y160800D01*
X1568098Y158084D01*
X1637918Y88264D01*
X1640634Y86180D01*
X1643796Y84871D01*
X1647190Y84424D01*
X1689986D01*
X1689986Y84424D01*
X1693380Y84871D01*
X1696542Y86180D01*
X1699258Y88264D01*
X1714782Y103789D01*
X1717586Y105407D01*
X1720183Y108005D01*
X1722020Y111186D01*
X1722970Y114734D01*
Y118407D01*
X1722020Y121955D01*
X1720183Y125136D01*
X1717586Y127733D01*
X1714405Y129570D01*
X1710857Y130520D01*
X1707184D01*
X1703636Y129570D01*
X1700455Y127733D01*
X1697857Y125136D01*
X1696239Y122332D01*
X1684555Y110648D01*
X1676016D01*
X1672947Y114648D01*
X1672970Y114734D01*
Y118407D01*
X1672019Y121955D01*
X1670183Y125136D01*
X1667585Y127733D01*
X1664782Y129352D01*
X1653882Y140252D01*
Y225219D01*
X1657055Y227654D01*
X1657183Y227620D01*
X1660856D01*
X1664404Y228571D01*
X1667585Y230408D01*
X1670183Y233005D01*
X1672019Y236186D01*
X1672970Y239734D01*
Y243407D01*
X1672019Y246955D01*
X1670183Y250136D01*
X1667585Y252733D01*
X1664404Y254570D01*
X1660856Y255520D01*
X1657183D01*
X1657055Y255486D01*
X1653882Y257921D01*
Y286063D01*
X1657055Y288498D01*
X1657183Y288463D01*
X1660856D01*
X1664404Y289414D01*
X1667585Y291251D01*
X1670183Y293848D01*
X1672019Y297029D01*
X1672970Y300577D01*
Y304250D01*
X1672019Y307798D01*
X1670183Y310979D01*
X1667585Y313576D01*
X1664404Y315413D01*
X1660856Y316363D01*
X1657183D01*
X1657055Y316329D01*
X1653882Y318764D01*
Y411063D01*
X1657055Y413498D01*
X1657183Y413463D01*
X1660856D01*
X1664404Y414414D01*
X1667585Y416251D01*
X1670183Y418848D01*
X1672019Y422029D01*
X1672970Y425577D01*
Y429250D01*
X1672019Y432798D01*
X1670183Y435979D01*
X1667585Y438576D01*
X1664404Y440413D01*
X1660856Y441363D01*
X1657183D01*
X1657055Y441329D01*
X1653882Y443764D01*
Y468520D01*
X1657055Y470955D01*
X1657183Y470920D01*
X1660856D01*
X1664404Y471871D01*
X1667585Y473708D01*
X1670183Y476305D01*
X1672019Y479486D01*
X1672970Y483034D01*
Y486707D01*
X1672019Y490255D01*
X1670183Y493436D01*
X1667585Y496033D01*
X1664404Y497870D01*
X1660856Y498820D01*
X1657183D01*
X1657055Y498786D01*
X1653882Y501221D01*
Y593520D01*
X1657055Y595955D01*
X1657183Y595920D01*
X1660856D01*
X1664404Y596871D01*
X1667585Y598708D01*
X1670183Y601305D01*
X1672019Y604486D01*
X1672970Y608034D01*
Y611707D01*
X1672019Y615255D01*
X1670183Y618436D01*
X1667585Y621033D01*
X1664404Y622870D01*
X1660856Y623820D01*
X1657183D01*
X1657055Y623786D01*
X1653882Y626221D01*
Y655210D01*
X1657055Y657645D01*
X1657183Y657610D01*
X1660856D01*
X1664404Y658561D01*
X1667585Y660397D01*
X1670183Y662995D01*
X1672019Y666176D01*
X1672970Y669724D01*
Y673397D01*
X1672019Y676945D01*
X1670183Y680126D01*
X1667585Y682723D01*
X1664404Y684560D01*
X1660856Y685510D01*
X1657183D01*
X1657055Y685476D01*
X1653882Y687911D01*
Y780210D01*
X1657055Y782645D01*
X1657183Y782610D01*
X1660856D01*
X1664404Y783561D01*
X1667585Y785397D01*
X1670183Y787995D01*
X1672019Y791176D01*
X1672970Y794724D01*
Y798397D01*
X1672019Y801945D01*
X1670183Y805126D01*
X1667585Y807723D01*
X1664404Y809560D01*
X1660856Y810510D01*
X1657183D01*
X1657055Y810476D01*
X1653882Y812911D01*
Y966049D01*
X1666622Y978788D01*
X1667640Y980115D01*
X1668425Y980406D01*
X1671675D01*
X1672460Y980115D01*
X1673478Y978788D01*
X1676194Y976704D01*
X1679356Y975395D01*
X1682750Y974948D01*
X1686144Y975395D01*
X1689306Y976704D01*
X1689768Y977059D01*
X1693768Y975086D01*
Y882650D01*
X1694215Y879256D01*
X1695524Y876094D01*
X1697066Y874085D01*
Y872836D01*
X1698315D01*
X1700324Y871294D01*
X1703486Y869985D01*
X1706880Y869538D01*
X1710274Y869985D01*
X1713436Y871294D01*
X1715445Y872836D01*
X1716694D01*
Y874085D01*
X1717170Y874705D01*
X1717955Y874996D01*
X1721205D01*
X1721990Y874705D01*
X1723008Y873378D01*
X1725724Y871294D01*
X1728886Y869985D01*
X1732280Y869538D01*
X1735674Y869985D01*
X1738836Y871294D01*
X1741552Y873378D01*
X1742570Y874705D01*
X1743355Y874996D01*
X1746605D01*
X1747390Y874705D01*
X1748408Y873378D01*
X1751124Y871294D01*
X1754286Y869985D01*
X1757680Y869538D01*
X1761074Y869985D01*
X1764236Y871294D01*
X1766952Y873378D01*
X1767970Y874705D01*
X1768755Y874996D01*
X1772005D01*
X1772790Y874705D01*
X1773808Y873378D01*
X1776524Y871294D01*
X1779686Y869985D01*
X1783080Y869538D01*
X1786474Y869985D01*
X1789636Y871294D01*
X1792352Y873378D01*
X1793370Y874705D01*
X1794155Y874996D01*
X1797405D01*
X1798190Y874705D01*
X1799208Y873378D01*
X1816226Y856360D01*
X1818942Y854277D01*
X1822104Y852967D01*
X1825498Y852520D01*
X1878610D01*
X1880266Y848520D01*
X1871090Y839344D01*
X1869007Y836628D01*
X1867697Y833466D01*
X1867250Y830072D01*
X1867250Y830072D01*
Y810510D01*
X1839850D01*
Y801154D01*
X1826132Y787436D01*
X1824048Y784720D01*
X1822739Y781558D01*
X1822292Y778164D01*
X1822292Y778164D01*
Y628267D01*
X1822292Y628266D01*
X1822739Y624873D01*
X1824048Y621710D01*
X1826132Y618995D01*
X1835257Y609870D01*
X1826132Y600746D01*
X1824048Y598030D01*
X1822739Y594868D01*
X1822292Y591474D01*
X1822292Y591474D01*
Y445810D01*
X1822292Y445810D01*
X1822739Y442416D01*
X1824048Y439254D01*
X1826132Y436538D01*
X1835257Y427413D01*
X1826132Y418289D01*
X1824048Y415573D01*
X1822739Y412411D01*
X1822292Y409017D01*
X1822292Y409017D01*
Y259967D01*
X1822292Y259967D01*
X1822739Y256573D01*
X1824048Y253410D01*
X1826132Y250695D01*
X1839850Y236977D01*
Y227620D01*
X1867750D01*
Y255520D01*
X1858394D01*
X1848516Y265398D01*
Y286102D01*
X1851690Y288537D01*
X1851964Y288463D01*
X1855637D01*
X1859185Y289414D01*
X1862366Y291251D01*
X1864963Y293848D01*
X1866799Y297029D01*
X1867750Y300577D01*
Y304250D01*
X1866799Y307798D01*
X1864963Y310979D01*
X1862366Y313576D01*
X1859185Y315413D01*
X1855637Y316363D01*
X1851964D01*
X1851690Y316290D01*
X1848516Y318725D01*
Y403586D01*
X1858394Y413463D01*
X1867750D01*
Y441363D01*
X1858394D01*
X1848516Y451241D01*
Y468559D01*
X1851690Y470994D01*
X1851964Y470920D01*
X1855637D01*
X1859185Y471871D01*
X1862366Y473708D01*
X1864963Y476305D01*
X1866799Y479486D01*
X1867750Y483034D01*
Y486707D01*
X1866799Y490255D01*
X1864963Y493436D01*
X1862366Y496033D01*
X1859185Y497870D01*
X1855637Y498820D01*
X1851964D01*
X1851690Y498747D01*
X1848516Y501182D01*
Y586043D01*
X1858394Y595920D01*
X1867750D01*
Y620886D01*
X1871750Y622543D01*
X1871766Y622527D01*
X1874958Y620684D01*
X1878519Y619730D01*
X1882205D01*
X1885766Y620684D01*
X1888958Y622527D01*
X1891565Y625134D01*
X1893408Y628326D01*
X1894362Y631887D01*
Y635573D01*
X1893474Y638887D01*
Y824641D01*
X2047622Y978788D01*
X2049706Y981504D01*
X2049998Y982210D01*
X2054376Y982327D01*
X2054960Y981315D01*
X2057005Y979270D01*
X2059510Y977824D01*
X2062304Y977075D01*
X2065196D01*
X2067990Y977824D01*
X2070495Y979270D01*
X2072540Y981315D01*
X2073986Y983820D01*
X2074735Y986614D01*
Y989506D01*
X2073986Y992300D01*
X2072540Y994805D01*
X2070495Y996850D01*
X2067990Y998296D01*
X2065196Y999045D01*
X2062304D01*
X2059510Y998296D01*
X2057005Y996850D01*
X2054960Y994805D01*
X2054376Y993793D01*
X2049998Y993910D01*
X2049706Y994616D01*
X2047622Y997332D01*
X2044906Y999416D01*
X2041744Y1000725D01*
X2038350Y1001172D01*
X2034956Y1000725D01*
X2031794Y999416D01*
X2029078Y997332D01*
X2027758Y996011D01*
X2022743Y996653D01*
X2022222Y997332D01*
X2019506Y999416D01*
X2016344Y1000725D01*
X2012950Y1001172D01*
X2009556Y1000725D01*
X2006394Y999416D01*
X2003678Y997332D01*
X2001030Y994683D01*
X1996340Y994805D01*
X1994295Y996850D01*
X1991790Y998296D01*
X1988996Y999045D01*
X1986104D01*
X1983310Y998296D01*
X1980805Y996850D01*
X1978760Y994805D01*
X1977314Y992300D01*
X1976921Y990833D01*
X1972779D01*
X1972386Y992300D01*
X1970940Y994805D01*
X1969283Y996462D01*
X2104995Y1132174D01*
X2123251D01*
X2124908Y1128174D01*
X2124216Y1127482D01*
X2122828Y1125079D01*
X2122110Y1122398D01*
Y1119623D01*
X2122828Y1116942D01*
X2124216Y1114538D01*
X2126178Y1112576D01*
X2128582Y1111189D01*
X2131262Y1110470D01*
X2134038D01*
X2136718Y1111189D01*
X2139122Y1112576D01*
X2141084Y1114538D01*
X2142472Y1116942D01*
X2143190Y1119623D01*
Y1122398D01*
X2142472Y1125079D01*
X2141084Y1127482D01*
X2140392Y1128174D01*
X2142049Y1132174D01*
X2147473D01*
X2159085Y1120562D01*
X2159395Y1118206D01*
X2160705Y1115043D01*
X2162789Y1112328D01*
X2163378Y1111739D01*
X2166094Y1109655D01*
X2169256Y1108345D01*
X2172650Y1107898D01*
X2176044Y1108345D01*
X2179206Y1109655D01*
X2181922Y1111739D01*
X2182970Y1113105D01*
X2187714Y1114017D01*
X2203631Y1098100D01*
Y972307D01*
X2199631Y970650D01*
X2177318Y992963D01*
X2176879Y994022D01*
X2174796Y996738D01*
X2174524Y997009D01*
Y997015D01*
X2173570Y1000576D01*
X2171727Y1003768D01*
X2169120Y1006375D01*
X2165928Y1008218D01*
X2162367Y1009172D01*
X2158681D01*
X2155120Y1008218D01*
X2151928Y1006375D01*
X2149321Y1003768D01*
X2147478Y1000576D01*
X2146524Y997015D01*
Y993329D01*
X2147478Y989768D01*
X2147852Y989120D01*
X2147859Y989072D01*
X2149169Y985910D01*
X2151252Y983194D01*
X2153730Y980717D01*
X2154169Y979658D01*
X2156252Y976942D01*
X2178908Y954287D01*
Y219608D01*
X2178908Y219607D01*
X2179355Y216214D01*
X2180665Y213051D01*
X2182748Y210336D01*
X2183440Y209643D01*
X2181910Y205948D01*
X1930066D01*
X1926672Y205501D01*
X1923510Y204191D01*
X1920794Y202108D01*
X1920794Y202107D01*
X1848038Y129352D01*
X1845235Y127733D01*
X1842637Y125136D01*
X1840801Y121955D01*
X1839850Y118407D01*
Y114734D01*
X1840801Y111186D01*
X1842637Y108005D01*
X1845235Y105407D01*
X1848416Y103571D01*
X1851964Y102620D01*
X1855637D01*
X1859185Y103571D01*
X1862366Y105407D01*
X1864963Y108005D01*
X1866582Y110808D01*
X1935497Y179724D01*
X2041774D01*
X2043305Y176028D01*
X1996628Y129352D01*
X1993825Y127733D01*
X1991227Y125136D01*
X1989391Y121955D01*
X1988440Y118407D01*
Y114734D01*
X1989391Y111186D01*
X1991227Y108005D01*
X1993825Y105407D01*
X1997006Y103571D01*
X2000554Y102620D01*
X2004227D01*
X2007775Y103571D01*
X2010956Y105407D01*
X2013553Y108005D01*
X2015172Y110808D01*
X2062701Y158338D01*
X2232366D01*
X2232366Y158338D01*
X2235760Y158785D01*
X2238922Y160095D01*
X2241638Y162178D01*
X2268602Y189142D01*
X2268602Y189142D01*
X2270685Y191857D01*
X2271386Y193548D01*
X2275386Y192752D01*
Y5534D01*
X8074D01*
Y1677216D01*
X56589D01*
X56714Y1676913D01*
X57277Y1673216D01*
X53300Y1671189D01*
X48970Y1668044D01*
X45186Y1664259D01*
X42041Y1659930D01*
X39611Y1655161D01*
X37957Y1650072D01*
X37120Y1644786D01*
Y1639434D01*
X37957Y1634148D01*
X39611Y1629059D01*
X42041Y1624290D01*
X45186Y1619960D01*
X48970Y1616176D01*
X53300Y1613031D01*
X58068Y1610601D01*
X63158Y1608947D01*
X68444Y1608110D01*
X73796D01*
X79082Y1608947D01*
X84171Y1610601D01*
X88940Y1613031D01*
X93270Y1616176D01*
X97054Y1619960D01*
X100199Y1624290D01*
X102629Y1629059D01*
X104283Y1634148D01*
X105120Y1639434D01*
Y1644786D01*
X104283Y1650072D01*
X102629Y1655161D01*
X100199Y1659930D01*
X97054Y1664259D01*
X93270Y1668044D01*
X88940Y1671189D01*
X84963Y1673216D01*
X85526Y1676913D01*
X85651Y1677216D01*
X2221642D01*
X2222276Y1673216D01*
X2219608Y1672349D01*
X2214840Y1669919D01*
X2210511Y1666774D01*
X2206726Y1662990D01*
X2203581Y1658660D01*
X2201151Y1653891D01*
X2199497Y1648802D01*
X2198660Y1643516D01*
Y1638164D01*
X2199497Y1632878D01*
X2201151Y1627789D01*
X2203581Y1623020D01*
X2206726Y1618690D01*
X2210511Y1614906D01*
X2214840Y1611761D01*
X2219608Y1609331D01*
X2224698Y1607677D01*
X2229984Y1606840D01*
X2235336D01*
X2240622Y1607677D01*
X2245712Y1609331D01*
X2250480Y1611761D01*
X2254810Y1614906D01*
X2258594Y1618690D01*
X2261739Y1623020D01*
X2264169Y1627789D01*
X2265823Y1632878D01*
X2266660Y1638164D01*
Y1643516D01*
X2265823Y1648802D01*
X2264169Y1653891D01*
X2261739Y1658660D01*
X2258594Y1662990D01*
X2254810Y1666774D01*
X2250480Y1669919D01*
X2245712Y1672349D01*
X2243044Y1673216D01*
X2243678Y1677216D01*
X2275386D01*
Y1232481D01*
D02*
G37*
G36*
X1701066Y1554852D02*
X1702416Y1552514D01*
X1704564Y1550366D01*
X1707196Y1548847D01*
X1710131Y1548060D01*
X1713169D01*
X1716104Y1548847D01*
X1718736Y1550366D01*
X1720884Y1552514D01*
X1721292Y1553220D01*
X1725695Y1553044D01*
X1727778Y1550328D01*
X1730494Y1548245D01*
X1733656Y1546935D01*
X1737050Y1546488D01*
X1740444Y1546935D01*
X1743606Y1548245D01*
X1746322Y1550328D01*
X1747643Y1551649D01*
X1752657Y1551007D01*
X1753178Y1550328D01*
X1755894Y1548245D01*
X1759057Y1546935D01*
X1762450Y1546488D01*
X1765844Y1546935D01*
X1769006Y1548245D01*
X1771722Y1550328D01*
X1773043Y1551649D01*
X1778058Y1551007D01*
X1778578Y1550328D01*
X1781294Y1548245D01*
X1784456Y1546935D01*
X1787850Y1546488D01*
X1791244Y1546935D01*
X1794406Y1548245D01*
X1797122Y1550328D01*
X1798443Y1551649D01*
X1803457Y1551007D01*
X1803978Y1550328D01*
X1847438Y1506869D01*
Y1152258D01*
X1846697Y1151637D01*
X1843438Y1150487D01*
X1841706Y1151815D01*
X1838544Y1153125D01*
X1835150Y1153572D01*
X1831756Y1153125D01*
X1828594Y1151815D01*
X1825878Y1149732D01*
X1823795Y1147016D01*
X1823502Y1146310D01*
X1819124Y1146193D01*
X1818540Y1147205D01*
X1816495Y1149250D01*
X1813990Y1150696D01*
X1811196Y1151445D01*
X1808304D01*
X1805510Y1150696D01*
X1803005Y1149250D01*
X1800960Y1147205D01*
X1799514Y1144700D01*
X1799121Y1143233D01*
X1794979D01*
X1794586Y1144700D01*
X1793140Y1147205D01*
X1791095Y1149250D01*
X1788590Y1150696D01*
X1785796Y1151445D01*
X1782904D01*
X1780110Y1150696D01*
X1777605Y1149250D01*
X1775560Y1147205D01*
X1774114Y1144700D01*
X1773721Y1143233D01*
X1769579D01*
X1769186Y1144700D01*
X1767740Y1147205D01*
X1765695Y1149250D01*
X1763190Y1150696D01*
X1760396Y1151445D01*
X1757504D01*
X1754710Y1150696D01*
X1752205Y1149250D01*
X1750160Y1147205D01*
X1748714Y1144700D01*
X1748321Y1143233D01*
X1744179D01*
X1743786Y1144700D01*
X1742340Y1147205D01*
X1740295Y1149250D01*
X1737790Y1150696D01*
X1734996Y1151445D01*
X1732104D01*
X1729310Y1150696D01*
X1726805Y1149250D01*
X1724760Y1147205D01*
X1723314Y1144700D01*
X1722921Y1143233D01*
X1718779D01*
X1718386Y1144700D01*
X1716940Y1147205D01*
X1714895Y1149250D01*
X1712390Y1150696D01*
X1709596Y1151445D01*
X1706704D01*
X1703910Y1150696D01*
X1701405Y1149250D01*
X1699360Y1147205D01*
X1697914Y1144700D01*
X1697521Y1143233D01*
X1693379D01*
X1692986Y1144700D01*
X1691540Y1147205D01*
X1689495Y1149250D01*
X1686990Y1150696D01*
X1684196Y1151445D01*
X1681304D01*
X1678510Y1150696D01*
X1676005Y1149250D01*
X1673960Y1147205D01*
X1673376Y1146193D01*
X1668998Y1146310D01*
X1668705Y1147016D01*
X1666622Y1149732D01*
X1663906Y1151815D01*
X1660744Y1153125D01*
X1657350Y1153572D01*
X1653956Y1153125D01*
X1650794Y1151815D01*
X1648078Y1149732D01*
X1646758Y1148411D01*
X1641743Y1149053D01*
X1641222Y1149732D01*
X1623162Y1167791D01*
Y1550199D01*
X1623233Y1550253D01*
X1627162Y1551568D01*
X1628364Y1550366D01*
X1630996Y1548847D01*
X1633931Y1548060D01*
X1636969D01*
X1639904Y1548847D01*
X1642536Y1550366D01*
X1644684Y1552514D01*
X1646034Y1554852D01*
X1647673Y1555146D01*
X1648627D01*
X1650266Y1554852D01*
X1651616Y1552514D01*
X1653764Y1550366D01*
X1656396Y1548847D01*
X1659331Y1548060D01*
X1662369D01*
X1665304Y1548847D01*
X1667936Y1550366D01*
X1670084Y1552514D01*
X1671434Y1554852D01*
X1673073Y1555146D01*
X1674027D01*
X1675666Y1554852D01*
X1677016Y1552514D01*
X1679164Y1550366D01*
X1681796Y1548847D01*
X1684731Y1548060D01*
X1687769D01*
X1690704Y1548847D01*
X1693336Y1550366D01*
X1695484Y1552514D01*
X1696834Y1554852D01*
X1698473Y1555146D01*
X1699427D01*
X1701066Y1554852D01*
D02*
G37*
G36*
X1872838Y1560322D02*
Y1524098D01*
X1872530Y1523840D01*
X1868838Y1522556D01*
X1845679Y1545714D01*
X1845736Y1550366D01*
X1847884Y1552514D01*
X1849404Y1555146D01*
X1850190Y1558081D01*
Y1561119D01*
X1851211Y1562450D01*
X1870710D01*
X1872838Y1560322D01*
D02*
G37*
G36*
X1146511Y1361904D02*
X1124258Y1339651D01*
X1120562Y1341182D01*
Y1357289D01*
X1128873Y1365600D01*
X1144980D01*
X1146511Y1361904D01*
D02*
G37*
G36*
X1153965Y1326615D02*
X1155717Y1324862D01*
X1156561Y1324375D01*
Y1319765D01*
X1155717Y1319278D01*
X1153412Y1316973D01*
X1151782Y1314149D01*
X1150938Y1311000D01*
Y1307740D01*
X1151782Y1304591D01*
X1153412Y1301767D01*
X1155717Y1299462D01*
X1155960Y1299322D01*
X1156277Y1297744D01*
X1155956Y1294705D01*
X1154048Y1293242D01*
X1141266Y1280459D01*
X1137570Y1281990D01*
Y1315877D01*
X1148818Y1327124D01*
X1152449Y1327158D01*
X1153965Y1326615D01*
D02*
G37*
G36*
X2194197Y1273409D02*
X2191817Y1270133D01*
X2189182Y1271475D01*
X2184841Y1272886D01*
X2180332Y1273600D01*
X2175768D01*
X2171259Y1272886D01*
X2166918Y1271475D01*
X2162851Y1269403D01*
X2159158Y1266720D01*
X2155930Y1263492D01*
X2153247Y1259799D01*
X2151175Y1255732D01*
X2149764Y1251391D01*
X2149050Y1246882D01*
Y1242318D01*
X2149764Y1237809D01*
X2151175Y1233468D01*
X2153247Y1229401D01*
X2155930Y1225708D01*
X2159158Y1222480D01*
X2162851Y1219797D01*
X2166918Y1217725D01*
X2171259Y1216314D01*
X2175768Y1215600D01*
X2180332D01*
X2184841Y1216314D01*
X2189182Y1217725D01*
X2193249Y1219797D01*
X2196942Y1222480D01*
X2200170Y1225708D01*
X2202853Y1229401D01*
X2204925Y1233468D01*
X2206336Y1237809D01*
X2207050Y1242318D01*
Y1246882D01*
X2206336Y1251391D01*
X2204925Y1255732D01*
X2203583Y1258367D01*
X2206859Y1260747D01*
X2246218Y1221389D01*
Y1146862D01*
X2242522Y1145331D01*
X2185888Y1201965D01*
X2184173Y1204936D01*
X2181566Y1207543D01*
X2178374Y1209386D01*
X2174813Y1210340D01*
X2171127D01*
X2167566Y1209386D01*
X2164374Y1207543D01*
X2161767Y1204936D01*
X2159924Y1201744D01*
X2158970Y1198183D01*
Y1194497D01*
X2159924Y1190936D01*
X2161767Y1187744D01*
X2164374Y1185137D01*
X2167345Y1183422D01*
X2224628Y1126139D01*
Y1119417D01*
X2220932Y1117886D01*
X2170261Y1168558D01*
X2167545Y1170641D01*
X2164383Y1171951D01*
X2160989Y1172398D01*
X2160989Y1172398D01*
X2082576D01*
X2079182Y1171951D01*
X2076020Y1170641D01*
X2073304Y1168558D01*
X2073304Y1168558D01*
X2054478Y1149732D01*
X2053460Y1148404D01*
X2052675Y1148114D01*
X2049425D01*
X2048640Y1148404D01*
X2047622Y1149732D01*
X2013840Y1183514D01*
X2011124Y1185598D01*
X2007962Y1186907D01*
X2004568Y1187354D01*
X2004568Y1187354D01*
X1965920D01*
X1964263Y1191354D01*
X1965479Y1192570D01*
X1967194Y1195540D01*
X2068419Y1296766D01*
X2170841D01*
X2194197Y1273409D01*
D02*
G37*
G36*
X1520430Y1511080D02*
X1520738Y1510823D01*
Y1446571D01*
X1338878Y1264711D01*
X1335182Y1266242D01*
Y1280220D01*
X1334735Y1283614D01*
X1333425Y1286776D01*
X1332642Y1287797D01*
Y1328269D01*
X1516738Y1512365D01*
X1520430Y1511080D01*
D02*
G37*
G36*
X1977314Y1136220D02*
X1978760Y1133715D01*
X1980805Y1131670D01*
X1983310Y1130224D01*
X1986104Y1129475D01*
X1988996D01*
X1991790Y1130224D01*
X1994295Y1131670D01*
X1996340Y1133715D01*
X2001030Y1133837D01*
X2003678Y1131188D01*
X2006394Y1129105D01*
X2009556Y1127795D01*
X2012950Y1127348D01*
X2016344Y1127795D01*
X2019506Y1129105D01*
X2022222Y1131188D01*
X2022743Y1131867D01*
X2027758Y1132509D01*
X2029078Y1131188D01*
X2031794Y1129105D01*
X2034956Y1127795D01*
X2038350Y1127348D01*
X2041744Y1127795D01*
X2044906Y1129105D01*
X2047622Y1131188D01*
X2048640Y1132515D01*
X2049425Y1132806D01*
X2052675D01*
X2053460Y1132515D01*
X2054478Y1131188D01*
X2057194Y1129105D01*
X2058600Y1128522D01*
X2059834Y1124099D01*
X1953671Y1017936D01*
X1851914D01*
X1851914Y1017936D01*
X1848262Y1021490D01*
Y1128662D01*
X1849003Y1129283D01*
X1852262Y1130433D01*
X1853994Y1129105D01*
X1857156Y1127795D01*
X1860550Y1127348D01*
X1863944Y1127795D01*
X1867106Y1129105D01*
X1869822Y1131188D01*
X1870840Y1132515D01*
X1871625Y1132806D01*
X1874875D01*
X1875660Y1132515D01*
X1876678Y1131188D01*
X1879394Y1129105D01*
X1882556Y1127795D01*
X1885950Y1127348D01*
X1889344Y1127795D01*
X1892506Y1129105D01*
X1895222Y1131188D01*
X1897305Y1133904D01*
X1897598Y1134610D01*
X1901976Y1134727D01*
X1902560Y1133715D01*
X1904605Y1131670D01*
X1907110Y1130224D01*
X1909904Y1129475D01*
X1912796D01*
X1915590Y1130224D01*
X1918095Y1131670D01*
X1920140Y1133715D01*
X1921586Y1136220D01*
X1921979Y1137687D01*
X1926121D01*
X1926514Y1136220D01*
X1927960Y1133715D01*
X1930005Y1131670D01*
X1932510Y1130224D01*
X1935304Y1129475D01*
X1938196D01*
X1940990Y1130224D01*
X1943495Y1131670D01*
X1945540Y1133715D01*
X1946986Y1136220D01*
X1947379Y1137687D01*
X1951521D01*
X1951914Y1136220D01*
X1953360Y1133715D01*
X1955405Y1131670D01*
X1957910Y1130224D01*
X1960704Y1129475D01*
X1963596D01*
X1966390Y1130224D01*
X1968895Y1131670D01*
X1970940Y1133715D01*
X1972386Y1136220D01*
X1972779Y1137687D01*
X1976921D01*
X1977314Y1136220D01*
D02*
G37*
G36*
X1799514D02*
X1800960Y1133715D01*
X1803005Y1131670D01*
X1805510Y1130224D01*
X1808304Y1129475D01*
X1811196D01*
X1813990Y1130224D01*
X1816495Y1131670D01*
X1818038Y1133213D01*
X1820107Y1132845D01*
X1822038Y1131773D01*
Y1018891D01*
X1800478Y997332D01*
X1800478Y997332D01*
X1799208Y996062D01*
X1799073Y996006D01*
X1794381Y996342D01*
X1793622Y997332D01*
X1790906Y999416D01*
X1787744Y1000725D01*
X1784350Y1001172D01*
X1780956Y1000725D01*
X1777794Y999416D01*
X1775078Y997332D01*
X1774060Y996005D01*
X1773275Y995714D01*
X1770025D01*
X1769240Y996005D01*
X1768222Y997332D01*
X1765506Y999416D01*
X1762344Y1000725D01*
X1758950Y1001172D01*
X1755556Y1000725D01*
X1752394Y999416D01*
X1749678Y997332D01*
X1748660Y996005D01*
X1747875Y995714D01*
X1744625D01*
X1743840Y996005D01*
X1742822Y997332D01*
X1740106Y999416D01*
X1736944Y1000725D01*
X1733550Y1001172D01*
X1730156Y1000725D01*
X1726994Y999416D01*
X1724278Y997332D01*
X1723008Y996062D01*
X1722873Y996006D01*
X1718181Y996342D01*
X1717422Y997332D01*
X1714706Y999416D01*
X1711544Y1000725D01*
X1708150Y1001172D01*
X1704756Y1000725D01*
X1701594Y999416D01*
X1699862Y998087D01*
X1696769Y999178D01*
X1695862Y999972D01*
Y1076629D01*
X1696750Y1079943D01*
Y1083629D01*
X1695796Y1087190D01*
X1693953Y1090382D01*
X1691346Y1092989D01*
X1688154Y1094832D01*
X1684593Y1095786D01*
X1680907D01*
X1677346Y1094832D01*
X1674154Y1092989D01*
X1671547Y1090382D01*
X1669704Y1087190D01*
X1668750Y1083629D01*
Y1079943D01*
X1669638Y1076629D01*
Y999858D01*
X1668897Y999237D01*
X1665638Y998087D01*
X1663906Y999416D01*
X1660744Y1000725D01*
X1657350Y1001172D01*
X1653956Y1000725D01*
X1650794Y999416D01*
X1648078Y997332D01*
X1646758Y996011D01*
X1641743Y996653D01*
X1641222Y997332D01*
X1638506Y999416D01*
X1635344Y1000725D01*
X1631950Y1001172D01*
X1628556Y1000725D01*
X1625394Y999416D01*
X1622678Y997332D01*
X1621660Y996004D01*
X1620875Y995714D01*
X1617625D01*
X1616840Y996004D01*
X1615822Y997332D01*
X1613106Y999416D01*
X1609944Y1000725D01*
X1606550Y1001172D01*
X1603156Y1000725D01*
X1599994Y999416D01*
X1597278Y997332D01*
X1596519Y996572D01*
X1596196Y996152D01*
X1596063Y996096D01*
X1592135Y997430D01*
Y999045D01*
X1588189D01*
X1587706Y999416D01*
X1584544Y1000725D01*
X1581150Y1001172D01*
X1577756Y1000725D01*
X1574594Y999416D01*
X1574111Y999045D01*
X1570165D01*
X1568962Y1002547D01*
Y1033529D01*
X1666622Y1131188D01*
X1668705Y1133904D01*
X1668998Y1134610D01*
X1673376Y1134727D01*
X1673960Y1133715D01*
X1676005Y1131670D01*
X1678510Y1130224D01*
X1681304Y1129475D01*
X1684196D01*
X1686990Y1130224D01*
X1689495Y1131670D01*
X1691540Y1133715D01*
X1692986Y1136220D01*
X1693379Y1137687D01*
X1697521D01*
X1697914Y1136220D01*
X1699360Y1133715D01*
X1701405Y1131670D01*
X1703910Y1130224D01*
X1706704Y1129475D01*
X1709596D01*
X1712390Y1130224D01*
X1714895Y1131670D01*
X1716940Y1133715D01*
X1718386Y1136220D01*
X1718779Y1137687D01*
X1722921D01*
X1723314Y1136220D01*
X1724760Y1133715D01*
X1726805Y1131670D01*
X1729310Y1130224D01*
X1732104Y1129475D01*
X1734996D01*
X1737790Y1130224D01*
X1740295Y1131670D01*
X1742340Y1133715D01*
X1743786Y1136220D01*
X1744179Y1137687D01*
X1748321D01*
X1748714Y1136220D01*
X1750160Y1133715D01*
X1752205Y1131670D01*
X1754710Y1130224D01*
X1757504Y1129475D01*
X1760396D01*
X1763190Y1130224D01*
X1765695Y1131670D01*
X1767740Y1133715D01*
X1769186Y1136220D01*
X1769579Y1137687D01*
X1773721D01*
X1774114Y1136220D01*
X1775560Y1133715D01*
X1777605Y1131670D01*
X1780110Y1130224D01*
X1782904Y1129475D01*
X1785796D01*
X1788590Y1130224D01*
X1791095Y1131670D01*
X1793140Y1133715D01*
X1794586Y1136220D01*
X1794979Y1137687D01*
X1799121D01*
X1799514Y1136220D01*
D02*
G37*
G36*
X1093013Y977884D02*
X1094338Y977220D01*
Y921300D01*
X1092617Y919785D01*
X1088772Y918592D01*
X1086056Y920676D01*
X1083608Y921689D01*
X1083252Y924241D01*
X1083514Y925894D01*
X1085425Y926998D01*
X1087222Y928795D01*
X1088492Y930995D01*
X1089150Y933449D01*
Y935991D01*
X1088492Y938445D01*
X1087222Y940645D01*
X1085425Y942442D01*
X1083225Y943712D01*
X1080770Y944370D01*
X1078230D01*
X1075775Y943712D01*
X1073575Y942442D01*
X1071778Y940645D01*
X1070508Y938445D01*
X1069850Y935991D01*
Y933449D01*
X1070508Y930995D01*
X1071778Y928795D01*
X1073575Y926998D01*
X1075486Y925894D01*
X1075748Y924241D01*
X1075392Y921689D01*
X1072944Y920676D01*
X1070228Y918592D01*
X1013048Y861412D01*
X1010965Y858696D01*
X1009655Y855534D01*
X1009208Y852140D01*
X1009208Y852140D01*
Y704562D01*
X1005208Y701798D01*
X1004753Y701920D01*
X1001847D01*
X999140Y703997D01*
Y886617D01*
X1067029Y954506D01*
X1071778Y954195D01*
X1073575Y952398D01*
X1075775Y951128D01*
X1078230Y950470D01*
X1080770D01*
X1083225Y951128D01*
X1085425Y952398D01*
X1087222Y954195D01*
X1088492Y956395D01*
X1089150Y958849D01*
Y961391D01*
X1088492Y963845D01*
X1087222Y966045D01*
X1085425Y967842D01*
X1085114Y972591D01*
X1088772Y976248D01*
X1090338Y978289D01*
X1093013Y977884D01*
D02*
G37*
G36*
X1852098Y952154D02*
X1855659Y951200D01*
X1859345D01*
X1862659Y952088D01*
X1978608D01*
X1980139Y948392D01*
X1916933Y885186D01*
X1914288Y885733D01*
X1912594Y886504D01*
X1911475Y889206D01*
X1909391Y891922D01*
X1906676Y894006D01*
X1903513Y895315D01*
X1900120Y895762D01*
X1896726Y895315D01*
X1893564Y894006D01*
X1890848Y891922D01*
X1877670Y878744D01*
X1850513D01*
X1846992Y882650D01*
Y950483D01*
X1850992Y952793D01*
X1852098Y952154D01*
D02*
G37*
G36*
X1094328Y874548D02*
Y681071D01*
X1039128Y625871D01*
X1035432Y627402D01*
Y846709D01*
X1064692Y875969D01*
X1069707Y875327D01*
X1070228Y874648D01*
X1072944Y872564D01*
X1076106Y871255D01*
X1079500Y870808D01*
X1082894Y871255D01*
X1086056Y872564D01*
X1088772Y874648D01*
X1090328Y876204D01*
X1094328Y874548D01*
D02*
G37*
G36*
X875901Y920352D02*
X697895Y742346D01*
X631950D01*
Y744550D01*
X631292Y747004D01*
X630022Y749205D01*
X628225Y751002D01*
X627914Y755751D01*
X673884Y801720D01*
X718158D01*
X718158Y801720D01*
X721552Y802167D01*
X724714Y803476D01*
X727430Y805560D01*
X845917Y924048D01*
X874370D01*
X875901Y920352D01*
D02*
G37*
G36*
X1584078Y1127357D02*
X1585839Y1124069D01*
X1520062Y1058292D01*
X1517979Y1055576D01*
X1516669Y1052414D01*
X1516222Y1049020D01*
X1516222Y1049020D01*
Y745825D01*
X1467252Y696855D01*
X1463252Y698512D01*
Y918210D01*
Y985837D01*
Y1053465D01*
Y1121093D01*
X1462955Y1123348D01*
X1465420Y1127348D01*
X1581150D01*
X1583703Y1127684D01*
X1584078Y1127357D01*
D02*
G37*
G36*
X1867250Y683496D02*
X1863250Y681839D01*
X1862366Y682723D01*
X1859185Y684560D01*
X1855637Y685510D01*
X1851964D01*
X1851690Y685437D01*
X1848516Y687872D01*
Y772733D01*
X1858394Y782610D01*
X1867250D01*
Y683496D01*
D02*
G37*
G36*
Y659625D02*
Y638887D01*
X1866362Y635573D01*
Y631887D01*
X1867316Y628326D01*
X1867608Y627820D01*
X1865299Y623820D01*
X1858394D01*
X1848516Y633698D01*
Y655249D01*
X1851690Y657684D01*
X1851964Y657610D01*
X1855637D01*
X1859185Y658561D01*
X1862366Y660397D01*
X1863250Y661282D01*
X1867250Y659625D01*
D02*
G37*
G36*
X1437325Y1123348D02*
X1437028Y1121093D01*
Y1053465D01*
Y985837D01*
Y918210D01*
Y698905D01*
X1326686Y588563D01*
X1322990Y590094D01*
Y656064D01*
X1326990Y657720D01*
X1327305Y657406D01*
X1329605Y656078D01*
X1332172Y655390D01*
X1334828D01*
X1337395Y656078D01*
X1339695Y657406D01*
X1341574Y659285D01*
X1342902Y661585D01*
X1343590Y664152D01*
Y666808D01*
X1342902Y669375D01*
X1341574Y671675D01*
X1339695Y673554D01*
X1337395Y674882D01*
X1334828Y675570D01*
X1332172D01*
X1329605Y674882D01*
X1327305Y673554D01*
X1326990Y673240D01*
X1322990Y674896D01*
Y738027D01*
X1408304Y823340D01*
X1408304Y823340D01*
X1410388Y826056D01*
X1411697Y829218D01*
X1412144Y832612D01*
X1412144Y832612D01*
Y1120043D01*
X1419449Y1127348D01*
X1434859D01*
X1437325Y1123348D01*
D02*
G37*
G36*
X1542738Y729936D02*
Y688091D01*
X1542738Y688091D01*
X1543185Y684698D01*
X1544494Y681535D01*
X1546578Y678820D01*
X1564258Y661140D01*
Y654964D01*
X1562322Y654068D01*
X1560258Y653867D01*
X1558602Y656026D01*
X1541146Y673482D01*
X1538430Y675565D01*
X1535268Y676875D01*
X1531874Y677322D01*
X1531874Y677322D01*
X1490032D01*
X1488501Y681018D01*
X1538606Y731122D01*
X1538606Y731122D01*
X1538738Y731294D01*
X1542738Y729936D01*
D02*
G37*
G36*
X1122014Y666817D02*
Y618663D01*
X1120988Y617690D01*
X1118014Y616315D01*
X1115914Y617185D01*
X1112520Y617632D01*
X1109126Y617185D01*
X1105964Y615876D01*
X1103741Y614170D01*
X1102870D01*
Y613299D01*
X1101164Y611076D01*
X1100151Y608628D01*
X1097599Y608272D01*
X1095946Y608534D01*
X1094842Y610445D01*
X1093045Y612242D01*
X1090845Y613512D01*
X1088391Y614170D01*
X1085850D01*
X1083395Y613512D01*
X1081195Y612242D01*
X1079398Y610445D01*
X1078128Y608245D01*
X1077470Y605790D01*
Y603250D01*
X1078128Y600795D01*
X1079398Y598595D01*
X1081195Y596798D01*
X1083395Y595528D01*
X1085850Y594870D01*
X1088391D01*
X1090845Y595528D01*
X1093045Y596798D01*
X1094842Y598595D01*
X1095408Y599575D01*
X1099408Y598503D01*
Y587091D01*
X1084229Y571912D01*
X1068070D01*
X1064676Y571465D01*
X1061514Y570155D01*
X1058798Y568072D01*
X1056714Y565356D01*
X1055405Y562194D01*
X1054958Y558800D01*
X1055370Y555671D01*
X1055095Y555358D01*
X1051319Y554065D01*
X1035432Y569951D01*
Y590629D01*
X1036320Y591408D01*
X1039714Y591855D01*
X1042876Y593164D01*
X1045592Y595248D01*
X1049249Y598906D01*
X1053998Y598595D01*
X1055795Y596798D01*
X1057995Y595528D01*
X1060450Y594870D01*
X1062990D01*
X1065445Y595528D01*
X1067645Y596798D01*
X1069442Y598595D01*
X1070712Y600795D01*
X1071370Y603250D01*
Y605790D01*
X1070712Y608245D01*
X1069442Y610445D01*
X1067645Y612242D01*
X1067334Y616991D01*
X1116712Y666368D01*
X1118014Y668065D01*
X1122014Y666817D01*
D02*
G37*
G36*
X1178178Y630808D02*
X1180894Y628725D01*
X1184056Y627415D01*
X1187450Y626968D01*
X1187956Y626524D01*
X1188143Y621725D01*
X1152524Y586106D01*
X1152238Y585733D01*
X1148238Y587091D01*
Y655522D01*
X1151934Y657053D01*
X1178178Y630808D01*
D02*
G37*
G36*
X1536218Y641323D02*
Y575432D01*
X1532522Y573901D01*
X1527500Y578923D01*
Y590240D01*
X1516008D01*
X1514046Y591745D01*
X1510884Y593055D01*
X1507490Y593502D01*
X1507490Y593502D01*
X1492250D01*
X1488856Y593055D01*
X1485694Y591745D01*
X1482978Y589662D01*
X1480894Y586946D01*
X1480006Y584802D01*
X1477115Y584358D01*
X1476851Y584375D01*
X1475791Y584604D01*
X1474732Y586438D01*
X1472898Y588272D01*
X1470652Y589569D01*
X1468147Y590240D01*
X1465553D01*
X1463048Y589569D01*
X1460802Y588272D01*
X1458968Y586438D01*
X1457909Y584604D01*
X1456849Y584375D01*
X1456585Y584358D01*
X1453694Y584802D01*
X1452805Y586946D01*
X1450722Y589662D01*
X1448006Y591745D01*
X1444844Y593055D01*
X1441450Y593502D01*
X1438056Y593055D01*
X1434894Y591745D01*
X1432178Y589662D01*
X1375567Y533050D01*
X1352119D01*
X1348805Y533938D01*
X1345119D01*
X1345011Y533909D01*
X1341012Y536978D01*
Y565802D01*
X1349412Y574203D01*
X1353174Y573893D01*
X1354244Y573378D01*
X1355978Y571118D01*
X1358694Y569035D01*
X1361856Y567725D01*
X1365250Y567278D01*
X1367720Y567603D01*
X1369655D01*
X1369655Y567603D01*
X1373049Y568050D01*
X1376212Y569360D01*
X1378927Y571443D01*
X1379664Y572180D01*
X1384602Y572508D01*
X1386848Y571211D01*
X1389353Y570540D01*
X1391947D01*
X1394452Y571211D01*
X1396698Y572508D01*
X1398532Y574342D01*
X1399829Y576588D01*
X1400500Y579093D01*
Y581687D01*
X1399829Y584192D01*
X1398532Y586438D01*
X1396698Y588272D01*
X1396588Y589105D01*
X1458582Y651098D01*
X1526443D01*
X1536218Y641323D01*
D02*
G37*
G36*
X1456849Y576405D02*
X1457909Y576176D01*
X1458968Y574342D01*
X1460802Y572508D01*
X1463048Y571211D01*
X1465553Y570540D01*
X1468147D01*
X1470652Y571211D01*
X1472898Y572508D01*
X1474732Y574342D01*
X1475791Y576176D01*
X1476851Y576405D01*
X1477115Y576422D01*
X1480006Y575978D01*
X1480894Y573834D01*
X1482978Y571118D01*
X1485694Y569035D01*
X1488856Y567725D01*
X1492250Y567278D01*
X1502059D01*
X1522218Y547119D01*
Y517244D01*
X1518218Y514027D01*
X1517650Y514102D01*
X1514256Y513655D01*
X1511094Y512345D01*
X1508378Y510261D01*
X1504895Y506778D01*
X1500132Y507038D01*
X1498298Y508872D01*
X1496052Y510168D01*
X1493547Y510840D01*
X1490953D01*
X1488448Y510168D01*
X1486202Y508872D01*
X1484368Y507038D01*
X1483071Y504791D01*
X1482400Y502286D01*
Y499693D01*
X1483071Y497188D01*
X1484368Y494942D01*
X1486202Y493108D01*
X1488448Y491811D01*
X1490953Y491140D01*
X1493547D01*
X1493851Y491221D01*
X1497850Y488533D01*
Y415427D01*
X1497850Y415427D01*
X1498297Y412034D01*
X1499607Y408871D01*
X1501479Y406432D01*
X1418208Y323162D01*
X1416125Y320446D01*
X1414934Y317573D01*
X1413555Y316841D01*
X1410640Y316218D01*
X1408636Y317755D01*
X1405474Y319065D01*
X1402080Y319512D01*
X1398686Y319065D01*
X1395524Y317755D01*
X1392808Y315671D01*
X1391488Y314351D01*
X1386473Y314993D01*
X1385952Y315671D01*
X1383236Y317755D01*
X1380074Y319065D01*
X1376680Y319512D01*
X1373286Y319065D01*
X1370124Y317755D01*
X1367408Y315671D01*
X1366088Y314351D01*
X1361073Y314993D01*
X1360552Y315671D01*
X1341012Y335212D01*
Y502897D01*
X1345011Y505967D01*
X1345119Y505938D01*
X1348805D01*
X1352119Y506826D01*
X1352974D01*
X1355545Y502826D01*
X1355400Y502286D01*
Y499693D01*
X1356071Y497188D01*
X1357368Y494942D01*
X1359202Y493108D01*
X1361448Y491811D01*
X1363953Y491140D01*
X1366547D01*
X1369052Y491811D01*
X1371298Y493108D01*
X1373132Y494942D01*
X1374429Y497188D01*
X1375100Y499693D01*
Y502286D01*
X1377794Y503367D01*
X1380800Y499982D01*
Y499693D01*
X1381471Y497188D01*
X1382768Y494942D01*
X1384602Y493108D01*
X1386848Y491811D01*
X1389353Y491140D01*
X1391947D01*
X1394452Y491811D01*
X1396698Y493108D01*
X1398532Y494942D01*
X1399829Y497188D01*
X1400500Y499693D01*
Y502286D01*
X1399829Y504791D01*
X1398532Y507038D01*
X1396698Y508872D01*
X1395071Y509811D01*
X1394253Y512160D01*
X1394027Y514423D01*
X1450722Y571118D01*
X1452805Y573834D01*
X1453694Y575978D01*
X1456585Y576422D01*
X1456849Y576405D01*
D02*
G37*
G36*
X1009208Y677198D02*
Y564520D01*
X1009208Y564520D01*
X1009655Y561126D01*
X1010965Y557964D01*
X1013048Y555248D01*
X1030706Y537591D01*
X1030410Y533071D01*
X1030096Y532543D01*
X1028598Y531045D01*
X1027328Y528845D01*
X1026670Y526391D01*
Y523850D01*
X1027328Y521395D01*
X1028598Y519195D01*
X1030395Y517398D01*
X1032595Y516128D01*
X1035050Y515470D01*
X1037590D01*
X1040045Y516128D01*
X1042245Y517398D01*
X1044042Y519195D01*
X1048791Y519506D01*
X1052448Y515848D01*
X1055164Y513765D01*
X1058326Y512455D01*
X1061720Y512008D01*
X1065114Y512455D01*
X1068276Y513765D01*
X1070992Y515848D01*
X1072010Y517176D01*
X1072795Y517466D01*
X1076045Y517466D01*
X1076830Y517176D01*
X1077848Y515848D01*
X1131158Y462539D01*
Y226341D01*
X1130283Y225670D01*
X1127376D01*
X1124569Y224918D01*
X1122051Y223464D01*
X1119996Y221409D01*
X1118542Y218891D01*
X1117790Y216083D01*
Y213177D01*
X1118542Y210369D01*
X1119996Y207851D01*
X1122051Y205796D01*
X1124569Y204342D01*
X1127376Y203590D01*
X1130283D01*
X1131158Y202919D01*
Y124151D01*
X1077848Y70842D01*
X1077848Y70842D01*
X1074191Y67185D01*
X1069442Y67495D01*
X1067645Y69292D01*
X1065995Y70245D01*
X1065225Y72401D01*
X1064934Y74840D01*
X1121413Y131320D01*
X1122170D01*
Y132191D01*
X1123876Y134414D01*
X1125185Y137576D01*
X1125632Y140970D01*
X1125185Y144364D01*
X1123876Y147526D01*
X1122170Y149749D01*
Y150620D01*
X1121299D01*
X1119076Y152325D01*
X1115914Y153635D01*
X1112520Y154082D01*
X1109126Y153635D01*
X1105964Y152325D01*
X1103741Y150620D01*
X1102870D01*
Y149863D01*
X1099591Y146584D01*
X1094842Y146895D01*
X1093045Y148692D01*
X1090845Y149962D01*
X1088391Y150620D01*
X1085850D01*
X1083395Y149962D01*
X1081195Y148692D01*
X1079398Y146895D01*
X1078128Y144695D01*
X1077470Y142240D01*
Y139699D01*
X1078128Y137245D01*
X1079398Y135045D01*
X1080896Y133547D01*
X1081210Y133019D01*
X1081506Y128499D01*
X1027297Y74290D01*
X1025213Y71575D01*
X1025155Y71434D01*
X1021715Y70339D01*
X1020436Y70495D01*
X1007492Y83439D01*
Y146028D01*
X1011188Y147559D01*
X1027048Y131698D01*
X1029764Y129614D01*
X1032926Y128305D01*
X1036320Y127858D01*
X1039714Y128305D01*
X1042876Y129614D01*
X1045592Y131698D01*
X1047675Y134414D01*
X1048689Y136862D01*
X1051242Y137218D01*
X1052895Y136956D01*
X1053998Y135045D01*
X1055795Y133248D01*
X1057995Y131978D01*
X1060450Y131320D01*
X1062990D01*
X1065445Y131978D01*
X1067645Y133248D01*
X1069442Y135045D01*
X1070712Y137245D01*
X1071370Y139699D01*
Y142240D01*
X1070712Y144695D01*
X1069442Y146895D01*
X1067645Y148692D01*
X1065445Y149962D01*
X1062990Y150620D01*
X1060450D01*
X1057995Y149962D01*
X1055795Y148692D01*
X1053998Y146895D01*
X1052895Y144984D01*
X1051241Y144722D01*
X1048689Y145078D01*
X1047675Y147526D01*
X1045592Y150242D01*
X1021492Y174341D01*
Y271021D01*
X1025492Y273770D01*
X1025977Y273640D01*
X1028883D01*
X1031691Y274393D01*
X1034209Y275846D01*
X1036264Y277901D01*
X1037718Y280419D01*
X1038470Y283227D01*
Y286134D01*
X1037718Y288941D01*
X1036264Y291459D01*
X1034209Y293514D01*
X1031691Y294968D01*
X1028883Y295720D01*
X1025977D01*
X1025492Y295590D01*
X1021492Y298339D01*
Y339090D01*
X1021045Y342484D01*
X1019735Y345646D01*
X1017652Y348362D01*
X1017652Y348362D01*
X968376Y397638D01*
X965660Y399721D01*
X962498Y401031D01*
X959104Y401478D01*
X959104Y401478D01*
X848106D01*
X848106Y401478D01*
X844712Y401031D01*
X841550Y399721D01*
X838834Y397638D01*
X838834Y397638D01*
X818768Y377572D01*
X816684Y374856D01*
X815375Y371694D01*
X814928Y368300D01*
X815375Y364906D01*
X816684Y361744D01*
X818768Y359028D01*
X821484Y356945D01*
X824646Y355635D01*
X828040Y355188D01*
X831434Y355635D01*
X834596Y356945D01*
X837312Y359028D01*
X840969Y362686D01*
X845489Y362390D01*
X846017Y362076D01*
X847515Y360578D01*
X849715Y359308D01*
X852169Y358650D01*
X854710D01*
X857165Y359308D01*
X859365Y360578D01*
X861162Y362375D01*
X862432Y364575D01*
X863090Y367029D01*
Y369571D01*
X862928Y370173D01*
X865453Y373657D01*
X866827D01*
X869352Y370173D01*
X869190Y369571D01*
Y367029D01*
X869848Y364575D01*
X871118Y362375D01*
X872616Y360877D01*
X872930Y360349D01*
X873226Y355829D01*
X819017Y301620D01*
X816957Y298936D01*
X816933Y298905D01*
X813225Y297837D01*
X812231Y298005D01*
X799242Y310993D01*
Y422629D01*
X800117Y423300D01*
X803024D01*
X805831Y424052D01*
X808349Y425506D01*
X810404Y427561D01*
X811858Y430079D01*
X812610Y432887D01*
Y435793D01*
X811858Y438601D01*
X810404Y441119D01*
X808349Y443174D01*
X805831Y444628D01*
X803024Y445380D01*
X800117D01*
X799242Y446051D01*
Y474883D01*
X937821Y613461D01*
X941212Y611195D01*
X940904Y610454D01*
X940458Y607060D01*
Y524510D01*
X940904Y521116D01*
X942214Y517954D01*
X944298Y515238D01*
X947014Y513154D01*
X950176Y511845D01*
X953570Y511398D01*
X956964Y511845D01*
X960126Y513154D01*
X962842Y515238D01*
X964925Y517954D01*
X966235Y521116D01*
X966682Y524510D01*
Y607060D01*
X966235Y610454D01*
X964925Y613616D01*
X962842Y616332D01*
X960126Y618415D01*
X956964Y619725D01*
X953570Y620172D01*
X950176Y619725D01*
X949434Y619418D01*
X947169Y622809D01*
X995300Y670940D01*
X995300Y670940D01*
X997383Y673656D01*
X998693Y676818D01*
X1001847Y679840D01*
X1002866Y679840D01*
X1004753D01*
X1005208Y679962D01*
X1009208Y677198D01*
D02*
G37*
G36*
X1148684Y562869D02*
Y487326D01*
X1144988Y485795D01*
X1118134Y512649D01*
X1118445Y517398D01*
X1120242Y519195D01*
X1121512Y521395D01*
X1122170Y523850D01*
Y526391D01*
X1121512Y528845D01*
X1120242Y531045D01*
X1118445Y532842D01*
X1118134Y537591D01*
X1144398Y563854D01*
X1144398Y563854D01*
X1144684Y564227D01*
X1148684Y562869D01*
D02*
G37*
G36*
X1342008Y297128D02*
X1342687Y296607D01*
X1343329Y291592D01*
X1327039Y275302D01*
X1326990Y275239D01*
X1322990Y276596D01*
Y310920D01*
X1326686Y312451D01*
X1342008Y297128D01*
D02*
G37*
G36*
X995268Y333659D02*
Y256338D01*
X991572Y254807D01*
X982854Y263526D01*
X980138Y265609D01*
X976976Y266919D01*
X973582Y267366D01*
X973582Y267366D01*
X918917D01*
X909854Y276429D01*
X910165Y281178D01*
X911962Y282975D01*
X913232Y285175D01*
X913890Y287630D01*
Y290171D01*
X913232Y292625D01*
X911962Y294825D01*
X910165Y296622D01*
X907965Y297892D01*
X905510Y298550D01*
X902970D01*
X900515Y297892D01*
X898315Y296622D01*
X896817Y295124D01*
X896289Y294810D01*
X891769Y294515D01*
X888112Y298172D01*
X885396Y300256D01*
X882234Y301565D01*
X878840Y302012D01*
X875446Y301565D01*
X872284Y300256D01*
X869568Y298172D01*
X868550Y296845D01*
X867765Y296554D01*
X864515Y296554D01*
X863730Y296845D01*
X862712Y298172D01*
X860222Y300082D01*
X859979Y300374D01*
X859340Y304857D01*
X913133Y358650D01*
X913890D01*
Y359521D01*
X915595Y361744D01*
X916905Y364906D01*
X917352Y368300D01*
X916963Y371254D01*
X917132Y371976D01*
X919760Y375254D01*
X953673D01*
X995268Y333659D01*
D02*
G37*
G36*
X1363568Y269518D02*
Y239557D01*
X1360930Y236650D01*
X1349422D01*
Y260599D01*
X1359872Y271049D01*
X1363568Y269518D01*
D02*
G37*
G36*
X1597137Y470870D02*
X1600823D01*
X1600868Y470882D01*
X1604868Y467813D01*
Y410122D01*
X1604868Y410122D01*
X1605315Y406728D01*
X1606520Y403818D01*
Y403033D01*
X1607474Y399472D01*
X1609317Y396280D01*
X1611924Y393673D01*
X1615116Y391830D01*
X1618677Y390876D01*
X1622363D01*
X1623658Y391223D01*
X1627658Y388502D01*
Y140838D01*
X1623962Y139307D01*
X1590482Y172787D01*
Y469540D01*
X1594482Y471582D01*
X1597137Y470870D01*
D02*
G37*
%LPC*%
G36*
X1186363Y1608500D02*
X1183457D01*
X1180649Y1607747D01*
X1178131Y1606294D01*
X1176076Y1604239D01*
X1174622Y1601721D01*
X1173870Y1598913D01*
Y1596006D01*
X1174622Y1593199D01*
X1176076Y1590681D01*
X1178131Y1588626D01*
X1180649Y1587172D01*
X1183457Y1586420D01*
X1186363D01*
X1189171Y1587172D01*
X1191689Y1588626D01*
X1193744Y1590681D01*
X1195198Y1593199D01*
X1195950Y1596006D01*
Y1598913D01*
X1195198Y1601721D01*
X1193744Y1604239D01*
X1191689Y1606294D01*
X1189171Y1607747D01*
X1186363Y1608500D01*
D02*
G37*
G36*
X939978Y1604840D02*
X937082D01*
X934284Y1604090D01*
X931776Y1602642D01*
X929728Y1600594D01*
X928280Y1598086D01*
X927530Y1595288D01*
Y1592392D01*
X928280Y1589594D01*
X929728Y1587086D01*
X931776Y1585038D01*
X934284Y1583589D01*
X937082Y1582840D01*
X939978D01*
X942776Y1583589D01*
X945284Y1585038D01*
X947332Y1587086D01*
X948780Y1589594D01*
X949530Y1592392D01*
Y1595288D01*
X948780Y1598086D01*
X947332Y1600594D01*
X945284Y1602642D01*
X942776Y1604090D01*
X939978Y1604840D01*
D02*
G37*
G36*
X368914Y1587080D02*
X365346D01*
X361900Y1586157D01*
X358810Y1584373D01*
X356797Y1582360D01*
X354380Y1582075D01*
X351963Y1582360D01*
X349950Y1584373D01*
X346860Y1586157D01*
X343414Y1587080D01*
X339846D01*
X336400Y1586157D01*
X333680Y1584586D01*
X332163Y1585013D01*
X329680Y1586399D01*
Y1587080D01*
X302580D01*
Y1578523D01*
X256920Y1532864D01*
X254837Y1530148D01*
X253527Y1526986D01*
X253080Y1523592D01*
X253080Y1523592D01*
Y1347978D01*
X253080Y1347978D01*
X252573Y1347400D01*
X241370D01*
Y1327220D01*
X261550D01*
Y1328850D01*
X265245Y1330381D01*
X267588Y1328038D01*
X270304Y1325954D01*
X273466Y1324645D01*
X276860Y1324198D01*
X280254Y1324645D01*
X283416Y1325954D01*
X286132Y1328038D01*
X288216Y1330754D01*
X289525Y1333916D01*
X289972Y1337310D01*
X289525Y1340704D01*
X288216Y1343866D01*
X286132Y1346582D01*
X279304Y1353409D01*
Y1518161D01*
X321123Y1559980D01*
X328518D01*
Y1463991D01*
X287908Y1423382D01*
X285825Y1420666D01*
X284515Y1417504D01*
X284068Y1414110D01*
X284515Y1410716D01*
X285825Y1407554D01*
X287908Y1404838D01*
X290624Y1402755D01*
X293786Y1401445D01*
X297180Y1400998D01*
X300574Y1401445D01*
X303736Y1402755D01*
X306452Y1404838D01*
X350902Y1449288D01*
X350902Y1449288D01*
X352985Y1452004D01*
X354295Y1455166D01*
X354742Y1458560D01*
X354742Y1458560D01*
Y1561098D01*
X358742Y1562755D01*
X358810Y1562687D01*
X361900Y1560903D01*
X365346Y1559980D01*
X368914D01*
X372360Y1560903D01*
X375450Y1562687D01*
X377973Y1565210D01*
X379757Y1568300D01*
X380680Y1571746D01*
Y1575314D01*
X379757Y1578760D01*
X377973Y1581850D01*
X375450Y1584373D01*
X372360Y1586157D01*
X368914Y1587080D01*
D02*
G37*
G36*
X2180332Y1583600D02*
X2175768D01*
X2171259Y1582886D01*
X2166918Y1581475D01*
X2162851Y1579403D01*
X2159158Y1576720D01*
X2155930Y1573492D01*
X2153247Y1569799D01*
X2151175Y1565732D01*
X2149764Y1561391D01*
X2149050Y1556882D01*
Y1552318D01*
X2149764Y1547809D01*
X2151175Y1543468D01*
X2153247Y1539401D01*
X2155930Y1535708D01*
X2159158Y1532480D01*
X2162851Y1529797D01*
X2166918Y1527725D01*
X2171259Y1526314D01*
X2175768Y1525600D01*
X2180332D01*
X2184841Y1526314D01*
X2189182Y1527725D01*
X2193249Y1529797D01*
X2196942Y1532480D01*
X2200170Y1535708D01*
X2202853Y1539401D01*
X2204925Y1543468D01*
X2206336Y1547809D01*
X2207050Y1552318D01*
Y1556882D01*
X2206336Y1561391D01*
X2204925Y1565732D01*
X2202853Y1569799D01*
X2200170Y1573492D01*
X2196942Y1576720D01*
X2193249Y1579403D01*
X2189182Y1581475D01*
X2184841Y1582886D01*
X2180332Y1583600D01*
D02*
G37*
G36*
X1430332D02*
X1425768D01*
X1421259Y1582886D01*
X1416918Y1581475D01*
X1412851Y1579403D01*
X1409158Y1576720D01*
X1405930Y1573492D01*
X1403247Y1569799D01*
X1401175Y1565732D01*
X1399764Y1561391D01*
X1399050Y1556882D01*
Y1552318D01*
X1399764Y1547809D01*
X1401175Y1543468D01*
X1403247Y1539401D01*
X1405930Y1535708D01*
X1409158Y1532480D01*
X1412851Y1529797D01*
X1416918Y1527725D01*
X1421259Y1526314D01*
X1425768Y1525600D01*
X1430332D01*
X1434841Y1526314D01*
X1439182Y1527725D01*
X1443249Y1529797D01*
X1446942Y1532480D01*
X1450170Y1535708D01*
X1452853Y1539401D01*
X1454925Y1543468D01*
X1456336Y1547809D01*
X1457050Y1552318D01*
Y1556882D01*
X1456336Y1561391D01*
X1454925Y1565732D01*
X1452853Y1569799D01*
X1450170Y1573492D01*
X1446942Y1576720D01*
X1443249Y1579403D01*
X1439182Y1581475D01*
X1434841Y1582886D01*
X1430332Y1583600D01*
D02*
G37*
G36*
X949530Y1524840D02*
X927530D01*
Y1502840D01*
X949530D01*
Y1524840D01*
D02*
G37*
G36*
X1069460Y1537089D02*
X1059060D01*
X1056658Y1536773D01*
X1054420Y1535846D01*
X1052498Y1534371D01*
X1051024Y1532450D01*
X1050097Y1530212D01*
X1049781Y1527810D01*
X1050097Y1525408D01*
X1051024Y1523170D01*
X1052446Y1521318D01*
X1052498Y1521230D01*
Y1516610D01*
X1052446Y1516522D01*
X1051024Y1514670D01*
X1050097Y1512432D01*
X1049781Y1510030D01*
X1050097Y1507628D01*
X1051024Y1505390D01*
X1052498Y1503468D01*
X1054420Y1501994D01*
X1056658Y1501067D01*
X1059060Y1500751D01*
X1069460D01*
X1071862Y1501067D01*
X1074100Y1501994D01*
X1076021Y1503468D01*
X1077496Y1505390D01*
X1078423Y1507628D01*
X1078739Y1510030D01*
X1078423Y1512432D01*
X1077496Y1514670D01*
X1076075Y1516522D01*
X1076021Y1516610D01*
Y1521230D01*
X1076075Y1521318D01*
X1077496Y1523170D01*
X1078423Y1525408D01*
X1078739Y1527810D01*
X1078423Y1530212D01*
X1077496Y1532450D01*
X1076021Y1534371D01*
X1074100Y1535846D01*
X1071862Y1536773D01*
X1069460Y1537089D01*
D02*
G37*
G36*
X513730Y1588350D02*
X486630D01*
Y1579793D01*
X473328Y1566492D01*
X471245Y1563776D01*
X469935Y1560614D01*
X469488Y1557220D01*
X469488Y1557220D01*
Y1487170D01*
X469935Y1483776D01*
X471245Y1480614D01*
X473328Y1477898D01*
X476044Y1475815D01*
X479206Y1474505D01*
X482600Y1474058D01*
X485994Y1474505D01*
X489156Y1475815D01*
X491872Y1477898D01*
X493955Y1480614D01*
X495265Y1483776D01*
X495712Y1487170D01*
Y1551789D01*
X505173Y1561250D01*
X513730D01*
Y1588350D01*
D02*
G37*
G36*
X1322070Y1567592D02*
X1318676Y1567145D01*
X1315514Y1565836D01*
X1312798Y1563752D01*
X1310715Y1561036D01*
X1309405Y1557874D01*
X1308958Y1554480D01*
Y1494381D01*
X1308174Y1493360D01*
X1306865Y1490198D01*
X1306418Y1486804D01*
X1306418Y1486804D01*
Y1485700D01*
X1306865Y1482306D01*
X1308174Y1479144D01*
X1310258Y1476428D01*
X1312974Y1474344D01*
X1316136Y1473035D01*
X1319530Y1472588D01*
X1322924Y1473035D01*
X1326086Y1474344D01*
X1328802Y1476428D01*
X1330885Y1479144D01*
X1331219Y1479950D01*
X1331342Y1480072D01*
X1331342Y1480072D01*
X1333425Y1482788D01*
X1334735Y1485950D01*
X1335182Y1489344D01*
Y1554480D01*
X1334735Y1557874D01*
X1333425Y1561036D01*
X1331342Y1563752D01*
X1328626Y1565836D01*
X1325464Y1567145D01*
X1322070Y1567592D01*
D02*
G37*
G36*
X1186363Y1456500D02*
X1183457D01*
X1180649Y1455748D01*
X1178131Y1454294D01*
X1176076Y1452239D01*
X1174622Y1449721D01*
X1173870Y1446914D01*
Y1444007D01*
X1174622Y1441199D01*
X1176076Y1438681D01*
X1178131Y1436626D01*
X1180649Y1435172D01*
X1183457Y1434420D01*
X1186363D01*
X1189171Y1435172D01*
X1191689Y1436626D01*
X1193744Y1438681D01*
X1195198Y1441199D01*
X1195950Y1444007D01*
Y1446914D01*
X1195198Y1449721D01*
X1193744Y1452239D01*
X1191689Y1454294D01*
X1189171Y1455748D01*
X1186363Y1456500D01*
D02*
G37*
G36*
X1009861Y1372090D02*
X1006899D01*
X1004038Y1371323D01*
X1001472Y1369842D01*
X999378Y1367748D01*
X997897Y1365182D01*
X997130Y1362321D01*
Y1359359D01*
X997897Y1356498D01*
X999378Y1353932D01*
X1001472Y1351838D01*
X1004038Y1350357D01*
X1006899Y1349590D01*
X1009861D01*
X1012722Y1350357D01*
X1015288Y1351838D01*
X1017382Y1353932D01*
X1018863Y1356498D01*
X1019630Y1359359D01*
Y1362321D01*
X1018863Y1365182D01*
X1017382Y1367748D01*
X1015288Y1369842D01*
X1012722Y1371323D01*
X1009861Y1372090D01*
D02*
G37*
G36*
X519413Y1347080D02*
X516506D01*
X513699Y1346328D01*
X511181Y1344874D01*
X509126Y1342819D01*
X507672Y1340301D01*
X506920Y1337493D01*
Y1334587D01*
X507672Y1331779D01*
X509126Y1329261D01*
X511181Y1327206D01*
X513699Y1325752D01*
X516506Y1325000D01*
X519413D01*
X522221Y1325752D01*
X524739Y1327206D01*
X526794Y1329261D01*
X528247Y1331779D01*
X529000Y1334587D01*
Y1337493D01*
X528247Y1340301D01*
X526794Y1342819D01*
X524739Y1344874D01*
X522221Y1346328D01*
X519413Y1347080D01*
D02*
G37*
G36*
X121180Y1582550D02*
X92180D01*
Y1553550D01*
X102637D01*
X168808Y1487379D01*
Y1404620D01*
Y1369120D01*
X130420D01*
Y1346120D01*
X155220D01*
X156751Y1342424D01*
X153319Y1338992D01*
X138430D01*
X135036Y1338545D01*
X131874Y1337236D01*
X129158Y1335152D01*
X129158Y1335152D01*
X106298Y1312292D01*
X104214Y1309576D01*
X102905Y1306414D01*
X102458Y1303020D01*
X102458Y1303020D01*
Y1268710D01*
X85030D01*
Y1247630D01*
X106110D01*
X109014Y1245945D01*
X112176Y1244635D01*
X115570Y1244188D01*
X118964Y1244635D01*
X122126Y1245945D01*
X122244Y1246035D01*
X122781Y1245381D01*
X125521Y1243131D01*
X128648Y1241460D01*
X132041Y1240431D01*
X135570Y1240083D01*
X250117D01*
X251882Y1240257D01*
X253646Y1240431D01*
X257039Y1241460D01*
X260166Y1243131D01*
X262907Y1245381D01*
X351061Y1333535D01*
X355522Y1332339D01*
X355672Y1331779D01*
X357126Y1329261D01*
X359181Y1327206D01*
X361699Y1325752D01*
X364507Y1325000D01*
X367414D01*
X370221Y1325752D01*
X372739Y1327206D01*
X374794Y1329261D01*
X376248Y1331779D01*
X377000Y1334587D01*
Y1337493D01*
X376248Y1340301D01*
X374794Y1342819D01*
X372739Y1344874D01*
X370221Y1346328D01*
X369661Y1346478D01*
X368466Y1350939D01*
X402679Y1385153D01*
X404929Y1387894D01*
X406600Y1391021D01*
X407630Y1394414D01*
X407977Y1397943D01*
Y1414110D01*
X407630Y1417639D01*
X406600Y1421032D01*
X404929Y1424159D01*
X402679Y1426900D01*
X399939Y1429149D01*
X396812Y1430820D01*
X393419Y1431850D01*
X389890Y1432197D01*
X386361Y1431850D01*
X382968Y1430820D01*
X379841Y1429149D01*
X377100Y1426900D01*
X374851Y1424159D01*
X373180Y1421032D01*
X372150Y1417639D01*
X371803Y1414110D01*
Y1405435D01*
X242626Y1276257D01*
X135570D01*
X132682Y1275973D01*
X130668Y1276776D01*
X128682Y1278248D01*
Y1297589D01*
X143861Y1312768D01*
X158750D01*
X158750Y1312768D01*
X162144Y1313215D01*
X165306Y1314525D01*
X168022Y1316608D01*
X191192Y1339778D01*
X191192Y1339778D01*
X193275Y1342494D01*
X194585Y1345656D01*
X195032Y1349050D01*
X195032Y1349050D01*
Y1404620D01*
Y1492810D01*
X194585Y1496204D01*
X193275Y1499366D01*
X191192Y1502082D01*
X191192Y1502082D01*
X121180Y1572094D01*
Y1582550D01*
D02*
G37*
G36*
X1229571Y1298360D02*
X1226609D01*
X1223748Y1297593D01*
X1221182Y1296112D01*
X1219088Y1294018D01*
X1217607Y1291452D01*
X1216840Y1288591D01*
Y1285629D01*
X1217607Y1282768D01*
X1219088Y1280202D01*
X1221182Y1278108D01*
X1223748Y1276627D01*
X1226609Y1275860D01*
X1229571D01*
X1232432Y1276627D01*
X1234998Y1278108D01*
X1237092Y1280202D01*
X1238573Y1282768D01*
X1239340Y1285629D01*
Y1288591D01*
X1238573Y1291452D01*
X1237092Y1294018D01*
X1234998Y1296112D01*
X1232432Y1297593D01*
X1229571Y1298360D01*
D02*
G37*
G36*
X1009861Y1297090D02*
X1006899D01*
X1004038Y1296323D01*
X1001472Y1294842D01*
X999378Y1292748D01*
X997897Y1290182D01*
X997130Y1287321D01*
Y1284359D01*
X997897Y1281498D01*
X999378Y1278932D01*
X1001472Y1276838D01*
X1004038Y1275357D01*
X1006899Y1274590D01*
X1009861D01*
X1012722Y1275357D01*
X1015288Y1276838D01*
X1017382Y1278932D01*
X1018863Y1281498D01*
X1019630Y1284359D01*
Y1287321D01*
X1018863Y1290182D01*
X1017382Y1292748D01*
X1015288Y1294842D01*
X1012722Y1296323D01*
X1009861Y1297090D01*
D02*
G37*
G36*
X115570Y1223745D02*
X112531Y1223446D01*
X109610Y1222559D01*
X106917Y1221120D01*
X104557Y1219183D01*
X102356Y1216926D01*
X99638Y1217991D01*
X96958Y1218710D01*
X94182D01*
X91502Y1217991D01*
X89098Y1216604D01*
X87136Y1214641D01*
X85748Y1212238D01*
X85030Y1209557D01*
Y1206782D01*
X85748Y1204101D01*
X87136Y1201698D01*
X89098Y1199736D01*
X91502Y1198348D01*
X92749Y1198014D01*
X94354Y1197282D01*
X96154Y1193630D01*
X96046Y1192530D01*
Y1143366D01*
X96421Y1139557D01*
X97532Y1135895D01*
X99336Y1132519D01*
X101764Y1129561D01*
X109557Y1121768D01*
Y1109526D01*
X103980Y1106306D01*
X98257Y1101914D01*
X93156Y1096813D01*
X88764Y1091090D01*
X85157Y1084842D01*
X82397Y1078177D01*
X80530Y1071209D01*
X79588Y1064057D01*
Y1056843D01*
X80530Y1049691D01*
X82397Y1042723D01*
X85157Y1036058D01*
X88764Y1029810D01*
X93156Y1024087D01*
X98257Y1018986D01*
X103980Y1014594D01*
X110228Y1010987D01*
X116893Y1008227D01*
X123861Y1006360D01*
X131013Y1005418D01*
X138227D01*
X145379Y1006360D01*
X152347Y1008227D01*
X159012Y1010987D01*
X165260Y1014594D01*
X170983Y1018986D01*
X176084Y1024087D01*
X180476Y1029810D01*
X184083Y1036058D01*
X186843Y1042723D01*
X188710Y1049691D01*
X189652Y1056843D01*
Y1064057D01*
X188710Y1071209D01*
X186843Y1078177D01*
X184083Y1084842D01*
X180476Y1091090D01*
X176084Y1096813D01*
X170983Y1101914D01*
X165260Y1106306D01*
X159012Y1109913D01*
X152347Y1112673D01*
X148605Y1113676D01*
Y1129855D01*
X148230Y1133664D01*
X147119Y1137327D01*
X145315Y1140702D01*
X142887Y1143661D01*
X135094Y1151453D01*
Y1192530D01*
X134986Y1193630D01*
X136786Y1197282D01*
X138391Y1198014D01*
X139638Y1198348D01*
X142042Y1199736D01*
X144004Y1201698D01*
X145392Y1204101D01*
X146110Y1206782D01*
Y1209557D01*
X145392Y1212238D01*
X144004Y1214641D01*
X142042Y1216604D01*
X139638Y1217991D01*
X136958Y1218710D01*
X134182D01*
X131502Y1217991D01*
X128784Y1216926D01*
X126583Y1219183D01*
X124223Y1221120D01*
X121530Y1222559D01*
X118609Y1223446D01*
X115570Y1223745D01*
D02*
G37*
G36*
X1430332Y1273600D02*
X1425768D01*
X1421259Y1272886D01*
X1416918Y1271475D01*
X1412851Y1269403D01*
X1409158Y1266720D01*
X1405930Y1263492D01*
X1403247Y1259799D01*
X1401175Y1255732D01*
X1399764Y1251391D01*
X1399050Y1246882D01*
Y1242318D01*
X1399764Y1237809D01*
X1401175Y1233468D01*
X1403247Y1229401D01*
X1405930Y1225708D01*
X1409158Y1222480D01*
X1412851Y1219797D01*
X1416918Y1217725D01*
X1421259Y1216314D01*
X1425768Y1215600D01*
X1430332D01*
X1434841Y1216314D01*
X1439182Y1217725D01*
X1443249Y1219797D01*
X1446942Y1222480D01*
X1450170Y1225708D01*
X1452853Y1229401D01*
X1454925Y1233468D01*
X1456336Y1237809D01*
X1457050Y1242318D01*
Y1246882D01*
X1456336Y1251391D01*
X1454925Y1255732D01*
X1452853Y1259799D01*
X1450170Y1263492D01*
X1446942Y1266720D01*
X1443249Y1269403D01*
X1439182Y1271475D01*
X1434841Y1272886D01*
X1430332Y1273600D01*
D02*
G37*
G36*
X522153Y1193410D02*
X519247D01*
X516439Y1192658D01*
X513921Y1191204D01*
X511866Y1189149D01*
X510412Y1186631D01*
X509660Y1183823D01*
Y1180917D01*
X510412Y1178109D01*
X511866Y1175591D01*
X513921Y1173536D01*
X516439Y1172082D01*
X519247Y1171330D01*
X522153D01*
X524961Y1172082D01*
X527479Y1173536D01*
X529534Y1175591D01*
X530988Y1178109D01*
X531740Y1180917D01*
Y1183823D01*
X530988Y1186631D01*
X529534Y1189149D01*
X527479Y1191204D01*
X524961Y1192658D01*
X522153Y1193410D01*
D02*
G37*
G36*
X933633Y1190870D02*
X930727D01*
X927919Y1190118D01*
X925401Y1188664D01*
X923346Y1186609D01*
X921892Y1184091D01*
X921140Y1181283D01*
Y1178377D01*
X921892Y1175569D01*
X923346Y1173051D01*
X925401Y1170996D01*
X927919Y1169542D01*
X930727Y1168790D01*
X933633D01*
X936441Y1169542D01*
X938959Y1170996D01*
X941014Y1173051D01*
X942468Y1175569D01*
X943220Y1178377D01*
Y1181283D01*
X942468Y1184091D01*
X941014Y1186609D01*
X938959Y1188664D01*
X936441Y1190118D01*
X933633Y1190870D01*
D02*
G37*
G36*
X396770Y1193225D02*
X393170D01*
X389692Y1192293D01*
X386573Y1190493D01*
X384027Y1187947D01*
X382227Y1184828D01*
X381295Y1181350D01*
Y1177750D01*
X382227Y1174272D01*
X384027Y1171153D01*
X386573Y1168607D01*
X389692Y1166807D01*
X393170Y1165875D01*
X396770D01*
X400248Y1166807D01*
X403367Y1168607D01*
X405913Y1171153D01*
X407713Y1174272D01*
X408645Y1177750D01*
Y1181350D01*
X407713Y1184828D01*
X405913Y1187947D01*
X403367Y1190493D01*
X400248Y1192293D01*
X396770Y1193225D01*
D02*
G37*
G36*
X1007230Y1185299D02*
X996830D01*
X994428Y1184983D01*
X992190Y1184056D01*
X990268Y1182581D01*
X988794Y1180660D01*
X987867Y1178422D01*
X987551Y1176020D01*
X987867Y1173618D01*
X988794Y1171380D01*
X990216Y1169528D01*
X990268Y1169440D01*
Y1164820D01*
X990216Y1164732D01*
X988794Y1162880D01*
X987867Y1160642D01*
X987551Y1158240D01*
X987867Y1155838D01*
X988794Y1153600D01*
X990268Y1151678D01*
X992190Y1150204D01*
X994428Y1149277D01*
X996830Y1148961D01*
X1007230D01*
X1009632Y1149277D01*
X1011870Y1150204D01*
X1013792Y1151678D01*
X1015266Y1153600D01*
X1016193Y1155838D01*
X1016509Y1158240D01*
X1016193Y1160642D01*
X1015266Y1162880D01*
X1013845Y1164732D01*
X1013792Y1164820D01*
Y1169440D01*
X1013845Y1169528D01*
X1015266Y1171380D01*
X1016193Y1173618D01*
X1016509Y1176020D01*
X1016193Y1178422D01*
X1015266Y1180660D01*
X1013792Y1182581D01*
X1011870Y1184056D01*
X1009632Y1184983D01*
X1007230Y1185299D01*
D02*
G37*
G36*
X866690Y1175950D02*
X838890D01*
Y1148150D01*
X866690D01*
Y1175950D01*
D02*
G37*
G36*
X590670Y1178949D02*
X580270D01*
X577868Y1178633D01*
X575630Y1177706D01*
X573708Y1176232D01*
X572234Y1174310D01*
X571307Y1172072D01*
X570991Y1169670D01*
X571307Y1167268D01*
X572234Y1165030D01*
X573656Y1163178D01*
X573708Y1163090D01*
Y1158470D01*
X573656Y1158382D01*
X572234Y1156530D01*
X571307Y1154292D01*
X570991Y1151890D01*
X571307Y1149488D01*
X572234Y1147250D01*
X573708Y1145329D01*
X575630Y1143854D01*
X577868Y1142927D01*
X580270Y1142611D01*
X590670D01*
X593072Y1142927D01*
X595310Y1143854D01*
X597231Y1145329D01*
X598706Y1147250D01*
X599633Y1149488D01*
X599949Y1151890D01*
X599633Y1154292D01*
X598706Y1156530D01*
X597285Y1158382D01*
X597231Y1158470D01*
Y1163090D01*
X597285Y1163178D01*
X598706Y1165030D01*
X599633Y1167268D01*
X599949Y1169670D01*
X599633Y1172072D01*
X598706Y1174310D01*
X597231Y1176232D01*
X595310Y1177706D01*
X593072Y1178633D01*
X590670Y1178949D01*
D02*
G37*
G36*
X552964Y1588350D02*
X549396D01*
X545950Y1587427D01*
X542860Y1585643D01*
X540337Y1583120D01*
X538553Y1580030D01*
X537630Y1576584D01*
Y1573016D01*
X538553Y1569570D01*
X540337Y1566480D01*
X542860Y1563957D01*
X544325Y1563112D01*
X562198Y1545239D01*
Y1489110D01*
X562198Y1489110D01*
X562645Y1485716D01*
X563955Y1482554D01*
X566038Y1479838D01*
X643478Y1402399D01*
Y1133785D01*
X643925Y1130391D01*
X644640Y1128664D01*
Y1124170D01*
X443359D01*
X441829Y1127866D01*
X459613Y1145650D01*
X468870D01*
Y1173450D01*
X441070D01*
Y1164194D01*
X422066Y1145190D01*
X345679D01*
X345123Y1146018D01*
X344268Y1149190D01*
X346093Y1151015D01*
X347923Y1154185D01*
X348870Y1157720D01*
Y1161380D01*
X347923Y1164915D01*
X346093Y1168085D01*
X343505Y1170673D01*
X340335Y1172503D01*
X336800Y1173450D01*
X333140D01*
X329605Y1172503D01*
X326435Y1170673D01*
X323847Y1168085D01*
X322017Y1164915D01*
X321070Y1161380D01*
Y1157720D01*
X322017Y1154185D01*
X323847Y1151015D01*
X325672Y1149190D01*
X324817Y1146018D01*
X324261Y1145190D01*
X309626D01*
X309626Y1145190D01*
X306232Y1144743D01*
X303070Y1143434D01*
X300354Y1141350D01*
X261238Y1102234D01*
X259682Y1100206D01*
X256934Y1100640D01*
X255682Y1101272D01*
Y1114384D01*
X277103Y1135805D01*
X282460D01*
Y1142634D01*
X283175Y1144361D01*
X283622Y1147755D01*
X283175Y1151149D01*
X282460Y1152876D01*
Y1159705D01*
X275631D01*
X273904Y1160420D01*
X270510Y1160867D01*
X267116Y1160420D01*
X265389Y1159705D01*
X258560D01*
Y1154348D01*
X233298Y1129087D01*
X231215Y1126371D01*
X229905Y1123208D01*
X229458Y1119815D01*
X229458Y1119815D01*
Y652120D01*
X229458Y652120D01*
X229783Y649648D01*
X229905Y648726D01*
X229905Y648726D01*
X229905Y648726D01*
X230496Y647299D01*
X231215Y645564D01*
X233298Y642848D01*
X233298Y642848D01*
X233600Y642547D01*
X234168Y637637D01*
X232786Y635243D01*
X232070Y632572D01*
Y629808D01*
X232786Y627137D01*
X234168Y624743D01*
X236123Y622788D01*
X238517Y621406D01*
X241188Y620690D01*
X243952D01*
X244258Y620456D01*
Y613321D01*
X179270Y548333D01*
X176069Y550789D01*
X176154Y550937D01*
X176870Y553608D01*
Y556372D01*
X176154Y559043D01*
X174772Y561437D01*
X172817Y563392D01*
X170423Y564774D01*
X167752Y565490D01*
X164988D01*
X162317Y564774D01*
X159923Y563392D01*
X157968Y561437D01*
X156586Y559043D01*
X155870Y556372D01*
Y553608D01*
X156586Y550937D01*
X157968Y548543D01*
X159923Y546588D01*
X162317Y545206D01*
X164988Y544490D01*
X167752D01*
X170423Y545206D01*
X170571Y545291D01*
X173027Y542090D01*
X153395Y522458D01*
X149606Y524327D01*
X149764Y525526D01*
Y596041D01*
X175642Y621918D01*
X177726Y624634D01*
X179035Y627796D01*
X179482Y631190D01*
X179035Y634584D01*
X177726Y637746D01*
X175642Y640462D01*
X172926Y642545D01*
X169764Y643855D01*
X166370Y644302D01*
X162976Y643855D01*
X159814Y642545D01*
X157098Y640462D01*
X127380Y610744D01*
X125296Y608028D01*
X123987Y604866D01*
X123540Y601472D01*
X123540Y601472D01*
Y531215D01*
X121009Y529156D01*
X117360Y530738D01*
Y548215D01*
X93460D01*
Y524315D01*
X111671D01*
X113202Y520620D01*
X83438Y490856D01*
X81355Y488140D01*
X80045Y484978D01*
X79598Y481584D01*
X79598Y481584D01*
Y468630D01*
X80045Y465236D01*
X81355Y462074D01*
X83438Y459358D01*
X85383Y457866D01*
X86149Y456869D01*
X88070Y455394D01*
X90308Y454467D01*
X92710Y454151D01*
X95112Y454467D01*
X97350Y455394D01*
X99202Y456815D01*
X99292Y456870D01*
X102897Y457133D01*
X103928Y456869D01*
X105850Y455394D01*
X108088Y454467D01*
X110490Y454151D01*
X111158Y454239D01*
X114627Y451870D01*
X115158Y451076D01*
Y281890D01*
X114820Y278030D01*
X111158Y278030D01*
X90920D01*
Y254130D01*
X111158D01*
X114820Y254130D01*
X115158Y250270D01*
Y218029D01*
X84708Y187580D01*
X82625Y184864D01*
X81315Y181702D01*
X80868Y178308D01*
X80868Y178308D01*
Y158750D01*
X81315Y155356D01*
X82625Y152194D01*
X84708Y149478D01*
X86653Y147986D01*
X87418Y146988D01*
X89340Y145514D01*
X91578Y144587D01*
X93980Y144271D01*
X96382Y144587D01*
X98620Y145514D01*
X100472Y146936D01*
X100562Y146990D01*
X104167Y147253D01*
X105198Y146988D01*
X107120Y145514D01*
X109358Y144587D01*
X111760Y144271D01*
X114162Y144587D01*
X116400Y145514D01*
X118252Y146936D01*
X118340Y146988D01*
X122960D01*
X123048Y146936D01*
X124900Y145514D01*
X127138Y144587D01*
X129540Y144271D01*
X131942Y144587D01*
X134180Y145514D01*
X136102Y146988D01*
X137576Y148910D01*
X138503Y151148D01*
X138819Y153550D01*
Y163950D01*
X138503Y166352D01*
X137576Y168590D01*
X136102Y170511D01*
X134180Y171986D01*
X131942Y172913D01*
X129540Y173229D01*
X127138Y172913D01*
X124900Y171986D01*
X123048Y170564D01*
X122960Y170511D01*
X118340D01*
X118252Y170564D01*
X116400Y171986D01*
X114162Y172913D01*
X112946Y173073D01*
X111480Y176079D01*
X111374Y177159D01*
X137542Y203326D01*
X137542Y203326D01*
X139626Y206042D01*
X140935Y209204D01*
X141382Y212598D01*
Y468124D01*
X141459Y468707D01*
X141459Y468707D01*
Y473436D01*
X220483Y552459D01*
X224483Y550803D01*
Y261620D01*
X224830Y258091D01*
X225860Y254698D01*
X227531Y251571D01*
X229781Y248831D01*
X232521Y246581D01*
X235648Y244910D01*
X239041Y243880D01*
X242570Y243533D01*
X246099Y243880D01*
X249492Y244910D01*
X252619Y246581D01*
X255359Y248831D01*
X257609Y251571D01*
X259280Y254698D01*
X260310Y258091D01*
X260657Y261620D01*
Y554990D01*
X260310Y558519D01*
X259280Y561912D01*
X257609Y565039D01*
X255359Y567780D01*
X252619Y570029D01*
X249492Y571700D01*
X246337Y572657D01*
X245890Y573445D01*
X244891Y576868D01*
X266642Y598618D01*
X268725Y601334D01*
X270035Y604496D01*
X270482Y607890D01*
X270482Y607890D01*
Y637321D01*
X270482Y637321D01*
X270157Y639792D01*
X270035Y640714D01*
X270035Y640714D01*
X270035Y640714D01*
X269444Y642142D01*
X268725Y643877D01*
X266642Y646592D01*
X266642Y646592D01*
X255682Y657551D01*
Y1061355D01*
X256934Y1061987D01*
X259682Y1062421D01*
X261238Y1060393D01*
X263954Y1058310D01*
X267116Y1057000D01*
X270510Y1056553D01*
X273904Y1057000D01*
X277066Y1058310D01*
X279782Y1060393D01*
X281866Y1063109D01*
X283175Y1066272D01*
X283622Y1069665D01*
Y1087531D01*
X315057Y1118966D01*
X370688D01*
X372345Y1114966D01*
X321165Y1063786D01*
X318736Y1060827D01*
X316932Y1057452D01*
X315821Y1053789D01*
X315446Y1049980D01*
Y1037550D01*
X315821Y1033741D01*
X316932Y1030078D01*
X318736Y1026703D01*
X321165Y1023744D01*
X324123Y1021316D01*
X327499Y1019512D01*
X331161Y1018401D01*
X334970Y1018026D01*
X338779Y1018401D01*
X342442Y1019512D01*
X345817Y1021316D01*
X348776Y1023744D01*
X351204Y1026703D01*
X353008Y1030078D01*
X354119Y1033741D01*
X354494Y1037550D01*
Y1041893D01*
X397723Y1085122D01*
X715386D01*
X719195Y1085497D01*
X722857Y1086608D01*
X726233Y1088412D01*
X729192Y1090840D01*
X806595Y1168244D01*
X809024Y1171203D01*
X810828Y1174578D01*
X811939Y1178241D01*
X812314Y1182050D01*
X811939Y1185859D01*
X810828Y1189521D01*
X809024Y1192897D01*
X806595Y1195855D01*
X803637Y1198284D01*
X800261Y1200088D01*
X796599Y1201199D01*
X792790Y1201574D01*
X788981Y1201199D01*
X785318Y1200088D01*
X781943Y1198284D01*
X778984Y1195855D01*
X750023Y1166895D01*
X747563Y1167194D01*
X745430Y1167958D01*
X743913Y1170585D01*
X741325Y1173173D01*
X738155Y1175003D01*
X734620Y1175950D01*
X730960D01*
X727425Y1175003D01*
X724255Y1173173D01*
X721667Y1170585D01*
X719837Y1167415D01*
X718890Y1163880D01*
Y1160220D01*
X719837Y1156685D01*
X721667Y1153515D01*
X724255Y1150927D01*
X726882Y1149410D01*
X727646Y1147277D01*
X727945Y1144817D01*
X707299Y1124170D01*
X668540D01*
Y1128664D01*
X669255Y1130391D01*
X669702Y1133785D01*
Y1407830D01*
X669255Y1411224D01*
X667945Y1414386D01*
X665862Y1417102D01*
X665862Y1417102D01*
X588422Y1494541D01*
Y1550670D01*
X588422Y1550670D01*
X587975Y1554064D01*
X586665Y1557226D01*
X584582Y1559942D01*
X562868Y1581655D01*
X562023Y1583120D01*
X559500Y1585643D01*
X556410Y1587427D01*
X552964Y1588350D01*
D02*
G37*
G36*
X2162110Y1081550D02*
X2158110Y1080028D01*
X2156718Y1080832D01*
X2154038Y1081550D01*
X2151262D01*
X2148582Y1080832D01*
X2146178Y1079444D01*
X2145159Y1078424D01*
X2142650Y1077844D01*
X2140141Y1078424D01*
X2139122Y1079444D01*
X2136718Y1080832D01*
X2134038Y1081550D01*
X2131262D01*
X2128582Y1080832D01*
X2126178Y1079444D01*
X2124216Y1077482D01*
X2122828Y1075078D01*
X2122110Y1072397D01*
Y1069622D01*
X2122828Y1066942D01*
X2124216Y1064538D01*
X2126178Y1062576D01*
X2128582Y1061188D01*
X2131262Y1060470D01*
X2134038D01*
X2136718Y1061188D01*
X2139122Y1062576D01*
X2140141Y1063595D01*
X2142650Y1064176D01*
X2145159Y1063595D01*
X2146178Y1062576D01*
X2148582Y1061188D01*
X2151262Y1060470D01*
X2154038D01*
X2156718Y1061188D01*
X2158110Y1061992D01*
X2162110Y1060470D01*
Y1060470D01*
X2183190D01*
Y1081550D01*
X2162110D01*
X2162110Y1081550D01*
D02*
G37*
G36*
X658163Y1067645D02*
X655017D01*
X651977Y1066831D01*
X649252Y1065257D01*
X647028Y1063033D01*
X645454Y1060308D01*
X644640Y1057268D01*
Y1054122D01*
X645454Y1051083D01*
X647028Y1048358D01*
X649252Y1046133D01*
X651977Y1044559D01*
X655017Y1043745D01*
X658163D01*
X661202Y1044559D01*
X663928Y1046133D01*
X666152Y1048358D01*
X667726Y1051083D01*
X668540Y1054122D01*
Y1057268D01*
X667726Y1060308D01*
X666152Y1063033D01*
X663928Y1065257D01*
X661202Y1066831D01*
X658163Y1067645D01*
D02*
G37*
G36*
X734620Y1053950D02*
X730960D01*
X727425Y1053003D01*
X724255Y1051173D01*
X721667Y1048585D01*
X719837Y1045415D01*
X718890Y1041880D01*
Y1038220D01*
X719837Y1034685D01*
X721667Y1031515D01*
X724255Y1028928D01*
X727425Y1027097D01*
X730960Y1026150D01*
X734620D01*
X738155Y1027097D01*
X741325Y1028928D01*
X743913Y1031515D01*
X745743Y1034685D01*
X746690Y1038220D01*
Y1041880D01*
X745743Y1045415D01*
X743913Y1048585D01*
X741325Y1051173D01*
X738155Y1053003D01*
X734620Y1053950D01*
D02*
G37*
G36*
X522153Y1041410D02*
X519247D01*
X516439Y1040657D01*
X513921Y1039204D01*
X511866Y1037149D01*
X510412Y1034631D01*
X509660Y1031823D01*
Y1028916D01*
X510412Y1026108D01*
X511866Y1023591D01*
X513921Y1021536D01*
X516439Y1020082D01*
X519247Y1019330D01*
X522153D01*
X524961Y1020082D01*
X527479Y1021536D01*
X529534Y1023591D01*
X530988Y1026108D01*
X531740Y1028916D01*
Y1031823D01*
X530988Y1034631D01*
X529534Y1037149D01*
X527479Y1039204D01*
X524961Y1040657D01*
X522153Y1041410D01*
D02*
G37*
G36*
X1045862Y1153669D02*
X1042176D01*
X1038615Y1152715D01*
X1035423Y1150872D01*
X1032816Y1148265D01*
X1031101Y1145294D01*
X922908Y1037102D01*
X920825Y1034386D01*
X919515Y1031224D01*
X919068Y1027830D01*
X919515Y1024437D01*
X920825Y1021274D01*
X922908Y1018559D01*
X925624Y1016475D01*
X928786Y1015165D01*
X932180Y1014718D01*
X935574Y1015165D01*
X938736Y1016475D01*
X941452Y1018559D01*
X1049644Y1126751D01*
X1052615Y1128466D01*
X1055221Y1131073D01*
X1057065Y1134265D01*
X1058019Y1137826D01*
Y1141512D01*
X1057065Y1145073D01*
X1055221Y1148265D01*
X1052615Y1150872D01*
X1049423Y1152715D01*
X1045862Y1153669D01*
D02*
G37*
G36*
X1299593Y996878D02*
X1296686D01*
X1293878Y996125D01*
X1291361Y994672D01*
X1289305Y992616D01*
X1287852Y990099D01*
X1287100Y987291D01*
Y984384D01*
X1287852Y981576D01*
X1289305Y979059D01*
X1291361Y977003D01*
X1293878Y975550D01*
X1296686Y974798D01*
X1299593D01*
X1302401Y975550D01*
X1304918Y977003D01*
X1306974Y979059D01*
X1308427Y981576D01*
X1309180Y984384D01*
Y987291D01*
X1308427Y990099D01*
X1306974Y992616D01*
X1304918Y994672D01*
X1302401Y996125D01*
X1299593Y996878D01*
D02*
G37*
G36*
X454970Y1053125D02*
X451931Y1052826D01*
X449010Y1051939D01*
X446317Y1050500D01*
X443957Y1048563D01*
X429677Y1034283D01*
X427740Y1031923D01*
X426301Y1029230D01*
X425414Y1026309D01*
X425115Y1023270D01*
Y985390D01*
X425414Y982351D01*
X426301Y979430D01*
X427740Y976737D01*
X429677Y974377D01*
X436016Y968038D01*
X434485Y964342D01*
X389890D01*
X389890Y964342D01*
X386496Y963895D01*
X383334Y962586D01*
X380618Y960502D01*
X348868Y928752D01*
X346785Y926036D01*
X345475Y922874D01*
X345028Y919480D01*
X345028Y919480D01*
Y867410D01*
X345475Y864016D01*
X346785Y860854D01*
X348050Y859205D01*
Y857320D01*
X349935D01*
X351584Y856055D01*
X354746Y854745D01*
X358140Y854298D01*
X361534Y854745D01*
X364696Y856055D01*
X366345Y857320D01*
X368230D01*
Y859205D01*
X369496Y860854D01*
X370805Y864016D01*
X371252Y867410D01*
Y914049D01*
X395321Y938118D01*
X441760D01*
X445154Y938565D01*
X448316Y939874D01*
X449055Y940442D01*
X453055Y938469D01*
Y840533D01*
X417037Y804514D01*
X415100Y802154D01*
X413661Y799461D01*
X412774Y796540D01*
X412475Y793501D01*
Y731130D01*
X412774Y728091D01*
X413661Y725170D01*
X415100Y722477D01*
X417037Y720117D01*
X460836Y676318D01*
X460666Y673721D01*
X457178Y671820D01*
X454150Y673530D01*
Y673530D01*
X452206Y674601D01*
X451056Y675235D01*
X450886Y675306D01*
X447894Y676545D01*
X444500Y676992D01*
X441106Y676545D01*
X437944Y675235D01*
X435721Y673530D01*
X434850D01*
Y672773D01*
X428497Y666421D01*
X428474Y666390D01*
X428443Y666366D01*
X427431Y665030D01*
X426413Y663705D01*
X426399Y663669D01*
X426375Y663638D01*
X425745Y662090D01*
X425104Y660543D01*
X425098Y660504D01*
X425084Y660468D01*
X424876Y658813D01*
X424657Y657149D01*
X424662Y657110D01*
X424657Y657072D01*
X427417Y186774D01*
X427645Y185121D01*
X427864Y183457D01*
X427878Y183421D01*
X427884Y183383D01*
X428533Y181842D01*
X429174Y180295D01*
X429197Y180264D01*
X429212Y180228D01*
X430240Y178906D01*
X431257Y177579D01*
X456818Y152018D01*
X456818Y152018D01*
X459534Y149935D01*
X462696Y148625D01*
X466090Y148178D01*
X466090Y148178D01*
X501142D01*
X501142Y148178D01*
X504536Y148625D01*
X507698Y149935D01*
X510414Y152018D01*
X603749Y245354D01*
X603749Y245354D01*
X605833Y248069D01*
X607143Y251232D01*
X607589Y254625D01*
Y330599D01*
X607143Y333993D01*
X605833Y337155D01*
X603749Y339871D01*
X601033Y341955D01*
X597871Y343265D01*
X594477Y343712D01*
X591084Y343265D01*
X587921Y341955D01*
X585206Y339871D01*
X583122Y337155D01*
X581812Y333993D01*
X581365Y330599D01*
Y260057D01*
X512225Y190917D01*
X508530Y192447D01*
Y239679D01*
X521082Y252231D01*
X523166Y254947D01*
X524475Y258109D01*
X524922Y261503D01*
Y360327D01*
X524922Y360327D01*
X524475Y363721D01*
X523166Y366883D01*
X521082Y369599D01*
X521082Y369599D01*
X479489Y411191D01*
X476774Y413275D01*
X473611Y414585D01*
X470218Y415032D01*
X467772Y417176D01*
Y439069D01*
X555372Y526668D01*
X555372Y526668D01*
X557455Y529384D01*
X558765Y532546D01*
X559212Y535940D01*
X559212Y535940D01*
Y663880D01*
X558765Y667273D01*
X557455Y670436D01*
X555372Y673151D01*
X552656Y675235D01*
X549494Y676545D01*
X546100Y676992D01*
X542706Y676545D01*
X539544Y675235D01*
X536828Y673151D01*
X534744Y670436D01*
X533731Y667988D01*
X531179Y667631D01*
X529525Y667894D01*
X528422Y669805D01*
X526625Y671602D01*
X524425Y672872D01*
X521970Y673530D01*
X519430D01*
X516975Y672872D01*
X514775Y671602D01*
X513670Y670497D01*
X512391Y670286D01*
X511008Y670415D01*
X509060Y671018D01*
X508250Y672533D01*
X506313Y674893D01*
X450325Y730881D01*
X450425Y735558D01*
X452222Y737355D01*
X453492Y739555D01*
X454150Y742009D01*
Y744550D01*
X453492Y747004D01*
X452222Y749205D01*
X450425Y751002D01*
X448225Y752272D01*
X445770Y752930D01*
X443625D01*
Y787050D01*
X479643Y823068D01*
X481580Y825428D01*
X483019Y828121D01*
X483906Y831043D01*
X484205Y834081D01*
Y957450D01*
X483906Y960489D01*
X483019Y963410D01*
X481580Y966103D01*
X479643Y968463D01*
X456265Y991841D01*
Y1016819D01*
X465983Y1026537D01*
X467920Y1028897D01*
X469359Y1031590D01*
X470246Y1034511D01*
X470545Y1037550D01*
X470246Y1040588D01*
X469359Y1043510D01*
X467920Y1046203D01*
X465983Y1048563D01*
X463623Y1050500D01*
X460930Y1051939D01*
X458008Y1052826D01*
X454970Y1053125D01*
D02*
G37*
G36*
X291214Y962270D02*
X288307D01*
X285499Y961518D01*
X282981Y960064D01*
X280926Y958009D01*
X279473Y955491D01*
X278720Y952683D01*
Y949777D01*
X279473Y946969D01*
X280926Y944451D01*
X282981Y942396D01*
X285499Y940942D01*
X288307Y940190D01*
X291214D01*
X294021Y940942D01*
X296539Y942396D01*
X298594Y944451D01*
X300048Y946969D01*
X300800Y949777D01*
Y952683D01*
X300048Y955491D01*
X298594Y958009D01*
X296539Y960064D01*
X294021Y961518D01*
X291214Y962270D01*
D02*
G37*
G36*
X2158001Y931564D02*
X2154919D01*
X2151943Y930766D01*
X2149274Y929226D01*
X2147095Y927047D01*
X2145555Y924378D01*
X2144757Y921402D01*
Y918320D01*
X2145555Y915344D01*
X2147095Y912675D01*
X2149274Y910496D01*
X2151943Y908956D01*
X2154919Y908158D01*
X2158001D01*
X2160977Y908956D01*
X2163646Y910496D01*
X2165825Y912675D01*
X2167365Y915344D01*
X2168163Y918320D01*
Y921402D01*
X2167365Y924378D01*
X2165825Y927047D01*
X2163646Y929226D01*
X2160977Y930766D01*
X2158001Y931564D01*
D02*
G37*
G36*
X1299593Y929250D02*
X1296686D01*
X1293878Y928498D01*
X1291361Y927044D01*
X1289305Y924989D01*
X1287852Y922471D01*
X1287100Y919663D01*
Y916757D01*
X1287852Y913949D01*
X1289305Y911431D01*
X1291361Y909376D01*
X1293878Y907922D01*
X1296686Y907170D01*
X1299593D01*
X1302401Y907922D01*
X1304918Y909376D01*
X1306974Y911431D01*
X1308427Y913949D01*
X1309180Y916757D01*
Y919663D01*
X1308427Y922471D01*
X1306974Y924989D01*
X1304918Y927044D01*
X1302401Y928498D01*
X1299593Y929250D01*
D02*
G37*
G36*
X2053573Y893690D02*
X2050666D01*
X2047859Y892938D01*
X2045341Y891484D01*
X2043286Y889429D01*
X2041832Y886911D01*
X2041080Y884103D01*
Y881197D01*
X2041832Y878389D01*
X2043286Y875871D01*
X2045341Y873816D01*
X2047859Y872362D01*
X2050666Y871610D01*
X2053573D01*
X2056381Y872362D01*
X2058899Y873816D01*
X2060954Y875871D01*
X2062408Y878389D01*
X2063160Y881197D01*
Y884103D01*
X2062408Y886911D01*
X2060954Y889429D01*
X2058899Y891484D01*
X2056381Y892938D01*
X2053573Y893690D01*
D02*
G37*
G36*
X410268Y877500D02*
X407612D01*
X405045Y876812D01*
X402745Y875484D01*
X400866Y873605D01*
X399538Y871305D01*
X398850Y868738D01*
Y866082D01*
X399538Y863515D01*
X400866Y861215D01*
X402745Y859336D01*
X405045Y858008D01*
X407612Y857320D01*
X410268D01*
X412835Y858008D01*
X415135Y859336D01*
X417014Y861215D01*
X418342Y863515D01*
X419030Y866082D01*
Y868738D01*
X418342Y871305D01*
X417014Y873605D01*
X415135Y875484D01*
X412835Y876812D01*
X410268Y877500D01*
D02*
G37*
G36*
X2100276Y810510D02*
X2096603D01*
X2093055Y809560D01*
X2089874Y807723D01*
X2087277Y805126D01*
X2085441Y801945D01*
X2084490Y798397D01*
Y794724D01*
X2085441Y791176D01*
X2087277Y787995D01*
X2089874Y785397D01*
X2093055Y783561D01*
X2096603Y782610D01*
X2100276D01*
X2103824Y783561D01*
X2107005Y785397D01*
X2109603Y787995D01*
X2111439Y791176D01*
X2112390Y794724D01*
Y798397D01*
X2111439Y801945D01*
X2109603Y805126D01*
X2107005Y807723D01*
X2103824Y809560D01*
X2100276Y810510D01*
D02*
G37*
G36*
X1954226D02*
X1950553D01*
X1947005Y809560D01*
X1943824Y807723D01*
X1941227Y805126D01*
X1939391Y801945D01*
X1938440Y798397D01*
Y794724D01*
X1939391Y791176D01*
X1941227Y787995D01*
X1943824Y785397D01*
X1947005Y783561D01*
X1950553Y782610D01*
X1954226D01*
X1957774Y783561D01*
X1960955Y785397D01*
X1963553Y787995D01*
X1965389Y791176D01*
X1966340Y794724D01*
Y798397D01*
X1965389Y801945D01*
X1963553Y805126D01*
X1960955Y807723D01*
X1957774Y809560D01*
X1954226Y810510D01*
D02*
G37*
G36*
X1805636D02*
X1801963D01*
X1798415Y809560D01*
X1795234Y807723D01*
X1792637Y805126D01*
X1790800Y801945D01*
X1789850Y798397D01*
Y794724D01*
X1790800Y791176D01*
X1792637Y787995D01*
X1795234Y785397D01*
X1798415Y783561D01*
X1801963Y782610D01*
X1805636D01*
X1809184Y783561D01*
X1812365Y785397D01*
X1814963Y787995D01*
X1816799Y791176D01*
X1817750Y794724D01*
Y798397D01*
X1816799Y801945D01*
X1814963Y805126D01*
X1812365Y807723D01*
X1809184Y809560D01*
X1805636Y810510D01*
D02*
G37*
G36*
X471171Y752930D02*
X468629D01*
X466175Y752272D01*
X463975Y751002D01*
X462178Y749205D01*
X460908Y747004D01*
X460250Y744550D01*
Y742009D01*
X460908Y739555D01*
X462178Y737355D01*
X463975Y735558D01*
X466175Y734287D01*
X468629Y733630D01*
X471171D01*
X473625Y734287D01*
X475825Y735558D01*
X477622Y737355D01*
X478892Y739555D01*
X479550Y742009D01*
Y744550D01*
X478892Y747004D01*
X477622Y749205D01*
X475825Y751002D01*
X473625Y752272D01*
X471171Y752930D01*
D02*
G37*
G36*
X955023Y700650D02*
X952116D01*
X949309Y699898D01*
X946791Y698444D01*
X944736Y696389D01*
X943282Y693871D01*
X942530Y691063D01*
Y688157D01*
X943282Y685349D01*
X944736Y682831D01*
X946791Y680776D01*
X949309Y679322D01*
X952116Y678570D01*
X955023D01*
X957831Y679322D01*
X960349Y680776D01*
X962404Y682831D01*
X963857Y685349D01*
X964610Y688157D01*
Y691063D01*
X963857Y693871D01*
X962404Y696389D01*
X960349Y698444D01*
X957831Y699898D01*
X955023Y700650D01*
D02*
G37*
G36*
X803024D02*
X800117D01*
X797309Y699898D01*
X794791Y698444D01*
X792736Y696389D01*
X791283Y693871D01*
X790530Y691063D01*
Y688157D01*
X791283Y685349D01*
X792736Y682831D01*
X794791Y680776D01*
X797309Y679322D01*
X800117Y678570D01*
X803024D01*
X805831Y679322D01*
X808349Y680776D01*
X810404Y682831D01*
X811858Y685349D01*
X812610Y688157D01*
Y691063D01*
X811858Y693871D01*
X810404Y696389D01*
X808349Y698444D01*
X805831Y699898D01*
X803024Y700650D01*
D02*
G37*
G36*
X722688Y684460D02*
X720032D01*
X717465Y683772D01*
X715165Y682444D01*
X713286Y680565D01*
X711958Y678265D01*
X711270Y675698D01*
Y673042D01*
X711958Y670475D01*
X713286Y668175D01*
X715165Y666296D01*
X717465Y664968D01*
X720032Y664280D01*
X722688D01*
X725255Y664968D01*
X727555Y666296D01*
X729434Y668175D01*
X730762Y670475D01*
X731450Y673042D01*
Y675698D01*
X730762Y678265D01*
X729434Y680565D01*
X727555Y682444D01*
X725255Y683772D01*
X722688Y684460D01*
D02*
G37*
G36*
X2162390Y810510D02*
X2134490D01*
Y801154D01*
X2120772Y787436D01*
X2118689Y784720D01*
X2117379Y781558D01*
X2116932Y778164D01*
X2116932Y778164D01*
Y626997D01*
X2116932Y626996D01*
X2117379Y623603D01*
X2118689Y620440D01*
X2120772Y617725D01*
X2129897Y608600D01*
X2120772Y599476D01*
X2118689Y596760D01*
X2117379Y593598D01*
X2116932Y590204D01*
X2116932Y590204D01*
Y445810D01*
X2116932Y445810D01*
X2117379Y442416D01*
X2118689Y439254D01*
X2120772Y436538D01*
X2129897Y427413D01*
X2120772Y418289D01*
X2118689Y415573D01*
X2117379Y412411D01*
X2116932Y409017D01*
X2116932Y409017D01*
Y259967D01*
X2116932Y259967D01*
X2117379Y256573D01*
X2118689Y253410D01*
X2120772Y250695D01*
X2134490Y236977D01*
Y227620D01*
X2162390D01*
Y255520D01*
X2153034D01*
X2143156Y265398D01*
Y286102D01*
X2146330Y288537D01*
X2146604Y288463D01*
X2150277D01*
X2153825Y289414D01*
X2157006Y291251D01*
X2159603Y293848D01*
X2161440Y297029D01*
X2162390Y300577D01*
Y304250D01*
X2161440Y307798D01*
X2159603Y310979D01*
X2157006Y313576D01*
X2153825Y315413D01*
X2150277Y316363D01*
X2146604D01*
X2146330Y316290D01*
X2143156Y318725D01*
Y403586D01*
X2153034Y413463D01*
X2162390D01*
Y441363D01*
X2153034D01*
X2143156Y451241D01*
Y467289D01*
X2146330Y469724D01*
X2146604Y469650D01*
X2150277D01*
X2153825Y470601D01*
X2157006Y472438D01*
X2159603Y475035D01*
X2161440Y478216D01*
X2162390Y481764D01*
Y485437D01*
X2161440Y488985D01*
X2159603Y492166D01*
X2157006Y494763D01*
X2153825Y496600D01*
X2150277Y497550D01*
X2146604D01*
X2146330Y497477D01*
X2143156Y499912D01*
Y584773D01*
X2153034Y594650D01*
X2162390D01*
Y622550D01*
X2153034D01*
X2143156Y632428D01*
Y655249D01*
X2146330Y657684D01*
X2146604Y657610D01*
X2150277D01*
X2153825Y658561D01*
X2157006Y660397D01*
X2159603Y662995D01*
X2161440Y666176D01*
X2162390Y669724D01*
Y673397D01*
X2161440Y676945D01*
X2159603Y680126D01*
X2157006Y682723D01*
X2153825Y684560D01*
X2150277Y685510D01*
X2146604D01*
X2146330Y685437D01*
X2143156Y687872D01*
Y772733D01*
X2153034Y782610D01*
X2162390D01*
Y810510D01*
D02*
G37*
G36*
X2100276Y685510D02*
X2096603D01*
X2093055Y684560D01*
X2089874Y682723D01*
X2087277Y680126D01*
X2085441Y676945D01*
X2084490Y673397D01*
Y669724D01*
X2085441Y666176D01*
X2087277Y662995D01*
X2089874Y660397D01*
X2093055Y658561D01*
X2096603Y657610D01*
X2100276D01*
X2103824Y658561D01*
X2107005Y660397D01*
X2109603Y662995D01*
X2111439Y666176D01*
X2112390Y669724D01*
Y673397D01*
X2111439Y676945D01*
X2109603Y680126D01*
X2107005Y682723D01*
X2103824Y684560D01*
X2100276Y685510D01*
D02*
G37*
G36*
X2016340Y810510D02*
X1988440D01*
Y801154D01*
X1974722Y787436D01*
X1972639Y784720D01*
X1971329Y781558D01*
X1970882Y778164D01*
X1970882Y778164D01*
Y630807D01*
X1970882Y630807D01*
X1971329Y627413D01*
X1972639Y624250D01*
X1974722Y621535D01*
X1983847Y612410D01*
X1974722Y603286D01*
X1972639Y600570D01*
X1971329Y597408D01*
X1970882Y594014D01*
X1970882Y594014D01*
Y445810D01*
X1970882Y445810D01*
X1971329Y442416D01*
X1972639Y439254D01*
X1974722Y436538D01*
X1983847Y427413D01*
X1974722Y418289D01*
X1972639Y415573D01*
X1971329Y412411D01*
X1970882Y409017D01*
X1970882Y409017D01*
Y259967D01*
X1970882Y259967D01*
X1971329Y256573D01*
X1972639Y253410D01*
X1974722Y250695D01*
X1988440Y236977D01*
Y227620D01*
X2016340D01*
Y255520D01*
X2006984D01*
X1997106Y265398D01*
Y286102D01*
X2000280Y288537D01*
X2000554Y288463D01*
X2004227D01*
X2007775Y289414D01*
X2010956Y291251D01*
X2013553Y293848D01*
X2015390Y297029D01*
X2016340Y300577D01*
Y304250D01*
X2015390Y307798D01*
X2013553Y310979D01*
X2010956Y313576D01*
X2007775Y315413D01*
X2004227Y316363D01*
X2000554D01*
X2000280Y316290D01*
X1997106Y318725D01*
Y403586D01*
X2006984Y413463D01*
X2016340D01*
Y441363D01*
X2006984D01*
X1997106Y451241D01*
Y471099D01*
X2000280Y473534D01*
X2000554Y473460D01*
X2004227D01*
X2007775Y474411D01*
X2010956Y476247D01*
X2013553Y478845D01*
X2015390Y482026D01*
X2016340Y485574D01*
Y489247D01*
X2015390Y492795D01*
X2013553Y495976D01*
X2010956Y498573D01*
X2007775Y500410D01*
X2004227Y501360D01*
X2000554D01*
X2000280Y501287D01*
X1997106Y503722D01*
Y588583D01*
X2006984Y598460D01*
X2016340D01*
Y626360D01*
X2006984D01*
X1997106Y636238D01*
Y655249D01*
X2000280Y657684D01*
X2000554Y657610D01*
X2004227D01*
X2007775Y658561D01*
X2010956Y660397D01*
X2013553Y662995D01*
X2015390Y666176D01*
X2016340Y669724D01*
Y673397D01*
X2015390Y676945D01*
X2013553Y680126D01*
X2010956Y682723D01*
X2007775Y684560D01*
X2004227Y685510D01*
X2000554D01*
X2000280Y685437D01*
X1997106Y687872D01*
Y772733D01*
X2006984Y782610D01*
X2016340D01*
Y810510D01*
D02*
G37*
G36*
X1954226Y685510D02*
X1950553D01*
X1947005Y684560D01*
X1943824Y682723D01*
X1941227Y680126D01*
X1939391Y676945D01*
X1938440Y673397D01*
Y669724D01*
X1939391Y666176D01*
X1941227Y662995D01*
X1943824Y660397D01*
X1947005Y658561D01*
X1950553Y657610D01*
X1954226D01*
X1957774Y658561D01*
X1960955Y660397D01*
X1963553Y662995D01*
X1965389Y666176D01*
X1966340Y669724D01*
Y673397D01*
X1965389Y676945D01*
X1963553Y680126D01*
X1960955Y682723D01*
X1957774Y684560D01*
X1954226Y685510D01*
D02*
G37*
G36*
X1805636D02*
X1801963D01*
X1798415Y684560D01*
X1795234Y682723D01*
X1792637Y680126D01*
X1790800Y676945D01*
X1789850Y673397D01*
Y669724D01*
X1790800Y666176D01*
X1792637Y662995D01*
X1795234Y660397D01*
X1798415Y658561D01*
X1801963Y657610D01*
X1805636D01*
X1809184Y658561D01*
X1812365Y660397D01*
X1814963Y662995D01*
X1816799Y666176D01*
X1817750Y669724D01*
Y673397D01*
X1816799Y676945D01*
X1814963Y680126D01*
X1812365Y682723D01*
X1809184Y684560D01*
X1805636Y685510D01*
D02*
G37*
G36*
X1722970Y810510D02*
X1695070D01*
Y801154D01*
X1681352Y787436D01*
X1679268Y784720D01*
X1677959Y781558D01*
X1677512Y778164D01*
X1677512Y778164D01*
Y628267D01*
X1677512Y628266D01*
X1677959Y624873D01*
X1679268Y621710D01*
X1681352Y618995D01*
X1690477Y609870D01*
X1681352Y600746D01*
X1679268Y598030D01*
X1677959Y594868D01*
X1677512Y591474D01*
X1677512Y591474D01*
Y445810D01*
X1677512Y445810D01*
X1677959Y442416D01*
X1679268Y439254D01*
X1681352Y436538D01*
X1690477Y427413D01*
X1681352Y418289D01*
X1679268Y415573D01*
X1677959Y412411D01*
X1677512Y409017D01*
X1677512Y409017D01*
Y259967D01*
X1677512Y259967D01*
X1677959Y256573D01*
X1679268Y253410D01*
X1681352Y250695D01*
X1695070Y236977D01*
Y227620D01*
X1722970D01*
Y255520D01*
X1713614D01*
X1703736Y265398D01*
Y286102D01*
X1706910Y288537D01*
X1707184Y288463D01*
X1710857D01*
X1714405Y289414D01*
X1717586Y291251D01*
X1720183Y293848D01*
X1722020Y297029D01*
X1722970Y300577D01*
Y304250D01*
X1722020Y307798D01*
X1720183Y310979D01*
X1717586Y313576D01*
X1714405Y315413D01*
X1710857Y316363D01*
X1707184D01*
X1706910Y316290D01*
X1703736Y318725D01*
Y403586D01*
X1713614Y413463D01*
X1722970D01*
Y441363D01*
X1713614D01*
X1703736Y451241D01*
Y468559D01*
X1706910Y470994D01*
X1707184Y470920D01*
X1710857D01*
X1714405Y471871D01*
X1717586Y473708D01*
X1720183Y476305D01*
X1722020Y479486D01*
X1722970Y483034D01*
Y486707D01*
X1722020Y490255D01*
X1720183Y493436D01*
X1717586Y496033D01*
X1714405Y497870D01*
X1710857Y498820D01*
X1707184D01*
X1706910Y498747D01*
X1703736Y501182D01*
Y586043D01*
X1713614Y595920D01*
X1722970D01*
Y623820D01*
X1713614D01*
X1703736Y633698D01*
Y655249D01*
X1706910Y657684D01*
X1707184Y657610D01*
X1710857D01*
X1714405Y658561D01*
X1717586Y660397D01*
X1720183Y662995D01*
X1722020Y666176D01*
X1722970Y669724D01*
Y673397D01*
X1722020Y676945D01*
X1720183Y680126D01*
X1717586Y682723D01*
X1714405Y684560D01*
X1710857Y685510D01*
X1707184D01*
X1706910Y685437D01*
X1703736Y687872D01*
Y772733D01*
X1713614Y782610D01*
X1722970D01*
Y810510D01*
D02*
G37*
G36*
X722688Y659060D02*
X720032D01*
X717465Y658372D01*
X715165Y657044D01*
X713286Y655165D01*
X711958Y652865D01*
X711270Y650298D01*
Y647642D01*
X711958Y645075D01*
X713286Y642775D01*
X715165Y640896D01*
X717465Y639568D01*
X720032Y638880D01*
X722688D01*
X725255Y639568D01*
X727555Y640896D01*
X729434Y642775D01*
X730762Y645075D01*
X731450Y647642D01*
Y650298D01*
X730762Y652865D01*
X729434Y655165D01*
X727555Y657044D01*
X725255Y658372D01*
X722688Y659060D01*
D02*
G37*
G36*
X345552Y641690D02*
X342788D01*
X340117Y640974D01*
X337723Y639592D01*
X335768Y637637D01*
X334386Y635243D01*
X333670Y632572D01*
Y629808D01*
X334386Y627137D01*
X335768Y624743D01*
X337723Y622788D01*
X340117Y621406D01*
X342788Y620690D01*
X345552D01*
X348223Y621406D01*
X350617Y622788D01*
X352572Y624743D01*
X353954Y627137D01*
X354670Y629808D01*
Y632572D01*
X353954Y635243D01*
X352572Y637637D01*
X350617Y639592D01*
X348223Y640974D01*
X345552Y641690D01*
D02*
G37*
G36*
X294752D02*
X291988D01*
X289317Y640974D01*
X286923Y639592D01*
X284968Y637637D01*
X283586Y635243D01*
X282870Y632572D01*
Y629808D01*
X283586Y627137D01*
X284968Y624743D01*
X286923Y622788D01*
X289317Y621406D01*
X291988Y620690D01*
X294752D01*
X297423Y621406D01*
X299817Y622788D01*
X301772Y624743D01*
X303154Y627137D01*
X303870Y629808D01*
Y632572D01*
X303154Y635243D01*
X301772Y637637D01*
X299817Y639592D01*
X297423Y640974D01*
X294752Y641690D01*
D02*
G37*
G36*
X1954226Y626360D02*
X1950553D01*
X1947005Y625410D01*
X1943824Y623573D01*
X1941227Y620976D01*
X1939391Y617795D01*
X1938440Y614247D01*
Y610574D01*
X1939391Y607026D01*
X1941227Y603845D01*
X1943824Y601247D01*
X1947005Y599411D01*
X1950553Y598460D01*
X1954226D01*
X1957774Y599411D01*
X1960955Y601247D01*
X1963553Y603845D01*
X1965389Y607026D01*
X1966340Y610574D01*
Y614247D01*
X1965389Y617795D01*
X1963553Y620976D01*
X1960955Y623573D01*
X1957774Y625410D01*
X1954226Y626360D01*
D02*
G37*
G36*
X1805636Y623820D02*
X1801963D01*
X1798415Y622870D01*
X1795234Y621033D01*
X1792637Y618436D01*
X1790800Y615255D01*
X1789850Y611707D01*
Y608034D01*
X1790800Y604486D01*
X1792637Y601305D01*
X1795234Y598708D01*
X1798415Y596871D01*
X1801963Y595920D01*
X1805636D01*
X1809184Y596871D01*
X1812365Y598708D01*
X1814963Y601305D01*
X1816799Y604486D01*
X1817750Y608034D01*
Y611707D01*
X1816799Y615255D01*
X1814963Y618436D01*
X1812365Y621033D01*
X1809184Y622870D01*
X1805636Y623820D01*
D02*
G37*
G36*
X2100276Y622550D02*
X2096603D01*
X2093055Y621600D01*
X2089874Y619763D01*
X2087277Y617166D01*
X2085441Y613985D01*
X2084490Y610437D01*
Y606764D01*
X2085441Y603216D01*
X2087277Y600035D01*
X2089874Y597438D01*
X2093055Y595601D01*
X2096603Y594650D01*
X2100276D01*
X2103824Y595601D01*
X2107005Y597438D01*
X2109603Y600035D01*
X2111439Y603216D01*
X2112390Y606764D01*
Y610437D01*
X2111439Y613985D01*
X2109603Y617166D01*
X2107005Y619763D01*
X2103824Y621600D01*
X2100276Y622550D01*
D02*
G37*
G36*
X345552Y565490D02*
X342788D01*
X340117Y564774D01*
X337723Y563392D01*
X335768Y561437D01*
X334386Y559043D01*
X333670Y556372D01*
Y553608D01*
X334386Y550937D01*
X335768Y548543D01*
X337723Y546588D01*
X340117Y545206D01*
X342788Y544490D01*
X345552D01*
X348223Y545206D01*
X350617Y546588D01*
X352572Y548543D01*
X353954Y550937D01*
X354670Y553608D01*
Y556372D01*
X353954Y559043D01*
X352572Y561437D01*
X350617Y563392D01*
X348223Y564774D01*
X345552Y565490D01*
D02*
G37*
G36*
X294752D02*
X291988D01*
X289317Y564774D01*
X286923Y563392D01*
X284968Y561437D01*
X283586Y559043D01*
X282870Y556372D01*
Y553608D01*
X283586Y550937D01*
X284968Y548543D01*
X286923Y546588D01*
X289317Y545206D01*
X291988Y544490D01*
X294752D01*
X297423Y545206D01*
X299817Y546588D01*
X301772Y548543D01*
X303154Y550937D01*
X303870Y553608D01*
Y556372D01*
X303154Y559043D01*
X301772Y561437D01*
X299817Y563392D01*
X297423Y564774D01*
X294752Y565490D01*
D02*
G37*
G36*
X1954226Y501360D02*
X1950553D01*
X1947005Y500410D01*
X1943824Y498573D01*
X1941227Y495976D01*
X1939391Y492795D01*
X1938440Y489247D01*
Y485574D01*
X1939391Y482026D01*
X1941227Y478845D01*
X1943824Y476247D01*
X1947005Y474411D01*
X1950553Y473460D01*
X1954226D01*
X1957774Y474411D01*
X1960955Y476247D01*
X1963553Y478845D01*
X1965389Y482026D01*
X1966340Y485574D01*
Y489247D01*
X1965389Y492795D01*
X1963553Y495976D01*
X1960955Y498573D01*
X1957774Y500410D01*
X1954226Y501360D01*
D02*
G37*
G36*
X1805636Y498820D02*
X1801963D01*
X1798415Y497870D01*
X1795234Y496033D01*
X1792637Y493436D01*
X1790800Y490255D01*
X1789850Y486707D01*
Y483034D01*
X1790800Y479486D01*
X1792637Y476305D01*
X1795234Y473708D01*
X1798415Y471871D01*
X1801963Y470920D01*
X1805636D01*
X1809184Y471871D01*
X1812365Y473708D01*
X1814963Y476305D01*
X1816799Y479486D01*
X1817750Y483034D01*
Y486707D01*
X1816799Y490255D01*
X1814963Y493436D01*
X1812365Y496033D01*
X1809184Y497870D01*
X1805636Y498820D01*
D02*
G37*
G36*
X2100276Y497550D02*
X2096603D01*
X2093055Y496600D01*
X2089874Y494763D01*
X2087277Y492166D01*
X2085441Y488985D01*
X2084490Y485437D01*
Y481764D01*
X2085441Y478216D01*
X2087277Y475035D01*
X2089874Y472438D01*
X2093055Y470601D01*
X2096603Y469650D01*
X2100276D01*
X2103824Y470601D01*
X2107005Y472438D01*
X2109603Y475035D01*
X2111439Y478216D01*
X2112390Y481764D01*
Y485437D01*
X2111439Y488985D01*
X2109603Y492166D01*
X2107005Y494763D01*
X2103824Y496600D01*
X2100276Y497550D01*
D02*
G37*
G36*
X314943Y478400D02*
X312036D01*
X309229Y477648D01*
X306711Y476194D01*
X304656Y474139D01*
X303202Y471621D01*
X302450Y468813D01*
Y465907D01*
X303202Y463099D01*
X304656Y460581D01*
X306711Y458526D01*
X309229Y457072D01*
X312036Y456320D01*
X314943D01*
X317751Y457072D01*
X320269Y458526D01*
X322324Y460581D01*
X323778Y463099D01*
X324530Y465907D01*
Y468813D01*
X323778Y471621D01*
X322324Y474139D01*
X320269Y476194D01*
X317751Y477648D01*
X314943Y478400D01*
D02*
G37*
G36*
X162944D02*
X160037D01*
X157229Y477648D01*
X154711Y476194D01*
X152656Y474139D01*
X151202Y471621D01*
X150450Y468813D01*
Y465907D01*
X151202Y463099D01*
X152656Y460581D01*
X154711Y458526D01*
X157229Y457072D01*
X160037Y456320D01*
X162944D01*
X165751Y457072D01*
X168269Y458526D01*
X170324Y460581D01*
X171778Y463099D01*
X172530Y465907D01*
Y468813D01*
X171778Y471621D01*
X170324Y474139D01*
X168269Y476194D01*
X165751Y477648D01*
X162944Y478400D01*
D02*
G37*
G36*
X2100276Y441363D02*
X2096603D01*
X2093055Y440413D01*
X2089874Y438576D01*
X2087277Y435979D01*
X2085441Y432798D01*
X2084490Y429250D01*
Y425577D01*
X2085441Y422029D01*
X2087277Y418848D01*
X2089874Y416251D01*
X2093055Y414414D01*
X2096603Y413463D01*
X2100276D01*
X2103824Y414414D01*
X2107005Y416251D01*
X2109603Y418848D01*
X2111439Y422029D01*
X2112390Y425577D01*
Y429250D01*
X2111439Y432798D01*
X2109603Y435979D01*
X2107005Y438576D01*
X2103824Y440413D01*
X2100276Y441363D01*
D02*
G37*
G36*
X1954226D02*
X1950553D01*
X1947005Y440413D01*
X1943824Y438576D01*
X1941227Y435979D01*
X1939391Y432798D01*
X1938440Y429250D01*
Y425577D01*
X1939391Y422029D01*
X1941227Y418848D01*
X1943824Y416251D01*
X1947005Y414414D01*
X1950553Y413463D01*
X1954226D01*
X1957774Y414414D01*
X1960955Y416251D01*
X1963553Y418848D01*
X1965389Y422029D01*
X1966340Y425577D01*
Y429250D01*
X1965389Y432798D01*
X1963553Y435979D01*
X1960955Y438576D01*
X1957774Y440413D01*
X1954226Y441363D01*
D02*
G37*
G36*
X1805636D02*
X1801963D01*
X1798415Y440413D01*
X1795234Y438576D01*
X1792637Y435979D01*
X1790800Y432798D01*
X1789850Y429250D01*
Y425577D01*
X1790800Y422029D01*
X1792637Y418848D01*
X1795234Y416251D01*
X1798415Y414414D01*
X1801963Y413463D01*
X1805636D01*
X1809184Y414414D01*
X1812365Y416251D01*
X1814963Y418848D01*
X1816799Y422029D01*
X1817750Y425577D01*
Y429250D01*
X1816799Y432798D01*
X1814963Y435979D01*
X1812365Y438576D01*
X1809184Y440413D01*
X1805636Y441363D01*
D02*
G37*
G36*
X370898Y433000D02*
X368242D01*
X365675Y432312D01*
X363375Y430984D01*
X361496Y429105D01*
X360168Y426805D01*
X359480Y424238D01*
Y421582D01*
X360168Y419015D01*
X361496Y416715D01*
X363375Y414836D01*
X365675Y413508D01*
X368242Y412820D01*
X370898D01*
X373465Y413508D01*
X375765Y414836D01*
X377644Y416715D01*
X378972Y419015D01*
X379660Y421582D01*
Y424238D01*
X378972Y426805D01*
X377644Y429105D01*
X375765Y430984D01*
X373465Y432312D01*
X370898Y433000D01*
D02*
G37*
G36*
X622217Y500122D02*
X618824Y499675D01*
X615661Y498365D01*
X612946Y496281D01*
X610862Y493565D01*
X609552Y490403D01*
X609105Y487009D01*
Y401919D01*
X609552Y398526D01*
X610862Y395363D01*
X612946Y392648D01*
X615661Y390564D01*
X618824Y389254D01*
X622217Y388807D01*
X625611Y389254D01*
X628773Y390564D01*
X631489Y392648D01*
X633573Y395363D01*
X634883Y398526D01*
X635329Y401919D01*
Y487009D01*
X634883Y490403D01*
X633573Y493565D01*
X631489Y496281D01*
X628773Y498365D01*
X625611Y499675D01*
X622217Y500122D01*
D02*
G37*
G36*
X370898Y407600D02*
X368242D01*
X365675Y406912D01*
X363375Y405584D01*
X361496Y403705D01*
X360168Y401405D01*
X359480Y398838D01*
Y396182D01*
X360168Y393615D01*
X361496Y391315D01*
X363375Y389436D01*
X365675Y388108D01*
X368242Y387420D01*
X370898D01*
X373465Y388108D01*
X375765Y389436D01*
X377644Y391315D01*
X378972Y393615D01*
X379660Y396182D01*
Y398838D01*
X378972Y401405D01*
X377644Y403705D01*
X375765Y405584D01*
X373465Y406912D01*
X370898Y407600D01*
D02*
G37*
G36*
X721260Y499522D02*
X717866Y499075D01*
X714704Y497766D01*
X711988Y495682D01*
X709904Y492966D01*
X708595Y489804D01*
X708148Y486410D01*
X708595Y483016D01*
X709904Y479854D01*
X711988Y477138D01*
X715292Y473834D01*
X715079Y469387D01*
X714725Y468745D01*
X713186Y467205D01*
X711858Y464905D01*
X711170Y462338D01*
Y459682D01*
X711858Y457115D01*
X713186Y454815D01*
X715064Y452936D01*
X717365Y451608D01*
X719932Y450920D01*
X722588D01*
X723742Y450035D01*
Y437739D01*
X708278Y422276D01*
X706195Y419560D01*
X704885Y416398D01*
X704438Y413004D01*
X704438Y413004D01*
Y384610D01*
X704885Y381216D01*
X706195Y378054D01*
X708278Y375338D01*
X710994Y373254D01*
X714156Y371945D01*
X717550Y371498D01*
X720944Y371945D01*
X724106Y373254D01*
X726822Y375338D01*
X728905Y378054D01*
X730215Y381216D01*
X730662Y384610D01*
Y407573D01*
X746126Y423036D01*
X746126Y423036D01*
X748210Y425752D01*
X749519Y428914D01*
X749966Y432308D01*
Y470816D01*
X749519Y474210D01*
X748210Y477372D01*
X746126Y480088D01*
X746126Y480088D01*
X730532Y495682D01*
X727816Y497766D01*
X724654Y499075D01*
X721260Y499522D01*
D02*
G37*
G36*
X313490Y402925D02*
X310451Y402626D01*
X307530Y401739D01*
X304837Y400300D01*
X302477Y398363D01*
X300540Y396003D01*
X299100Y393310D01*
X298214Y390388D01*
X297915Y387350D01*
X298214Y384311D01*
X299100Y381390D01*
X300540Y378697D01*
X302477Y376337D01*
X328595Y350219D01*
Y337452D01*
X324595Y336021D01*
X324503Y336133D01*
X322143Y338070D01*
X319450Y339509D01*
X316528Y340396D01*
X313490Y340695D01*
X310451Y340396D01*
X307530Y339509D01*
X304837Y338070D01*
X302477Y336133D01*
X300540Y333773D01*
X299100Y331080D01*
X298214Y328158D01*
X297915Y325120D01*
Y288191D01*
X282357Y272633D01*
X280420Y270273D01*
X278981Y267580D01*
X278094Y264659D01*
X277795Y261620D01*
X278094Y258582D01*
X278981Y255660D01*
X280420Y252967D01*
X282357Y250607D01*
X284717Y248670D01*
X287410Y247231D01*
X290331Y246344D01*
X293370Y246045D01*
X296409Y246344D01*
X299330Y247231D01*
X302023Y248670D01*
X304383Y250607D01*
X324503Y270727D01*
X324595Y270839D01*
X328595Y269408D01*
Y261620D01*
X328894Y258582D01*
X329781Y255660D01*
X331220Y252967D01*
X333157Y250607D01*
X335517Y248670D01*
X338210Y247231D01*
X341132Y246344D01*
X344170Y246045D01*
X347209Y246344D01*
X350130Y247231D01*
X352823Y248670D01*
X355183Y250607D01*
X357120Y252967D01*
X358559Y255660D01*
X359446Y258582D01*
X359745Y261620D01*
Y356670D01*
X359446Y359708D01*
X358559Y362630D01*
X357120Y365323D01*
X355183Y367683D01*
X324503Y398363D01*
X322143Y400300D01*
X319450Y401739D01*
X316528Y402626D01*
X313490Y402925D01*
D02*
G37*
G36*
X1530350Y316050D02*
X1527809D01*
X1525355Y315392D01*
X1523155Y314122D01*
X1521358Y312325D01*
X1520088Y310124D01*
X1519430Y307670D01*
Y305129D01*
X1520088Y302675D01*
X1521358Y300474D01*
X1523155Y298678D01*
X1525355Y297407D01*
X1527809Y296750D01*
X1530350D01*
X1532805Y297407D01*
X1535005Y298678D01*
X1536802Y300474D01*
X1538072Y302675D01*
X1538730Y305129D01*
Y307670D01*
X1538072Y310124D01*
X1536802Y312325D01*
X1535005Y314122D01*
X1532805Y315392D01*
X1530350Y316050D01*
D02*
G37*
G36*
X2100276Y316363D02*
X2096603D01*
X2093055Y315413D01*
X2089874Y313576D01*
X2087277Y310979D01*
X2085441Y307798D01*
X2084490Y304250D01*
Y300577D01*
X2085441Y297029D01*
X2087277Y293848D01*
X2089874Y291251D01*
X2093055Y289414D01*
X2096603Y288463D01*
X2100276D01*
X2103824Y289414D01*
X2107005Y291251D01*
X2109603Y293848D01*
X2111439Y297029D01*
X2112390Y300577D01*
Y304250D01*
X2111439Y307798D01*
X2109603Y310979D01*
X2107005Y313576D01*
X2103824Y315413D01*
X2100276Y316363D01*
D02*
G37*
G36*
X1954226D02*
X1950553D01*
X1947005Y315413D01*
X1943824Y313576D01*
X1941227Y310979D01*
X1939391Y307798D01*
X1938440Y304250D01*
Y300577D01*
X1939391Y297029D01*
X1941227Y293848D01*
X1943824Y291251D01*
X1947005Y289414D01*
X1950553Y288463D01*
X1954226D01*
X1957774Y289414D01*
X1960955Y291251D01*
X1963553Y293848D01*
X1965389Y297029D01*
X1966340Y300577D01*
Y304250D01*
X1965389Y307798D01*
X1963553Y310979D01*
X1960955Y313576D01*
X1957774Y315413D01*
X1954226Y316363D01*
D02*
G37*
G36*
X1805636D02*
X1801963D01*
X1798415Y315413D01*
X1795234Y313576D01*
X1792637Y310979D01*
X1790800Y307798D01*
X1789850Y304250D01*
Y300577D01*
X1790800Y297029D01*
X1792637Y293848D01*
X1795234Y291251D01*
X1798415Y289414D01*
X1801963Y288463D01*
X1805636D01*
X1809184Y289414D01*
X1812365Y291251D01*
X1814963Y293848D01*
X1816799Y297029D01*
X1817750Y300577D01*
Y304250D01*
X1816799Y307798D01*
X1814963Y310979D01*
X1812365Y313576D01*
X1809184Y315413D01*
X1805636Y316363D01*
D02*
G37*
G36*
X167752Y272120D02*
X164988D01*
X162317Y271404D01*
X159923Y270022D01*
X157968Y268067D01*
X156586Y265673D01*
X155870Y263002D01*
Y260238D01*
X156586Y257567D01*
X157968Y255173D01*
X159923Y253218D01*
X162317Y251836D01*
X164988Y251120D01*
X167752D01*
X170423Y251836D01*
X172817Y253218D01*
X174772Y255173D01*
X176154Y257567D01*
X176870Y260238D01*
Y263002D01*
X176154Y265673D01*
X174772Y268067D01*
X172817Y270022D01*
X170423Y271404D01*
X167752Y272120D01*
D02*
G37*
G36*
X2100276Y255520D02*
X2096603D01*
X2093055Y254570D01*
X2089874Y252733D01*
X2087277Y250136D01*
X2085441Y246955D01*
X2084490Y243407D01*
Y239734D01*
X2085441Y236186D01*
X2087277Y233005D01*
X2089874Y230408D01*
X2093055Y228571D01*
X2096603Y227620D01*
X2100276D01*
X2103824Y228571D01*
X2107005Y230408D01*
X2109603Y233005D01*
X2111439Y236186D01*
X2112390Y239734D01*
Y243407D01*
X2111439Y246955D01*
X2109603Y250136D01*
X2107005Y252733D01*
X2103824Y254570D01*
X2100276Y255520D01*
D02*
G37*
G36*
X1954226D02*
X1950553D01*
X1947005Y254570D01*
X1943824Y252733D01*
X1941227Y250136D01*
X1939391Y246955D01*
X1938440Y243407D01*
Y239734D01*
X1939391Y236186D01*
X1941227Y233005D01*
X1943824Y230408D01*
X1947005Y228571D01*
X1950553Y227620D01*
X1954226D01*
X1957774Y228571D01*
X1960955Y230408D01*
X1963553Y233005D01*
X1965389Y236186D01*
X1966340Y239734D01*
Y243407D01*
X1965389Y246955D01*
X1963553Y250136D01*
X1960955Y252733D01*
X1957774Y254570D01*
X1954226Y255520D01*
D02*
G37*
G36*
X1805636D02*
X1801963D01*
X1798415Y254570D01*
X1795234Y252733D01*
X1792637Y250136D01*
X1790800Y246955D01*
X1789850Y243407D01*
Y239734D01*
X1790800Y236186D01*
X1792637Y233005D01*
X1795234Y230408D01*
X1798415Y228571D01*
X1801963Y227620D01*
X1805636D01*
X1809184Y228571D01*
X1812365Y230408D01*
X1814963Y233005D01*
X1816799Y236186D01*
X1817750Y239734D01*
Y243407D01*
X1816799Y246955D01*
X1814963Y250136D01*
X1812365Y252733D01*
X1809184Y254570D01*
X1805636Y255520D01*
D02*
G37*
G36*
X719003Y243650D02*
X716097D01*
X713289Y242897D01*
X710771Y241444D01*
X708716Y239388D01*
X707262Y236871D01*
X706510Y234063D01*
Y231156D01*
X707262Y228348D01*
X708716Y225831D01*
X710771Y223775D01*
X713289Y222322D01*
X716097Y221570D01*
X719003D01*
X721811Y222322D01*
X724329Y223775D01*
X726384Y225831D01*
X727838Y228348D01*
X728590Y231156D01*
Y234063D01*
X727838Y236871D01*
X726384Y239388D01*
X724329Y241444D01*
X721811Y242897D01*
X719003Y243650D01*
D02*
G37*
G36*
X1504951Y236650D02*
X1502410D01*
X1499955Y235992D01*
X1497755Y234722D01*
X1495958Y232925D01*
X1494688Y230725D01*
X1494030Y228270D01*
Y225729D01*
X1494688Y223275D01*
X1495958Y221075D01*
X1497755Y219278D01*
X1499955Y218007D01*
X1502410Y217350D01*
X1504951D01*
X1507405Y218007D01*
X1509605Y219278D01*
X1511402Y221075D01*
X1512672Y223275D01*
X1513330Y225729D01*
Y228270D01*
X1512672Y230725D01*
X1511402Y232925D01*
X1509605Y234722D01*
X1507405Y235992D01*
X1504951Y236650D01*
D02*
G37*
G36*
X1454151D02*
X1451609D01*
X1449155Y235992D01*
X1446955Y234722D01*
X1445158Y232925D01*
X1443888Y230725D01*
X1443230Y228270D01*
Y225729D01*
X1443888Y223275D01*
X1445158Y221075D01*
X1446955Y219278D01*
X1449155Y218007D01*
X1451609Y217350D01*
X1454151D01*
X1456605Y218007D01*
X1458805Y219278D01*
X1460602Y221075D01*
X1461872Y223275D01*
X1462530Y225729D01*
Y228270D01*
X1461872Y230725D01*
X1460602Y232925D01*
X1458805Y234722D01*
X1456605Y235992D01*
X1454151Y236650D01*
D02*
G37*
G36*
X1428750D02*
X1426210D01*
X1423755Y235992D01*
X1421555Y234722D01*
X1419758Y232925D01*
X1418488Y230725D01*
X1417830Y228270D01*
Y225729D01*
X1418488Y223275D01*
X1419758Y221075D01*
X1421555Y219278D01*
X1423755Y218007D01*
X1426210Y217350D01*
X1428750D01*
X1431205Y218007D01*
X1433405Y219278D01*
X1435202Y221075D01*
X1436472Y223275D01*
X1437130Y225729D01*
Y228270D01*
X1436472Y230725D01*
X1435202Y232925D01*
X1433405Y234722D01*
X1431205Y235992D01*
X1428750Y236650D01*
D02*
G37*
G36*
X939783Y224400D02*
X936876D01*
X934069Y223648D01*
X931551Y222194D01*
X929496Y220139D01*
X928042Y217621D01*
X927290Y214813D01*
Y211907D01*
X928042Y209099D01*
X929496Y206581D01*
X931551Y204526D01*
X934069Y203072D01*
X936876Y202320D01*
X939783D01*
X942591Y203072D01*
X945109Y204526D01*
X947164Y206581D01*
X948617Y209099D01*
X949370Y211907D01*
Y214813D01*
X948617Y217621D01*
X947164Y220139D01*
X945109Y222194D01*
X942591Y223648D01*
X939783Y224400D01*
D02*
G37*
G36*
X787784D02*
X784877D01*
X782069Y223648D01*
X779551Y222194D01*
X777496Y220139D01*
X776042Y217621D01*
X775290Y214813D01*
Y211907D01*
X776042Y209099D01*
X777496Y206581D01*
X779551Y204526D01*
X782069Y203072D01*
X784877Y202320D01*
X787784D01*
X790591Y203072D01*
X793109Y204526D01*
X795164Y206581D01*
X796618Y209099D01*
X797370Y211907D01*
Y214813D01*
X796618Y217621D01*
X795164Y220139D01*
X793109Y222194D01*
X790591Y223648D01*
X787784Y224400D01*
D02*
G37*
G36*
X345552Y195920D02*
X342788D01*
X340117Y195204D01*
X337723Y193822D01*
X335768Y191867D01*
X334386Y189473D01*
X333670Y186802D01*
Y184038D01*
X334386Y181367D01*
X335768Y178973D01*
X337723Y177018D01*
X340117Y175636D01*
X342788Y174920D01*
X345552D01*
X348223Y175636D01*
X350617Y177018D01*
X352572Y178973D01*
X353954Y181367D01*
X354670Y184038D01*
Y186802D01*
X353954Y189473D01*
X352572Y191867D01*
X350617Y193822D01*
X348223Y195204D01*
X345552Y195920D01*
D02*
G37*
G36*
X294752D02*
X291988D01*
X289317Y195204D01*
X286923Y193822D01*
X284968Y191867D01*
X283586Y189473D01*
X282870Y186802D01*
Y184038D01*
X283586Y181367D01*
X284968Y178973D01*
X286923Y177018D01*
X289317Y175636D01*
X291988Y174920D01*
X294752D01*
X297423Y175636D01*
X299817Y177018D01*
X301772Y178973D01*
X303154Y181367D01*
X303870Y184038D01*
Y186802D01*
X303154Y189473D01*
X301772Y191867D01*
X299817Y193822D01*
X297423Y195204D01*
X294752Y195920D01*
D02*
G37*
G36*
X243952D02*
X241188D01*
X238517Y195204D01*
X236123Y193822D01*
X234168Y191867D01*
X232786Y189473D01*
X232070Y186802D01*
Y184038D01*
X232786Y181367D01*
X234168Y178973D01*
X236123Y177018D01*
X238517Y175636D01*
X241188Y174920D01*
X243952D01*
X246623Y175636D01*
X249017Y177018D01*
X250972Y178973D01*
X252354Y181367D01*
X253070Y184038D01*
Y186802D01*
X252354Y189473D01*
X250972Y191867D01*
X249017Y193822D01*
X246623Y195204D01*
X243952Y195920D01*
D02*
G37*
G36*
X167752D02*
X164988D01*
X162317Y195204D01*
X159923Y193822D01*
X157968Y191867D01*
X156586Y189473D01*
X155870Y186802D01*
Y184038D01*
X156586Y181367D01*
X157968Y178973D01*
X159923Y177018D01*
X162317Y175636D01*
X164988Y174920D01*
X167752D01*
X170423Y175636D01*
X172817Y177018D01*
X174772Y178973D01*
X176154Y181367D01*
X176870Y184038D01*
Y186802D01*
X176154Y189473D01*
X174772Y191867D01*
X172817Y193822D01*
X170423Y195204D01*
X167752Y195920D01*
D02*
G37*
G36*
X595931Y189640D02*
X593024D01*
X590216Y188887D01*
X587699Y187434D01*
X585643Y185378D01*
X584190Y182861D01*
X583437Y180053D01*
Y177146D01*
X584190Y174338D01*
X585643Y171821D01*
X587699Y169765D01*
X590216Y168312D01*
X593024Y167560D01*
X595931D01*
X598739Y168312D01*
X601256Y169765D01*
X603312Y171821D01*
X604765Y174338D01*
X605517Y177146D01*
Y180053D01*
X604765Y182861D01*
X603312Y185378D01*
X601256Y187434D01*
X598739Y188887D01*
X595931Y189640D01*
D02*
G37*
G36*
X722688Y177730D02*
X720032D01*
X717465Y177042D01*
X715165Y175714D01*
X713286Y173835D01*
X711958Y171535D01*
X711270Y168968D01*
Y166312D01*
X711958Y163745D01*
X713286Y161445D01*
X715165Y159566D01*
X717465Y158238D01*
X720032Y157550D01*
X722688D01*
X725255Y158238D01*
X727555Y159566D01*
X729434Y161445D01*
X730762Y163745D01*
X731450Y166312D01*
Y168968D01*
X730762Y171535D01*
X729434Y173835D01*
X727555Y175714D01*
X725255Y177042D01*
X722688Y177730D01*
D02*
G37*
G36*
Y152330D02*
X720032D01*
X717465Y151642D01*
X715165Y150314D01*
X713286Y148435D01*
X711958Y146135D01*
X711270Y143568D01*
Y140912D01*
X711958Y138345D01*
X713286Y136045D01*
X715165Y134166D01*
X717465Y132838D01*
X720032Y132150D01*
X722688D01*
X725255Y132838D01*
X727555Y134166D01*
X729434Y136045D01*
X730762Y138345D01*
X731450Y140912D01*
Y143568D01*
X730762Y146135D01*
X729434Y148435D01*
X727555Y150314D01*
X725255Y151642D01*
X722688Y152330D01*
D02*
G37*
G36*
X1499411Y135710D02*
X1496449D01*
X1493588Y134943D01*
X1491022Y133462D01*
X1488928Y131368D01*
X1487447Y128802D01*
X1486680Y125941D01*
Y122979D01*
X1487447Y120118D01*
X1488928Y117552D01*
X1491022Y115458D01*
X1493588Y113977D01*
X1496449Y113210D01*
X1499411D01*
X1502272Y113977D01*
X1504838Y115458D01*
X1506932Y117552D01*
X1508413Y120118D01*
X1509180Y122979D01*
Y125941D01*
X1508413Y128802D01*
X1506932Y131368D01*
X1504838Y133462D01*
X1502272Y134943D01*
X1499411Y135710D01*
D02*
G37*
G36*
X314943Y129150D02*
X312036D01*
X309229Y128398D01*
X306711Y126944D01*
X304656Y124889D01*
X303202Y122371D01*
X302450Y119563D01*
Y116657D01*
X303202Y113849D01*
X304656Y111331D01*
X306711Y109276D01*
X309229Y107822D01*
X312036Y107070D01*
X314943D01*
X317751Y107822D01*
X320269Y109276D01*
X322324Y111331D01*
X323778Y113849D01*
X324530Y116657D01*
Y119563D01*
X323778Y122371D01*
X322324Y124889D01*
X320269Y126944D01*
X317751Y128398D01*
X314943Y129150D01*
D02*
G37*
G36*
X162944D02*
X160037D01*
X157229Y128398D01*
X154711Y126944D01*
X152656Y124889D01*
X151202Y122371D01*
X150450Y119563D01*
Y116657D01*
X151202Y113849D01*
X152656Y111331D01*
X154711Y109276D01*
X157229Y107822D01*
X160037Y107070D01*
X162944D01*
X165751Y107822D01*
X168269Y109276D01*
X170324Y111331D01*
X171778Y113849D01*
X172530Y116657D01*
Y119563D01*
X171778Y122371D01*
X170324Y124889D01*
X168269Y126944D01*
X165751Y128398D01*
X162944Y129150D01*
D02*
G37*
G36*
X2150277Y130520D02*
X2146604D01*
X2143056Y129570D01*
X2139875Y127733D01*
X2137277Y125136D01*
X2135441Y121955D01*
X2134490Y118407D01*
Y114734D01*
X2135441Y111186D01*
X2137277Y108005D01*
X2139875Y105407D01*
X2143056Y103571D01*
X2146604Y102620D01*
X2150277D01*
X2153825Y103571D01*
X2157006Y105407D01*
X2159603Y108005D01*
X2161440Y111186D01*
X2162390Y114734D01*
Y118407D01*
X2161440Y121955D01*
X2159603Y125136D01*
X2157006Y127733D01*
X2153825Y129570D01*
X2150277Y130520D01*
D02*
G37*
G36*
X2100276D02*
X2096603D01*
X2093055Y129570D01*
X2089874Y127733D01*
X2087277Y125136D01*
X2085441Y121955D01*
X2084490Y118407D01*
Y114734D01*
X2085441Y111186D01*
X2087277Y108005D01*
X2089874Y105407D01*
X2093055Y103571D01*
X2096603Y102620D01*
X2100276D01*
X2103824Y103571D01*
X2107005Y105407D01*
X2109603Y108005D01*
X2111439Y111186D01*
X2112390Y114734D01*
Y118407D01*
X2111439Y121955D01*
X2109603Y125136D01*
X2107005Y127733D01*
X2103824Y129570D01*
X2100276Y130520D01*
D02*
G37*
G36*
X1954226D02*
X1950553D01*
X1947005Y129570D01*
X1943824Y127733D01*
X1941227Y125136D01*
X1939391Y121955D01*
X1938440Y118407D01*
Y114734D01*
X1939391Y111186D01*
X1941227Y108005D01*
X1943824Y105407D01*
X1947005Y103571D01*
X1950553Y102620D01*
X1954226D01*
X1957774Y103571D01*
X1960955Y105407D01*
X1963553Y108005D01*
X1965389Y111186D01*
X1966340Y114734D01*
Y118407D01*
X1965389Y121955D01*
X1963553Y125136D01*
X1960955Y127733D01*
X1957774Y129570D01*
X1954226Y130520D01*
D02*
G37*
G36*
X1805636D02*
X1801963D01*
X1798415Y129570D01*
X1795234Y127733D01*
X1792637Y125136D01*
X1790800Y121955D01*
X1789850Y118407D01*
Y114734D01*
X1790800Y111186D01*
X1792637Y108005D01*
X1795234Y105407D01*
X1798415Y103571D01*
X1801963Y102620D01*
X1805636D01*
X1809184Y103571D01*
X1812365Y105407D01*
X1814963Y108005D01*
X1816799Y111186D01*
X1817750Y114734D01*
Y118407D01*
X1816799Y121955D01*
X1814963Y125136D01*
X1812365Y127733D01*
X1809184Y129570D01*
X1805636Y130520D01*
D02*
G37*
G36*
X938330Y150272D02*
X934936Y149825D01*
X931774Y148516D01*
X929058Y146432D01*
X926974Y143716D01*
X925665Y140554D01*
X925218Y137160D01*
Y68580D01*
X925665Y65186D01*
X926974Y62024D01*
X929058Y59308D01*
X931774Y57224D01*
X934936Y55915D01*
X938330Y55468D01*
X941723Y55915D01*
X944886Y57224D01*
X947602Y59308D01*
X949685Y62024D01*
X950995Y65186D01*
X951442Y68580D01*
Y137160D01*
X950995Y140554D01*
X949685Y143716D01*
X947602Y146432D01*
X944886Y148516D01*
X941723Y149825D01*
X938330Y150272D01*
D02*
G37*
G36*
X786330D02*
X782936Y149825D01*
X779774Y148516D01*
X777058Y146432D01*
X774975Y143716D01*
X773665Y140554D01*
X773218Y137160D01*
Y68580D01*
X773665Y65186D01*
X774975Y62024D01*
X777058Y59308D01*
X779774Y57224D01*
X782936Y55915D01*
X786330Y55468D01*
X789724Y55915D01*
X792886Y57224D01*
X795602Y59308D01*
X797686Y62024D01*
X798996Y65186D01*
X799442Y68580D01*
Y137160D01*
X798996Y140554D01*
X797686Y143716D01*
X795602Y146432D01*
X792886Y148516D01*
X789724Y149825D01*
X786330Y150272D01*
D02*
G37*
G36*
X2235336Y89880D02*
X2229984D01*
X2224698Y89043D01*
X2219608Y87389D01*
X2214840Y84959D01*
X2210511Y81814D01*
X2206726Y78029D01*
X2203581Y73700D01*
X2201151Y68931D01*
X2199497Y63842D01*
X2198660Y58556D01*
Y53204D01*
X2199497Y47918D01*
X2201151Y42828D01*
X2203581Y38060D01*
X2206726Y33730D01*
X2210511Y29946D01*
X2214840Y26801D01*
X2219608Y24371D01*
X2224698Y22717D01*
X2229984Y21880D01*
X2235336D01*
X2240622Y22717D01*
X2245712Y24371D01*
X2250480Y26801D01*
X2254810Y29946D01*
X2258594Y33730D01*
X2261739Y38060D01*
X2264169Y42828D01*
X2265823Y47918D01*
X2266660Y53204D01*
Y58556D01*
X2265823Y63842D01*
X2264169Y68931D01*
X2261739Y73700D01*
X2258594Y78029D01*
X2254810Y81814D01*
X2250480Y84959D01*
X2245712Y87389D01*
X2240622Y89043D01*
X2235336Y89880D01*
D02*
G37*
G36*
X61096Y87340D02*
X55744D01*
X50458Y86503D01*
X45368Y84849D01*
X40600Y82419D01*
X36270Y79274D01*
X32486Y75490D01*
X29341Y71160D01*
X26911Y66392D01*
X25257Y61302D01*
X24420Y56016D01*
Y50664D01*
X25257Y45378D01*
X26911Y40289D01*
X29341Y35520D01*
X32486Y31191D01*
X36270Y27406D01*
X40600Y24261D01*
X45368Y21831D01*
X50458Y20177D01*
X55744Y19340D01*
X61096D01*
X66382Y20177D01*
X71472Y21831D01*
X76240Y24261D01*
X80569Y27406D01*
X84354Y31191D01*
X87499Y35520D01*
X89929Y40289D01*
X91583Y45378D01*
X92420Y50664D01*
Y56016D01*
X91583Y61302D01*
X89929Y66392D01*
X87499Y71160D01*
X84354Y75490D01*
X80569Y79274D01*
X76240Y82419D01*
X71472Y84849D01*
X66382Y86503D01*
X61096Y87340D01*
D02*
G37*
%LPD*%
G36*
X532988Y657863D02*
Y541371D01*
X487025Y495409D01*
X483330Y496939D01*
Y575056D01*
X483330Y575056D01*
X483012Y577468D01*
Y648738D01*
X485640Y650322D01*
X487012Y650734D01*
X489340Y649490D01*
X492262Y648604D01*
X495300Y648305D01*
X498339Y648604D01*
X501260Y649490D01*
X503953Y650930D01*
X506313Y652867D01*
X508250Y655227D01*
X509060Y656741D01*
X511008Y657345D01*
X512391Y657474D01*
X513670Y657262D01*
X514775Y656158D01*
X516975Y654887D01*
X519430Y654230D01*
X521970D01*
X524425Y654887D01*
X526625Y656158D01*
X528422Y657955D01*
X528988Y658935D01*
X532988Y657863D01*
D02*
G37*
G36*
X456434Y651712D02*
X456788Y651322D01*
Y575374D01*
X456788Y575373D01*
X457105Y572962D01*
Y487009D01*
X457552Y483616D01*
X458862Y480453D01*
X460946Y477738D01*
X462503Y476543D01*
X463490Y471874D01*
X455705Y464089D01*
X452005Y465609D01*
X450932Y648558D01*
X454419Y651826D01*
X456434Y651712D01*
D02*
G37*
G36*
X498698Y354896D02*
Y349818D01*
X495002Y348288D01*
X467772Y375518D01*
Y380595D01*
X471468Y382126D01*
X498698Y354896D01*
D02*
G37*
G36*
X486146Y320058D02*
X488861Y317974D01*
X492024Y316664D01*
X495417Y316217D01*
X495690Y316253D01*
X498698Y313616D01*
Y266934D01*
X486146Y254382D01*
X484062Y251666D01*
X482752Y248504D01*
X482305Y245110D01*
X482305Y245110D01*
Y177330D01*
X479738Y174402D01*
X471521D01*
X453609Y192314D01*
X452694Y348277D01*
X456385Y349818D01*
X486146Y320058D01*
D02*
G37*
%LPC*%
G36*
X1360228Y675570D02*
X1357572D01*
X1355005Y674882D01*
X1352705Y673554D01*
X1350826Y671675D01*
X1349498Y669375D01*
X1348810Y666808D01*
Y664152D01*
X1349498Y661585D01*
X1350826Y659285D01*
X1352705Y657406D01*
X1355005Y656078D01*
X1357572Y655390D01*
X1360228D01*
X1362795Y656078D01*
X1365095Y657406D01*
X1366974Y659285D01*
X1368302Y661585D01*
X1368990Y664152D01*
Y666808D01*
X1368302Y669375D01*
X1366974Y671675D01*
X1365095Y673554D01*
X1362795Y674882D01*
X1360228Y675570D01*
D02*
G37*
G36*
X1468147Y510840D02*
X1465553D01*
X1463048Y510168D01*
X1460802Y508872D01*
X1458968Y507038D01*
X1457671Y504791D01*
X1457000Y502286D01*
Y499693D01*
X1457671Y497188D01*
X1458968Y494942D01*
X1460802Y493108D01*
X1463048Y491811D01*
X1465553Y491140D01*
X1468147D01*
X1470652Y491811D01*
X1472898Y493108D01*
X1474732Y494942D01*
X1476029Y497188D01*
X1476700Y499693D01*
Y502286D01*
X1476029Y504791D01*
X1474732Y507038D01*
X1472898Y508872D01*
X1470652Y510168D01*
X1468147Y510840D01*
D02*
G37*
G36*
X1442747D02*
X1440153D01*
X1437648Y510168D01*
X1435402Y508872D01*
X1433568Y507038D01*
X1432271Y504791D01*
X1431600Y502286D01*
Y499693D01*
X1432271Y497188D01*
X1433568Y494942D01*
X1435402Y493108D01*
X1437648Y491811D01*
X1440153Y491140D01*
X1442747D01*
X1445252Y491811D01*
X1447498Y493108D01*
X1449332Y494942D01*
X1450629Y497188D01*
X1451300Y499693D01*
Y502286D01*
X1450629Y504791D01*
X1449332Y507038D01*
X1447498Y508872D01*
X1445252Y510168D01*
X1442747Y510840D01*
D02*
G37*
G36*
X1417347D02*
X1414753D01*
X1412248Y510168D01*
X1410002Y508872D01*
X1408168Y507038D01*
X1406871Y504791D01*
X1406200Y502286D01*
Y499693D01*
X1406871Y497188D01*
X1408168Y494942D01*
X1410002Y493108D01*
X1412248Y491811D01*
X1414753Y491140D01*
X1417347D01*
X1419852Y491811D01*
X1422098Y493108D01*
X1423932Y494942D01*
X1425229Y497188D01*
X1425900Y499693D01*
Y502286D01*
X1425229Y504791D01*
X1423932Y507038D01*
X1422098Y508872D01*
X1419852Y510168D01*
X1417347Y510840D01*
D02*
G37*
G36*
X1369444Y417440D02*
X1366537D01*
X1363729Y416688D01*
X1361211Y415234D01*
X1359156Y413179D01*
X1357702Y410661D01*
X1356950Y407853D01*
Y404947D01*
X1357702Y402139D01*
X1359156Y399621D01*
X1361211Y397566D01*
X1363729Y396112D01*
X1366537Y395360D01*
X1369444D01*
X1372251Y396112D01*
X1374769Y397566D01*
X1376824Y399621D01*
X1378278Y402139D01*
X1379030Y404947D01*
Y407853D01*
X1378278Y410661D01*
X1376824Y413179D01*
X1374769Y415234D01*
X1372251Y416688D01*
X1369444Y417440D01*
D02*
G37*
G36*
X1106353Y447720D02*
X1103447D01*
X1100639Y446968D01*
X1098121Y445514D01*
X1096066Y443459D01*
X1094612Y440941D01*
X1093860Y438133D01*
Y435226D01*
X1094612Y432419D01*
X1096066Y429901D01*
X1098121Y427846D01*
X1100639Y426392D01*
X1103447Y425640D01*
X1106353D01*
X1109161Y426392D01*
X1111679Y427846D01*
X1113734Y429901D01*
X1115188Y432419D01*
X1115940Y435226D01*
Y438133D01*
X1115188Y440941D01*
X1113734Y443459D01*
X1111679Y445514D01*
X1109161Y446968D01*
X1106353Y447720D01*
D02*
G37*
G36*
X1028883D02*
X1025977D01*
X1023169Y446968D01*
X1020651Y445514D01*
X1018596Y443459D01*
X1017142Y440941D01*
X1016390Y438133D01*
Y435226D01*
X1017142Y432419D01*
X1018596Y429901D01*
X1020651Y427846D01*
X1023169Y426392D01*
X1025977Y425640D01*
X1028883D01*
X1031691Y426392D01*
X1034209Y427846D01*
X1036264Y429901D01*
X1037718Y432419D01*
X1038470Y435226D01*
Y438133D01*
X1037718Y440941D01*
X1036264Y443459D01*
X1034209Y445514D01*
X1031691Y446968D01*
X1028883Y447720D01*
D02*
G37*
G36*
X955023Y445380D02*
X952116D01*
X949309Y444628D01*
X946791Y443174D01*
X944736Y441119D01*
X943282Y438601D01*
X942530Y435793D01*
Y432887D01*
X943282Y430079D01*
X944736Y427561D01*
X946791Y425506D01*
X949309Y424052D01*
X952116Y423300D01*
X955023D01*
X957831Y424052D01*
X960349Y425506D01*
X962404Y427561D01*
X963857Y430079D01*
X964610Y432887D01*
Y435793D01*
X963857Y438601D01*
X962404Y441119D01*
X960349Y443174D01*
X957831Y444628D01*
X955023Y445380D01*
D02*
G37*
G36*
X1106353Y295720D02*
X1103447D01*
X1100639Y294968D01*
X1098121Y293514D01*
X1096066Y291459D01*
X1094612Y288941D01*
X1093860Y286134D01*
Y283227D01*
X1094612Y280419D01*
X1096066Y277901D01*
X1098121Y275846D01*
X1100639Y274393D01*
X1103447Y273640D01*
X1106353D01*
X1109161Y274393D01*
X1111679Y275846D01*
X1113734Y277901D01*
X1115188Y280419D01*
X1115940Y283227D01*
Y286134D01*
X1115188Y288941D01*
X1113734Y291459D01*
X1111679Y293514D01*
X1109161Y294968D01*
X1106353Y295720D01*
D02*
G37*
%LPD*%
D19*
X1864050Y1559600D02*
D03*
X1838650D02*
D03*
X1813250D02*
D03*
X1787850D02*
D03*
X1762450D02*
D03*
X1737050D02*
D03*
X1711650D02*
D03*
X1686250D02*
D03*
X1660850D02*
D03*
X1635450D02*
D03*
X1610050D02*
D03*
X1584650D02*
D03*
X1559250D02*
D03*
X1533850D02*
D03*
X1508450D02*
D03*
X1322070Y1554480D02*
D03*
D20*
X1483050Y1559600D02*
D03*
D24*
X134620Y1060450D02*
D03*
Y869950D02*
D03*
D38*
X938530Y1513840D02*
D03*
D39*
Y1593840D02*
D03*
D61*
X2098440Y116570D02*
D03*
Y241570D02*
D03*
X2148440Y116570D02*
D03*
X1853800Y484870D02*
D03*
X1803800Y609870D02*
D03*
Y484870D02*
D03*
X2002390Y671560D02*
D03*
X1952390Y796560D02*
D03*
Y671560D02*
D03*
X1853800D02*
D03*
X1803800Y796560D02*
D03*
Y671560D02*
D03*
X2002390Y487410D02*
D03*
X1952390Y612410D02*
D03*
Y487410D02*
D03*
X1853800Y302413D02*
D03*
X1803800Y427413D02*
D03*
Y302413D02*
D03*
X2002390D02*
D03*
X1952390Y427413D02*
D03*
Y302413D02*
D03*
X1853800Y116570D02*
D03*
X1803800Y241570D02*
D03*
Y116570D02*
D03*
X1709020Y302413D02*
D03*
X1659020Y427413D02*
D03*
Y302413D02*
D03*
X1709020Y116570D02*
D03*
X1659020Y241570D02*
D03*
Y116570D02*
D03*
X2002390D02*
D03*
X1952390Y241570D02*
D03*
Y116570D02*
D03*
X1709020Y484870D02*
D03*
X1659020Y609870D02*
D03*
Y484870D02*
D03*
X1709020Y671560D02*
D03*
X1659020Y796560D02*
D03*
Y671560D02*
D03*
X2148440Y483600D02*
D03*
X2098440Y608600D02*
D03*
Y483600D02*
D03*
X2148440Y671560D02*
D03*
X2098440Y796560D02*
D03*
Y671560D02*
D03*
X2148440Y302413D02*
D03*
X2098440Y427413D02*
D03*
Y302413D02*
D03*
D62*
X2148440Y241570D02*
D03*
X1853800Y609870D02*
D03*
X2002390Y796560D02*
D03*
X1853800D02*
D03*
X2002390Y612410D02*
D03*
X1853800Y427413D02*
D03*
X2002390D02*
D03*
X1853800Y241570D02*
D03*
X1709020Y427413D02*
D03*
Y241570D02*
D03*
X2002390D02*
D03*
X1709020Y609870D02*
D03*
Y796560D02*
D03*
X2148440Y608600D02*
D03*
Y796560D02*
D03*
Y427413D02*
D03*
D63*
X2156460Y969899D02*
D03*
D64*
Y919861D02*
D03*
D67*
X1919224Y223266D02*
X2166858D01*
X2172716Y229124D01*
Y953643D01*
X2117598Y1008761D02*
X2156460Y969899D01*
X2172716Y953643D01*
X2165524Y986214D02*
X2192020Y959718D01*
Y219607D02*
Y959718D01*
X2197878Y213749D02*
X2212917D01*
X2192020Y219607D02*
X2197878Y213749D01*
X2212917D02*
X2214830Y211836D01*
X2216743Y239403D02*
Y1103532D01*
X2216100Y238760D02*
X2216743Y239403D01*
X2165524Y986214D02*
Y987466D01*
X2160524Y992466D02*
X2165524Y987466D01*
X2160524Y992466D02*
Y995172D01*
X2160989Y1159286D02*
X2216743Y1103532D01*
X2172970Y1196340D02*
X2237740Y1131570D01*
X2225752Y192836D02*
X2237740Y204824D01*
Y1131570D01*
X2259330Y198414D02*
Y1226820D01*
X2176272Y1309878D02*
X2259330Y1226820D01*
X2232366Y171450D02*
X2259330Y198414D01*
X2057270Y171450D02*
X2232366D01*
X2002390Y116570D02*
X2057270Y171450D01*
X585470Y1187450D02*
X585819D01*
X610870Y1225550D02*
Y1393190D01*
X585819Y1187450D02*
X586003Y1187635D01*
Y1200684D01*
X610870Y1225550D01*
X589950Y1414110D02*
X610870Y1393190D01*
X575310Y1414110D02*
X589950D01*
X115570Y1257300D02*
Y1303020D01*
X138430Y1325880D02*
X158750D01*
X115570Y1303020D02*
X138430Y1325880D01*
X158750D02*
X181920Y1349050D01*
Y1404620D01*
Y1492810D01*
X106680Y1568050D02*
X181920Y1492810D01*
X1089660Y558800D02*
X1112520Y581660D01*
Y604520D01*
X1068070Y558800D02*
X1089660D01*
X266192Y1347978D02*
Y1523592D01*
X316130Y1573530D01*
X2062988Y1309878D02*
X2176272D01*
X1954276Y1201166D02*
X2062988Y1309878D01*
X1319530Y1485700D02*
Y1486804D01*
X1322070Y1489344D01*
Y1554480D01*
X1050290Y1545590D02*
X1064260D01*
X1040892Y1536192D02*
X1050290Y1545590D01*
X1040892Y1355598D02*
Y1536192D01*
Y1355598D02*
X1087120Y1309370D01*
X1298140Y1053465D02*
X1326361Y1025244D01*
Y797279D02*
Y1025244D01*
X1427480Y313890D02*
X1519990Y406400D01*
X1427480Y306400D02*
Y313890D01*
X1554480Y220980D02*
Y252400D01*
X1498270Y207010D02*
X1540510D01*
X1554480Y220980D01*
X1529080Y227000D02*
X1554480Y252400D01*
X1563370Y261290D01*
X1478280Y227000D02*
X1498270Y207010D01*
X1459095Y142375D02*
X1478280Y161560D01*
X1439910Y123190D02*
X1459095Y142375D01*
X1555015D01*
X1572930Y124460D01*
X1036569Y61819D02*
Y65019D01*
X1036320Y61570D02*
X1036569Y61819D01*
Y65019D02*
X1112520Y140970D01*
X1008380Y168910D02*
X1036320Y140970D01*
X959104Y388366D02*
X1008380Y339090D01*
Y168910D02*
Y339090D01*
X973582Y254254D02*
X994380Y233456D01*
Y78008D02*
Y233456D01*
Y78008D02*
X1024890Y47498D01*
X848106Y388366D02*
X959104D01*
X828289Y289149D02*
Y292349D01*
X904240Y368300D01*
X828040Y288900D02*
X828289Y289149D01*
X2117598Y1008761D02*
Y1078738D01*
X2152061Y1120421D02*
X2152650Y1121010D01*
X2152061Y1113201D02*
Y1120421D01*
X2117598Y1078738D02*
X2152061Y1113201D01*
X2099564Y1145286D02*
X2152904D01*
X2172061Y1121600D02*
Y1126129D01*
Y1121600D02*
X2172650Y1121010D01*
X2152904Y1145286D02*
X2172061Y1126129D01*
X2082576Y1159286D02*
X2160989D01*
X2063750Y1140460D02*
X2082576Y1159286D01*
X1959102Y1004824D02*
X2099564Y1145286D01*
X1930066Y192836D02*
X2225752D01*
X1853800Y116570D02*
X1930066Y192836D01*
X1817354Y80772D02*
X1823212Y86630D01*
X1616618Y80772D02*
X1817354D01*
X1823212Y86630D02*
Y127254D01*
X1919224Y223266D01*
X1574850Y703072D02*
Y705778D01*
X1579850Y986760D02*
X1581150Y988060D01*
X1598980Y484870D02*
Y487576D01*
X1593850Y492706D02*
Y967219D01*
X1555850Y1038960D02*
X1657350Y1140460D01*
X1555850Y688091D02*
X1577370Y666571D01*
X1574850Y705778D02*
X1579850Y710778D01*
X1593850Y492706D02*
X1598980Y487576D01*
X1577370Y167356D02*
X1647190Y97536D01*
X1593850Y967219D02*
X1605790Y979159D01*
X1579850Y710778D02*
Y986760D01*
X1555850Y688091D02*
Y1038960D01*
X1577370Y167356D02*
Y666571D01*
X1629965Y985001D02*
X1631950Y986986D01*
X1605790Y987300D02*
X1606550Y988060D01*
X1617980Y971550D02*
X1629965Y983535D01*
X1617980Y410122D02*
Y971550D01*
X1629965Y983535D02*
Y985001D01*
X1620520Y404876D02*
Y407582D01*
X1631950Y986986D02*
Y988060D01*
X1605790Y979159D02*
Y987300D01*
X1617980Y410122D02*
X1620520Y407582D01*
X1640770Y971480D02*
X1657350Y988060D01*
X1640770Y134820D02*
Y971480D01*
X1556750Y664210D02*
X1563370Y657590D01*
X1507490Y580390D02*
X1535330Y552550D01*
X1452880Y306400D02*
X1535330Y388850D01*
X1549330Y377450D02*
Y646754D01*
X1563370Y261290D02*
Y657590D01*
X1478280Y306400D02*
X1549330Y377450D01*
X1531874Y664210D02*
X1549330Y646754D01*
X1535330Y388850D02*
Y552550D01*
X1640770Y134820D02*
X1659020Y116570D01*
X1835150Y986986D02*
Y988060D01*
X1833880Y882650D02*
Y985716D01*
X1835150Y986986D01*
Y988060D02*
X1851914Y1004824D01*
X1784350Y986986D02*
Y988060D01*
X1783080Y882650D02*
Y985716D01*
X1784350Y986986D01*
X1332992Y1590802D02*
X1480820D01*
X1757680Y882650D02*
Y976884D01*
X1758950Y978154D01*
Y988060D01*
X1706880Y882650D02*
Y986790D01*
X1708150Y988060D01*
X1732280Y882650D02*
Y986790D01*
X1733550Y988060D01*
X1808480Y882650D02*
Y986790D01*
X1809750Y988060D01*
X1883102Y865632D02*
X1900120Y882650D01*
X1825498Y865632D02*
X1883102D01*
X1808480Y882650D02*
X1825498Y865632D01*
X482600Y1487170D02*
Y1557220D01*
X500180Y1574800D01*
X828040Y368300D02*
X848106Y388366D01*
X1036320Y604520D02*
X1107440Y675640D01*
Y883920D01*
X1144778Y1050442D02*
X1158900Y1036320D01*
X1144778Y1050442D02*
Y1265428D01*
X1163320Y1283970D01*
X1336310Y123190D02*
Y266030D01*
X1376680Y306400D01*
X1309878Y149622D02*
X1336310Y123190D01*
X1309878Y149622D02*
Y743458D01*
X1399032Y832612D01*
Y1125474D01*
X1414018Y1140460D01*
X1581150D01*
X1647190Y97536D02*
X1689986D01*
X1709020Y116570D01*
X1365250Y580390D02*
X1365575Y580715D01*
X1369655D01*
X1453150Y664210D01*
X1531874D01*
X1453150D02*
X1529334Y740394D01*
Y1049020D01*
X1599692Y1119378D01*
X1610050Y1162360D02*
X1631950Y1140460D01*
X1610050Y1162360D02*
Y1559600D01*
X161490Y325120D02*
Y387350D01*
X76852Y370188D02*
X102870Y344170D01*
X76852Y370188D02*
Y585797D01*
X105410Y614355D01*
X134620Y643565D01*
Y869950D01*
X520700Y714680D02*
Y743280D01*
Y714680D02*
X571500Y663880D01*
X721260Y511810D02*
Y559208D01*
X895150Y733098D02*
Y886460D01*
X721260Y559208D02*
X721360Y623570D01*
X721260Y559208D02*
X895150Y733098D01*
X721260Y511810D02*
X751078Y481992D01*
Y146558D02*
Y481992D01*
X721360Y116840D02*
X751078Y146558D01*
X1158900Y883920D02*
Y909320D01*
X1144778Y923442D02*
X1158900Y909320D01*
X1144778Y923442D02*
Y971398D01*
X1158900Y985520D01*
Y1010920D01*
X1172972Y1024992D01*
Y1047648D01*
X1158900Y1061720D02*
X1172972Y1047648D01*
X1158900Y1061720D02*
X1206754Y1109574D01*
Y1340774D01*
X1228090Y1362110D01*
X1275588Y1314612D01*
Y1250442D02*
Y1314612D01*
Y1250442D02*
X1322070Y1203960D01*
X1478280Y161560D02*
Y227000D01*
X1002030Y1224280D02*
X1087120Y1309370D01*
X1002030Y1193800D02*
Y1224280D01*
X1483050Y1559600D02*
Y1588572D01*
X1480820Y1590802D02*
X1483050Y1588572D01*
X1480820Y1590802D02*
X1553448D01*
X1322070Y1579880D02*
X1332992Y1590802D01*
X1553448D02*
X1584650Y1559600D01*
X1572930Y124460D02*
X1616618Y80772D01*
X482600Y1412170D02*
X525680Y1455250D01*
Y1574800D01*
X280416Y1472345D02*
X297180Y1489109D01*
X280416Y1359154D02*
Y1472345D01*
Y1359154D02*
X302260Y1337310D01*
X106680Y1518050D02*
X121920Y1502810D01*
Y1404620D02*
Y1502810D01*
X1737050Y1559600D02*
X1781012Y1603562D01*
X1907734D01*
X1926336Y1584960D01*
Y1187196D02*
Y1584960D01*
Y1187196D02*
X1939290Y1174242D01*
X2004568D01*
X2038350Y1140460D01*
X1762450Y1559600D02*
X1792412Y1589562D01*
X1894048D01*
X1906270Y1577340D01*
Y1177798D02*
Y1577340D01*
Y1177798D02*
X1925828Y1158240D01*
X1995170D01*
X2012950Y1140460D01*
X1787850Y1559600D02*
X1803812Y1575562D01*
X1876141D01*
X1885950Y1565753D01*
Y1140460D02*
Y1565753D01*
X1813250Y1559600D02*
X1860550Y1512300D01*
Y1140460D02*
Y1512300D01*
X1851914Y1004824D02*
X1959102D01*
X1809750Y988060D02*
X1835150Y1013460D01*
Y1140460D01*
X270510Y1069665D02*
Y1092962D01*
X309626Y1132078D01*
X427498D01*
X454970Y1159550D01*
X92710Y468630D02*
Y481584D01*
X136652Y525526D01*
Y601472D01*
X166370Y631190D01*
X1690624Y259967D02*
X1709020Y241570D01*
X1690624Y259967D02*
Y409017D01*
X1709020Y427413D01*
X1690624Y445810D02*
X1709020Y427413D01*
X1690624Y445810D02*
Y591474D01*
X1709020Y609870D01*
X1690624Y628266D02*
X1709020Y609870D01*
X1690624Y628266D02*
Y778164D01*
X1709020Y796560D01*
X1835404Y778164D02*
X1853800Y796560D01*
X1835404Y628266D02*
Y778164D01*
Y628266D02*
X1853800Y609870D01*
X1835404Y591474D02*
X1853800Y609870D01*
X1835404Y445810D02*
Y591474D01*
Y445810D02*
X1853800Y427413D01*
X1835404Y409017D02*
X1853800Y427413D01*
X1835404Y259967D02*
Y409017D01*
Y259967D02*
X1853800Y241570D01*
X1983994Y445810D02*
X2002390Y427413D01*
X1983994Y445810D02*
Y594014D01*
X2002390Y612410D01*
X1983994Y409017D02*
X2002390Y427413D01*
X1983994Y259967D02*
Y409017D01*
Y259967D02*
X2002390Y241570D01*
X1983994Y630807D02*
X2002390Y612410D01*
X1983994Y630807D02*
Y778164D01*
X2002390Y796560D01*
X1345692Y954278D02*
Y1073540D01*
X1298140Y1121093D02*
X1345692Y1073540D01*
X2130044Y778164D02*
X2148440Y796560D01*
X2130044Y626996D02*
Y778164D01*
Y626996D02*
X2148440Y608600D01*
X2130044Y590204D02*
X2148440Y608600D01*
X2130044Y445810D02*
Y590204D01*
Y445810D02*
X2148440Y427413D01*
X2130044Y409017D02*
X2148440Y427413D01*
X2130044Y259967D02*
Y409017D01*
Y259967D02*
X2148440Y241570D01*
X591820Y867410D02*
X630936Y906526D01*
X699716D01*
X745690Y952500D01*
X743150Y886460D02*
X809190Y952500D01*
X897690D01*
X1155300Y672230D02*
X1187450Y640080D01*
X1155300Y672230D02*
Y690880D01*
X622217Y401919D02*
Y487009D01*
X801570Y524510D02*
Y607060D01*
X953570Y524510D02*
Y607060D01*
X717550Y384610D02*
Y413004D01*
X736854Y432308D01*
Y470816D01*
X721260Y486410D02*
X736854Y470816D01*
X1290320Y387150D02*
Y447240D01*
X786330Y68580D02*
Y137160D01*
X938330Y68580D02*
Y137160D01*
X1322070Y1229360D02*
X1533850Y1441140D01*
Y1559600D01*
X1376680Y227000D02*
Y281000D01*
X1402080Y306400D01*
X1510963Y415427D02*
X1519990Y406400D01*
X1510963Y415427D02*
Y494302D01*
X1517650Y500990D01*
X437769Y657149D02*
X444500Y663880D01*
X437769Y657149D02*
X440529Y186851D01*
X466090Y161290D01*
X501142D01*
X594477Y254625D01*
Y330599D01*
X454660Y370087D02*
X495417Y329329D01*
X454660Y370087D02*
Y444500D01*
X546100Y535940D01*
Y663880D01*
X470218Y487009D02*
Y575056D01*
X469900Y575373D02*
X470218Y575056D01*
X469900Y575373D02*
Y663880D01*
X495417Y177330D02*
Y245110D01*
X511810Y261503D01*
Y360327D01*
X470218Y401919D02*
X511810Y360327D01*
X1492250Y580390D02*
X1507490D01*
X1559250Y1187760D02*
Y1559600D01*
Y1187760D02*
X1606550Y1140460D01*
X932180Y1027830D02*
X1044019Y1139669D01*
X571500Y743280D02*
X585546Y729234D01*
X703326D01*
X897252Y923160D01*
X991740D01*
X1079500Y1010920D01*
X596900Y743280D02*
X668452Y814832D01*
X718158D01*
X840486Y937160D01*
X980340D01*
X1079500Y1036320D01*
X1093450Y1050270D01*
Y1128288D01*
X1085088Y1136650D02*
X1093450Y1128288D01*
X1857502Y965200D02*
X1990090D01*
X2012950Y988060D01*
X1880362Y633730D02*
Y830072D01*
X2038350Y988060D01*
X546100Y743280D02*
X606120Y683260D01*
X660908D01*
X686308Y657860D01*
Y547116D02*
Y657860D01*
X834542Y270002D02*
X853440Y288900D01*
X821690Y270002D02*
X834542D01*
X786130Y305562D02*
X821690Y270002D01*
X786130Y305562D02*
Y480314D01*
X986028Y680212D01*
Y892048D01*
X1079500Y985520D01*
X1161796Y83004D02*
X1177290Y67510D01*
X1161796Y83004D02*
Y576834D01*
X1202944Y617982D01*
Y916076D01*
X1158900Y960120D02*
X1202944Y916076D01*
X1022320Y564520D02*
X1061720Y525120D01*
X1022320Y564520D02*
Y852140D01*
X1079500Y909320D01*
X566420Y867410D02*
Y894080D01*
X509270Y951230D02*
X566420Y894080D01*
X358140Y867410D02*
Y919480D01*
X389890Y951230D01*
X441760D01*
X878840Y288900D02*
X913486Y254254D01*
X973582D01*
X1024890Y47498D02*
X1073048D01*
X1087120Y61570D01*
X1144270Y118720D01*
Y467970D01*
X1087120Y525120D02*
X1144270Y467970D01*
X1087120Y525120D02*
X1135126Y573126D01*
Y894284D01*
X1124458Y904952D02*
X1135126Y894284D01*
X1124458Y904952D02*
Y1321308D01*
X1163320Y1360170D01*
X1346962Y519938D02*
X1380998D01*
X1441450Y580390D01*
X297180Y1414110D02*
X341630Y1458560D01*
Y1573530D01*
X93980Y158750D02*
Y178308D01*
X128270Y212598D01*
Y468630D01*
X128347Y468707D01*
Y478867D01*
X257370Y607890D01*
Y637321D01*
X242570Y652120D02*
X257370Y637321D01*
X242570Y652120D02*
Y1119815D01*
X270510Y1147755D01*
X656590Y1133785D02*
Y1407830D01*
X575310Y1489110D02*
X656590Y1407830D01*
X575310Y1489110D02*
Y1550670D01*
X551180Y1574800D02*
X575310Y1550670D01*
X1508450Y1522620D02*
Y1559600D01*
X1319530Y1333700D02*
X1508450Y1522620D01*
X1319530Y1282760D02*
Y1333700D01*
Y1282760D02*
X1322070Y1280220D01*
Y1254760D02*
Y1280220D01*
X1274518Y1378712D02*
X1319530Y1333700D01*
X1123442Y1378712D02*
X1274518D01*
X1107450Y1362720D02*
X1123442Y1378712D01*
X1107450Y911870D02*
Y1362720D01*
X1079500Y883920D02*
X1107450Y911870D01*
X1450140Y1053465D02*
Y1121093D01*
Y985837D02*
Y1053465D01*
Y918210D02*
Y985837D01*
Y693474D02*
Y918210D01*
X1327899Y571233D02*
X1450140Y693474D01*
X1327899Y329780D02*
Y571233D01*
Y329780D02*
X1351280Y306400D01*
X266192Y1347978D02*
X276860Y1337310D01*
X1682750Y988060D02*
Y1081786D01*
D68*
X115570Y1192530D02*
Y1208170D01*
X313490Y387350D02*
X344170Y356670D01*
Y261620D02*
Y356670D01*
X293370Y261620D02*
X313490Y281740D01*
Y325120D01*
X428050Y731130D02*
X495300Y663880D01*
X428050Y731130D02*
Y793501D01*
X468630Y834081D01*
Y957450D01*
X440690Y985390D02*
X468630Y957450D01*
X440690Y985390D02*
Y1023270D01*
X454970Y1037550D01*
D69*
X115570Y1143366D02*
Y1192530D01*
X129081Y1065989D02*
X134620Y1060450D01*
X129081Y1065989D02*
Y1129855D01*
X115570Y1143366D02*
X129081Y1129855D01*
X334970Y1037550D02*
Y1049980D01*
X389636Y1104646D01*
X715386D01*
X792790Y1182050D01*
X661270Y951230D02*
X688448Y978408D01*
X791148D01*
X852790Y1040050D01*
D70*
X250117Y1258170D02*
X389890Y1397943D01*
X135570Y1258170D02*
X250117D01*
X389890Y1397943D02*
Y1414110D01*
X242570Y261620D02*
Y554990D01*
D71*
X95570Y1208170D02*
D03*
X115570D02*
D03*
X135570D02*
D03*
X115570Y1258170D02*
D03*
X135570D02*
D03*
X2172650Y1121010D02*
D03*
X2152650D02*
D03*
X2132650D02*
D03*
X2152650Y1071010D02*
D03*
X2132650D02*
D03*
D72*
X95570Y1258170D02*
D03*
X2172650Y1071010D02*
D03*
D73*
X1036320Y604520D02*
D03*
X1112520Y525120D02*
D03*
X1087120D02*
D03*
X1061720D02*
D03*
X1036320D02*
D03*
X1061720Y604520D02*
D03*
X1087120D02*
D03*
X1351280Y306400D02*
D03*
X1376680D02*
D03*
X1402080D02*
D03*
X1427480D02*
D03*
X1452880D02*
D03*
X1478280D02*
D03*
X1503680D02*
D03*
X1529080D02*
D03*
Y227000D02*
D03*
X1503680D02*
D03*
X1478280D02*
D03*
X1452880D02*
D03*
X1427480D02*
D03*
X1402080D02*
D03*
X1376680D02*
D03*
X878840Y368300D02*
D03*
X853440D02*
D03*
X828040Y288900D02*
D03*
X853440D02*
D03*
X878840D02*
D03*
X904240D02*
D03*
X828040Y368300D02*
D03*
X1087120Y140970D02*
D03*
X1061720D02*
D03*
X1036320Y61570D02*
D03*
X1061720D02*
D03*
X1087120D02*
D03*
X1112520D02*
D03*
X1036320Y140970D02*
D03*
X469900Y663880D02*
D03*
X495300D02*
D03*
X520700D02*
D03*
X546100D02*
D03*
X571500D02*
D03*
X596900D02*
D03*
X622300D02*
D03*
Y743280D02*
D03*
X596900D02*
D03*
X571500D02*
D03*
X546100D02*
D03*
X520700D02*
D03*
X495300D02*
D03*
X469900D02*
D03*
X444500D02*
D03*
X1158900Y909320D02*
D03*
Y934720D02*
D03*
Y960120D02*
D03*
Y985520D02*
D03*
Y1010920D02*
D03*
Y1036320D02*
D03*
Y1061720D02*
D03*
X1079500D02*
D03*
Y1036320D02*
D03*
Y1010920D02*
D03*
Y985520D02*
D03*
Y960120D02*
D03*
Y934720D02*
D03*
Y909320D02*
D03*
Y883920D02*
D03*
D74*
X1112520Y604520D02*
D03*
X1351280Y227000D02*
D03*
X904240Y368300D02*
D03*
X1112520Y140970D02*
D03*
X444500Y663880D02*
D03*
D75*
X1833880Y882650D02*
D03*
X1808480D02*
D03*
X1783080D02*
D03*
X1757680D02*
D03*
X1732280D02*
D03*
D76*
X1706880D02*
D03*
D77*
X151920Y1357620D02*
D03*
D78*
X121920Y1404620D02*
D03*
D79*
X181920D02*
D03*
D80*
X2178050Y1244600D02*
D03*
X1428050D02*
D03*
X2178050Y1554600D02*
D03*
X1428050D02*
D03*
D81*
X1322070Y1579880D02*
D03*
D82*
X161490Y387350D02*
D03*
X313490D02*
D03*
X289760Y951230D02*
D03*
X441760D02*
D03*
X661270D02*
D03*
X509270D02*
D03*
X1177290Y67510D02*
D03*
Y219510D02*
D03*
X1128830Y214630D02*
D03*
X976830D02*
D03*
X938330Y137160D02*
D03*
X786330D02*
D03*
X938330Y68580D02*
D03*
X786330D02*
D03*
X938330Y213360D02*
D03*
X786330D02*
D03*
X953570Y689610D02*
D03*
X801570D02*
D03*
X953570Y607060D02*
D03*
X801570D02*
D03*
X1187450Y488080D02*
D03*
Y640080D02*
D03*
X1155300Y690880D02*
D03*
X1003300D02*
D03*
X1290320Y235150D02*
D03*
Y387150D02*
D03*
Y599240D02*
D03*
Y447240D02*
D03*
X717550Y384610D02*
D03*
Y232610D02*
D03*
X953570Y524510D02*
D03*
X801570D02*
D03*
X953570Y434340D02*
D03*
X801570D02*
D03*
X1182370Y283410D02*
D03*
Y435410D02*
D03*
X1104900Y436680D02*
D03*
Y284680D02*
D03*
X1027430D02*
D03*
Y436680D02*
D03*
X1519990Y406400D02*
D03*
X1367990D02*
D03*
X622217Y487009D02*
D03*
X470218D02*
D03*
X495417Y177330D02*
D03*
Y329329D02*
D03*
X470218Y401919D02*
D03*
X622217D02*
D03*
X594477Y330599D02*
D03*
Y178600D02*
D03*
X1298140Y918210D02*
D03*
X1450140D02*
D03*
X1298140Y985837D02*
D03*
X1450140D02*
D03*
X1298140Y1053465D02*
D03*
X1450140D02*
D03*
X1298140Y1121093D02*
D03*
X1450140D02*
D03*
X520700Y1030370D02*
D03*
Y1182370D02*
D03*
X932180Y1179830D02*
D03*
Y1027830D02*
D03*
X1184910Y1597460D02*
D03*
Y1445460D02*
D03*
X1319530Y1485700D02*
D03*
Y1333700D02*
D03*
X517960Y1336040D02*
D03*
X365960D02*
D03*
X2052120Y882650D02*
D03*
X1900120D02*
D03*
X161490Y467360D02*
D03*
X313490D02*
D03*
Y325120D02*
D03*
X161490D02*
D03*
X895150Y886460D02*
D03*
X743150D02*
D03*
X897690Y952500D02*
D03*
X745690D02*
D03*
X313490Y118110D02*
D03*
X161490D02*
D03*
D83*
X93980Y158750D02*
D03*
X111760D02*
D03*
X129540D02*
D03*
X92710Y468630D02*
D03*
X110490D02*
D03*
X128270D02*
D03*
D84*
X344170Y185420D02*
D03*
X293370D02*
D03*
X242570D02*
D03*
X166370D02*
D03*
Y261620D02*
D03*
X242570D02*
D03*
X293370D02*
D03*
X344170D02*
D03*
Y631190D02*
D03*
X293370D02*
D03*
X242570D02*
D03*
X166370D02*
D03*
Y554990D02*
D03*
X242570D02*
D03*
X293370D02*
D03*
X344170D02*
D03*
D85*
X721360Y116840D02*
D03*
Y623570D02*
D03*
X721260Y511810D02*
D03*
X1322070Y1203960D02*
D03*
X369570Y372110D02*
D03*
D86*
X721360Y142240D02*
D03*
Y167640D02*
D03*
X591820Y867410D02*
D03*
X617220D02*
D03*
X383540D02*
D03*
X408940D02*
D03*
X1358900Y665480D02*
D03*
X1333500D02*
D03*
X721360Y674370D02*
D03*
Y648970D02*
D03*
X721260Y486410D02*
D03*
Y461010D02*
D03*
X276860Y1337310D02*
D03*
X302260D02*
D03*
X1322070Y1229360D02*
D03*
Y1254760D02*
D03*
X369570Y422910D02*
D03*
Y397510D02*
D03*
D87*
X1064260Y1545590D02*
D03*
Y1527810D02*
D03*
Y1510030D02*
D03*
X585470Y1187450D02*
D03*
Y1169670D02*
D03*
Y1151890D02*
D03*
X1002030Y1193800D02*
D03*
Y1176020D02*
D03*
Y1158240D02*
D03*
D88*
X566420Y867410D02*
D03*
X358140D02*
D03*
X1384300Y665480D02*
D03*
X251460Y1337310D02*
D03*
D89*
X1336310Y123190D02*
D03*
X1453150Y664210D02*
D03*
D90*
X1439910Y123190D02*
D03*
X1556750Y664210D02*
D03*
X270510Y1069665D02*
D03*
X656590Y1055695D02*
D03*
X105410Y614355D02*
D03*
X102870Y344170D02*
D03*
D91*
X1497930Y124460D02*
D03*
X1572930D02*
D03*
X482600Y1412170D02*
D03*
Y1487170D02*
D03*
X1228090Y1287110D02*
D03*
Y1362110D02*
D03*
X1008380Y1360840D02*
D03*
Y1285840D02*
D03*
X297180Y1489109D02*
D03*
Y1414110D02*
D03*
X389890Y1489110D02*
D03*
Y1414110D02*
D03*
X575310Y1489110D02*
D03*
Y1414110D02*
D03*
D92*
X1441450Y580390D02*
D03*
X1492250D02*
D03*
X1466850D02*
D03*
X1416050D02*
D03*
X1390650D02*
D03*
X1365250D02*
D03*
Y500990D02*
D03*
X1390650D02*
D03*
X1416050D02*
D03*
X1441450D02*
D03*
X1466850D02*
D03*
X1492250D02*
D03*
X1517650D02*
D03*
D93*
Y580390D02*
D03*
D94*
X270510Y1147755D02*
D03*
X656590Y1133785D02*
D03*
X105410Y536265D02*
D03*
X102870Y266080D02*
D03*
D95*
X454970Y1037550D02*
D03*
X334970D02*
D03*
Y1159550D02*
D03*
X732790Y1162050D02*
D03*
Y1040050D02*
D03*
X852790D02*
D03*
D96*
X394970Y1179550D02*
D03*
X792790Y1182050D02*
D03*
D97*
X454970Y1159550D02*
D03*
X852790Y1162050D02*
D03*
D98*
X1581150Y1140460D02*
D03*
X1606550D02*
D03*
X1631950D02*
D03*
X1657350D02*
D03*
X2063750Y988060D02*
D03*
X2038350D02*
D03*
X1682750Y1140460D02*
D03*
X1708150D02*
D03*
X1733550D02*
D03*
X1758950D02*
D03*
X2012950Y988060D02*
D03*
X1987550D02*
D03*
X1784350Y1140460D02*
D03*
X1809750D02*
D03*
X1835150D02*
D03*
X1860550D02*
D03*
X1962150Y988060D02*
D03*
X1936750D02*
D03*
X1885950Y1140460D02*
D03*
X1911350D02*
D03*
X1936750D02*
D03*
X1962150D02*
D03*
X1911350Y988060D02*
D03*
X1885950D02*
D03*
X1987550Y1140460D02*
D03*
X2012950D02*
D03*
X1860550Y988060D02*
D03*
X2038350Y1140460D02*
D03*
X2063750D02*
D03*
X1835150Y988060D02*
D03*
X1809750D02*
D03*
X1784350D02*
D03*
X1758950D02*
D03*
X1733550D02*
D03*
X1708150D02*
D03*
X1682750D02*
D03*
X1657350D02*
D03*
X1631950D02*
D03*
X1606550D02*
D03*
D99*
X1581150D02*
D03*
D100*
X1158900Y883920D02*
D03*
D101*
X1087120Y1360170D02*
D03*
D102*
Y1334770D02*
D03*
Y1309370D02*
D03*
Y1283970D02*
D03*
X1163320D02*
D03*
Y1309370D02*
D03*
Y1334770D02*
D03*
Y1360170D02*
D03*
D103*
X106680Y1518050D02*
D03*
D104*
Y1568050D02*
D03*
D105*
X71120Y1642110D02*
D03*
X2232660Y55880D02*
D03*
X58420Y53340D02*
D03*
X2232660Y1640840D02*
D03*
D106*
X367130Y1573530D02*
D03*
X341630D02*
D03*
X551180Y1574800D02*
D03*
X525680D02*
D03*
D107*
X316130Y1573530D02*
D03*
X500180Y1574800D02*
D03*
D108*
X2216100Y238760D02*
D03*
X2214830Y211836D02*
D03*
X2172970Y1196340D02*
D03*
X1954276Y1201166D02*
D03*
X1326361Y797279D02*
D03*
X1085088Y1136650D02*
D03*
X1574850Y703072D02*
D03*
X1598980Y484870D02*
D03*
X1620520Y404876D02*
D03*
X1107440Y883920D02*
D03*
X1599692Y1119378D02*
D03*
X1345692Y954278D02*
D03*
X1044019Y1139669D02*
D03*
X1857502Y965200D02*
D03*
X1880362Y633730D02*
D03*
X2160524Y995172D02*
D03*
X686308Y547116D02*
D03*
X1346962Y519938D02*
D03*
X1682750Y1081786D02*
D03*
D109*
X1068070Y558800D02*
D03*
M02*
