G04*
G04 #@! TF.GenerationSoftware,Altium Limited,Altium Designer,22.1.2 (22)*
G04*
G04 Layer_Physical_Order=2*
G04 Layer_Color=16711680*
%FSLAX44Y44*%
%MOMM*%
G71*
G04*
G04 #@! TF.SameCoordinates,67A4DC0A-CBAE-4364-A3B2-3E50B1EA6F99*
G04*
G04*
G04 #@! TF.FilePolarity,Positive*
G04*
G01*
G75*
%ADD19C,1.5080*%
%ADD20R,1.5080X1.5080*%
%ADD24C,10.2064*%
%ADD38R,1.4000X1.4000*%
%ADD39C,1.4000*%
%ADD61C,1.9900*%
%ADD62R,1.9900X1.9900*%
%ADD63R,1.5406X1.5406*%
%ADD64C,1.5406*%
%ADD67C,1.0000*%
%ADD68C,1.5000*%
%ADD69C,2.2860*%
%ADD71C,1.3080*%
%ADD72R,1.3080X1.3080*%
%ADD73C,1.1300*%
%ADD74R,1.1300X1.1300*%
%ADD75C,1.1628*%
%ADD76R,1.1628X1.1628*%
%ADD77R,3.5000X1.5000*%
%ADD78R,1.5000X3.5000*%
%ADD79R,1.5000X4.0000*%
%ADD80C,5.0000*%
%ADD81R,1.5080X1.5080*%
%ADD82C,1.4080*%
%ADD83O,1.0400X2.0800*%
%ADD84C,1.3000*%
%ADD85R,1.2180X1.2180*%
%ADD86C,1.2180*%
%ADD87O,2.0800X1.0400*%
%ADD88R,1.2180X1.2180*%
%ADD89R,1.5900X1.5900*%
%ADD90C,1.5900*%
%ADD91C,1.4500*%
%ADD92C,1.1700*%
%ADD93R,1.1700X1.1700*%
%ADD94R,1.5900X1.5900*%
%ADD95C,1.9800*%
%ADD96C,1.9350*%
%ADD97R,1.9800X1.9800*%
%ADD98C,1.3970*%
%ADD99R,1.3970X1.3970*%
%ADD100R,1.1300X1.1300*%
%ADD101R,1.6764X1.6764*%
%ADD102C,1.6764*%
%ADD103C,2.1000*%
%ADD104R,2.1000X2.1000*%
%ADD105C,6.0000*%
%ADD106C,1.9100*%
%ADD107R,1.9100X1.9100*%
%ADD108C,2.0000*%
%ADD109C,1.2700*%
G36*
X2275386Y5534D02*
X8074D01*
Y1677216D01*
X56589D01*
X56714Y1676913D01*
X57277Y1673216D01*
X53300Y1671189D01*
X48970Y1668044D01*
X45186Y1664259D01*
X42041Y1659930D01*
X39611Y1655161D01*
X37957Y1650072D01*
X37120Y1644786D01*
Y1639434D01*
X37957Y1634148D01*
X39611Y1629059D01*
X42041Y1624290D01*
X45186Y1619960D01*
X48970Y1616176D01*
X53300Y1613031D01*
X58068Y1610601D01*
X63158Y1608947D01*
X68444Y1608110D01*
X73796D01*
X79082Y1608947D01*
X84171Y1610601D01*
X88940Y1613031D01*
X93270Y1616176D01*
X97054Y1619960D01*
X100199Y1624290D01*
X102629Y1629059D01*
X104283Y1634148D01*
X105120Y1639434D01*
Y1644786D01*
X104283Y1650072D01*
X102629Y1655161D01*
X100199Y1659930D01*
X97054Y1664259D01*
X93270Y1668044D01*
X88940Y1671189D01*
X84963Y1673216D01*
X85526Y1676913D01*
X85651Y1677216D01*
X2221642D01*
X2222276Y1673216D01*
X2219608Y1672349D01*
X2214840Y1669919D01*
X2210511Y1666774D01*
X2206726Y1662990D01*
X2203581Y1658660D01*
X2201151Y1653891D01*
X2199497Y1648802D01*
X2198660Y1643516D01*
Y1638164D01*
X2199497Y1632878D01*
X2201151Y1627789D01*
X2203581Y1623020D01*
X2206726Y1618690D01*
X2210511Y1614906D01*
X2214840Y1611761D01*
X2219608Y1609331D01*
X2224698Y1607677D01*
X2229984Y1606840D01*
X2235336D01*
X2240622Y1607677D01*
X2245712Y1609331D01*
X2250480Y1611761D01*
X2254810Y1614906D01*
X2258594Y1618690D01*
X2261739Y1623020D01*
X2264169Y1627789D01*
X2265823Y1632878D01*
X2266660Y1638164D01*
Y1643516D01*
X2265823Y1648802D01*
X2264169Y1653891D01*
X2261739Y1658660D01*
X2258594Y1662990D01*
X2254810Y1666774D01*
X2250480Y1669919D01*
X2245712Y1672349D01*
X2243044Y1673216D01*
X2243678Y1677216D01*
X2275386D01*
Y5534D01*
D02*
G37*
%LPC*%
G36*
X1468120Y1638712D02*
X1468120Y1638712D01*
X970290D01*
X970290Y1638712D01*
X966897Y1638265D01*
X963734Y1636956D01*
X961018Y1634872D01*
X961018Y1634872D01*
X933099Y1606952D01*
X570220D01*
X566826Y1606505D01*
X563664Y1605195D01*
X560948Y1603112D01*
X560948Y1603111D01*
X544325Y1586488D01*
X542860Y1585643D01*
X540337Y1583120D01*
X538553Y1580030D01*
X537630Y1576584D01*
Y1573016D01*
X538553Y1569570D01*
X540337Y1566480D01*
X542860Y1563957D01*
X545950Y1562173D01*
X549396Y1561250D01*
X552964D01*
X556410Y1562173D01*
X559500Y1563957D01*
X562023Y1566480D01*
X562868Y1567945D01*
X575651Y1580728D01*
X938530D01*
X938530Y1580728D01*
X941924Y1581174D01*
X945086Y1582484D01*
X947802Y1584568D01*
X975721Y1612488D01*
X1176800D01*
X1177874Y1609950D01*
X1177927Y1608488D01*
X1175638Y1606732D01*
X1173555Y1604016D01*
X1172245Y1600853D01*
X1171798Y1597460D01*
X1172245Y1594066D01*
X1173555Y1590904D01*
X1175638Y1588188D01*
X1178354Y1586104D01*
X1181516Y1584794D01*
X1184910Y1584348D01*
X1413745D01*
X1414705Y1580348D01*
X1412851Y1579403D01*
X1409158Y1576720D01*
X1405930Y1573492D01*
X1403247Y1569799D01*
X1401175Y1565732D01*
X1399764Y1561391D01*
X1399050Y1556882D01*
Y1552318D01*
X1399764Y1547809D01*
X1401175Y1543468D01*
X1403247Y1539401D01*
X1405930Y1535708D01*
X1409158Y1532480D01*
X1412851Y1529797D01*
X1416918Y1527725D01*
X1421259Y1526314D01*
X1425768Y1525600D01*
X1430332D01*
X1434841Y1526314D01*
X1439182Y1527725D01*
X1443249Y1529797D01*
X1444404Y1530636D01*
X1448404Y1528598D01*
Y1270602D01*
X1444404Y1268564D01*
X1443249Y1269403D01*
X1439182Y1271475D01*
X1434841Y1272886D01*
X1430332Y1273600D01*
X1425768D01*
X1421259Y1272886D01*
X1416918Y1271475D01*
X1412851Y1269403D01*
X1409158Y1266720D01*
X1405930Y1263492D01*
X1403247Y1259799D01*
X1401175Y1255732D01*
X1399764Y1251391D01*
X1399050Y1246882D01*
Y1242318D01*
X1399764Y1237809D01*
X1401175Y1233468D01*
X1403247Y1229401D01*
X1405930Y1225708D01*
X1409158Y1222480D01*
X1412851Y1219797D01*
X1416918Y1217725D01*
X1421259Y1216314D01*
X1425768Y1215600D01*
X1430332D01*
X1434841Y1216314D01*
X1439182Y1217725D01*
X1443249Y1219797D01*
X1444404Y1220636D01*
X1445107Y1220607D01*
X1448629Y1218761D01*
X1448851Y1217076D01*
X1450161Y1213914D01*
X1452244Y1211198D01*
X1590928Y1072514D01*
X1593453Y1070577D01*
X1593483Y1070168D01*
X1591915Y1066577D01*
X1450140D01*
X1447912Y1068531D01*
Y1106027D01*
X1450140Y1107980D01*
X1453533Y1108427D01*
X1456696Y1109737D01*
X1459412Y1111821D01*
X1461495Y1114536D01*
X1462805Y1117699D01*
X1463252Y1121093D01*
Y1138936D01*
X1463252Y1138936D01*
X1462805Y1142330D01*
X1461495Y1145492D01*
X1459412Y1148208D01*
X1343588Y1264032D01*
X1340872Y1266115D01*
X1337710Y1267425D01*
X1334316Y1267872D01*
X1334316Y1267872D01*
X1322070D01*
X1318676Y1267425D01*
X1315514Y1266115D01*
X1312798Y1264032D01*
X1310715Y1261316D01*
X1309405Y1258154D01*
X1308958Y1254760D01*
X1309405Y1251366D01*
X1310715Y1248204D01*
X1312798Y1245488D01*
X1315514Y1243404D01*
X1317294Y1242667D01*
X1317715Y1240799D01*
X1317546Y1238399D01*
X1315875Y1237434D01*
X1313996Y1235555D01*
X1312668Y1233255D01*
X1311980Y1230688D01*
Y1228032D01*
X1312668Y1225465D01*
X1313996Y1223165D01*
X1315875Y1221286D01*
X1318175Y1219958D01*
X1320742Y1219270D01*
X1323398D01*
X1325965Y1219958D01*
X1328265Y1221286D01*
X1330144Y1223165D01*
X1331472Y1225465D01*
X1332160Y1228032D01*
Y1230688D01*
X1331472Y1233255D01*
X1331269Y1233606D01*
X1334470Y1236062D01*
X1417954Y1152579D01*
X1415688Y1149188D01*
X1415380Y1149315D01*
X1411986Y1149762D01*
X1411986Y1149762D01*
X1090245D01*
X1086931Y1150650D01*
X1083245D01*
X1079684Y1149696D01*
X1076492Y1147853D01*
X1073885Y1145246D01*
X1072042Y1142054D01*
X1071088Y1138493D01*
Y1136800D01*
X1067088Y1135143D01*
X1056937Y1145294D01*
X1055221Y1148265D01*
X1052615Y1150872D01*
X1049423Y1152715D01*
X1045862Y1153669D01*
X1042176D01*
X1038615Y1152715D01*
X1035423Y1150872D01*
X1032816Y1148265D01*
X1030973Y1145073D01*
X1030019Y1141512D01*
Y1137826D01*
X1030973Y1134265D01*
X1032816Y1131073D01*
X1035423Y1128466D01*
X1038393Y1126751D01*
X1056137Y1109008D01*
X1054606Y1105312D01*
X730407D01*
X728751Y1109312D01*
X768376Y1148938D01*
X838890D01*
Y1148150D01*
X848395D01*
X850044Y1146885D01*
X853207Y1145575D01*
X856600Y1145128D01*
X856600Y1145128D01*
X1002030D01*
X1005424Y1145575D01*
X1008586Y1146885D01*
X1011302Y1148968D01*
X1012794Y1150913D01*
X1013792Y1151678D01*
X1015266Y1153600D01*
X1016193Y1155838D01*
X1016509Y1158240D01*
X1016193Y1160642D01*
X1015266Y1162880D01*
X1013792Y1164801D01*
X1013470Y1166056D01*
Y1168204D01*
X1013792Y1169458D01*
X1015266Y1171380D01*
X1016193Y1173618D01*
X1016509Y1176020D01*
X1016193Y1178422D01*
X1015266Y1180660D01*
X1013792Y1182581D01*
X1012794Y1183347D01*
X1011302Y1185292D01*
X1011225Y1185368D01*
X1008510Y1187452D01*
X1005347Y1188762D01*
X1001954Y1189209D01*
X1001953Y1189209D01*
X995922D01*
X993346Y1191186D01*
X990184Y1192495D01*
X986790Y1192942D01*
X986790Y1192942D01*
X932180D01*
X928786Y1192495D01*
X925624Y1191186D01*
X922908Y1189102D01*
X920825Y1186386D01*
X919515Y1183224D01*
X919068Y1179830D01*
X919515Y1176436D01*
X919964Y1175352D01*
X917520Y1171352D01*
X866690D01*
Y1175950D01*
X838890D01*
Y1175162D01*
X808956D01*
X806173Y1179162D01*
X806465Y1180250D01*
Y1183850D01*
X805533Y1187328D01*
X803733Y1190447D01*
X801187Y1192993D01*
X798068Y1194793D01*
X794590Y1195725D01*
X790990D01*
X787512Y1194793D01*
X784393Y1192993D01*
X781847Y1190447D01*
X780047Y1187328D01*
X779115Y1183850D01*
Y1180250D01*
X779406Y1179162D01*
X776624Y1175162D01*
X762945D01*
X762945Y1175162D01*
X759551Y1174715D01*
X756389Y1173406D01*
X753673Y1171322D01*
X749505Y1167153D01*
X745145Y1168450D01*
X743913Y1170585D01*
X741325Y1173173D01*
X738155Y1175003D01*
X734620Y1175950D01*
X730960D01*
X727425Y1175003D01*
X724255Y1173173D01*
X721667Y1170585D01*
X720145Y1167949D01*
X699094Y1146897D01*
X602889D01*
X601890Y1147692D01*
X599819Y1150897D01*
X599949Y1151890D01*
X599633Y1154292D01*
X598706Y1156530D01*
X597231Y1158452D01*
X596910Y1159706D01*
Y1161854D01*
X597231Y1163109D01*
X598706Y1165030D01*
X599633Y1167268D01*
X599949Y1169670D01*
X599633Y1172072D01*
X598706Y1174310D01*
X597231Y1176232D01*
X596234Y1176997D01*
X594742Y1178942D01*
X592026Y1181025D01*
X588864Y1182335D01*
X585470Y1182782D01*
X538831D01*
X529972Y1191642D01*
X527256Y1193726D01*
X524094Y1195035D01*
X520700Y1195482D01*
X517306Y1195035D01*
X514144Y1193726D01*
X511428Y1191642D01*
X509344Y1188926D01*
X508035Y1185764D01*
X507588Y1182370D01*
X508035Y1178976D01*
X508993Y1176662D01*
X507859Y1174029D01*
X506721Y1172662D01*
X468870D01*
Y1173450D01*
X441070D01*
Y1146897D01*
X366167D01*
X347615Y1165449D01*
X346093Y1168085D01*
X343505Y1170673D01*
X340335Y1172503D01*
X336800Y1173450D01*
X333140D01*
X330200Y1172662D01*
X282305D01*
X278912Y1172215D01*
X275749Y1170906D01*
X273034Y1168822D01*
X273034Y1168822D01*
X263917Y1159705D01*
X258560D01*
Y1152876D01*
X257845Y1151149D01*
X257398Y1147755D01*
X257845Y1144361D01*
X258560Y1142634D01*
Y1135805D01*
X265389D01*
X267116Y1135089D01*
X270510Y1134643D01*
X273904Y1135089D01*
X275631Y1135805D01*
X282460D01*
Y1141161D01*
X287736Y1146438D01*
X329539D01*
X351464Y1124513D01*
X354179Y1122429D01*
X357342Y1121120D01*
X360735Y1120673D01*
X360736Y1120673D01*
X697798D01*
X699329Y1116977D01*
X647318Y1064967D01*
X645235Y1062251D01*
X643925Y1059089D01*
X643478Y1055695D01*
X643495Y1055564D01*
X640858Y1052557D01*
X529775D01*
X526381Y1052110D01*
X523219Y1050800D01*
X520503Y1048716D01*
X520503Y1048716D01*
X511428Y1039641D01*
X509344Y1036926D01*
X508035Y1033764D01*
X507588Y1030370D01*
X505618Y1028124D01*
X470197D01*
X467888Y1032124D01*
X467923Y1032185D01*
X468870Y1035720D01*
Y1039380D01*
X467923Y1042915D01*
X466093Y1046085D01*
X463505Y1048673D01*
X460335Y1050503D01*
X456800Y1051450D01*
X453140D01*
X449605Y1050503D01*
X446435Y1048673D01*
X443847Y1046085D01*
X439151Y1045950D01*
X437295Y1047474D01*
X433919Y1049278D01*
X430257Y1050389D01*
X426448Y1050764D01*
X369770D01*
X365961Y1050389D01*
X362299Y1049278D01*
X358923Y1047474D01*
X355965Y1045046D01*
X352438Y1041519D01*
X347977Y1042714D01*
X347923Y1042915D01*
X346093Y1046085D01*
X343505Y1048673D01*
X340335Y1050503D01*
X336800Y1051450D01*
X333140D01*
X329605Y1050503D01*
X326435Y1048673D01*
X323847Y1046085D01*
X322017Y1042915D01*
X321070Y1039380D01*
Y1035720D01*
X322017Y1032185D01*
X323847Y1029015D01*
X326435Y1026427D01*
X329605Y1024597D01*
X329806Y1024543D01*
X331001Y1020082D01*
X275955Y965036D01*
X273526Y962077D01*
X271722Y958701D01*
X270611Y955039D01*
X270236Y951230D01*
X270611Y947421D01*
X271722Y943758D01*
X273526Y940383D01*
X275955Y937424D01*
X278913Y934996D01*
X282289Y933192D01*
X285951Y932081D01*
X289760Y931706D01*
X293569Y932081D01*
X297232Y933192D01*
X300607Y934996D01*
X303566Y937424D01*
X377857Y1011716D01*
X418361D01*
X431518Y998559D01*
X430808Y996843D01*
X429532Y994887D01*
X426630Y994505D01*
X423468Y993195D01*
X420752Y991112D01*
X404748Y975108D01*
X402664Y972392D01*
X401355Y969230D01*
X400908Y965836D01*
X400908Y965836D01*
Y951560D01*
X400908Y951560D01*
X401355Y948166D01*
X402664Y945004D01*
X404748Y942288D01*
X591286Y755751D01*
X590990Y751231D01*
X590676Y750703D01*
X589178Y749205D01*
X587908Y747004D01*
X587250Y744550D01*
Y742009D01*
X584205Y740524D01*
X581150Y743991D01*
Y744550D01*
X580492Y747004D01*
X579222Y749205D01*
X577425Y751002D01*
X575225Y752272D01*
X572771Y752930D01*
X570229D01*
X567775Y752272D01*
X565575Y751002D01*
X563778Y749205D01*
X562508Y747004D01*
X561850Y744550D01*
Y742009D01*
X558805Y740524D01*
X555750Y743991D01*
Y744550D01*
X555092Y747004D01*
X553822Y749205D01*
X552025Y751002D01*
X549825Y752272D01*
X547370Y752930D01*
X544829D01*
X542375Y752272D01*
X540175Y751002D01*
X538378Y749205D01*
X537108Y747004D01*
X536450Y744550D01*
Y742009D01*
X536581Y741520D01*
X534011Y737520D01*
X494203D01*
X479172Y752551D01*
X476456Y754635D01*
X473294Y755945D01*
X469900Y756392D01*
X466506Y755945D01*
X463344Y754635D01*
X460628Y752551D01*
X459610Y751224D01*
X458825Y750934D01*
X455575Y750934D01*
X454790Y751224D01*
X453772Y752551D01*
X451056Y754635D01*
X447894Y755945D01*
X444500Y756392D01*
X383362D01*
X383362Y756392D01*
X379968Y755945D01*
X376806Y754635D01*
X374090Y752551D01*
X374090Y752551D01*
X256556Y635017D01*
X254656Y635119D01*
X251904Y636022D01*
X250972Y637637D01*
X249017Y639592D01*
X246623Y640974D01*
X243952Y641690D01*
X241188D01*
X238517Y640974D01*
X236123Y639592D01*
X234168Y637637D01*
X232786Y635243D01*
X232070Y632572D01*
Y629808D01*
X232786Y627137D01*
X234168Y624743D01*
X236123Y622788D01*
X237738Y621856D01*
X238641Y619104D01*
X238743Y617204D01*
X182357Y560818D01*
X177784Y561537D01*
X177596Y561715D01*
X175642Y564262D01*
X172926Y566345D01*
X169764Y567655D01*
X166370Y568102D01*
X162976Y567655D01*
X159814Y566345D01*
X157098Y564262D01*
X142214Y549377D01*
X105410D01*
X102016Y548931D01*
X100289Y548215D01*
X93460D01*
Y541386D01*
X92745Y539659D01*
X92298Y536265D01*
X92745Y532872D01*
X93460Y531144D01*
Y524315D01*
X100289D01*
X102016Y523600D01*
X105410Y523153D01*
X139465D01*
X140996Y519457D01*
X118998Y497460D01*
X116915Y494744D01*
X115605Y491582D01*
X115158Y488188D01*
X115158Y488188D01*
Y486184D01*
X114627Y485390D01*
X111158Y483022D01*
X110490Y483109D01*
X108088Y482793D01*
X105850Y481866D01*
X103998Y480444D01*
X103908Y480390D01*
X99523Y480070D01*
X99271Y480392D01*
X97350Y481866D01*
X95112Y482793D01*
X92710Y483109D01*
X90308Y482793D01*
X88070Y481866D01*
X86149Y480392D01*
X84674Y478470D01*
X83747Y476232D01*
X83431Y473830D01*
Y463430D01*
X83747Y461028D01*
X84674Y458790D01*
X86149Y456869D01*
X88070Y455394D01*
X90308Y454467D01*
X92710Y454151D01*
X93378Y454239D01*
X96847Y451870D01*
X97378Y451076D01*
Y446880D01*
X97378Y446880D01*
X97825Y443486D01*
X99135Y440324D01*
X101218Y437608D01*
X107076Y431750D01*
X109792Y429667D01*
X112954Y428357D01*
X116348Y427910D01*
X116348Y427910D01*
X155632D01*
X155632Y427910D01*
X159026Y428357D01*
X162188Y429667D01*
X164904Y431750D01*
X170762Y437608D01*
X172846Y440324D01*
X174156Y443486D01*
X174602Y446880D01*
X174602Y446880D01*
Y467360D01*
X174156Y470754D01*
X172846Y473916D01*
X170762Y476632D01*
X168046Y478716D01*
X164884Y480025D01*
X161490Y480472D01*
X158097Y480025D01*
X154934Y478716D01*
X152218Y476632D01*
X150135Y473916D01*
X148825Y470754D01*
X148378Y467360D01*
Y454134D01*
X137520D01*
X137451Y454204D01*
X135947Y457175D01*
X135947Y458134D01*
X137542Y459358D01*
X139626Y462074D01*
X140935Y465236D01*
X141382Y468630D01*
Y482757D01*
X281671Y623046D01*
X286923Y622788D01*
X289317Y621406D01*
X291988Y620690D01*
X294752D01*
X297423Y621406D01*
X299817Y622788D01*
X301772Y624743D01*
X303154Y627137D01*
X303870Y629808D01*
Y632572D01*
X303154Y635243D01*
X301772Y637637D01*
X299817Y639592D01*
X299631Y641006D01*
X388793Y730167D01*
X444500D01*
X447894Y730614D01*
X451056Y731924D01*
X453772Y734008D01*
X454790Y735335D01*
X455575Y735626D01*
X458825Y735626D01*
X459610Y735335D01*
X460628Y734008D01*
X479500Y715136D01*
X479500Y715136D01*
X482216Y713053D01*
X485378Y711743D01*
X488772Y711296D01*
X761341D01*
X792299Y680338D01*
X795014Y678254D01*
X798176Y676945D01*
X801570Y676498D01*
X804964Y676945D01*
X808126Y678254D01*
X810842Y680338D01*
X812926Y683054D01*
X814236Y686216D01*
X814682Y689610D01*
X814236Y693004D01*
X812926Y696166D01*
X810842Y698882D01*
X776044Y733680D01*
X773328Y735763D01*
X770166Y737073D01*
X766772Y737520D01*
X766772Y737520D01*
X637867D01*
X635181Y741520D01*
X635412Y743280D01*
X634965Y746673D01*
X633656Y749836D01*
X631572Y752551D01*
X448125Y935998D01*
X449215Y940565D01*
X451032Y941958D01*
X463801Y954728D01*
X496661D01*
X498230Y952683D01*
Y949777D01*
X498982Y946969D01*
X500436Y944451D01*
X502491Y942396D01*
X505009Y940942D01*
X507817Y940190D01*
X510723D01*
X513531Y940942D01*
X516049Y942396D01*
X518104Y944451D01*
X519558Y946969D01*
X520310Y949777D01*
Y952683D01*
X521879Y954728D01*
X648661D01*
X650230Y952683D01*
Y949777D01*
X648738Y947832D01*
X633730D01*
X633730Y947832D01*
X630336Y947385D01*
X627174Y946076D01*
X624458Y943992D01*
X557967Y877500D01*
X556330D01*
Y875615D01*
X555065Y873966D01*
X553755Y870804D01*
X553308Y867410D01*
X553755Y864016D01*
X555065Y860854D01*
X556330Y859205D01*
Y857320D01*
X558215D01*
X559864Y856055D01*
X563026Y854745D01*
X566420Y854298D01*
X569814Y854745D01*
X572976Y856055D01*
X574625Y857320D01*
X576510D01*
Y858529D01*
X579490Y861419D01*
X583746Y861215D01*
X585625Y859336D01*
X587925Y858008D01*
X590492Y857320D01*
X593148D01*
X595715Y858008D01*
X598015Y859336D01*
X599894Y861215D01*
X601222Y863515D01*
X601910Y866082D01*
Y868738D01*
X601222Y871305D01*
X599894Y873605D01*
X598015Y875484D01*
X597788Y880234D01*
X639161Y921608D01*
X1073483D01*
X1074555Y917608D01*
X1073575Y917042D01*
X1071778Y915245D01*
X1070508Y913045D01*
X1069850Y910591D01*
Y908049D01*
X1070508Y905595D01*
X1071778Y903395D01*
X1073575Y901598D01*
X1075775Y900328D01*
X1078230Y899670D01*
X1080770D01*
X1083225Y900328D01*
X1085425Y901598D01*
X1087222Y903395D01*
X1088492Y905595D01*
X1089150Y908049D01*
Y910591D01*
X1088492Y913045D01*
X1087222Y915245D01*
X1085425Y917042D01*
X1083514Y918146D01*
X1083252Y919799D01*
X1083608Y922351D01*
X1086056Y923364D01*
X1088772Y925448D01*
X1090328Y927476D01*
X1093076Y927042D01*
X1094328Y926410D01*
Y889077D01*
X1093440Y885763D01*
Y882077D01*
X1094394Y878516D01*
X1096237Y875324D01*
X1098844Y872717D01*
X1102036Y870874D01*
X1105597Y869920D01*
X1109283D01*
X1112844Y870874D01*
X1116036Y872717D01*
X1118643Y875324D01*
X1120486Y878516D01*
X1121440Y882077D01*
Y885763D01*
X1120552Y889077D01*
Y979429D01*
X1168172Y1027048D01*
X1170255Y1029764D01*
X1171565Y1032926D01*
X1172012Y1036320D01*
X1171565Y1039714D01*
X1170255Y1042876D01*
X1168172Y1045592D01*
X1165456Y1047675D01*
X1162294Y1048985D01*
X1158900Y1049432D01*
X1155506Y1048985D01*
X1152344Y1047675D01*
X1149628Y1045592D01*
X1098168Y994132D01*
X1096085Y991416D01*
X1094775Y988254D01*
X1094328Y984860D01*
X1094328Y984860D01*
Y968430D01*
X1093076Y967798D01*
X1090328Y967364D01*
X1088772Y969392D01*
X1086056Y971476D01*
X1083608Y972489D01*
X1083252Y975041D01*
X1083514Y976694D01*
X1085425Y977798D01*
X1087222Y979595D01*
X1088492Y981795D01*
X1089150Y984249D01*
Y986790D01*
X1088492Y989245D01*
X1087222Y991445D01*
X1085425Y993242D01*
X1083514Y994345D01*
X1083252Y995998D01*
X1083608Y998551D01*
X1086056Y999565D01*
X1088772Y1001648D01*
X1149701Y1062578D01*
X1173637D01*
X1207388Y1028826D01*
X1210104Y1026742D01*
X1213266Y1025433D01*
X1216660Y1024986D01*
X1295303D01*
X1348196Y972092D01*
X1348087Y971465D01*
X1346354Y968278D01*
X1343849D01*
X1340288Y967324D01*
X1337096Y965481D01*
X1334489Y962874D01*
X1332646Y959682D01*
X1331692Y956121D01*
Y952435D01*
X1332646Y948874D01*
X1334489Y945682D01*
X1337096Y943075D01*
X1340067Y941360D01*
X1389760Y891666D01*
X1389760Y891666D01*
X1392476Y889583D01*
X1395638Y888273D01*
X1399032Y887826D01*
X1697066D01*
Y872836D01*
X1716694D01*
Y884958D01*
X1719239Y885809D01*
X1722466Y882939D01*
Y881358D01*
X1723135Y878862D01*
X1724427Y876624D01*
X1726254Y874797D01*
X1728492Y873505D01*
X1730988Y872836D01*
X1733572D01*
X1736068Y873505D01*
X1738306Y874797D01*
X1740133Y876624D01*
X1741425Y878862D01*
X1742094Y881358D01*
Y883942D01*
X1742980Y885119D01*
X1744353D01*
X1747866Y881486D01*
Y881358D01*
X1748535Y878862D01*
X1749827Y876624D01*
X1751654Y874797D01*
X1753892Y873505D01*
X1756388Y872836D01*
X1758972D01*
X1761468Y873505D01*
X1763706Y874797D01*
X1765533Y876624D01*
X1766600Y878472D01*
X1767811Y878721D01*
X1770814Y878293D01*
X1771725Y876094D01*
X1773808Y873378D01*
X1793874Y853312D01*
X1793874Y853312D01*
X1796590Y851228D01*
X1799752Y849919D01*
X1803146Y849472D01*
X1803146Y849472D01*
X2032054D01*
X2032054Y849472D01*
X2035448Y849919D01*
X2038610Y851228D01*
X2041326Y853312D01*
X2057551Y869538D01*
X2119249D01*
X2119249Y869538D01*
X2122643Y869985D01*
X2125805Y871294D01*
X2128521Y873378D01*
X2159972Y904830D01*
X2163668Y903299D01*
Y830331D01*
X2143847Y810510D01*
X2134490D01*
Y782610D01*
X2162390D01*
Y791967D01*
X2179022Y808599D01*
X2182718Y807068D01*
X2182718Y176094D01*
Y169391D01*
X2177978Y164652D01*
X2177978Y164652D01*
X2177978Y164652D01*
X2142678Y129352D01*
X2139875Y127733D01*
X2137277Y125136D01*
X2135441Y121955D01*
X2134490Y118407D01*
Y114734D01*
X2135441Y111186D01*
X2137277Y108005D01*
X2139875Y105407D01*
X2143056Y103571D01*
X2146604Y102620D01*
X2150277D01*
X2153825Y103571D01*
X2157006Y105407D01*
X2159603Y108005D01*
X2161221Y110808D01*
X2196521Y146108D01*
X2196521Y146108D01*
X2205102Y154688D01*
X2205102Y154688D01*
X2207186Y157404D01*
X2208495Y160566D01*
X2208942Y163960D01*
Y176094D01*
Y192398D01*
X2212709Y193744D01*
X2216563Y189044D01*
X2212950Y152503D01*
X2115469Y55022D01*
X1188941D01*
X1187990Y56307D01*
X1187163Y59022D01*
X1188645Y60954D01*
X1189955Y64117D01*
X1190402Y67510D01*
X1189955Y70904D01*
X1188645Y74066D01*
X1186562Y76782D01*
X1183846Y78866D01*
X1183846Y79496D01*
X1187633Y83408D01*
X1220800D01*
X1220800Y83408D01*
X1224194Y83855D01*
X1227356Y85164D01*
X1230072Y87248D01*
X1360173Y217350D01*
X1360930D01*
Y218221D01*
X1362635Y220444D01*
X1363649Y222891D01*
X1366201Y223248D01*
X1367854Y222986D01*
X1368958Y221075D01*
X1370755Y219278D01*
X1372955Y218007D01*
X1375410Y217350D01*
X1377950D01*
X1380405Y218007D01*
X1382605Y219278D01*
X1384402Y221075D01*
X1385672Y223275D01*
X1386330Y225729D01*
Y228270D01*
X1386927Y229110D01*
X1388778D01*
X1392430Y225729D01*
X1393088Y223275D01*
X1394358Y221075D01*
X1396155Y219278D01*
X1398355Y218007D01*
X1400809Y217350D01*
X1403351D01*
X1405805Y218007D01*
X1408005Y219278D01*
X1409802Y221075D01*
X1411072Y223275D01*
X1411730Y225729D01*
Y228270D01*
X1412327Y229110D01*
X1414178D01*
X1417830Y225729D01*
X1418488Y223275D01*
X1419758Y221075D01*
X1421555Y219278D01*
X1423755Y218007D01*
X1426210Y217350D01*
X1428750D01*
X1431205Y218007D01*
X1433405Y219278D01*
X1435202Y221075D01*
X1436472Y223275D01*
X1437130Y225729D01*
Y228270D01*
X1437727Y229110D01*
X1439578D01*
X1443230Y225729D01*
X1443888Y223275D01*
X1445158Y221075D01*
X1446955Y219278D01*
X1449155Y218007D01*
X1451609Y217350D01*
X1454151D01*
X1456605Y218007D01*
X1458805Y219278D01*
X1460602Y221075D01*
X1461872Y223275D01*
X1462530Y225729D01*
Y228270D01*
X1465358Y232252D01*
X1479884D01*
X1494408Y217728D01*
X1497124Y215644D01*
X1500286Y214334D01*
X1503680Y213888D01*
X1507074Y214334D01*
X1510236Y215644D01*
X1512952Y217728D01*
X1515036Y220444D01*
X1516345Y223606D01*
X1516792Y227000D01*
X1516345Y230394D01*
X1515036Y233556D01*
X1512952Y236271D01*
X1494588Y254636D01*
X1491872Y256719D01*
X1488710Y258029D01*
X1485316Y258476D01*
X1485316Y258476D01*
X1326896D01*
X1326896Y258476D01*
X1323502Y258029D01*
X1320340Y256719D01*
X1317624Y254636D01*
X1307128Y244139D01*
X1303432Y245670D01*
Y323299D01*
X1373421Y393288D01*
X1397660D01*
X1397660Y393288D01*
X1401054Y393735D01*
X1404216Y395045D01*
X1406932Y397128D01*
X1501522Y491718D01*
X1503605Y494434D01*
X1504494Y496578D01*
X1507385Y497021D01*
X1507649Y497005D01*
X1508709Y496776D01*
X1509768Y494942D01*
X1511602Y493108D01*
X1513848Y491811D01*
X1516353Y491140D01*
X1518947D01*
X1521452Y491811D01*
X1523698Y493108D01*
X1525532Y494942D01*
X1526829Y497188D01*
X1527500Y499693D01*
Y502286D01*
X1526829Y504791D01*
X1525532Y507038D01*
X1523698Y508872D01*
X1521452Y510168D01*
X1518947Y510840D01*
X1516353D01*
X1513848Y510168D01*
X1511602Y508872D01*
X1509768Y507038D01*
X1508709Y505203D01*
X1507649Y504974D01*
X1507385Y504958D01*
X1504494Y505401D01*
X1503605Y507546D01*
X1501522Y510261D01*
X1498806Y512345D01*
X1495644Y513655D01*
X1492250Y514102D01*
X1488856Y513655D01*
X1485694Y512345D01*
X1482978Y510261D01*
X1481658Y508941D01*
X1476643Y509582D01*
X1476122Y510261D01*
X1437025Y549358D01*
X1438555Y553054D01*
X1478026D01*
X1478026Y553054D01*
X1481420Y553501D01*
X1484582Y554810D01*
X1487298Y556894D01*
X1497681Y567278D01*
X1517650D01*
X1521044Y567725D01*
X1524206Y569035D01*
X1526168Y570540D01*
X1527500D01*
Y571872D01*
X1529005Y573834D01*
X1530315Y576996D01*
X1530762Y580390D01*
X1530315Y583784D01*
X1529005Y586946D01*
X1527500Y588908D01*
Y590240D01*
X1526168D01*
X1524206Y591745D01*
X1521044Y593055D01*
X1517650Y593502D01*
X1503732D01*
X1502201Y597198D01*
X1530955Y625952D01*
X1558290D01*
X1558290Y625952D01*
X1561684Y626399D01*
X1564846Y627709D01*
X1567562Y629792D01*
X1582294Y644524D01*
X1584377Y647240D01*
X1585687Y650402D01*
X1586134Y653796D01*
X1586134Y653796D01*
Y678030D01*
X1585687Y681424D01*
X1584377Y684586D01*
X1583323Y685960D01*
X1585005Y689788D01*
X1585193Y689960D01*
X1622077D01*
X1646239Y665798D01*
X1647857Y662995D01*
X1650454Y660397D01*
X1653258Y658779D01*
X1661499Y650538D01*
X1659968Y646842D01*
X1655064D01*
X1651670Y646395D01*
X1648508Y645086D01*
X1645792Y643002D01*
X1559432Y556642D01*
X1557348Y553926D01*
X1556039Y550764D01*
X1555592Y547370D01*
X1555592Y547370D01*
Y376855D01*
X1494408Y315671D01*
X1492325Y312956D01*
X1491311Y310508D01*
X1488758Y310151D01*
X1487105Y310414D01*
X1486002Y312325D01*
X1484205Y314122D01*
X1482005Y315392D01*
X1479550Y316050D01*
X1477009D01*
X1474555Y315392D01*
X1472355Y314122D01*
X1470558Y312325D01*
X1469288Y310124D01*
X1468630Y307670D01*
Y305129D01*
X1469288Y302675D01*
X1470558Y300474D01*
X1472355Y298678D01*
X1474555Y297407D01*
X1477009Y296750D01*
X1479550D01*
X1482005Y297407D01*
X1484205Y298678D01*
X1486002Y300474D01*
X1487105Y302386D01*
X1488758Y302648D01*
X1491311Y302291D01*
X1492325Y299844D01*
X1494408Y297128D01*
X1497124Y295044D01*
X1500286Y293734D01*
X1503680Y293288D01*
X1507074Y293734D01*
X1510236Y295044D01*
X1512952Y297128D01*
X1516609Y300785D01*
X1521129Y300489D01*
X1521657Y300176D01*
X1523155Y298678D01*
X1525355Y297407D01*
X1527809Y296750D01*
X1530350D01*
X1532805Y297407D01*
X1535005Y298678D01*
X1536802Y300474D01*
X1538072Y302675D01*
X1538730Y305129D01*
Y307670D01*
X1538072Y310124D01*
X1536802Y312325D01*
X1535005Y314122D01*
X1534694Y318871D01*
X1577976Y362152D01*
X1577976Y362152D01*
X1580060Y364868D01*
X1581369Y368030D01*
X1581816Y371424D01*
X1581816Y371424D01*
Y479380D01*
X1585816Y479907D01*
X1585934Y479467D01*
X1587777Y476274D01*
X1590384Y473667D01*
X1593576Y471824D01*
X1597137Y470870D01*
X1600823D01*
X1604137Y471758D01*
X1653589D01*
X1668020Y457326D01*
X1670736Y455243D01*
X1673898Y453933D01*
X1677292Y453486D01*
X1677292Y453486D01*
X1785527D01*
X1785527Y453486D01*
X1788921Y453933D01*
X1792084Y455243D01*
X1794799Y457326D01*
X1803800Y466327D01*
X1812800Y457326D01*
X1815516Y455243D01*
X1818678Y453933D01*
X1822072Y453486D01*
X1822072Y453486D01*
X1931577D01*
X1931577Y453486D01*
X1934971Y453933D01*
X1938134Y455243D01*
X1940849Y457326D01*
X1952390Y468867D01*
X1961390Y459866D01*
X1964106Y457783D01*
X1967268Y456473D01*
X1970662Y456026D01*
X1970662Y456026D01*
X2083977D01*
X2083978Y456026D01*
X2087371Y456473D01*
X2090534Y457783D01*
X2093249Y459866D01*
X2104202Y470819D01*
X2107005Y472438D01*
X2109603Y475035D01*
X2111439Y478216D01*
X2112390Y481764D01*
Y485437D01*
X2111439Y488985D01*
X2109603Y492166D01*
X2107005Y494763D01*
X2103824Y496600D01*
X2100276Y497550D01*
X2096603D01*
X2093055Y496600D01*
X2089874Y494763D01*
X2087277Y492166D01*
X2085659Y489362D01*
X2078546Y482250D01*
X2018735D01*
X2016300Y485424D01*
X2016340Y485574D01*
Y489247D01*
X2015390Y492795D01*
X2013553Y495976D01*
X2010956Y498573D01*
X2007775Y500410D01*
X2004227Y501360D01*
X2000554D01*
X1997006Y500410D01*
X1993825Y498573D01*
X1991227Y495976D01*
X1989391Y492795D01*
X1988440Y489247D01*
Y485574D01*
X1988481Y485424D01*
X1986045Y482250D01*
X1976093D01*
X1965171Y493172D01*
X1963553Y495976D01*
X1960955Y498573D01*
X1957774Y500410D01*
X1954226Y501360D01*
X1950553D01*
X1947005Y500410D01*
X1943824Y498573D01*
X1941227Y495976D01*
X1939608Y493172D01*
X1926146Y479710D01*
X1870145D01*
X1867710Y482884D01*
X1867750Y483034D01*
Y486707D01*
X1866799Y490255D01*
X1864963Y493436D01*
X1862366Y496033D01*
X1859185Y497870D01*
X1855637Y498820D01*
X1851964D01*
X1848416Y497870D01*
X1845235Y496033D01*
X1842637Y493436D01*
X1840801Y490255D01*
X1839850Y486707D01*
Y483034D01*
X1839890Y482884D01*
X1837455Y479710D01*
X1827503D01*
X1816581Y490632D01*
X1814963Y493436D01*
X1812365Y496033D01*
X1809184Y497870D01*
X1805636Y498820D01*
X1801963D01*
X1798415Y497870D01*
X1795234Y496033D01*
X1792637Y493436D01*
X1791019Y490632D01*
X1780096Y479710D01*
X1725365D01*
X1722930Y482884D01*
X1722970Y483034D01*
Y486707D01*
X1722020Y490255D01*
X1720183Y493436D01*
X1717586Y496033D01*
X1714405Y497870D01*
X1710857Y498820D01*
X1707184D01*
X1703636Y497870D01*
X1700455Y496033D01*
X1697857Y493436D01*
X1696021Y490255D01*
X1695070Y486707D01*
Y483034D01*
X1695110Y482884D01*
X1692675Y479710D01*
X1682723D01*
X1671801Y490632D01*
X1670183Y493436D01*
X1667585Y496033D01*
X1664404Y497870D01*
X1660856Y498820D01*
X1657183D01*
X1654057Y497982D01*
X1604137D01*
X1600823Y498870D01*
X1597137D01*
X1593576Y497916D01*
X1590384Y496073D01*
X1587777Y493466D01*
X1585934Y490274D01*
X1585816Y489834D01*
X1581816Y490361D01*
Y541939D01*
X1642534Y602657D01*
X1647484Y601950D01*
X1647857Y601305D01*
X1650454Y598708D01*
X1653635Y596871D01*
X1657183Y595920D01*
X1660856D01*
X1664404Y596871D01*
X1667585Y598708D01*
X1670183Y601305D01*
X1672019Y604486D01*
X1672970Y608034D01*
Y611707D01*
X1672019Y615255D01*
X1671232Y616618D01*
X1673409Y620618D01*
X1695070D01*
Y595920D01*
X1722970D01*
Y620618D01*
X1789410D01*
X1791588Y616618D01*
X1790800Y615255D01*
X1789850Y611707D01*
Y608034D01*
X1790800Y604486D01*
X1792637Y601305D01*
X1795234Y598708D01*
X1798415Y596871D01*
X1801963Y595920D01*
X1805636D01*
X1809184Y596871D01*
X1812365Y598708D01*
X1814963Y601305D01*
X1816799Y604486D01*
X1817750Y608034D01*
Y611707D01*
X1816799Y615255D01*
X1816012Y616618D01*
X1818189Y620618D01*
X1839850D01*
Y595920D01*
X1867750D01*
Y620618D01*
X1875205D01*
X1878519Y619730D01*
X1882205D01*
X1885766Y620684D01*
X1888958Y622527D01*
X1891565Y625134D01*
X1893408Y628326D01*
X1894362Y631887D01*
Y635573D01*
X1894200Y636176D01*
X1897266Y640176D01*
X1934117D01*
X1934117Y640176D01*
X1937511Y640623D01*
X1940674Y641933D01*
X1943389Y644016D01*
X1952390Y653017D01*
X1961390Y644016D01*
X1964106Y641933D01*
X1967268Y640623D01*
X1970662Y640176D01*
X1970662Y640176D01*
X2080167D01*
X2080168Y640176D01*
X2083561Y640623D01*
X2086724Y641933D01*
X2089439Y644016D01*
X2104202Y658779D01*
X2107005Y660397D01*
X2109603Y662995D01*
X2111439Y666176D01*
X2112390Y669724D01*
Y673397D01*
X2111439Y676945D01*
X2109603Y680126D01*
X2107005Y682723D01*
X2103824Y684560D01*
X2100276Y685510D01*
X2096603D01*
X2093055Y684560D01*
X2089874Y682723D01*
X2087277Y680126D01*
X2085659Y677322D01*
X2074736Y666400D01*
X2018735D01*
X2016300Y669574D01*
X2016340Y669724D01*
Y673397D01*
X2015390Y676945D01*
X2013553Y680126D01*
X2010956Y682723D01*
X2007775Y684560D01*
X2004227Y685510D01*
X2000554D01*
X1997006Y684560D01*
X1993825Y682723D01*
X1991227Y680126D01*
X1989391Y676945D01*
X1988440Y673397D01*
Y669724D01*
X1988481Y669574D01*
X1986045Y666400D01*
X1976093D01*
X1965171Y677322D01*
X1963553Y680126D01*
X1960955Y682723D01*
X1957774Y684560D01*
X1954226Y685510D01*
X1950553D01*
X1947005Y684560D01*
X1943824Y682723D01*
X1941227Y680126D01*
X1939608Y677322D01*
X1928686Y666400D01*
X1870145D01*
X1867710Y669574D01*
X1867750Y669724D01*
Y673397D01*
X1866799Y676945D01*
X1864963Y680126D01*
X1862366Y682723D01*
X1859185Y684560D01*
X1855637Y685510D01*
X1851964D01*
X1848416Y684560D01*
X1845235Y682723D01*
X1842637Y680126D01*
X1840801Y676945D01*
X1839850Y673397D01*
Y669724D01*
X1839890Y669574D01*
X1837455Y666400D01*
X1827503D01*
X1816581Y677322D01*
X1814963Y680126D01*
X1812365Y682723D01*
X1809184Y684560D01*
X1805636Y685510D01*
X1801963D01*
X1798415Y684560D01*
X1795234Y682723D01*
X1792637Y680126D01*
X1791019Y677322D01*
X1780096Y666400D01*
X1725365D01*
X1722930Y669574D01*
X1722970Y669724D01*
Y673397D01*
X1722020Y676945D01*
X1720183Y680126D01*
X1717586Y682723D01*
X1714405Y684560D01*
X1710857Y685510D01*
X1707184D01*
X1703636Y684560D01*
X1700455Y682723D01*
X1697857Y680126D01*
X1696021Y676945D01*
X1695070Y673397D01*
Y669724D01*
X1695110Y669574D01*
X1692675Y666400D01*
X1682723D01*
X1671801Y677322D01*
X1670183Y680126D01*
X1667585Y682723D01*
X1664782Y684342D01*
X1636780Y712344D01*
X1634064Y714427D01*
X1630902Y715737D01*
X1627508Y716184D01*
X1627508Y716184D01*
X1580007D01*
X1576693Y717072D01*
X1573007D01*
X1569446Y716118D01*
X1566254Y714275D01*
X1563647Y711668D01*
X1563624Y711628D01*
X1558625Y710970D01*
X1526465Y743130D01*
X1527996Y746826D01*
X1965768D01*
X1965768Y746826D01*
X1969162Y747273D01*
X1972324Y748583D01*
X1975040Y750666D01*
X2006984Y782610D01*
X2016340D01*
Y810510D01*
X1988440D01*
Y801154D01*
X1960337Y773050D01*
X1854060D01*
X1852529Y776746D01*
X1858394Y782610D01*
X1867750D01*
Y810510D01*
X1839850D01*
Y801154D01*
X1825747Y787050D01*
X1819036D01*
X1816727Y791050D01*
X1816799Y791176D01*
X1817750Y794724D01*
Y798397D01*
X1816799Y801945D01*
X1814963Y805126D01*
X1812365Y807723D01*
X1809184Y809560D01*
X1805636Y810510D01*
X1801963D01*
X1798415Y809560D01*
X1795234Y807723D01*
X1792637Y805126D01*
X1790800Y801945D01*
X1789850Y798397D01*
Y794724D01*
X1790800Y791176D01*
X1790873Y791050D01*
X1788564Y787050D01*
X1722970D01*
Y810510D01*
X1713614D01*
X1680716Y843408D01*
X1678001Y845491D01*
X1674838Y846801D01*
X1671445Y847248D01*
X1671444Y847248D01*
X1387645D01*
X1307411Y927482D01*
X1304696Y929566D01*
X1301533Y930875D01*
X1298140Y931322D01*
X1295812Y933363D01*
Y964967D01*
X1307411Y976566D01*
X1309495Y979281D01*
X1310805Y982444D01*
X1311252Y985837D01*
X1310805Y989231D01*
X1309495Y992394D01*
X1307411Y995109D01*
X1304696Y997193D01*
X1301533Y998503D01*
X1298140Y998950D01*
X1294746Y998503D01*
X1291584Y997193D01*
X1288868Y995109D01*
X1273428Y979670D01*
X1271345Y976954D01*
X1270035Y973792D01*
X1269588Y970398D01*
X1269588Y970398D01*
Y897890D01*
X1269588Y897890D01*
X1270035Y894496D01*
X1271345Y891334D01*
X1273428Y888618D01*
X1385301Y776746D01*
X1383770Y773050D01*
X1369133D01*
X1339279Y802905D01*
X1337564Y805875D01*
X1334957Y808482D01*
X1331765Y810325D01*
X1328204Y811279D01*
X1324518D01*
X1320957Y810325D01*
X1317765Y808482D01*
X1315158Y805875D01*
X1315135Y805835D01*
X1310136Y805177D01*
X1171570Y943743D01*
X1168855Y945827D01*
X1165692Y947137D01*
X1163816Y947384D01*
X1163203Y949312D01*
X1163256Y951492D01*
X1164825Y952398D01*
X1166622Y954195D01*
X1167892Y956395D01*
X1168550Y958849D01*
Y961391D01*
X1167892Y963845D01*
X1166622Y966045D01*
X1164825Y967842D01*
X1162625Y969112D01*
X1160170Y969770D01*
X1157629D01*
X1155175Y969112D01*
X1152975Y967842D01*
X1151178Y966045D01*
X1149908Y963845D01*
X1149250Y961391D01*
Y958849D01*
X1149908Y956395D01*
X1151178Y954195D01*
X1152975Y952398D01*
X1154886Y951295D01*
X1155148Y949642D01*
X1154791Y947089D01*
X1152344Y946076D01*
X1149628Y943992D01*
X1147544Y941276D01*
X1146235Y938114D01*
X1145788Y934720D01*
X1146235Y931326D01*
X1147544Y928164D01*
X1149628Y925448D01*
X1149877Y925200D01*
X1152592Y923116D01*
X1155755Y921806D01*
X1156522Y921705D01*
X1343972Y734254D01*
X1346688Y732171D01*
X1349850Y730861D01*
X1353244Y730414D01*
X1353244Y730414D01*
X1502095D01*
X1559910Y672599D01*
Y659227D01*
X1552859Y652176D01*
X1525524D01*
X1522130Y651729D01*
X1518968Y650419D01*
X1516252Y648336D01*
X1516252Y648336D01*
X1457578Y589662D01*
X1455495Y586946D01*
X1454606Y584802D01*
X1451715Y584358D01*
X1451451Y584375D01*
X1450391Y584604D01*
X1449332Y586438D01*
X1447498Y588272D01*
X1445252Y589569D01*
X1442747Y590240D01*
X1440153D01*
X1437648Y589569D01*
X1435402Y588272D01*
X1433568Y586438D01*
X1432271Y584192D01*
X1431600Y581687D01*
Y579278D01*
X1410305D01*
X1399922Y589662D01*
X1399922Y589662D01*
X1381072Y608512D01*
X1378356Y610595D01*
X1375194Y611905D01*
X1371800Y612352D01*
X1371800Y612352D01*
X1329542D01*
X1328011Y616048D01*
X1368172Y656208D01*
X1370255Y658924D01*
X1371565Y662086D01*
X1372012Y665480D01*
X1371565Y668874D01*
X1370255Y672036D01*
X1368172Y674752D01*
X1365456Y676835D01*
X1362294Y678145D01*
X1358900Y678592D01*
X1355506Y678145D01*
X1352344Y676835D01*
X1349628Y674752D01*
X1346324Y671448D01*
X1341574Y671675D01*
X1339695Y673554D01*
X1337395Y674882D01*
X1334828Y675570D01*
X1332172D01*
X1329605Y674882D01*
X1327305Y673554D01*
X1325426Y671675D01*
X1324098Y669375D01*
X1323410Y666808D01*
Y664152D01*
X1324098Y661585D01*
X1325426Y659285D01*
X1326965Y657745D01*
X1327319Y657103D01*
X1327532Y652656D01*
X1307241Y632364D01*
X1285240D01*
X1285240Y632364D01*
X1281846Y631917D01*
X1278684Y630607D01*
X1275968Y628524D01*
X1275968Y628524D01*
X1265554Y618110D01*
X1263471Y615394D01*
X1262161Y612232D01*
X1261714Y608838D01*
X1261714Y608838D01*
Y586486D01*
X1261714Y586486D01*
X1262161Y583092D01*
X1263471Y579930D01*
X1265554Y577214D01*
X1276559Y566210D01*
X1275028Y562514D01*
X1259175D01*
X1227848Y593842D01*
X1225132Y595925D01*
X1221970Y597235D01*
X1218576Y597682D01*
X1218576Y597682D01*
X1122170D01*
Y614170D01*
X1120540D01*
X1119009Y617865D01*
X1128111Y626968D01*
X1187450D01*
X1190844Y627415D01*
X1194006Y628725D01*
X1196722Y630808D01*
X1198805Y633524D01*
X1200115Y636686D01*
X1200562Y640080D01*
X1200115Y643474D01*
X1198805Y646636D01*
X1196722Y649352D01*
X1194006Y651435D01*
X1190844Y652745D01*
X1187450Y653192D01*
X1122680D01*
X1122680Y653192D01*
X1119286Y652745D01*
X1116124Y651435D01*
X1113408Y649352D01*
X1077848Y613792D01*
X1076830Y612464D01*
X1076045Y612174D01*
X1072795D01*
X1072010Y612464D01*
X1070992Y613792D01*
X1056006Y628778D01*
X1053290Y630862D01*
X1050128Y632171D01*
X1046734Y632618D01*
X1046734Y632618D01*
X966016D01*
X966016Y632618D01*
X962622Y632171D01*
X959460Y630862D01*
X956744Y628778D01*
X956744Y628778D01*
X944298Y616332D01*
X942214Y613616D01*
X940904Y610454D01*
X940458Y607060D01*
X940904Y603666D01*
X942214Y600504D01*
X944298Y597788D01*
X947014Y595704D01*
X950176Y594395D01*
X953570Y593948D01*
X956964Y594395D01*
X960126Y595704D01*
X962842Y597788D01*
X971447Y606394D01*
X1014424D01*
X1015955Y602698D01*
X996599Y583342D01*
X867410D01*
X867410Y583342D01*
X867410Y583342D01*
X677515D01*
X610012Y650845D01*
Y663880D01*
X609565Y667273D01*
X608256Y670436D01*
X606172Y673151D01*
X603456Y675235D01*
X600294Y676545D01*
X596900Y676992D01*
X593506Y676545D01*
X590344Y675235D01*
X587628Y673151D01*
X585545Y670436D01*
X584235Y667273D01*
X583788Y663880D01*
Y645414D01*
X583788Y645414D01*
X584235Y642020D01*
X585545Y638858D01*
X587628Y636142D01*
X662812Y560958D01*
X665528Y558875D01*
X668690Y557565D01*
X671354Y557214D01*
X672712Y555468D01*
X673607Y553118D01*
X673262Y552520D01*
X672308Y548959D01*
Y545273D01*
X673262Y541712D01*
X675105Y538520D01*
X677712Y535913D01*
X680904Y534070D01*
X684465Y533116D01*
X688151D01*
X691465Y534004D01*
X719231D01*
X788458Y464777D01*
Y434340D01*
X788905Y430946D01*
X790215Y427784D01*
X792298Y425068D01*
X795014Y422985D01*
X798176Y421675D01*
X801570Y421228D01*
X804964Y421675D01*
X808126Y422985D01*
X810842Y425068D01*
X810928Y425180D01*
X814928Y423823D01*
Y368300D01*
X815375Y364906D01*
X816684Y361744D01*
X818768Y359028D01*
X819447Y358507D01*
X820089Y353492D01*
X738909Y272312D01*
X738051Y271654D01*
X738051Y271654D01*
X708278Y241881D01*
X706195Y239166D01*
X704885Y236003D01*
X704438Y232610D01*
X704719Y230472D01*
X702202Y226472D01*
X693009D01*
X600844Y318637D01*
X601256Y321765D01*
X603312Y323821D01*
X604765Y326338D01*
X605517Y329146D01*
Y332053D01*
X604765Y334861D01*
X603312Y337378D01*
X601256Y339434D01*
X598739Y340887D01*
X595931Y341639D01*
X593024D01*
X590216Y340887D01*
X587699Y339434D01*
X586702Y338437D01*
X581778Y337704D01*
X533812Y385669D01*
Y657863D01*
X537812Y658935D01*
X538378Y657955D01*
X540175Y656158D01*
X542375Y654887D01*
X544829Y654230D01*
X547370D01*
X549825Y654887D01*
X552025Y656158D01*
X553822Y657955D01*
X555092Y660155D01*
X555750Y662609D01*
Y665150D01*
X555092Y667605D01*
X553822Y669805D01*
X552025Y671602D01*
X549825Y672872D01*
X547370Y673530D01*
X544829D01*
X542375Y672872D01*
X540175Y671602D01*
X538378Y669805D01*
X537275Y667894D01*
X535621Y667631D01*
X533069Y667988D01*
X532056Y670436D01*
X529972Y673151D01*
X527256Y675235D01*
X524094Y676545D01*
X520700Y676992D01*
X517306Y676545D01*
X514144Y675235D01*
X512156Y673710D01*
X510745Y673285D01*
X507042Y674005D01*
X506313Y674893D01*
X503953Y676830D01*
X501260Y678269D01*
X498339Y679156D01*
X495300Y679455D01*
X492262Y679156D01*
X489340Y678269D01*
X486647Y676830D01*
X484287Y674893D01*
X479015Y669622D01*
X477622Y669805D01*
X475825Y671602D01*
X473625Y672872D01*
X471171Y673530D01*
X468629D01*
X466175Y672872D01*
X463975Y671602D01*
X462178Y669805D01*
X460908Y667605D01*
X460250Y665150D01*
Y662609D01*
X460701Y660925D01*
X459517Y658524D01*
X458154Y656925D01*
X454150D01*
Y673530D01*
X434850D01*
Y656925D01*
X379730D01*
X376692Y656626D01*
X373770Y655739D01*
X371077Y654300D01*
X368717Y652363D01*
X353826Y637472D01*
X352572Y637637D01*
X350617Y639592D01*
X348223Y640974D01*
X345552Y641690D01*
X342788D01*
X340117Y640974D01*
X337723Y639592D01*
X335768Y637637D01*
X334386Y635243D01*
X333670Y632572D01*
Y629808D01*
X334386Y627137D01*
X335768Y624743D01*
X335898Y619544D01*
X333157Y616803D01*
X331220Y614443D01*
X329781Y611750D01*
X328894Y608829D01*
X328595Y605790D01*
Y554990D01*
X328894Y551951D01*
X329781Y549030D01*
X331220Y546337D01*
X333157Y543977D01*
X335517Y542040D01*
X338210Y540601D01*
X341132Y539714D01*
X344170Y539415D01*
X347209Y539714D01*
X350130Y540601D01*
X352823Y542040D01*
X355183Y543977D01*
X357120Y546337D01*
X358559Y549030D01*
X359446Y551951D01*
X359745Y554990D01*
Y599339D01*
X386181Y625775D01*
X440278D01*
Y186690D01*
X440278Y186690D01*
X440725Y183296D01*
X442034Y180134D01*
X444118Y177418D01*
X534288Y87248D01*
X537004Y85164D01*
X540166Y83855D01*
X543560Y83408D01*
X783558D01*
X784085Y79408D01*
X782069Y78868D01*
X779551Y77414D01*
X777496Y75359D01*
X776042Y72841D01*
X775290Y70033D01*
Y67127D01*
X776042Y64319D01*
X777496Y61801D01*
X779551Y59746D01*
X780805Y59022D01*
X779733Y55022D01*
X434691D01*
X399182Y90531D01*
Y426760D01*
X399182Y426760D01*
X398735Y430154D01*
X397425Y433317D01*
X395342Y436032D01*
X395342Y436032D01*
X384802Y446572D01*
X384802Y446572D01*
X354742Y476632D01*
X352027Y478716D01*
X348864Y480025D01*
X345471Y480472D01*
X345470Y480472D01*
X313490D01*
X310096Y480025D01*
X306934Y478716D01*
X304218Y476632D01*
X302134Y473916D01*
X300825Y470754D01*
X300378Y467360D01*
X300825Y463966D01*
X302134Y460804D01*
X304218Y458088D01*
X306934Y456004D01*
X310096Y454695D01*
X313490Y454248D01*
X340039D01*
X363339Y430948D01*
X361496Y429105D01*
X360168Y426805D01*
X359480Y424238D01*
Y421582D01*
X360168Y419015D01*
X361282Y417085D01*
X360854Y415566D01*
X359469Y413085D01*
X323650D01*
X320611Y412786D01*
X317690Y411899D01*
X314997Y410460D01*
X312637Y408523D01*
X302477Y398363D01*
X300540Y396003D01*
X299100Y393310D01*
X298214Y390388D01*
X297915Y387350D01*
X298214Y384311D01*
X299100Y381390D01*
X300540Y378697D01*
X302477Y376337D01*
X304837Y374400D01*
X307530Y372961D01*
X310451Y372074D01*
X313490Y371775D01*
X316528Y372074D01*
X319450Y372961D01*
X322143Y374400D01*
X324503Y376337D01*
X330101Y381935D01*
X369570D01*
X372958Y378249D01*
Y85100D01*
X372958Y85100D01*
X373405Y81706D01*
X374715Y78544D01*
X376798Y75828D01*
X408523Y44103D01*
X407207Y39763D01*
X406843Y39691D01*
X327107Y119427D01*
X326936Y120723D01*
X325626Y123885D01*
X323542Y126601D01*
X322762Y127382D01*
X320046Y129466D01*
X316884Y130775D01*
X313490Y131222D01*
X310096Y130775D01*
X306934Y129466D01*
X304218Y127382D01*
X302134Y124666D01*
X300824Y121504D01*
X300378Y118110D01*
X300824Y114716D01*
X301158Y113910D01*
Y113720D01*
X301158Y113720D01*
X301605Y110326D01*
X302915Y107163D01*
X304999Y104448D01*
X394588Y14858D01*
X394588Y14858D01*
X397304Y12774D01*
X400466Y11465D01*
X403860Y11018D01*
X403860Y11018D01*
X2131060D01*
X2131060Y11018D01*
X2134454Y11465D01*
X2137616Y12774D01*
X2140332Y14858D01*
X2199006Y73532D01*
X2202282Y71152D01*
X2201151Y68931D01*
X2199497Y63842D01*
X2198660Y58556D01*
Y53204D01*
X2199497Y47918D01*
X2201151Y42828D01*
X2203581Y38060D01*
X2206726Y33730D01*
X2210511Y29946D01*
X2214840Y26801D01*
X2219608Y24371D01*
X2224698Y22717D01*
X2229984Y21880D01*
X2235336D01*
X2240622Y22717D01*
X2245712Y24371D01*
X2250480Y26801D01*
X2254810Y29946D01*
X2258594Y33730D01*
X2261739Y38060D01*
X2264169Y42828D01*
X2265823Y47918D01*
X2266660Y53204D01*
Y58556D01*
X2265823Y63842D01*
X2264169Y68931D01*
X2261739Y73700D01*
X2258594Y78029D01*
X2254810Y81814D01*
X2250480Y84959D01*
X2245712Y87389D01*
X2240622Y89043D01*
X2235336Y89880D01*
X2229984D01*
X2224698Y89043D01*
X2219608Y87389D01*
X2217388Y86258D01*
X2215008Y89534D01*
X2252795Y127321D01*
X2253475Y128208D01*
X2254234Y129029D01*
X2254513Y129560D01*
X2254878Y130037D01*
X2255306Y131070D01*
X2255826Y132059D01*
X2255959Y132644D01*
X2256188Y133199D01*
X2256334Y134308D01*
X2256581Y135398D01*
X2262850Y203908D01*
X2262826Y204508D01*
X2262904Y205103D01*
Y210198D01*
X2262904Y210198D01*
X2262458Y213591D01*
X2261148Y216754D01*
X2259064Y219470D01*
X2259064Y219470D01*
X2232415Y246118D01*
X2229700Y248202D01*
X2226537Y249512D01*
X2224936Y249723D01*
X2224696Y249963D01*
X2221504Y251806D01*
X2217943Y252760D01*
X2214257D01*
X2212942Y252408D01*
X2208942Y255118D01*
X2208942Y1127238D01*
X2208942Y1131238D01*
X2208942Y1131238D01*
X2208942D01*
X2208939Y1131264D01*
X2208497Y1135747D01*
X2207182Y1140082D01*
X2205046Y1144078D01*
X2202189Y1147560D01*
X2202173Y1147581D01*
X2202173Y1147581D01*
X2202173Y1147581D01*
X2171413Y1178340D01*
X2173070Y1182340D01*
X2174813D01*
X2178374Y1183294D01*
X2181566Y1185137D01*
X2184173Y1187744D01*
X2186016Y1190936D01*
X2186970Y1194497D01*
Y1198183D01*
X2186016Y1201744D01*
X2184173Y1204936D01*
X2181566Y1207543D01*
X2178595Y1209258D01*
X2176253Y1211600D01*
X2177910Y1215600D01*
X2180332D01*
X2184841Y1216314D01*
X2189182Y1217725D01*
X2193249Y1219797D01*
X2196942Y1222480D01*
X2200170Y1225708D01*
X2202853Y1229401D01*
X2204925Y1233468D01*
X2206336Y1237809D01*
X2207050Y1242318D01*
Y1246882D01*
X2206336Y1251391D01*
X2204925Y1255732D01*
X2202853Y1259799D01*
X2200170Y1263492D01*
X2196942Y1266720D01*
X2193249Y1269403D01*
X2189182Y1271475D01*
X2184841Y1272886D01*
X2180332Y1273600D01*
X2175768D01*
X2171259Y1272886D01*
X2166918Y1271475D01*
X2162851Y1269403D01*
X2159158Y1266720D01*
X2155930Y1263492D01*
X2153247Y1259799D01*
X2151175Y1255732D01*
X2149764Y1251391D01*
X2149050Y1246882D01*
Y1244460D01*
X2145050Y1242803D01*
X2090802Y1297052D01*
X2088086Y1299135D01*
X2084924Y1300445D01*
X2081530Y1300892D01*
X2081530Y1300892D01*
X1830070D01*
X1830070Y1300892D01*
X1826676Y1300445D01*
X1823514Y1299135D01*
X1820798Y1297052D01*
X1820798Y1297052D01*
X1673478Y1149732D01*
X1671395Y1147016D01*
X1671102Y1146310D01*
X1666724Y1146193D01*
X1666140Y1147205D01*
X1664095Y1149250D01*
X1661590Y1150696D01*
X1658796Y1151445D01*
X1655904D01*
X1653110Y1150696D01*
X1650605Y1149250D01*
X1648560Y1147205D01*
X1647114Y1144700D01*
X1646721Y1143233D01*
X1642579D01*
X1642186Y1144700D01*
X1640740Y1147205D01*
X1638695Y1149250D01*
X1636190Y1150696D01*
X1633396Y1151445D01*
X1630504D01*
X1627710Y1150696D01*
X1625205Y1149250D01*
X1623160Y1147205D01*
X1621714Y1144700D01*
X1621321Y1143233D01*
X1617179D01*
X1616786Y1144700D01*
X1615340Y1147205D01*
X1613295Y1149250D01*
X1610790Y1150696D01*
X1607996Y1151445D01*
X1605104D01*
X1602310Y1150696D01*
X1599805Y1149250D01*
X1597760Y1147205D01*
X1596314Y1144700D01*
X1595921Y1143233D01*
X1591779D01*
X1591386Y1144700D01*
X1589940Y1147205D01*
X1587895Y1149250D01*
X1585390Y1150696D01*
X1582596Y1151445D01*
X1579704D01*
X1576910Y1150696D01*
X1574405Y1149250D01*
X1572360Y1147205D01*
X1570914Y1144700D01*
X1570165Y1141906D01*
Y1139014D01*
X1570914Y1136220D01*
X1571872Y1134560D01*
X1572089Y1134184D01*
X1569140Y1131528D01*
X1568935Y1131594D01*
X1474628Y1225901D01*
Y1575054D01*
X1474628Y1575054D01*
X1474181Y1578448D01*
X1472872Y1581610D01*
X1470788Y1584326D01*
X1448382Y1606732D01*
X1446093Y1608488D01*
X1446146Y1609950D01*
X1447220Y1612488D01*
X1462689D01*
X1485996Y1589181D01*
Y1568943D01*
X1485996Y1568942D01*
X1486443Y1565549D01*
X1487753Y1562386D01*
X1489836Y1559671D01*
X1499178Y1550329D01*
X1499178Y1550328D01*
X1515220Y1534286D01*
X1517936Y1532202D01*
X1521099Y1530893D01*
X1524492Y1530446D01*
X1524492Y1530446D01*
X1822608D01*
X1822608Y1530446D01*
X1826002Y1530893D01*
X1829164Y1532202D01*
X1831880Y1534286D01*
X1847922Y1550328D01*
X1850006Y1553044D01*
X1851315Y1556206D01*
X1851762Y1559600D01*
X1851315Y1562994D01*
X1850006Y1566156D01*
X1847922Y1568872D01*
X1845206Y1570956D01*
X1842044Y1572265D01*
X1838650Y1572712D01*
X1835256Y1572265D01*
X1832094Y1570956D01*
X1829378Y1568872D01*
X1827136Y1566629D01*
X1823149Y1566678D01*
X1822010Y1567160D01*
X1820336Y1568834D01*
X1817704Y1570354D01*
X1814769Y1571140D01*
X1811731D01*
X1808796Y1570354D01*
X1806164Y1568834D01*
X1804016Y1566686D01*
X1802666Y1564348D01*
X1801027Y1564054D01*
X1800073D01*
X1798434Y1564348D01*
X1797084Y1566686D01*
X1794936Y1568834D01*
X1792304Y1570354D01*
X1789369Y1571140D01*
X1786331D01*
X1783396Y1570354D01*
X1780764Y1568834D01*
X1778616Y1566686D01*
X1777266Y1564348D01*
X1775627Y1564054D01*
X1774673D01*
X1773034Y1564348D01*
X1771684Y1566686D01*
X1769536Y1568834D01*
X1766904Y1570354D01*
X1763969Y1571140D01*
X1760931D01*
X1757996Y1570354D01*
X1755364Y1568834D01*
X1753216Y1566686D01*
X1751866Y1564348D01*
X1750227Y1564054D01*
X1749273D01*
X1747634Y1564348D01*
X1746284Y1566686D01*
X1744136Y1568834D01*
X1741504Y1570354D01*
X1738569Y1571140D01*
X1735531D01*
X1732596Y1570354D01*
X1729964Y1568834D01*
X1727816Y1566686D01*
X1726466Y1564348D01*
X1724827Y1564054D01*
X1723873D01*
X1722234Y1564348D01*
X1720884Y1566686D01*
X1718736Y1568834D01*
X1716104Y1570354D01*
X1713169Y1571140D01*
X1710131D01*
X1707196Y1570354D01*
X1704564Y1568834D01*
X1702416Y1566686D01*
X1701066Y1564348D01*
X1699427Y1564054D01*
X1698473D01*
X1696834Y1564348D01*
X1695484Y1566686D01*
X1693336Y1568834D01*
X1690704Y1570354D01*
X1687769Y1571140D01*
X1684731D01*
X1681796Y1570354D01*
X1679164Y1568834D01*
X1677016Y1566686D01*
X1675666Y1564348D01*
X1674027Y1564054D01*
X1673073D01*
X1671434Y1564348D01*
X1670084Y1566686D01*
X1667936Y1568834D01*
X1665304Y1570354D01*
X1662369Y1571140D01*
X1659331D01*
X1656396Y1570354D01*
X1653764Y1568834D01*
X1651616Y1566686D01*
X1650266Y1564348D01*
X1648627Y1564054D01*
X1647673D01*
X1646034Y1564348D01*
X1644684Y1566686D01*
X1642536Y1568834D01*
X1639904Y1570354D01*
X1636969Y1571140D01*
X1633931D01*
X1630996Y1570354D01*
X1628364Y1568834D01*
X1626216Y1566686D01*
X1624866Y1564348D01*
X1623227Y1564054D01*
X1622273D01*
X1620634Y1564348D01*
X1619284Y1566686D01*
X1617136Y1568834D01*
X1614504Y1570354D01*
X1611569Y1571140D01*
X1608531D01*
X1605596Y1570354D01*
X1602964Y1568834D01*
X1600816Y1566686D01*
X1599297Y1564054D01*
X1598510Y1561119D01*
Y1558081D01*
X1597428Y1556670D01*
X1571873D01*
X1570790Y1558081D01*
Y1561119D01*
X1570004Y1564054D01*
X1568484Y1566686D01*
X1566336Y1568834D01*
X1563704Y1570354D01*
X1560769Y1571140D01*
X1557731D01*
X1554796Y1570354D01*
X1552164Y1568834D01*
X1550016Y1566686D01*
X1548666Y1564348D01*
X1547027Y1564054D01*
X1546073D01*
X1544434Y1564348D01*
X1543084Y1566686D01*
X1540936Y1568834D01*
X1538304Y1570354D01*
X1535369Y1571140D01*
X1532331D01*
X1529396Y1570354D01*
X1526764Y1568834D01*
X1524616Y1566686D01*
X1519964Y1566629D01*
X1517722Y1568872D01*
X1517722Y1568872D01*
X1512220Y1574373D01*
Y1594612D01*
X1512220Y1594612D01*
X1511773Y1598006D01*
X1510464Y1601168D01*
X1508380Y1603884D01*
X1508380Y1603884D01*
X1477392Y1634872D01*
X1474676Y1636956D01*
X1471514Y1638265D01*
X1468120Y1638712D01*
D02*
G37*
G36*
X513730Y1588350D02*
X486630D01*
Y1586642D01*
X370548D01*
X368914Y1587080D01*
X365346D01*
X361900Y1586157D01*
X358810Y1584373D01*
X356797Y1582360D01*
X354380Y1582075D01*
X351963Y1582360D01*
X349950Y1584373D01*
X346860Y1586157D01*
X343414Y1587080D01*
X339846D01*
X336400Y1586157D01*
X333680Y1584586D01*
X332163Y1585013D01*
X329680Y1586399D01*
Y1587080D01*
X302580D01*
Y1559980D01*
X329680D01*
Y1560661D01*
X332163Y1562047D01*
X333680Y1562474D01*
X336400Y1560903D01*
X339846Y1559980D01*
X343414D01*
X346860Y1560903D01*
X349950Y1562687D01*
X351963Y1564700D01*
X354380Y1564985D01*
X356797Y1564700D01*
X358810Y1562687D01*
X361900Y1560903D01*
X365346Y1559980D01*
X368914D01*
X370548Y1560418D01*
X498910D01*
X498910Y1560418D01*
X502304Y1560865D01*
X503234Y1561250D01*
X513730D01*
Y1588350D01*
D02*
G37*
G36*
X121180Y1582550D02*
X92180D01*
Y1553550D01*
X121180D01*
Y1582550D01*
D02*
G37*
G36*
X1323589Y1566020D02*
X1320551D01*
X1317616Y1565233D01*
X1314984Y1563714D01*
X1312836Y1561566D01*
X1311317Y1558934D01*
X1310530Y1555999D01*
Y1552961D01*
X1311317Y1550026D01*
X1312836Y1547394D01*
X1314984Y1545246D01*
X1317616Y1543727D01*
X1320551Y1542940D01*
X1323589D01*
X1326524Y1543727D01*
X1329156Y1545246D01*
X1331304Y1547394D01*
X1332823Y1550026D01*
X1333610Y1552961D01*
Y1555999D01*
X1332823Y1558934D01*
X1331304Y1561566D01*
X1329156Y1563714D01*
X1326524Y1565233D01*
X1323589Y1566020D01*
D02*
G37*
G36*
X2180332Y1583600D02*
X2175768D01*
X2171259Y1582886D01*
X2166918Y1581475D01*
X2162851Y1579403D01*
X2159158Y1576720D01*
X2155930Y1573492D01*
X2153247Y1569799D01*
X2151175Y1565732D01*
X2149764Y1561391D01*
X2149050Y1556882D01*
Y1552318D01*
X2149764Y1547809D01*
X2151175Y1543468D01*
X2153247Y1539401D01*
X2155930Y1535708D01*
X2159158Y1532480D01*
X2162851Y1529797D01*
X2166918Y1527725D01*
X2171259Y1526314D01*
X2175768Y1525600D01*
X2180332D01*
X2184841Y1526314D01*
X2189182Y1527725D01*
X2193249Y1529797D01*
X2196942Y1532480D01*
X2200170Y1535708D01*
X2202853Y1539401D01*
X2204925Y1543468D01*
X2206336Y1547809D01*
X2207050Y1552318D01*
Y1556882D01*
X2206336Y1561391D01*
X2204925Y1565732D01*
X2202853Y1569799D01*
X2200170Y1573492D01*
X2196942Y1576720D01*
X2193249Y1579403D01*
X2189182Y1581475D01*
X2184841Y1582886D01*
X2180332Y1583600D01*
D02*
G37*
G36*
X1102560Y1540922D02*
X1102560Y1540922D01*
X1064260D01*
X1060866Y1540475D01*
X1057704Y1539165D01*
X1054988Y1537082D01*
X1053496Y1535137D01*
X1052498Y1534371D01*
X1051024Y1532450D01*
X1050097Y1530212D01*
X1049781Y1527810D01*
X1050097Y1525408D01*
X1051024Y1523170D01*
X1052475Y1521280D01*
X1049897Y1519302D01*
X1049896Y1519302D01*
X1049712Y1519117D01*
X1047628Y1516401D01*
X1046318Y1513239D01*
X1045923Y1510236D01*
X1043589Y1507902D01*
X967059D01*
X953849Y1521112D01*
X951134Y1523195D01*
X949530Y1523860D01*
Y1524840D01*
X945549D01*
X945086Y1525195D01*
X941924Y1526505D01*
X938530Y1526952D01*
X935136Y1526505D01*
X931974Y1525195D01*
X931511Y1524840D01*
X927530D01*
Y1520859D01*
X927175Y1520396D01*
X925865Y1517234D01*
X925418Y1513840D01*
X925865Y1510446D01*
X927175Y1507284D01*
X927530Y1506821D01*
Y1502840D01*
X930987D01*
X931258Y1502568D01*
X931258Y1502568D01*
X933974Y1500484D01*
X937136Y1499175D01*
X938937Y1498938D01*
X952356Y1485518D01*
X955072Y1483434D01*
X958234Y1482125D01*
X961628Y1481678D01*
X961628Y1481678D01*
X1049020D01*
X1049020Y1481678D01*
X1052414Y1482125D01*
X1055576Y1483434D01*
X1058292Y1485518D01*
X1068255Y1495482D01*
X1068255Y1495482D01*
X1070339Y1498197D01*
X1070479Y1498535D01*
X1070816Y1498674D01*
X1073532Y1500758D01*
X1075024Y1502703D01*
X1076021Y1503468D01*
X1077496Y1505390D01*
X1078423Y1507628D01*
X1078739Y1510030D01*
X1078652Y1510698D01*
X1081020Y1514167D01*
X1081814Y1514698D01*
X1097129D01*
X1175638Y1436188D01*
X1178354Y1434105D01*
X1181516Y1432795D01*
X1184910Y1432348D01*
X1188304Y1432795D01*
X1191466Y1434105D01*
X1194182Y1436188D01*
X1196265Y1438904D01*
X1197575Y1442066D01*
X1198022Y1445460D01*
X1197575Y1448854D01*
X1196265Y1452016D01*
X1194182Y1454732D01*
X1111832Y1537082D01*
X1109116Y1539165D01*
X1105954Y1540475D01*
X1102560Y1540922D01*
D02*
G37*
G36*
X576791Y1500360D02*
X573829D01*
X570968Y1499593D01*
X568402Y1498112D01*
X566308Y1496018D01*
X564827Y1493452D01*
X564060Y1490591D01*
Y1487629D01*
X564827Y1484768D01*
X566308Y1482202D01*
X568402Y1480108D01*
X570968Y1478627D01*
X573829Y1477860D01*
X576791D01*
X579652Y1478627D01*
X582218Y1480108D01*
X584312Y1482202D01*
X585793Y1484768D01*
X586560Y1487629D01*
Y1490591D01*
X585793Y1493452D01*
X584312Y1496018D01*
X582218Y1498112D01*
X579652Y1499593D01*
X576791Y1500360D01*
D02*
G37*
G36*
X1320983Y1496740D02*
X1318077D01*
X1315269Y1495988D01*
X1312751Y1494534D01*
X1310696Y1492479D01*
X1309242Y1489961D01*
X1308490Y1487153D01*
Y1484246D01*
X1309242Y1481439D01*
X1310696Y1478921D01*
X1312751Y1476866D01*
X1315269Y1475412D01*
X1318077Y1474660D01*
X1320983D01*
X1323791Y1475412D01*
X1326309Y1476866D01*
X1328364Y1478921D01*
X1329818Y1481439D01*
X1330570Y1484246D01*
Y1487153D01*
X1329818Y1489961D01*
X1328364Y1492479D01*
X1326309Y1494534D01*
X1323791Y1495988D01*
X1320983Y1496740D01*
D02*
G37*
G36*
X482600Y1500282D02*
X479206Y1499835D01*
X476044Y1498526D01*
X473328Y1496442D01*
X471245Y1493726D01*
X469935Y1490564D01*
X469488Y1487170D01*
Y1459581D01*
X437129Y1427222D01*
X389890D01*
X386496Y1426775D01*
X383334Y1425465D01*
X380618Y1423382D01*
X380538Y1423278D01*
X375297Y1422862D01*
X374778Y1423382D01*
X372062Y1425465D01*
X368900Y1426775D01*
X365506Y1427222D01*
X365506Y1427222D01*
X297180D01*
X293786Y1426775D01*
X290624Y1425465D01*
X287908Y1423382D01*
X285825Y1420666D01*
X284515Y1417504D01*
X284068Y1414110D01*
X284515Y1410716D01*
X285825Y1407554D01*
X287908Y1404838D01*
X290624Y1402755D01*
X293786Y1401445D01*
X297180Y1400998D01*
X360075D01*
X434304Y1326768D01*
X437020Y1324684D01*
X440182Y1323375D01*
X443576Y1322928D01*
X512529D01*
X599112Y1236344D01*
X599112Y1236344D01*
X601828Y1234260D01*
X604990Y1232951D01*
X608384Y1232504D01*
X1077976D01*
X1077976Y1232504D01*
X1081370Y1232951D01*
X1084532Y1234260D01*
X1087248Y1236344D01*
X1149430Y1298526D01*
X1153897Y1298331D01*
X1154126Y1298041D01*
X1154048Y1293242D01*
X1151964Y1290526D01*
X1150655Y1287364D01*
X1150208Y1283970D01*
X1150655Y1280576D01*
X1151964Y1277414D01*
X1154048Y1274698D01*
X1156764Y1272615D01*
X1159926Y1271305D01*
X1163320Y1270858D01*
X1212920D01*
X1212920Y1270858D01*
X1216314Y1271305D01*
X1219476Y1272615D01*
X1221279Y1273998D01*
X1228090D01*
X1231484Y1274445D01*
X1234646Y1275754D01*
X1237362Y1277838D01*
X1239445Y1280554D01*
X1240755Y1283716D01*
X1241202Y1287110D01*
X1240755Y1290504D01*
X1239445Y1293666D01*
X1237362Y1296382D01*
X1234646Y1298465D01*
X1231484Y1299775D01*
X1228090Y1300222D01*
X1216060D01*
X1212666Y1299775D01*
X1209504Y1298465D01*
X1207701Y1297082D01*
X1174200D01*
X1172543Y1301082D01*
X1173228Y1301767D01*
X1174858Y1304591D01*
X1175702Y1307740D01*
Y1311000D01*
X1174858Y1314149D01*
X1173228Y1316973D01*
X1170923Y1319278D01*
X1170079Y1319765D01*
Y1324375D01*
X1170923Y1324862D01*
X1173228Y1327167D01*
X1174858Y1329991D01*
X1175702Y1333140D01*
Y1336400D01*
X1174858Y1339549D01*
X1173228Y1342373D01*
X1170923Y1344678D01*
X1170965Y1349272D01*
X1172592Y1350898D01*
X1174676Y1353614D01*
X1175985Y1356776D01*
X1176432Y1360170D01*
X1175985Y1363564D01*
X1174676Y1366726D01*
X1172592Y1369442D01*
X1169876Y1371526D01*
X1166714Y1372835D01*
X1163320Y1373282D01*
X1159926Y1372835D01*
X1156764Y1371526D01*
X1154048Y1369442D01*
X1135729Y1351122D01*
X1133645Y1348407D01*
X1132335Y1345244D01*
X1131888Y1341850D01*
X1131888Y1341850D01*
Y1318072D01*
X1103255Y1289439D01*
X1098537Y1290377D01*
X1098475Y1290526D01*
X1096392Y1293242D01*
X1093676Y1295325D01*
X1090514Y1296635D01*
X1087120Y1297082D01*
X1080432D01*
X1080284Y1297195D01*
X1077122Y1298505D01*
X1073728Y1298952D01*
X1073728Y1298952D01*
X1008380D01*
X1004986Y1298505D01*
X1001824Y1297195D01*
X999108Y1295112D01*
X997025Y1292396D01*
X995715Y1289234D01*
X995268Y1285840D01*
X995715Y1282446D01*
X997025Y1279284D01*
X999108Y1276568D01*
X1001824Y1274484D01*
X1004986Y1273175D01*
X1008380Y1272728D01*
X1068894D01*
X1069042Y1272615D01*
X1072204Y1271305D01*
X1075598Y1270858D01*
X1079448D01*
X1080979Y1267162D01*
X1072545Y1258728D01*
X613815D01*
X527232Y1345312D01*
X524516Y1347395D01*
X521353Y1348705D01*
X517960Y1349152D01*
X517960Y1349152D01*
X449007D01*
X400857Y1397302D01*
X402388Y1400998D01*
X442560D01*
X442560Y1400998D01*
X445954Y1401445D01*
X449116Y1402755D01*
X451832Y1404838D01*
X491872Y1444878D01*
X493955Y1447594D01*
X495265Y1450756D01*
X495712Y1454150D01*
X495712Y1454150D01*
Y1487170D01*
X495265Y1490564D01*
X493955Y1493726D01*
X491872Y1496442D01*
X489156Y1498526D01*
X485994Y1499835D01*
X482600Y1500282D01*
D02*
G37*
G36*
X193420Y1428620D02*
X170420D01*
Y1380620D01*
X193420D01*
Y1428620D01*
D02*
G37*
G36*
X173420Y1369120D02*
X130420D01*
Y1346120D01*
X173420D01*
Y1369120D01*
D02*
G37*
G36*
X276860Y1350422D02*
X273466Y1349975D01*
X270304Y1348665D01*
X267588Y1346582D01*
X265550Y1343925D01*
X265359Y1343900D01*
X261550Y1344772D01*
Y1347400D01*
X241370D01*
Y1327220D01*
X261550D01*
Y1329848D01*
X265359Y1330721D01*
X265550Y1330695D01*
X267588Y1328038D01*
X283082Y1312544D01*
X283082Y1312544D01*
X285798Y1310461D01*
X288960Y1309151D01*
X292354Y1308704D01*
X351736D01*
X351736Y1308704D01*
X355130Y1309151D01*
X358292Y1310461D01*
X361008Y1312544D01*
X375232Y1326768D01*
X377316Y1329484D01*
X378626Y1332646D01*
X379072Y1336040D01*
X378626Y1339434D01*
X377316Y1342596D01*
X375232Y1345312D01*
X372516Y1347395D01*
X369354Y1348705D01*
X365960Y1349152D01*
X362566Y1348705D01*
X359404Y1347395D01*
X356688Y1345312D01*
X346305Y1334928D01*
X297785D01*
X286132Y1346582D01*
X283416Y1348665D01*
X280254Y1349975D01*
X276860Y1350422D01*
D02*
G37*
G36*
X1320983Y1344740D02*
X1318077D01*
X1315269Y1343988D01*
X1312751Y1342534D01*
X1310696Y1340479D01*
X1309242Y1337961D01*
X1308490Y1335154D01*
Y1332247D01*
X1309242Y1329439D01*
X1310696Y1326921D01*
X1312751Y1324866D01*
X1315269Y1323412D01*
X1318077Y1322660D01*
X1320983D01*
X1323791Y1323412D01*
X1326309Y1324866D01*
X1328364Y1326921D01*
X1329818Y1329439D01*
X1330570Y1332247D01*
Y1335154D01*
X1329818Y1337961D01*
X1328364Y1340479D01*
X1326309Y1342534D01*
X1323791Y1343988D01*
X1320983Y1344740D01*
D02*
G37*
G36*
X1029808Y1373952D02*
X1029808Y1373952D01*
X1008380D01*
X1004986Y1373505D01*
X1001824Y1372195D01*
X999108Y1370112D01*
X997025Y1367396D01*
X995715Y1364234D01*
X995268Y1360840D01*
X995715Y1357446D01*
X997025Y1354284D01*
X999108Y1351568D01*
X1001824Y1349485D01*
X1004986Y1348175D01*
X1008380Y1347728D01*
X1024377D01*
X1046606Y1325498D01*
X1046606Y1325498D01*
X1049322Y1323414D01*
X1052484Y1322105D01*
X1055878Y1321658D01*
X1055878Y1321658D01*
X1087120D01*
X1090514Y1322105D01*
X1093676Y1323414D01*
X1096392Y1325498D01*
X1098475Y1328214D01*
X1099785Y1331376D01*
X1100232Y1334770D01*
X1099785Y1338164D01*
X1098475Y1341326D01*
X1096586Y1343788D01*
X1096786Y1344917D01*
X1098080Y1347788D01*
X1099502D01*
Y1372552D01*
X1074738D01*
Y1347882D01*
X1061309D01*
X1039080Y1370112D01*
X1036364Y1372195D01*
X1033202Y1373506D01*
X1029808Y1373952D01*
D02*
G37*
G36*
X106110Y1268710D02*
Y1268710D01*
X85030D01*
Y1247630D01*
X106110D01*
X106110Y1247630D01*
X110110Y1249152D01*
X111502Y1248348D01*
X114182Y1247630D01*
X116958D01*
X119638Y1248348D01*
X122042Y1249736D01*
X123061Y1250756D01*
X125570Y1251336D01*
X128079Y1250756D01*
X129098Y1249736D01*
X131502Y1248348D01*
X134182Y1247630D01*
X136958D01*
X139638Y1248348D01*
X142042Y1249736D01*
X144004Y1251699D01*
X145392Y1254102D01*
X146110Y1256783D01*
Y1259558D01*
X145392Y1262238D01*
X144004Y1264642D01*
X142042Y1266604D01*
X139638Y1267992D01*
X136958Y1268710D01*
X134182D01*
X131502Y1267992D01*
X129098Y1266604D01*
X128079Y1265585D01*
X125570Y1265004D01*
X123061Y1265585D01*
X122042Y1266604D01*
X119638Y1267992D01*
X116958Y1268710D01*
X114182D01*
X111502Y1267992D01*
X110110Y1267188D01*
X106110Y1268710D01*
D02*
G37*
G36*
X367220Y1226824D02*
X363412Y1226449D01*
X359749Y1225337D01*
X356374Y1223533D01*
X355571Y1222875D01*
X135570D01*
X132531Y1222575D01*
X129610Y1221689D01*
X126917Y1220250D01*
X124557Y1218313D01*
X123201Y1216661D01*
X122042Y1216604D01*
X119638Y1217991D01*
X116958Y1218710D01*
X114182D01*
X111502Y1217991D01*
X109098Y1216604D01*
X108079Y1215584D01*
X105570Y1215004D01*
X103061Y1215584D01*
X102042Y1216604D01*
X99638Y1217991D01*
X96958Y1218710D01*
X94182D01*
X91502Y1217991D01*
X89098Y1216604D01*
X87136Y1214641D01*
X85748Y1212238D01*
X85030Y1209557D01*
Y1206782D01*
X85748Y1204101D01*
X87136Y1201698D01*
X89098Y1199736D01*
X91502Y1198348D01*
X94182Y1197630D01*
X96958D01*
X99638Y1198348D01*
X102042Y1199736D01*
X103061Y1200755D01*
X105570Y1201336D01*
X108079Y1200755D01*
X109098Y1199736D01*
X111502Y1198348D01*
X114182Y1197630D01*
X116958D01*
X119638Y1198348D01*
X120971Y1199118D01*
X122620Y1198646D01*
X124557Y1196286D01*
X126917Y1194350D01*
X129610Y1192910D01*
X132531Y1192024D01*
X135570Y1191725D01*
X355184D01*
X381164Y1165744D01*
X384123Y1163316D01*
X387499Y1161512D01*
X391161Y1160401D01*
X394970Y1160026D01*
X398779Y1160401D01*
X402441Y1161512D01*
X405817Y1163316D01*
X408776Y1165744D01*
X411204Y1168703D01*
X413008Y1172079D01*
X414119Y1175741D01*
X414494Y1179550D01*
X414119Y1183359D01*
X413008Y1187022D01*
X411204Y1190397D01*
X408776Y1193356D01*
X381026Y1221105D01*
X378067Y1223533D01*
X374692Y1225337D01*
X371029Y1226449D01*
X367220Y1226824D01*
D02*
G37*
G36*
X272083Y1081615D02*
X268937D01*
X265898Y1080801D01*
X263172Y1079228D01*
X260948Y1077003D01*
X259374Y1074278D01*
X258560Y1071238D01*
Y1068092D01*
X259374Y1065053D01*
X260948Y1062328D01*
X263172Y1060103D01*
X265898Y1058530D01*
X268937Y1057715D01*
X272083D01*
X275123Y1058530D01*
X277847Y1060103D01*
X280072Y1062328D01*
X281646Y1065053D01*
X282460Y1068092D01*
Y1071238D01*
X281646Y1074278D01*
X280072Y1077003D01*
X277847Y1079228D01*
X275123Y1080801D01*
X272083Y1081615D01*
D02*
G37*
G36*
X138227Y1115482D02*
X131013D01*
X123861Y1114540D01*
X116893Y1112673D01*
X110228Y1109913D01*
X103980Y1106306D01*
X98257Y1101914D01*
X93156Y1096813D01*
X88764Y1091090D01*
X85157Y1084842D01*
X82397Y1078177D01*
X80530Y1071209D01*
X79588Y1064057D01*
Y1056843D01*
X80530Y1049691D01*
X82397Y1042723D01*
X85157Y1036058D01*
X88764Y1029810D01*
X93156Y1024087D01*
X98257Y1018986D01*
X103980Y1014594D01*
X110228Y1010987D01*
X116893Y1008227D01*
X123861Y1006360D01*
X131013Y1005418D01*
X138227D01*
X145379Y1006360D01*
X152347Y1008227D01*
X159012Y1010987D01*
X165260Y1014594D01*
X170983Y1018986D01*
X176084Y1024087D01*
X180476Y1029810D01*
X184083Y1036058D01*
X186843Y1042723D01*
X188710Y1049691D01*
X189652Y1056843D01*
Y1064057D01*
X188710Y1071209D01*
X186843Y1078177D01*
X184083Y1084842D01*
X180476Y1091090D01*
X176084Y1096813D01*
X170983Y1101914D01*
X165260Y1106306D01*
X159012Y1109913D01*
X152347Y1112673D01*
X145379Y1114540D01*
X138227Y1115482D01*
D02*
G37*
G36*
X744604Y897500D02*
X741697D01*
X738889Y896748D01*
X736371Y895294D01*
X734316Y893239D01*
X732862Y890721D01*
X732110Y887913D01*
Y885007D01*
X732862Y882199D01*
X734316Y879681D01*
X736371Y877626D01*
X738889Y876172D01*
X741697Y875420D01*
X744604D01*
X747411Y876172D01*
X749929Y877626D01*
X751984Y879681D01*
X753438Y882199D01*
X754190Y885007D01*
Y887913D01*
X753438Y890721D01*
X751984Y893239D01*
X749929Y895294D01*
X747411Y896748D01*
X744604Y897500D01*
D02*
G37*
G36*
X1080770Y893570D02*
X1078230D01*
X1075775Y892912D01*
X1073575Y891642D01*
X1071778Y889845D01*
X1070508Y887645D01*
X1069850Y885191D01*
Y882650D01*
X1070508Y880195D01*
X1071778Y877995D01*
X1073575Y876198D01*
X1075775Y874928D01*
X1078230Y874270D01*
X1080770D01*
X1083225Y874928D01*
X1085425Y876198D01*
X1087222Y877995D01*
X1088492Y880195D01*
X1089150Y882650D01*
Y885191D01*
X1088492Y887645D01*
X1087222Y889845D01*
X1085425Y891642D01*
X1083225Y892912D01*
X1080770Y893570D01*
D02*
G37*
G36*
X618548Y877500D02*
X615892D01*
X613325Y876812D01*
X611025Y875484D01*
X609146Y873605D01*
X607818Y871305D01*
X607130Y868738D01*
Y866082D01*
X607818Y863515D01*
X609146Y861215D01*
X611025Y859336D01*
X613325Y858008D01*
X615892Y857320D01*
X618548D01*
X621115Y858008D01*
X623415Y859336D01*
X625294Y861215D01*
X626622Y863515D01*
X627310Y866082D01*
Y868738D01*
X626622Y871305D01*
X625294Y873605D01*
X623415Y875484D01*
X621115Y876812D01*
X618548Y877500D01*
D02*
G37*
G36*
X410268D02*
X407612D01*
X405045Y876812D01*
X402745Y875484D01*
X400866Y873605D01*
X399538Y871305D01*
X398850Y868738D01*
Y866082D01*
X399538Y863515D01*
X400866Y861215D01*
X402745Y859336D01*
X405045Y858008D01*
X407612Y857320D01*
X410268D01*
X412835Y858008D01*
X415135Y859336D01*
X417014Y861215D01*
X418342Y863515D01*
X419030Y866082D01*
Y868738D01*
X418342Y871305D01*
X417014Y873605D01*
X415135Y875484D01*
X412835Y876812D01*
X410268Y877500D01*
D02*
G37*
G36*
X368230D02*
X348050D01*
Y857320D01*
X368230D01*
Y877500D01*
D02*
G37*
G36*
X2100276Y810510D02*
X2096603D01*
X2093055Y809560D01*
X2089874Y807723D01*
X2087277Y805126D01*
X2085441Y801945D01*
X2084490Y798397D01*
Y794724D01*
X2085441Y791176D01*
X2087277Y787995D01*
X2089874Y785397D01*
X2093055Y783561D01*
X2096603Y782610D01*
X2100276D01*
X2103824Y783561D01*
X2107005Y785397D01*
X2109603Y787995D01*
X2111439Y791176D01*
X2112390Y794724D01*
Y798397D01*
X2111439Y801945D01*
X2109603Y805126D01*
X2107005Y807723D01*
X2103824Y809560D01*
X2100276Y810510D01*
D02*
G37*
G36*
X1954226D02*
X1950553D01*
X1947005Y809560D01*
X1943824Y807723D01*
X1941227Y805126D01*
X1939391Y801945D01*
X1938440Y798397D01*
Y794724D01*
X1939391Y791176D01*
X1941227Y787995D01*
X1943824Y785397D01*
X1947005Y783561D01*
X1950553Y782610D01*
X1954226D01*
X1957774Y783561D01*
X1960955Y785397D01*
X1963553Y787995D01*
X1965389Y791176D01*
X1966340Y794724D01*
Y798397D01*
X1965389Y801945D01*
X1963553Y805126D01*
X1960955Y807723D01*
X1957774Y809560D01*
X1954226Y810510D01*
D02*
G37*
G36*
X1156754Y701920D02*
X1153847D01*
X1151039Y701168D01*
X1148521Y699714D01*
X1146466Y697659D01*
X1145013Y695141D01*
X1144260Y692333D01*
Y689427D01*
X1145013Y686619D01*
X1146466Y684101D01*
X1148521Y682046D01*
X1151039Y680592D01*
X1153847Y679840D01*
X1156754D01*
X1159561Y680592D01*
X1162079Y682046D01*
X1164134Y684101D01*
X1165588Y686619D01*
X1166340Y689427D01*
Y692333D01*
X1165588Y695141D01*
X1164134Y697659D01*
X1162079Y699714D01*
X1159561Y701168D01*
X1156754Y701920D01*
D02*
G37*
G36*
X957725Y703992D02*
X954331Y703545D01*
X954172Y703479D01*
X950957Y703056D01*
X947794Y701746D01*
X945079Y699662D01*
X944298Y698882D01*
X942214Y696166D01*
X940904Y693004D01*
X940458Y689610D01*
X940904Y686216D01*
X942214Y683054D01*
X944298Y680338D01*
X947014Y678254D01*
X950176Y676945D01*
X953570Y676498D01*
X956964Y676945D01*
X958018Y677382D01*
X960629Y677725D01*
X960732Y677768D01*
X1003300D01*
X1006694Y678215D01*
X1009856Y679525D01*
X1012572Y681608D01*
X1014656Y684324D01*
X1015965Y687486D01*
X1016412Y690880D01*
X1015965Y694274D01*
X1014656Y697436D01*
X1012572Y700152D01*
X1009856Y702235D01*
X1006694Y703545D01*
X1003300Y703992D01*
X957725D01*
X957725Y703992D01*
D02*
G37*
G36*
X2150277Y685510D02*
X2146604D01*
X2143056Y684560D01*
X2139875Y682723D01*
X2137277Y680126D01*
X2135441Y676945D01*
X2134490Y673397D01*
Y669724D01*
X2135441Y666176D01*
X2137277Y662995D01*
X2139875Y660397D01*
X2143056Y658561D01*
X2146604Y657610D01*
X2150277D01*
X2153825Y658561D01*
X2157006Y660397D01*
X2159603Y662995D01*
X2161440Y666176D01*
X2162390Y669724D01*
Y673397D01*
X2161440Y676945D01*
X2159603Y680126D01*
X2157006Y682723D01*
X2153825Y684560D01*
X2150277Y685510D01*
D02*
G37*
G36*
X1465100Y676160D02*
X1441200D01*
Y652260D01*
X1465100D01*
Y676160D01*
D02*
G37*
G36*
X167752Y641690D02*
X164988D01*
X162317Y640974D01*
X159923Y639592D01*
X157968Y637637D01*
X156586Y635243D01*
X155870Y632572D01*
Y629808D01*
X156586Y627137D01*
X157968Y624743D01*
X159923Y622788D01*
X162317Y621406D01*
X164988Y620690D01*
X167752D01*
X170423Y621406D01*
X172817Y622788D01*
X174772Y624743D01*
X176154Y627137D01*
X176870Y629808D01*
Y632572D01*
X176154Y635243D01*
X174772Y637637D01*
X172817Y639592D01*
X170423Y640974D01*
X167752Y641690D01*
D02*
G37*
G36*
X2016340Y626360D02*
X1988440D01*
Y598460D01*
X2016340D01*
Y626360D01*
D02*
G37*
G36*
X1954226D02*
X1950553D01*
X1947005Y625410D01*
X1943824Y623573D01*
X1941227Y620976D01*
X1939391Y617795D01*
X1938440Y614247D01*
Y610574D01*
X1939391Y607026D01*
X1941227Y603845D01*
X1943824Y601247D01*
X1947005Y599411D01*
X1950553Y598460D01*
X1954226D01*
X1957774Y599411D01*
X1960955Y601247D01*
X1963553Y603845D01*
X1965389Y607026D01*
X1966340Y610574D01*
Y614247D01*
X1965389Y617795D01*
X1963553Y620976D01*
X1960955Y623573D01*
X1957774Y625410D01*
X1954226Y626360D01*
D02*
G37*
G36*
X2162390Y622550D02*
X2134490D01*
Y594650D01*
X2162390D01*
Y622550D01*
D02*
G37*
G36*
X2100276D02*
X2096603D01*
X2093055Y621600D01*
X2089874Y619763D01*
X2087277Y617166D01*
X2085441Y613985D01*
X2084490Y610437D01*
Y606764D01*
X2085441Y603216D01*
X2087277Y600035D01*
X2089874Y597438D01*
X2093055Y595601D01*
X2096603Y594650D01*
X2100276D01*
X2103824Y595601D01*
X2107005Y597438D01*
X2109603Y600035D01*
X2111439Y603216D01*
X2112390Y606764D01*
Y610437D01*
X2111439Y613985D01*
X2109603Y617166D01*
X2107005Y619763D01*
X2103824Y621600D01*
X2100276Y622550D01*
D02*
G37*
G36*
X722688Y684460D02*
X720032D01*
X717465Y683772D01*
X715165Y682444D01*
X713286Y680565D01*
X711958Y678265D01*
X711270Y675698D01*
Y673042D01*
X711958Y670475D01*
X713286Y668175D01*
X715165Y666296D01*
X716836Y665331D01*
X717005Y662931D01*
X716584Y661063D01*
X714804Y660325D01*
X712088Y658242D01*
X710005Y655526D01*
X708695Y652364D01*
X708248Y648970D01*
X708695Y645576D01*
X710005Y642414D01*
X712088Y639698D01*
X714804Y637615D01*
X717966Y636305D01*
X721360Y635858D01*
X754229D01*
X792298Y597788D01*
X795014Y595704D01*
X798176Y594395D01*
X801570Y593948D01*
X804964Y594395D01*
X808126Y595704D01*
X810842Y597788D01*
X812926Y600504D01*
X814236Y603666D01*
X814682Y607060D01*
X814236Y610454D01*
X812926Y613616D01*
X810842Y616332D01*
X768932Y658242D01*
X766216Y660325D01*
X763054Y661635D01*
X759660Y662082D01*
X759660Y662082D01*
X728257D01*
X727185Y666082D01*
X727555Y666296D01*
X729434Y668175D01*
X730762Y670475D01*
X731450Y673042D01*
Y675698D01*
X730762Y678265D01*
X729434Y680565D01*
X727555Y682444D01*
X725255Y683772D01*
X722688Y684460D01*
D02*
G37*
G36*
X294752Y565490D02*
X291988D01*
X289317Y564774D01*
X286923Y563392D01*
X284968Y561437D01*
X283586Y559043D01*
X282870Y556372D01*
Y553608D01*
X283586Y550937D01*
X284968Y548543D01*
X286923Y546588D01*
X289317Y545206D01*
X291988Y544490D01*
X294752D01*
X297423Y545206D01*
X299817Y546588D01*
X301772Y548543D01*
X303154Y550937D01*
X303870Y553608D01*
Y556372D01*
X303154Y559043D01*
X301772Y561437D01*
X299817Y563392D01*
X297423Y564774D01*
X294752Y565490D01*
D02*
G37*
G36*
X243952D02*
X241188D01*
X238517Y564774D01*
X236123Y563392D01*
X234168Y561437D01*
X232786Y559043D01*
X232070Y556372D01*
Y553608D01*
X232786Y550937D01*
X234168Y548543D01*
X236123Y546588D01*
X238517Y545206D01*
X241188Y544490D01*
X243952D01*
X246623Y545206D01*
X249017Y546588D01*
X250972Y548543D01*
X252354Y550937D01*
X253070Y553608D01*
Y556372D01*
X252354Y559043D01*
X250972Y561437D01*
X249017Y563392D01*
X246623Y564774D01*
X243952Y565490D01*
D02*
G37*
G36*
X722588Y496500D02*
X719932D01*
X717365Y495812D01*
X715064Y494484D01*
X713186Y492605D01*
X711858Y490305D01*
X711170Y487738D01*
Y485082D01*
X711858Y482515D01*
X713186Y480215D01*
X715064Y478336D01*
X717365Y477008D01*
X719932Y476320D01*
X722588D01*
X725154Y477008D01*
X727455Y478336D01*
X729334Y480215D01*
X730662Y482515D01*
X731350Y485082D01*
Y487738D01*
X730662Y490305D01*
X729334Y492605D01*
X727455Y494484D01*
X725154Y495812D01*
X722588Y496500D01*
D02*
G37*
G36*
X623671Y498049D02*
X620764D01*
X617956Y497297D01*
X615438Y495844D01*
X613383Y493788D01*
X611930Y491271D01*
X611177Y488463D01*
Y485556D01*
X611930Y482748D01*
X613383Y480231D01*
X615438Y478175D01*
X617956Y476722D01*
X620764Y475970D01*
X623671D01*
X626479Y476722D01*
X628996Y478175D01*
X631051Y480231D01*
X632505Y482748D01*
X633257Y485556D01*
Y488463D01*
X632505Y491271D01*
X631051Y493788D01*
X628996Y495844D01*
X626479Y497297D01*
X623671Y498049D01*
D02*
G37*
G36*
X2150277Y497550D02*
X2146604D01*
X2143056Y496600D01*
X2139875Y494763D01*
X2137277Y492166D01*
X2135441Y488985D01*
X2134490Y485437D01*
Y481764D01*
X2135441Y478216D01*
X2137277Y475035D01*
X2139875Y472438D01*
X2143056Y470601D01*
X2146604Y469650D01*
X2150277D01*
X2153825Y470601D01*
X2157006Y472438D01*
X2159603Y475035D01*
X2161440Y478216D01*
X2162390Y481764D01*
Y485437D01*
X2161440Y488985D01*
X2159603Y492166D01*
X2157006Y494763D01*
X2153825Y496600D01*
X2150277Y497550D01*
D02*
G37*
G36*
X722588Y471100D02*
X719932D01*
X717365Y470412D01*
X715064Y469084D01*
X713186Y467205D01*
X711858Y464905D01*
X711170Y462338D01*
Y459682D01*
X711858Y457115D01*
X713186Y454815D01*
X715064Y452936D01*
X717365Y451608D01*
X719932Y450920D01*
X722588D01*
X725154Y451608D01*
X727455Y452936D01*
X729334Y454815D01*
X730662Y457115D01*
X731350Y459682D01*
Y462338D01*
X730662Y464905D01*
X729334Y467205D01*
X727455Y469084D01*
X725154Y470412D01*
X722588Y471100D01*
D02*
G37*
G36*
X2162390Y441363D02*
X2134490D01*
Y413463D01*
X2162390D01*
Y441363D01*
D02*
G37*
G36*
X2100276D02*
X2096603D01*
X2093055Y440413D01*
X2089874Y438576D01*
X2087277Y435979D01*
X2085441Y432798D01*
X2084490Y429250D01*
Y425577D01*
X2085441Y422029D01*
X2087277Y418848D01*
X2089874Y416251D01*
X2093055Y414414D01*
X2096603Y413463D01*
X2100276D01*
X2103824Y414414D01*
X2107005Y416251D01*
X2109603Y418848D01*
X2111439Y422029D01*
X2112390Y425577D01*
Y429250D01*
X2111439Y432798D01*
X2109603Y435979D01*
X2107005Y438576D01*
X2103824Y440413D01*
X2100276Y441363D01*
D02*
G37*
G36*
X2016340D02*
X1988440D01*
Y413463D01*
X2016340D01*
Y441363D01*
D02*
G37*
G36*
X1954226D02*
X1950553D01*
X1947005Y440413D01*
X1943824Y438576D01*
X1941227Y435979D01*
X1939391Y432798D01*
X1938440Y429250D01*
Y425577D01*
X1939391Y422029D01*
X1941227Y418848D01*
X1943824Y416251D01*
X1947005Y414414D01*
X1950553Y413463D01*
X1954226D01*
X1957774Y414414D01*
X1960955Y416251D01*
X1963553Y418848D01*
X1965389Y422029D01*
X1966340Y425577D01*
Y429250D01*
X1965389Y432798D01*
X1963553Y435979D01*
X1960955Y438576D01*
X1957774Y440413D01*
X1954226Y441363D01*
D02*
G37*
G36*
X1867750D02*
X1839850D01*
Y413463D01*
X1867750D01*
Y441363D01*
D02*
G37*
G36*
X1805636D02*
X1801963D01*
X1798415Y440413D01*
X1795234Y438576D01*
X1792637Y435979D01*
X1790800Y432798D01*
X1789850Y429250D01*
Y425577D01*
X1790800Y422029D01*
X1792637Y418848D01*
X1795234Y416251D01*
X1798415Y414414D01*
X1801963Y413463D01*
X1805636D01*
X1809184Y414414D01*
X1812365Y416251D01*
X1814963Y418848D01*
X1816799Y422029D01*
X1817750Y425577D01*
Y429250D01*
X1816799Y432798D01*
X1814963Y435979D01*
X1812365Y438576D01*
X1809184Y440413D01*
X1805636Y441363D01*
D02*
G37*
G36*
X1722970D02*
X1695070D01*
Y413463D01*
X1722970D01*
Y441363D01*
D02*
G37*
G36*
X1660856D02*
X1657183D01*
X1653635Y440413D01*
X1650454Y438576D01*
X1647857Y435979D01*
X1646021Y432798D01*
X1645070Y429250D01*
Y425577D01*
X1646021Y422029D01*
X1647857Y418848D01*
X1650454Y416251D01*
X1653635Y414414D01*
X1657183Y413463D01*
X1660856D01*
X1664404Y414414D01*
X1667585Y416251D01*
X1670183Y418848D01*
X1672019Y422029D01*
X1672970Y425577D01*
Y429250D01*
X1672019Y432798D01*
X1670183Y435979D01*
X1667585Y438576D01*
X1664404Y440413D01*
X1660856Y441363D01*
D02*
G37*
G36*
X1521443Y417440D02*
X1518536D01*
X1515729Y416688D01*
X1513211Y415234D01*
X1511156Y413179D01*
X1509702Y410661D01*
X1508950Y407853D01*
Y404947D01*
X1509702Y402139D01*
X1511156Y399621D01*
X1513211Y397566D01*
X1515729Y396112D01*
X1518536Y395360D01*
X1521443D01*
X1524251Y396112D01*
X1526769Y397566D01*
X1528824Y399621D01*
X1530278Y402139D01*
X1531030Y404947D01*
Y407853D01*
X1530278Y410661D01*
X1528824Y413179D01*
X1526769Y415234D01*
X1524251Y416688D01*
X1521443Y417440D01*
D02*
G37*
G36*
X623671Y412959D02*
X620764D01*
X617956Y412207D01*
X615438Y410754D01*
X613383Y408698D01*
X611930Y406181D01*
X611177Y403373D01*
Y400466D01*
X611930Y397658D01*
X613383Y395141D01*
X615438Y393085D01*
X617956Y391632D01*
X620764Y390880D01*
X623671D01*
X626479Y391632D01*
X628996Y393085D01*
X631051Y395141D01*
X632505Y397658D01*
X633257Y400466D01*
Y403373D01*
X632505Y406181D01*
X631051Y408698D01*
X628996Y410754D01*
X626479Y412207D01*
X623671Y412959D01*
D02*
G37*
G36*
X719003Y395650D02*
X716097D01*
X713289Y394897D01*
X710771Y393444D01*
X708716Y391389D01*
X707262Y388871D01*
X706510Y386063D01*
Y383156D01*
X707262Y380349D01*
X708716Y377831D01*
X710771Y375776D01*
X713289Y374322D01*
X716097Y373570D01*
X719003D01*
X721811Y374322D01*
X724329Y375776D01*
X726384Y377831D01*
X727838Y380349D01*
X728590Y383156D01*
Y386063D01*
X727838Y388871D01*
X726384Y391389D01*
X724329Y393444D01*
X721811Y394897D01*
X719003Y395650D01*
D02*
G37*
G36*
X314943Y336160D02*
X312036D01*
X309229Y335408D01*
X306711Y333954D01*
X304656Y331899D01*
X303202Y329381D01*
X302450Y326573D01*
Y323667D01*
X303202Y320859D01*
X304656Y318341D01*
X306711Y316286D01*
X309229Y314832D01*
X312036Y314080D01*
X314943D01*
X317751Y314832D01*
X320269Y316286D01*
X322324Y318341D01*
X323778Y320859D01*
X324530Y323667D01*
Y326573D01*
X323778Y329381D01*
X322324Y331899D01*
X320269Y333954D01*
X317751Y335408D01*
X314943Y336160D01*
D02*
G37*
G36*
X1454151Y316050D02*
X1451609D01*
X1449155Y315392D01*
X1446955Y314122D01*
X1445158Y312325D01*
X1443888Y310124D01*
X1443230Y307670D01*
Y305129D01*
X1443888Y302675D01*
X1445158Y300474D01*
X1446955Y298678D01*
X1449155Y297407D01*
X1451609Y296750D01*
X1454151D01*
X1456605Y297407D01*
X1458805Y298678D01*
X1460602Y300474D01*
X1461872Y302675D01*
X1462530Y305129D01*
Y307670D01*
X1461872Y310124D01*
X1460602Y312325D01*
X1458805Y314122D01*
X1456605Y315392D01*
X1454151Y316050D01*
D02*
G37*
G36*
X1428750D02*
X1426210D01*
X1423755Y315392D01*
X1421555Y314122D01*
X1419758Y312325D01*
X1418488Y310124D01*
X1417830Y307670D01*
Y305129D01*
X1418488Y302675D01*
X1419758Y300474D01*
X1421555Y298678D01*
X1423755Y297407D01*
X1426210Y296750D01*
X1428750D01*
X1431205Y297407D01*
X1433405Y298678D01*
X1435202Y300474D01*
X1436472Y302675D01*
X1437130Y305129D01*
Y307670D01*
X1436472Y310124D01*
X1435202Y312325D01*
X1433405Y314122D01*
X1431205Y315392D01*
X1428750Y316050D01*
D02*
G37*
G36*
X1403351D02*
X1400809D01*
X1398355Y315392D01*
X1396155Y314122D01*
X1394358Y312325D01*
X1393088Y310124D01*
X1392430Y307670D01*
Y305129D01*
X1393088Y302675D01*
X1394358Y300474D01*
X1396155Y298678D01*
X1398355Y297407D01*
X1400809Y296750D01*
X1403351D01*
X1405805Y297407D01*
X1408005Y298678D01*
X1409802Y300474D01*
X1411072Y302675D01*
X1411730Y305129D01*
Y307670D01*
X1411072Y310124D01*
X1409802Y312325D01*
X1408005Y314122D01*
X1405805Y315392D01*
X1403351Y316050D01*
D02*
G37*
G36*
X1377950D02*
X1375410D01*
X1372955Y315392D01*
X1370755Y314122D01*
X1368958Y312325D01*
X1367688Y310124D01*
X1367030Y307670D01*
Y305129D01*
X1367688Y302675D01*
X1368958Y300474D01*
X1370755Y298678D01*
X1372955Y297407D01*
X1375410Y296750D01*
X1377950D01*
X1380405Y297407D01*
X1382605Y298678D01*
X1384402Y300474D01*
X1385672Y302675D01*
X1386330Y305129D01*
Y307670D01*
X1385672Y310124D01*
X1384402Y312325D01*
X1382605Y314122D01*
X1380405Y315392D01*
X1377950Y316050D01*
D02*
G37*
G36*
X1352551D02*
X1350009D01*
X1347555Y315392D01*
X1345355Y314122D01*
X1343558Y312325D01*
X1342288Y310124D01*
X1341630Y307670D01*
Y305129D01*
X1342288Y302675D01*
X1343558Y300474D01*
X1345355Y298678D01*
X1347555Y297407D01*
X1350009Y296750D01*
X1352551D01*
X1355005Y297407D01*
X1357205Y298678D01*
X1359002Y300474D01*
X1360272Y302675D01*
X1360930Y305129D01*
Y307670D01*
X1360272Y310124D01*
X1359002Y312325D01*
X1357205Y314122D01*
X1355005Y315392D01*
X1352551Y316050D01*
D02*
G37*
G36*
X149860Y291242D02*
X149860Y291242D01*
X114920D01*
X114920Y291242D01*
X111526Y290795D01*
X108364Y289485D01*
X105648Y287402D01*
X96277Y278030D01*
X90920D01*
Y271201D01*
X90205Y269474D01*
X89758Y266080D01*
X90205Y262687D01*
X90920Y260959D01*
Y254130D01*
X97749D01*
X99476Y253415D01*
X102870Y252968D01*
X106264Y253415D01*
X107991Y254130D01*
X114820D01*
Y259487D01*
X120351Y265018D01*
X144429D01*
X157098Y252348D01*
X159814Y250264D01*
X162976Y248955D01*
X166370Y248508D01*
X169764Y248955D01*
X172926Y250264D01*
X175642Y252348D01*
X177726Y255064D01*
X179035Y258226D01*
X179482Y261620D01*
X179035Y265014D01*
X177726Y268176D01*
X175642Y270892D01*
X159132Y287402D01*
X156416Y289485D01*
X153254Y290795D01*
X149860Y291242D01*
D02*
G37*
G36*
X2150277Y316363D02*
X2146604D01*
X2143056Y315413D01*
X2139875Y313576D01*
X2137277Y310979D01*
X2135441Y307798D01*
X2134490Y304250D01*
Y300577D01*
X2135441Y297029D01*
X2137277Y293848D01*
X2139875Y291251D01*
X2143056Y289414D01*
X2146604Y288463D01*
X2150277D01*
X2153825Y289414D01*
X2157006Y291251D01*
X2159603Y293848D01*
X2161440Y297029D01*
X2162390Y300577D01*
Y304250D01*
X2161440Y307798D01*
X2159603Y310979D01*
X2157006Y313576D01*
X2153825Y315413D01*
X2150277Y316363D01*
D02*
G37*
G36*
X1622363Y418876D02*
X1618677D01*
X1615116Y417922D01*
X1611924Y416079D01*
X1609317Y413472D01*
X1607474Y410280D01*
X1606520Y406719D01*
Y403033D01*
X1607474Y399472D01*
X1609317Y396280D01*
X1611924Y393673D01*
X1614895Y391958D01*
X1645908Y360945D01*
Y307377D01*
X1645070Y304250D01*
Y300577D01*
X1646021Y297029D01*
X1647857Y293848D01*
X1650454Y291251D01*
X1653258Y289632D01*
X1668189Y274700D01*
X1668190Y274700D01*
X1670905Y272617D01*
X1674068Y271307D01*
X1677461Y270860D01*
X1677461Y270860D01*
X1785358D01*
X1785358Y270860D01*
X1788752Y271307D01*
X1791915Y272617D01*
X1794630Y274700D01*
X1803800Y283870D01*
X1812969Y274700D01*
X1812970Y274700D01*
X1815685Y272617D01*
X1818848Y271307D01*
X1822241Y270860D01*
X1822241Y270860D01*
X1933948D01*
X1933948Y270860D01*
X1937342Y271307D01*
X1940504Y272617D01*
X1943220Y274700D01*
X1952390Y283870D01*
X1961559Y274700D01*
X1961559Y274700D01*
X1964275Y272617D01*
X1967437Y271307D01*
X1970831Y270860D01*
X1970831Y270860D01*
X2079998D01*
X2079998Y270860D01*
X2083392Y271307D01*
X2086555Y272617D01*
X2089270Y274700D01*
X2104202Y289632D01*
X2107005Y291251D01*
X2109603Y293848D01*
X2111439Y297029D01*
X2112390Y300577D01*
Y304250D01*
X2111439Y307798D01*
X2109603Y310979D01*
X2107005Y313576D01*
X2103824Y315413D01*
X2100276Y316363D01*
X2096603D01*
X2093055Y315413D01*
X2089874Y313576D01*
X2087277Y310979D01*
X2085659Y308176D01*
X2074567Y297084D01*
X2018690D01*
X2016255Y300258D01*
X2016340Y300577D01*
Y304250D01*
X2015390Y307798D01*
X2013553Y310979D01*
X2010956Y313576D01*
X2007775Y315413D01*
X2004227Y316363D01*
X2000554D01*
X1997006Y315413D01*
X1993825Y313576D01*
X1991227Y310979D01*
X1989391Y307798D01*
X1988440Y304250D01*
Y300577D01*
X1988526Y300258D01*
X1986091Y297084D01*
X1976262D01*
X1965171Y308176D01*
X1963553Y310979D01*
X1960955Y313576D01*
X1957774Y315413D01*
X1954226Y316363D01*
X1950553D01*
X1947005Y315413D01*
X1943824Y313576D01*
X1941227Y310979D01*
X1939608Y308176D01*
X1928517Y297084D01*
X1870100D01*
X1867665Y300258D01*
X1867750Y300577D01*
Y304250D01*
X1866799Y307798D01*
X1864963Y310979D01*
X1862366Y313576D01*
X1859185Y315413D01*
X1855637Y316363D01*
X1851964D01*
X1848416Y315413D01*
X1845235Y313576D01*
X1842637Y310979D01*
X1840801Y307798D01*
X1839850Y304250D01*
Y300577D01*
X1839936Y300258D01*
X1837501Y297084D01*
X1827672D01*
X1816581Y308176D01*
X1814963Y310979D01*
X1812365Y313576D01*
X1809184Y315413D01*
X1805636Y316363D01*
X1801963D01*
X1798415Y315413D01*
X1795234Y313576D01*
X1792637Y310979D01*
X1791019Y308176D01*
X1779927Y297084D01*
X1725320D01*
X1722885Y300258D01*
X1722970Y300577D01*
Y304250D01*
X1722020Y307798D01*
X1720183Y310979D01*
X1717586Y313576D01*
X1714405Y315413D01*
X1710857Y316363D01*
X1707184D01*
X1703636Y315413D01*
X1700455Y313576D01*
X1697857Y310979D01*
X1696021Y307798D01*
X1695070Y304250D01*
Y300577D01*
X1695156Y300258D01*
X1692721Y297084D01*
X1682892D01*
X1672132Y307845D01*
Y366376D01*
X1672132Y366376D01*
X1671685Y369770D01*
X1670375Y372932D01*
X1668291Y375648D01*
X1633438Y410502D01*
X1631723Y413472D01*
X1629116Y416079D01*
X1625924Y417922D01*
X1622363Y418876D01*
D02*
G37*
G36*
X345552Y272120D02*
X342788D01*
X340117Y271404D01*
X337723Y270022D01*
X335768Y268067D01*
X334386Y265673D01*
X333670Y263002D01*
Y260238D01*
X334386Y257567D01*
X335768Y255173D01*
X337723Y253218D01*
X340117Y251836D01*
X342788Y251120D01*
X345552D01*
X348223Y251836D01*
X350617Y253218D01*
X352572Y255173D01*
X353954Y257567D01*
X354670Y260238D01*
Y263002D01*
X353954Y265673D01*
X352572Y268067D01*
X350617Y270022D01*
X348223Y271404D01*
X345552Y272120D01*
D02*
G37*
G36*
X294752D02*
X291988D01*
X289317Y271404D01*
X286923Y270022D01*
X284968Y268067D01*
X283586Y265673D01*
X282870Y263002D01*
Y260238D01*
X283586Y257567D01*
X284968Y255173D01*
X286923Y253218D01*
X289317Y251836D01*
X291988Y251120D01*
X294752D01*
X297423Y251836D01*
X299817Y253218D01*
X301772Y255173D01*
X303154Y257567D01*
X303870Y260238D01*
Y263002D01*
X303154Y265673D01*
X301772Y268067D01*
X299817Y270022D01*
X297423Y271404D01*
X294752Y272120D01*
D02*
G37*
G36*
X243952D02*
X241188D01*
X238517Y271404D01*
X236123Y270022D01*
X234168Y268067D01*
X232786Y265673D01*
X232070Y263002D01*
Y260238D01*
X232786Y257567D01*
X234168Y255173D01*
X236123Y253218D01*
X238517Y251836D01*
X241188Y251120D01*
X243952D01*
X246623Y251836D01*
X249017Y253218D01*
X250972Y255173D01*
X252354Y257567D01*
X253070Y260238D01*
Y263002D01*
X252354Y265673D01*
X250972Y268067D01*
X249017Y270022D01*
X246623Y271404D01*
X243952Y272120D01*
D02*
G37*
G36*
X2162390Y255520D02*
X2134490D01*
Y227620D01*
X2162390D01*
Y255520D01*
D02*
G37*
G36*
X2100276D02*
X2096603D01*
X2093055Y254570D01*
X2089874Y252733D01*
X2087277Y250136D01*
X2085441Y246955D01*
X2084490Y243407D01*
Y239734D01*
X2085441Y236186D01*
X2087277Y233005D01*
X2089874Y230408D01*
X2093055Y228571D01*
X2096603Y227620D01*
X2100276D01*
X2103824Y228571D01*
X2107005Y230408D01*
X2109603Y233005D01*
X2111439Y236186D01*
X2112390Y239734D01*
Y243407D01*
X2111439Y246955D01*
X2109603Y250136D01*
X2107005Y252733D01*
X2103824Y254570D01*
X2100276Y255520D01*
D02*
G37*
G36*
X2016340D02*
X1988440D01*
Y227620D01*
X2016340D01*
Y255520D01*
D02*
G37*
G36*
X1954226D02*
X1950553D01*
X1947005Y254570D01*
X1943824Y252733D01*
X1941227Y250136D01*
X1939391Y246955D01*
X1938440Y243407D01*
Y239734D01*
X1939391Y236186D01*
X1941227Y233005D01*
X1943824Y230408D01*
X1947005Y228571D01*
X1950553Y227620D01*
X1954226D01*
X1957774Y228571D01*
X1960955Y230408D01*
X1963553Y233005D01*
X1965389Y236186D01*
X1966340Y239734D01*
Y243407D01*
X1965389Y246955D01*
X1963553Y250136D01*
X1960955Y252733D01*
X1957774Y254570D01*
X1954226Y255520D01*
D02*
G37*
G36*
X1867750D02*
X1839850D01*
Y227620D01*
X1867750D01*
Y255520D01*
D02*
G37*
G36*
X1805636D02*
X1801963D01*
X1798415Y254570D01*
X1795234Y252733D01*
X1792637Y250136D01*
X1790800Y246955D01*
X1789850Y243407D01*
Y239734D01*
X1790800Y236186D01*
X1792637Y233005D01*
X1795234Y230408D01*
X1798415Y228571D01*
X1801963Y227620D01*
X1805636D01*
X1809184Y228571D01*
X1812365Y230408D01*
X1814963Y233005D01*
X1816799Y236186D01*
X1817750Y239734D01*
Y243407D01*
X1816799Y246955D01*
X1814963Y250136D01*
X1812365Y252733D01*
X1809184Y254570D01*
X1805636Y255520D01*
D02*
G37*
G36*
X1722970D02*
X1695070D01*
Y227620D01*
X1722970D01*
Y255520D01*
D02*
G37*
G36*
X1660856D02*
X1657183D01*
X1653635Y254570D01*
X1650454Y252733D01*
X1647857Y250136D01*
X1646021Y246955D01*
X1645070Y243407D01*
Y239734D01*
X1646021Y236186D01*
X1647857Y233005D01*
X1650454Y230408D01*
X1653635Y228571D01*
X1657183Y227620D01*
X1660856D01*
X1664404Y228571D01*
X1667585Y230408D01*
X1670183Y233005D01*
X1672019Y236186D01*
X1672970Y239734D01*
Y243407D01*
X1672019Y246955D01*
X1670183Y250136D01*
X1667585Y252733D01*
X1664404Y254570D01*
X1660856Y255520D01*
D02*
G37*
G36*
X345552Y195920D02*
X342788D01*
X340117Y195204D01*
X337723Y193822D01*
X335768Y191867D01*
X334386Y189473D01*
X333670Y186802D01*
Y184038D01*
X334386Y181367D01*
X335768Y178973D01*
X337723Y177018D01*
X340117Y175636D01*
X342788Y174920D01*
X345552D01*
X348223Y175636D01*
X350617Y177018D01*
X352572Y178973D01*
X353954Y181367D01*
X354670Y184038D01*
Y186802D01*
X353954Y189473D01*
X352572Y191867D01*
X350617Y193822D01*
X348223Y195204D01*
X345552Y195920D01*
D02*
G37*
G36*
X294752D02*
X291988D01*
X289317Y195204D01*
X286923Y193822D01*
X284968Y191867D01*
X283586Y189473D01*
X282870Y186802D01*
Y184038D01*
X283586Y181367D01*
X284968Y178973D01*
X286923Y177018D01*
X289317Y175636D01*
X291988Y174920D01*
X294752D01*
X297423Y175636D01*
X299817Y177018D01*
X301772Y178973D01*
X303154Y181367D01*
X303870Y184038D01*
Y186802D01*
X303154Y189473D01*
X301772Y191867D01*
X299817Y193822D01*
X297423Y195204D01*
X294752Y195920D01*
D02*
G37*
G36*
X243952D02*
X241188D01*
X238517Y195204D01*
X236123Y193822D01*
X234168Y191867D01*
X232786Y189473D01*
X232070Y186802D01*
Y184038D01*
X232786Y181367D01*
X234168Y178973D01*
X236123Y177018D01*
X238517Y175636D01*
X241188Y174920D01*
X243952D01*
X246623Y175636D01*
X249017Y177018D01*
X250972Y178973D01*
X252354Y181367D01*
X253070Y184038D01*
Y186802D01*
X252354Y189473D01*
X250972Y191867D01*
X249017Y193822D01*
X246623Y195204D01*
X243952Y195920D01*
D02*
G37*
G36*
X166370Y198532D02*
X135890D01*
X132496Y198085D01*
X129334Y196775D01*
X126618Y194692D01*
X126618Y194692D01*
X120268Y188342D01*
X118184Y185626D01*
X116875Y182464D01*
X116428Y179070D01*
X116428Y179070D01*
Y176304D01*
X115897Y175510D01*
X112428Y173141D01*
X111760Y173229D01*
X109358Y172913D01*
X107120Y171986D01*
X105268Y170564D01*
X105178Y170510D01*
X101573Y170247D01*
X100541Y170511D01*
X98620Y171986D01*
X96382Y172913D01*
X93980Y173229D01*
X91578Y172913D01*
X89340Y171986D01*
X87418Y170511D01*
X85944Y168590D01*
X85017Y166352D01*
X84701Y163950D01*
Y153550D01*
X85017Y151148D01*
X85944Y148910D01*
X87418Y146988D01*
X89340Y145514D01*
X91578Y144587D01*
X93980Y144271D01*
X94648Y144359D01*
X98117Y141990D01*
X98648Y141196D01*
Y137160D01*
X98648Y137160D01*
X99095Y133766D01*
X100405Y130604D01*
X102488Y127888D01*
X121538Y108838D01*
X121538Y108838D01*
X124254Y106755D01*
X127416Y105445D01*
X130810Y104998D01*
X161490D01*
X164884Y105445D01*
X168046Y106755D01*
X170762Y108838D01*
X172846Y111554D01*
X174156Y114716D01*
X174602Y118110D01*
X174156Y121504D01*
X172846Y124666D01*
X170762Y127382D01*
X168046Y129466D01*
X164884Y130775D01*
X161490Y131222D01*
X136241D01*
X126877Y140587D01*
X128699Y144282D01*
X128872Y144359D01*
X129540Y144271D01*
X131942Y144587D01*
X134180Y145514D01*
X136102Y146988D01*
X136867Y147986D01*
X138812Y149478D01*
X140896Y152194D01*
X142205Y155356D01*
X142652Y158750D01*
Y172308D01*
X166370D01*
X169764Y172755D01*
X172926Y174065D01*
X175642Y176148D01*
X177726Y178864D01*
X179035Y182026D01*
X179482Y185420D01*
X179035Y188814D01*
X177726Y191976D01*
X175642Y194692D01*
X172926Y196775D01*
X169764Y198085D01*
X166370Y198532D01*
D02*
G37*
G36*
X2100276Y130520D02*
X2096603D01*
X2093055Y129570D01*
X2089874Y127733D01*
X2087277Y125136D01*
X2085659Y122332D01*
X2074736Y111410D01*
X2018735D01*
X2016300Y114584D01*
X2016340Y114734D01*
Y118407D01*
X2015390Y121955D01*
X2013553Y125136D01*
X2010956Y127733D01*
X2007775Y129570D01*
X2004227Y130520D01*
X2000554D01*
X1997006Y129570D01*
X1993825Y127733D01*
X1991227Y125136D01*
X1989391Y121955D01*
X1988440Y118407D01*
Y114734D01*
X1988481Y114584D01*
X1986045Y111410D01*
X1976093D01*
X1965171Y122332D01*
X1963553Y125136D01*
X1960955Y127733D01*
X1957774Y129570D01*
X1954226Y130520D01*
X1950553D01*
X1947005Y129570D01*
X1943824Y127733D01*
X1941227Y125136D01*
X1939608Y122332D01*
X1928686Y111410D01*
X1870145D01*
X1867710Y114584D01*
X1867750Y114734D01*
Y118407D01*
X1866799Y121955D01*
X1864963Y125136D01*
X1862366Y127733D01*
X1859185Y129570D01*
X1855637Y130520D01*
X1851964D01*
X1848416Y129570D01*
X1845235Y127733D01*
X1842637Y125136D01*
X1840801Y121955D01*
X1839850Y118407D01*
Y114734D01*
X1839890Y114584D01*
X1837455Y111410D01*
X1827503D01*
X1816581Y122332D01*
X1814963Y125136D01*
X1812365Y127733D01*
X1809184Y129570D01*
X1805636Y130520D01*
X1801963D01*
X1798415Y129570D01*
X1795234Y127733D01*
X1792637Y125136D01*
X1791019Y122332D01*
X1780096Y111410D01*
X1725365D01*
X1722930Y114584D01*
X1722970Y114734D01*
Y118407D01*
X1722020Y121955D01*
X1720183Y125136D01*
X1717586Y127733D01*
X1714405Y129570D01*
X1710857Y130520D01*
X1707184D01*
X1703636Y129570D01*
X1700455Y127733D01*
X1697857Y125136D01*
X1696021Y121955D01*
X1695070Y118407D01*
Y114734D01*
X1695110Y114584D01*
X1692675Y111410D01*
X1682723D01*
X1671801Y122332D01*
X1670183Y125136D01*
X1667585Y127733D01*
X1664404Y129570D01*
X1660856Y130520D01*
X1657183D01*
X1653635Y129570D01*
X1650454Y127733D01*
X1647857Y125136D01*
X1646021Y121955D01*
X1645070Y118407D01*
Y114734D01*
X1646021Y111186D01*
X1647857Y108005D01*
X1650454Y105407D01*
X1653258Y103789D01*
X1668020Y89026D01*
X1670736Y86943D01*
X1673898Y85633D01*
X1677292Y85186D01*
X1677292Y85186D01*
X1785527D01*
X1785527Y85186D01*
X1788921Y85633D01*
X1792084Y86943D01*
X1794799Y89026D01*
X1803800Y98027D01*
X1812800Y89026D01*
X1815516Y86943D01*
X1818678Y85633D01*
X1822072Y85186D01*
X1822072Y85186D01*
X1934117D01*
X1934117Y85186D01*
X1937511Y85633D01*
X1940674Y86943D01*
X1943389Y89026D01*
X1952390Y98027D01*
X1961390Y89026D01*
X1964106Y86943D01*
X1967268Y85633D01*
X1970662Y85186D01*
X1970662Y85186D01*
X2080167D01*
X2080168Y85186D01*
X2083561Y85633D01*
X2086724Y86943D01*
X2089439Y89026D01*
X2104202Y103789D01*
X2107005Y105407D01*
X2109603Y108005D01*
X2111439Y111186D01*
X2112390Y114734D01*
Y118407D01*
X2111439Y121955D01*
X2109603Y125136D01*
X2107005Y127733D01*
X2103824Y129570D01*
X2100276Y130520D01*
D02*
G37*
G36*
X1497930Y137572D02*
X1494536Y137125D01*
X1491374Y135815D01*
X1488658Y133732D01*
X1459479Y104552D01*
X1373492D01*
X1348260Y129783D01*
Y135140D01*
X1341431D01*
X1339704Y135855D01*
X1336310Y136302D01*
X1332917Y135855D01*
X1331190Y135140D01*
X1324360D01*
Y128311D01*
X1323645Y126584D01*
X1323198Y123190D01*
X1323645Y119796D01*
X1324360Y118069D01*
Y111240D01*
X1329717D01*
X1358788Y82168D01*
X1361504Y80084D01*
X1364667Y78775D01*
X1368060Y78328D01*
X1368060Y78328D01*
X1464910D01*
X1464910Y78328D01*
X1468304Y78775D01*
X1471466Y80084D01*
X1474182Y82168D01*
X1507202Y115188D01*
X1509285Y117904D01*
X1510595Y121066D01*
X1511042Y124460D01*
X1510595Y127854D01*
X1509285Y131016D01*
X1507202Y133732D01*
X1504486Y135815D01*
X1501324Y137125D01*
X1497930Y137572D01*
D02*
G37*
G36*
X61096Y87340D02*
X55744D01*
X50458Y86503D01*
X45368Y84849D01*
X40600Y82419D01*
X36270Y79274D01*
X32486Y75490D01*
X29341Y71160D01*
X26911Y66392D01*
X25257Y61302D01*
X24420Y56016D01*
Y50664D01*
X25257Y45378D01*
X26911Y40289D01*
X29341Y35520D01*
X32486Y31191D01*
X36270Y27406D01*
X40600Y24261D01*
X45368Y21831D01*
X50458Y20177D01*
X55744Y19340D01*
X61096D01*
X66382Y20177D01*
X71472Y21831D01*
X76240Y24261D01*
X80569Y27406D01*
X84354Y31191D01*
X87499Y35520D01*
X89929Y40289D01*
X91583Y45378D01*
X92420Y50664D01*
Y56016D01*
X91583Y61302D01*
X89929Y66392D01*
X87499Y71160D01*
X84354Y75490D01*
X80569Y79274D01*
X76240Y82419D01*
X71472Y84849D01*
X66382Y86503D01*
X61096Y87340D01*
D02*
G37*
%LPD*%
G36*
X2156187Y1194579D02*
X2154319Y1190791D01*
X2153412Y1190910D01*
X2153412Y1190910D01*
X1969139D01*
X1966830Y1194910D01*
X1967322Y1195762D01*
X1968276Y1199323D01*
Y1203009D01*
X1967322Y1206570D01*
X1965479Y1209762D01*
X1962872Y1212369D01*
X1959680Y1214212D01*
X1956119Y1215166D01*
X1952433D01*
X1949119Y1214278D01*
X1780338D01*
X1778807Y1217974D01*
X1835501Y1274668D01*
X2076099D01*
X2156187Y1194579D01*
D02*
G37*
G36*
X2159770Y1152896D02*
X2159768Y1152865D01*
X2158010Y1149000D01*
X2081276D01*
X2081276Y1149000D01*
X2077882Y1148553D01*
X2074720Y1147243D01*
X2074231Y1146869D01*
X2072540Y1147205D01*
X2070495Y1149250D01*
X2067990Y1150696D01*
X2065196Y1151445D01*
X2062304D01*
X2059510Y1150696D01*
X2057005Y1149250D01*
X2054960Y1147205D01*
X2053514Y1144700D01*
X2053121Y1143233D01*
X2048979D01*
X2048586Y1144700D01*
X2047140Y1147205D01*
X2045095Y1149250D01*
X2042590Y1150696D01*
X2039796Y1151445D01*
X2036904D01*
X2034110Y1150696D01*
X2031605Y1149250D01*
X2029560Y1147205D01*
X2028114Y1144700D01*
X2027721Y1143233D01*
X2023579D01*
X2023186Y1144700D01*
X2021740Y1147205D01*
X2019695Y1149250D01*
X2017190Y1150696D01*
X2014396Y1151445D01*
X2011504D01*
X2008710Y1150696D01*
X2006205Y1149250D01*
X2004160Y1147205D01*
X2002714Y1144700D01*
X2002321Y1143233D01*
X1998179D01*
X1997786Y1144700D01*
X1996340Y1147205D01*
X1994295Y1149250D01*
X1991790Y1150696D01*
X1988996Y1151445D01*
X1986104D01*
X1983310Y1150696D01*
X1980805Y1149250D01*
X1978760Y1147205D01*
X1977314Y1144700D01*
X1976921Y1143233D01*
X1972779D01*
X1972386Y1144700D01*
X1970940Y1147205D01*
X1968895Y1149250D01*
X1966390Y1150696D01*
X1963596Y1151445D01*
X1960704D01*
X1957910Y1150696D01*
X1955405Y1149250D01*
X1953360Y1147205D01*
X1951914Y1144700D01*
X1951521Y1143233D01*
X1947379D01*
X1946986Y1144700D01*
X1945540Y1147205D01*
X1943495Y1149250D01*
X1940990Y1150696D01*
X1938196Y1151445D01*
X1935304D01*
X1932510Y1150696D01*
X1930005Y1149250D01*
X1927960Y1147205D01*
X1926514Y1144700D01*
X1926121Y1143233D01*
X1921979D01*
X1921586Y1144700D01*
X1920140Y1147205D01*
X1918095Y1149250D01*
X1915590Y1150696D01*
X1912796Y1151445D01*
X1909904D01*
X1907110Y1150696D01*
X1904605Y1149250D01*
X1902560Y1147205D01*
X1901114Y1144700D01*
X1900721Y1143233D01*
X1896579D01*
X1896186Y1144700D01*
X1894740Y1147205D01*
X1892695Y1149250D01*
X1890190Y1150696D01*
X1887396Y1151445D01*
X1884504D01*
X1881710Y1150696D01*
X1879205Y1149250D01*
X1877160Y1147205D01*
X1875714Y1144700D01*
X1875321Y1143233D01*
X1871179D01*
X1870786Y1144700D01*
X1869340Y1147205D01*
X1867295Y1149250D01*
X1864790Y1150696D01*
X1861996Y1151445D01*
X1859104D01*
X1856310Y1150696D01*
X1853805Y1149250D01*
X1851760Y1147205D01*
X1851176Y1146193D01*
X1846798Y1146310D01*
X1846505Y1147016D01*
X1844422Y1149732D01*
X1833163Y1160990D01*
X1834694Y1164686D01*
X2147981D01*
X2159770Y1152896D01*
D02*
G37*
G36*
X2159563Y1117289D02*
X2159754Y1116828D01*
X2160965Y1115250D01*
X2161295Y1114454D01*
X2163378Y1111739D01*
X2166094Y1109655D01*
X2169256Y1108345D01*
X2172650Y1107898D01*
X2176044Y1108345D01*
X2178718Y1109453D01*
X2180538Y1108764D01*
X2182718Y1107308D01*
Y1095984D01*
X2178718Y1094328D01*
X2175638Y1097408D01*
X2172922Y1099492D01*
X2169760Y1100801D01*
X2166366Y1101248D01*
X2166366Y1101248D01*
X1842105D01*
X1835195Y1108158D01*
X1836726Y1111854D01*
X2070354D01*
X2070354Y1111854D01*
X2073748Y1112301D01*
X2076910Y1113611D01*
X2079626Y1115694D01*
X2086707Y1122776D01*
X2121820D01*
X2122110Y1122398D01*
Y1119623D01*
X2122828Y1116942D01*
X2124216Y1114538D01*
X2126178Y1112576D01*
X2128582Y1111189D01*
X2131262Y1110470D01*
X2134038D01*
X2136718Y1111189D01*
X2139122Y1112576D01*
X2141084Y1114538D01*
X2142472Y1116942D01*
X2143190Y1119623D01*
Y1122398D01*
X2143480Y1122776D01*
X2154077D01*
X2159563Y1117289D01*
D02*
G37*
G36*
X1773275Y1132806D02*
X1774060Y1132515D01*
X1775078Y1131188D01*
X1827402Y1078864D01*
X1830118Y1076780D01*
X1833280Y1075471D01*
X1836674Y1075024D01*
X1836674Y1075024D01*
X2120095D01*
X2122110Y1072397D01*
Y1069622D01*
X2118785Y1066577D01*
X1692408D01*
X1691336Y1070577D01*
X1691346Y1070583D01*
X1693953Y1073190D01*
X1695796Y1076382D01*
X1696750Y1079943D01*
Y1083629D01*
X1695796Y1087190D01*
X1693953Y1090382D01*
X1691346Y1092989D01*
X1688154Y1094832D01*
X1684593Y1095786D01*
X1680907D01*
X1677593Y1094898D01*
X1605631D01*
X1599151Y1101378D01*
X1600808Y1105378D01*
X1601535D01*
X1604849Y1106266D01*
X1737868D01*
X1737868Y1106266D01*
X1741262Y1106713D01*
X1744424Y1108023D01*
X1747140Y1110106D01*
X1768222Y1131188D01*
X1769240Y1132515D01*
X1770025Y1132806D01*
X1773275D01*
D02*
G37*
G36*
X1095096Y1075088D02*
X1094926Y1074832D01*
X1079500D01*
X1079500Y1074832D01*
X1076106Y1074385D01*
X1072944Y1073075D01*
X1070228Y1070992D01*
X1070228Y1070992D01*
X984043Y984806D01*
X925420D01*
X919115Y991112D01*
X916399Y993195D01*
X913236Y994505D01*
X909843Y994952D01*
X909843Y994952D01*
X690414D01*
X688883Y998648D01*
X710762Y1020526D01*
X732790D01*
X736599Y1020901D01*
X740262Y1022012D01*
X743637Y1023817D01*
X746596Y1026245D01*
X749024Y1029203D01*
X750828Y1032579D01*
X751939Y1036241D01*
X752314Y1040050D01*
X751939Y1043859D01*
X750828Y1047522D01*
X749024Y1050897D01*
X746596Y1053856D01*
X743637Y1056284D01*
X740262Y1058088D01*
X736599Y1059199D01*
X732790Y1059574D01*
X717076D01*
X715545Y1063270D01*
X731363Y1079088D01*
X1092958D01*
X1095096Y1075088D01*
D02*
G37*
G36*
X1262476Y1068481D02*
X1262476Y1068481D01*
X1265191Y1066397D01*
X1268354Y1065087D01*
X1271748Y1064640D01*
X1288045D01*
X1289702Y1060640D01*
X1289305Y1060244D01*
X1287852Y1057726D01*
X1287100Y1054918D01*
Y1052012D01*
X1286485Y1051210D01*
X1222091D01*
X1200195Y1073106D01*
X1201726Y1076802D01*
X1254155D01*
X1262476Y1068481D01*
D02*
G37*
G36*
X2169256Y1058344D02*
X2172650Y1057898D01*
X2176044Y1058344D01*
X2178718Y1059452D01*
X2180556Y1058757D01*
X2182718Y1057321D01*
Y942392D01*
X2179022Y940861D01*
X2173352Y946532D01*
X2170636Y948615D01*
X2167474Y949925D01*
X2164080Y950372D01*
X2164080Y950372D01*
X1954784D01*
X1954784Y950372D01*
X1951390Y949925D01*
X1948228Y948615D01*
X1945512Y946532D01*
X1945512Y946532D01*
X1913031Y914050D01*
X1463257D01*
X1461180Y916757D01*
Y919663D01*
X1460428Y922471D01*
X1462758Y926434D01*
X1913636D01*
X1913636Y926434D01*
X1917030Y926881D01*
X1920192Y928191D01*
X1922908Y930274D01*
X1971422Y978788D01*
X1971943Y979467D01*
X1976958Y980109D01*
X1978278Y978788D01*
X1980994Y976704D01*
X1984156Y975395D01*
X1987550Y974948D01*
X1990944Y975395D01*
X1994106Y976704D01*
X1996822Y978788D01*
X1998905Y981504D01*
X1999198Y982210D01*
X2003576Y982327D01*
X2004160Y981315D01*
X2006205Y979270D01*
X2008710Y977824D01*
X2011504Y977075D01*
X2014396D01*
X2017190Y977824D01*
X2019695Y979270D01*
X2021740Y981315D01*
X2023186Y983820D01*
X2023579Y985287D01*
X2027721D01*
X2028114Y983820D01*
X2029560Y981315D01*
X2031605Y979270D01*
X2034110Y977824D01*
X2036904Y977075D01*
X2039796D01*
X2042590Y977824D01*
X2045095Y979270D01*
X2047140Y981315D01*
X2047724Y982327D01*
X2052102Y982210D01*
X2052395Y981504D01*
X2054478Y978788D01*
X2057194Y976704D01*
X2060356Y975395D01*
X2063750Y974948D01*
X2067144Y975395D01*
X2070306Y976704D01*
X2073022Y978788D01*
X2076293Y982060D01*
X2155367D01*
X2158681Y981172D01*
X2162367D01*
X2165928Y982126D01*
X2169120Y983969D01*
X2171727Y986576D01*
X2173570Y989768D01*
X2174524Y993329D01*
Y997015D01*
X2173570Y1000576D01*
X2171727Y1003768D01*
X2169120Y1006375D01*
X2165928Y1008218D01*
X2162367Y1009172D01*
X2158681D01*
X2155367Y1008284D01*
X2070862D01*
X2070862Y1008284D01*
X2067468Y1007837D01*
X2064306Y1006527D01*
X2061590Y1004444D01*
X2061590Y1004444D01*
X2054478Y997332D01*
X2052395Y994616D01*
X2052102Y993910D01*
X2047724Y993793D01*
X2047140Y994805D01*
X2045095Y996850D01*
X2042590Y998296D01*
X2039796Y999045D01*
X2036904D01*
X2034110Y998296D01*
X2031605Y996850D01*
X2029560Y994805D01*
X2028114Y992300D01*
X2027721Y990833D01*
X2023579D01*
X2023186Y992300D01*
X2021740Y994805D01*
X2019695Y996850D01*
X2017190Y998296D01*
X2014396Y999045D01*
X2011504D01*
X2008710Y998296D01*
X2006205Y996850D01*
X2004160Y994805D01*
X2003576Y993793D01*
X1999198Y993910D01*
X1998905Y994616D01*
X1996822Y997332D01*
X1957496Y1036657D01*
X1959027Y1040353D01*
X2142617D01*
X2142617Y1040353D01*
X2146011Y1040800D01*
X2149173Y1042110D01*
X2151889Y1044193D01*
X2161922Y1054226D01*
X2161922Y1054226D01*
X2164005Y1056942D01*
X2166094Y1059654D01*
X2169256Y1058344D01*
D02*
G37*
G36*
X1421688Y1108405D02*
Y1045210D01*
X1421688Y1045210D01*
X1422134Y1041816D01*
X1422191Y1041679D01*
X1418800Y1039413D01*
X1343189Y1115024D01*
X1340474Y1117108D01*
X1337311Y1118418D01*
X1333918Y1118865D01*
X1333917Y1118865D01*
X1310194D01*
X1310029Y1119538D01*
X1313163Y1123538D01*
X1406555D01*
X1421688Y1108405D01*
D02*
G37*
G36*
X1954199Y1002868D02*
X1953557Y997853D01*
X1952878Y997332D01*
X1951558Y996011D01*
X1946543Y996653D01*
X1946022Y997332D01*
X1922036Y1021317D01*
X1923567Y1025013D01*
X1932054D01*
X1954199Y1002868D01*
D02*
G37*
G36*
X1570165Y978312D02*
X1463162D01*
X1461766Y979978D01*
X1460625Y982312D01*
X1461180Y984384D01*
Y987291D01*
X1461098Y987595D01*
X1463938Y991595D01*
X1570165D01*
Y978312D01*
D02*
G37*
G36*
X1071549Y1030410D02*
X1072077Y1030096D01*
X1073276Y1028897D01*
X1073590Y1028369D01*
X1073886Y1023849D01*
X1070228Y1020192D01*
X1068145Y1017476D01*
X1066835Y1014314D01*
X1066388Y1010920D01*
X1066835Y1007526D01*
X1068145Y1004364D01*
X1070228Y1001648D01*
X1072944Y999565D01*
X1075392Y998551D01*
X1075748Y995998D01*
X1075486Y994345D01*
X1073575Y993242D01*
X1071778Y991445D01*
X1070508Y989245D01*
X1069850Y986790D01*
Y984249D01*
X1070508Y981795D01*
X1071778Y979595D01*
X1073575Y977798D01*
X1075359Y976768D01*
X1075600Y974698D01*
X1075178Y972547D01*
X1072592Y971476D01*
X1071720Y970806D01*
X1012356D01*
X1010825Y974501D01*
X1067029Y1030706D01*
X1071549Y1030410D01*
D02*
G37*
G36*
X1875714Y983820D02*
X1877160Y981315D01*
X1879205Y979270D01*
X1881710Y977824D01*
X1884504Y977075D01*
X1887396D01*
X1890190Y977824D01*
X1892695Y979270D01*
X1894740Y981315D01*
X1899429Y981437D01*
X1902078Y978788D01*
X1904794Y976704D01*
X1907956Y975395D01*
X1911350Y974948D01*
X1914744Y975395D01*
X1917906Y976704D01*
X1920622Y978788D01*
X1920957Y979226D01*
X1925038Y979725D01*
X1928309Y977082D01*
X1928799Y973252D01*
X1908205Y952658D01*
X1870416D01*
X1868705Y956604D01*
X1870548Y959796D01*
X1871502Y963357D01*
Y967043D01*
X1870548Y970604D01*
X1868705Y973796D01*
X1867647Y974854D01*
X1867337Y978748D01*
X1867968Y979942D01*
X1869340Y981315D01*
X1870786Y983820D01*
X1871179Y985287D01*
X1875321D01*
X1875714Y983820D01*
D02*
G37*
G36*
X1421288Y956658D02*
X1420571Y953879D01*
X1419709Y952658D01*
X1404717D01*
X1310006Y1047370D01*
X1308178Y1048772D01*
X1308427Y1049204D01*
X1309180Y1052012D01*
Y1054918D01*
X1308427Y1057726D01*
X1306974Y1060244D01*
X1306577Y1060640D01*
X1308234Y1064640D01*
X1313306D01*
X1421288Y956658D01*
D02*
G37*
G36*
X886522Y950921D02*
X883370Y947832D01*
X760010D01*
X756859Y950921D01*
X757481Y954728D01*
X885899D01*
X886522Y950921D01*
D02*
G37*
G36*
X734522D02*
X731370Y947832D01*
X673802D01*
X672310Y949777D01*
Y952683D01*
X673878Y954728D01*
X733899D01*
X734522Y950921D01*
D02*
G37*
G36*
X1399286Y926434D02*
X1399286Y926434D01*
X1437521D01*
X1439852Y922471D01*
X1439100Y919663D01*
Y916757D01*
X1437023Y914050D01*
X1404463D01*
X1395633Y922880D01*
X1397502Y926669D01*
X1399286Y926434D01*
D02*
G37*
G36*
X2138508Y920452D02*
X2113818Y895762D01*
X2052120D01*
X2052120Y895762D01*
X2048726Y895315D01*
X2045564Y894006D01*
X2042848Y891922D01*
X2042848Y891922D01*
X2026623Y875696D01*
X1913472D01*
X1912541Y876514D01*
X1910758Y879696D01*
X1911160Y881197D01*
Y884103D01*
X1914303Y887826D01*
X1918462D01*
X1918462Y887826D01*
X1921856Y888273D01*
X1925018Y889583D01*
X1927734Y891666D01*
X1960215Y924148D01*
X2136977D01*
X2138508Y920452D01*
D02*
G37*
G36*
X1889080Y884103D02*
Y881197D01*
X1889482Y879696D01*
X1887698Y876514D01*
X1886768Y875696D01*
X1845816D01*
X1844513Y877174D01*
X1843249Y879696D01*
X1843694Y881358D01*
Y883942D01*
X1846618Y887826D01*
X1885936D01*
X1889080Y884103D01*
D02*
G37*
G36*
X1695070Y791967D02*
Y787050D01*
X1674256D01*
X1671947Y791050D01*
X1672019Y791176D01*
X1672970Y794724D01*
Y798397D01*
X1672019Y801945D01*
X1670183Y805126D01*
X1667585Y807723D01*
X1664404Y809560D01*
X1660856Y810510D01*
X1657183D01*
X1653635Y809560D01*
X1650454Y807723D01*
X1647857Y805126D01*
X1646021Y801945D01*
X1645070Y798397D01*
Y794724D01*
X1646021Y791176D01*
X1646093Y791050D01*
X1643784Y787050D01*
X1412083D01*
X1382036Y817098D01*
X1383766Y821024D01*
X1666013D01*
X1695070Y791967D01*
D02*
G37*
G36*
X1355518Y582128D02*
X1355400Y581687D01*
Y579093D01*
X1354178Y577500D01*
X1302355D01*
X1297423Y582432D01*
X1298954Y586128D01*
X1352899D01*
X1355518Y582128D01*
D02*
G37*
G36*
X1224235Y560368D02*
X1222704Y556672D01*
X1105560D01*
X1105560Y556672D01*
X1102166Y556225D01*
X1099004Y554916D01*
X1096288Y552832D01*
X1096288Y552832D01*
X1077848Y534392D01*
X1077327Y533713D01*
X1072312Y533071D01*
X1070992Y534392D01*
X1070313Y534913D01*
X1069671Y539928D01*
X1074719Y544976D01*
X1077342Y546988D01*
X1079426Y549704D01*
X1080735Y552866D01*
X1081182Y556260D01*
X1080735Y559654D01*
X1079426Y562816D01*
X1077342Y565532D01*
X1074832Y567458D01*
X1074804Y567871D01*
X1076508Y571458D01*
X1213145D01*
X1224235Y560368D01*
D02*
G37*
G36*
X832059Y553422D02*
X818768Y540132D01*
X816684Y537416D01*
X815375Y534254D01*
X814992Y531344D01*
X813895Y530737D01*
X810928Y530382D01*
X810404Y531289D01*
X808349Y533344D01*
X805831Y534798D01*
X803024Y535550D01*
X800117D01*
X797309Y534798D01*
X794791Y533344D01*
X792736Y531289D01*
X791283Y528771D01*
X790530Y525963D01*
Y523057D01*
X791283Y520249D01*
X792736Y517731D01*
X794791Y515676D01*
X797309Y514222D01*
X800117Y513470D01*
X803024D01*
X805831Y514222D01*
X808349Y515676D01*
X810404Y517731D01*
X810928Y518638D01*
X814928Y517566D01*
Y480725D01*
X810928Y479367D01*
X810842Y479480D01*
X737204Y553118D01*
X738860Y557118D01*
X830528D01*
X832059Y553422D01*
D02*
G37*
G36*
X507588Y648484D02*
Y380238D01*
X507588Y380238D01*
X508035Y376844D01*
X509344Y373682D01*
X511428Y370966D01*
X678306Y204088D01*
X681022Y202005D01*
X684184Y200695D01*
X687578Y200248D01*
X786330D01*
X789724Y200695D01*
X792886Y202005D01*
X795602Y204088D01*
X797686Y206804D01*
X798996Y209966D01*
X799442Y213360D01*
X798996Y216754D01*
X797686Y219916D01*
X795602Y222632D01*
X792886Y224715D01*
X789724Y226025D01*
X786330Y226472D01*
X735182D01*
X733652Y230168D01*
X755936Y252452D01*
X756794Y253110D01*
X862712Y359028D01*
X863730Y360355D01*
X864515Y360646D01*
X867765D01*
X868550Y360355D01*
X869568Y359028D01*
X872284Y356945D01*
X875446Y355635D01*
X878840Y355188D01*
X882234Y355635D01*
X885396Y356945D01*
X888112Y359028D01*
X890894Y361811D01*
X894590Y360280D01*
Y358650D01*
X913890D01*
Y377950D01*
X912260D01*
X910729Y381646D01*
X950311Y421228D01*
X1013573D01*
X1015386Y419836D01*
X1018548Y418526D01*
X1021942Y418080D01*
X1025336Y418526D01*
X1028498Y419836D01*
X1031214Y421920D01*
X1036702Y427408D01*
X1038785Y430124D01*
X1040095Y433286D01*
X1040542Y436680D01*
X1040095Y440074D01*
X1038785Y443236D01*
X1036702Y445952D01*
X1033986Y448035D01*
X1030824Y449345D01*
X1027430Y449792D01*
X1024036Y449345D01*
X1020874Y448035D01*
X1019921Y447304D01*
X1018794Y447452D01*
X1018794Y447452D01*
X944880D01*
X941486Y447005D01*
X938324Y445695D01*
X935608Y443612D01*
X935608Y443612D01*
X869568Y377572D01*
X868550Y376245D01*
X867765Y375954D01*
X864515Y375954D01*
X863730Y376245D01*
X862712Y377572D01*
X859996Y379655D01*
X856834Y380965D01*
X853440Y381412D01*
X850046Y380965D01*
X846884Y379655D01*
X845152Y378327D01*
X841152Y379739D01*
Y525429D01*
X872841Y557118D01*
X1002030D01*
X1002030Y557118D01*
X1005424Y557565D01*
X1008586Y558875D01*
X1011302Y560958D01*
X1036320Y585977D01*
X1046999Y575298D01*
X1049714Y573214D01*
X1052877Y571904D01*
X1056270Y571458D01*
X1056270Y571458D01*
X1059022D01*
X1060726Y567871D01*
X1060698Y567458D01*
X1058188Y565532D01*
X1058188Y565532D01*
X1027048Y534392D01*
X1024965Y531676D01*
X1023655Y528514D01*
X1023208Y525120D01*
X1023655Y521726D01*
X1024965Y518564D01*
X1027048Y515848D01*
X1029764Y513765D01*
X1032926Y512455D01*
X1036320Y512008D01*
X1039714Y512455D01*
X1042876Y513765D01*
X1045592Y515848D01*
X1046912Y517169D01*
X1051927Y516527D01*
X1052448Y515848D01*
X1089489Y478808D01*
X1089489Y478808D01*
X1092204Y476724D01*
X1095367Y475414D01*
X1098760Y474968D01*
X1187450D01*
X1190844Y475414D01*
X1194006Y476724D01*
X1196722Y478808D01*
X1198805Y481524D01*
X1200115Y484686D01*
X1200562Y488080D01*
X1200115Y491474D01*
X1198805Y494636D01*
X1196722Y497351D01*
X1194006Y499435D01*
X1190844Y500745D01*
X1187450Y501192D01*
X1104192D01*
X1095071Y510312D01*
X1095713Y515327D01*
X1096392Y515848D01*
X1100049Y519506D01*
X1104569Y519210D01*
X1105097Y518896D01*
X1106595Y517398D01*
X1108795Y516128D01*
X1111249Y515470D01*
X1113791D01*
X1116245Y516128D01*
X1118445Y517398D01*
X1120242Y519195D01*
X1121512Y521395D01*
X1122170Y523850D01*
Y526391D01*
X1122155Y526448D01*
X1124940Y530448D01*
X1223929D01*
X1243710Y510666D01*
X1243710Y510666D01*
X1246426Y508582D01*
X1249588Y507273D01*
X1252982Y506826D01*
X1252982Y506826D01*
X1341805D01*
X1345119Y505938D01*
X1348805D01*
X1352366Y506892D01*
X1352815Y507151D01*
X1355089Y505503D01*
X1355951Y504343D01*
X1355400Y502286D01*
Y499693D01*
X1356071Y497188D01*
X1357368Y494942D01*
X1359202Y493108D01*
X1361448Y491811D01*
X1363953Y491140D01*
X1366547D01*
X1369052Y491811D01*
X1371298Y493108D01*
X1373132Y494942D01*
X1374429Y497188D01*
X1375100Y499693D01*
Y502286D01*
X1374429Y504791D01*
X1373132Y507038D01*
X1371298Y508872D01*
X1369052Y510168D01*
X1366547Y510840D01*
X1363953D01*
X1362227Y510377D01*
X1360444Y511948D01*
X1359491Y513638D01*
X1360008Y514534D01*
X1360962Y518095D01*
Y519263D01*
X1362710Y520796D01*
X1403100D01*
X1410262Y513634D01*
X1410016Y509132D01*
X1409685Y508554D01*
X1408168Y507038D01*
X1406871Y504791D01*
X1406200Y502286D01*
Y499693D01*
X1406871Y497188D01*
X1408168Y494942D01*
X1410002Y493108D01*
X1412248Y491811D01*
X1414753Y491140D01*
X1417347D01*
X1419852Y491811D01*
X1422098Y493108D01*
X1423932Y494941D01*
X1428695Y495201D01*
X1432178Y491718D01*
X1434894Y489634D01*
X1438056Y488324D01*
X1441450Y487877D01*
X1444844Y488324D01*
X1448006Y489634D01*
X1450722Y491718D01*
X1451243Y492397D01*
X1456258Y493039D01*
X1457578Y491718D01*
X1458257Y491197D01*
X1458899Y486182D01*
X1392229Y419512D01*
X1367990D01*
X1364597Y419065D01*
X1361434Y417756D01*
X1358718Y415672D01*
X1358718Y415672D01*
X1281048Y338002D01*
X1278964Y335286D01*
X1277655Y332123D01*
X1277208Y328730D01*
X1277208Y328730D01*
Y235150D01*
X1277655Y231756D01*
X1278964Y228594D01*
X1281048Y225878D01*
X1282272Y224940D01*
X1283128Y220139D01*
X1198021Y135032D01*
X1122170D01*
Y150620D01*
X1102870D01*
Y147369D01*
X1098870Y146574D01*
X1098475Y147526D01*
X1096392Y150242D01*
X1022732Y223902D01*
X1020016Y225986D01*
X1016854Y227295D01*
X1013460Y227742D01*
X1013460Y227742D01*
X948182D01*
X948182Y227742D01*
X944788Y227295D01*
X942801Y226472D01*
X938330D01*
X934936Y226025D01*
X931774Y224715D01*
X929058Y222632D01*
X926974Y219916D01*
X925665Y216754D01*
X925218Y213360D01*
X925665Y209966D01*
X926974Y206804D01*
X929058Y204088D01*
X931774Y202005D01*
X934936Y200695D01*
X938330Y200248D01*
X946912D01*
X946912Y200248D01*
X950306Y200695D01*
X952293Y201518D01*
X1008029D01*
X1036783Y172764D01*
X1035252Y169068D01*
X957126D01*
X957126Y169068D01*
X953732Y168621D01*
X950570Y167311D01*
X947854Y165228D01*
X929058Y146432D01*
X926974Y143716D01*
X925664Y140554D01*
X925218Y137160D01*
X925664Y133766D01*
X926974Y130604D01*
X929058Y127888D01*
X931774Y125805D01*
X934936Y124495D01*
X938330Y124048D01*
X941723Y124495D01*
X944886Y125805D01*
X947602Y127888D01*
X962557Y142844D01*
X1021564D01*
X1023208Y140970D01*
X1023655Y137576D01*
X1024965Y134414D01*
X1027048Y131698D01*
X1045114Y113632D01*
X1043830Y109940D01*
X1043572Y109632D01*
X548991D01*
X498406Y160217D01*
X500063Y164217D01*
X590322D01*
X590322Y164217D01*
X593716Y164664D01*
X593875Y164730D01*
X597090Y165153D01*
X600253Y166463D01*
X602968Y168547D01*
X603749Y169328D01*
X605833Y172043D01*
X607143Y175206D01*
X607589Y178600D01*
X607143Y181993D01*
X605833Y185156D01*
X603749Y187871D01*
X601033Y189955D01*
X597871Y191265D01*
X594477Y191712D01*
X591084Y191265D01*
X590028Y190828D01*
X587418Y190484D01*
X587315Y190442D01*
X495417D01*
X492024Y189995D01*
X488861Y188685D01*
X486146Y186601D01*
X484062Y183886D01*
X482988Y181292D01*
X480988Y180415D01*
X478622Y180001D01*
X466502Y192121D01*
Y389144D01*
X468764Y390880D01*
X471671D01*
X474479Y391632D01*
X476996Y393085D01*
X479052Y395141D01*
X480505Y397658D01*
X481258Y400466D01*
Y403373D01*
X480505Y406181D01*
X479052Y408698D01*
X476996Y410754D01*
X474479Y412207D01*
X471671Y412959D01*
X468764D01*
X466502Y414695D01*
Y474234D01*
X468764Y475970D01*
X471671D01*
X474479Y476722D01*
X476996Y478175D01*
X479052Y480231D01*
X480505Y482748D01*
X481258Y485556D01*
Y488463D01*
X480505Y491271D01*
X479052Y493788D01*
X476996Y495844D01*
X474479Y497297D01*
X471671Y498049D01*
X468764D01*
X466502Y499785D01*
Y625775D01*
X472770D01*
X475809Y626074D01*
X478731Y626961D01*
X481423Y628400D01*
X483783Y630337D01*
X503588Y650141D01*
X507588Y648484D01*
D02*
G37*
G36*
X1329577Y229497D02*
X1330894Y225157D01*
X1218311Y112574D01*
X1218307Y112575D01*
X1217044Y116968D01*
X1329573Y229498D01*
X1329577Y229497D01*
D02*
G37*
G36*
X1061671Y79712D02*
X1053961Y72003D01*
X1052448Y70842D01*
X1050365Y68126D01*
X1049351Y65679D01*
X1046799Y65322D01*
X1045145Y65584D01*
X1044042Y67495D01*
X1042245Y69292D01*
X1040045Y70563D01*
X1037590Y71220D01*
X1035050D01*
X1032595Y70563D01*
X1030395Y69292D01*
X1028598Y67495D01*
X1027328Y65295D01*
X1026670Y62841D01*
Y60300D01*
X1027012Y59022D01*
X1025361Y55988D01*
X1024339Y55022D01*
X944927D01*
X943855Y59022D01*
X945109Y59746D01*
X947164Y61801D01*
X948617Y64319D01*
X949370Y67127D01*
Y70033D01*
X948617Y72841D01*
X947164Y75359D01*
X945109Y77414D01*
X942591Y78868D01*
X940575Y79408D01*
X941102Y83408D01*
X1060140D01*
X1061671Y79712D01*
D02*
G37*
G36*
X1166131Y59022D02*
X1165314Y56075D01*
X1164535Y55022D01*
X1124501D01*
X1123479Y55988D01*
X1121828Y59022D01*
X1122170Y60300D01*
Y62841D01*
X1122155Y62898D01*
X1124940Y66898D01*
X1158255D01*
X1166131Y59022D01*
D02*
G37*
G36*
X936085Y79408D02*
X934069Y78868D01*
X931551Y77414D01*
X929496Y75359D01*
X928042Y72841D01*
X927290Y70033D01*
Y67127D01*
X928042Y64319D01*
X929496Y61801D01*
X931551Y59746D01*
X932804Y59022D01*
X931733Y55022D01*
X792927D01*
X791855Y59022D01*
X793109Y59746D01*
X795164Y61801D01*
X796618Y64319D01*
X797370Y67127D01*
Y70033D01*
X796618Y72841D01*
X795164Y75359D01*
X793109Y77414D01*
X790591Y78868D01*
X788575Y79408D01*
X789102Y83408D01*
X935558D01*
X936085Y79408D01*
D02*
G37*
%LPC*%
G36*
X854620Y1053950D02*
X850960D01*
X847425Y1053003D01*
X844256Y1051173D01*
X841667Y1048585D01*
X839837Y1045415D01*
X838890Y1041880D01*
Y1038220D01*
X839837Y1034685D01*
X841667Y1031515D01*
X844256Y1028928D01*
X847425Y1027097D01*
X850960Y1026150D01*
X854620D01*
X858156Y1027097D01*
X861325Y1028928D01*
X863913Y1031515D01*
X865743Y1034685D01*
X866690Y1038220D01*
Y1041880D01*
X865743Y1045415D01*
X863913Y1048585D01*
X861325Y1051173D01*
X858156Y1053003D01*
X854620Y1053950D01*
D02*
G37*
G36*
X933633Y1038870D02*
X930727D01*
X927919Y1038118D01*
X925401Y1036665D01*
X923346Y1034609D01*
X921892Y1032092D01*
X921140Y1029284D01*
Y1026377D01*
X921892Y1023569D01*
X923346Y1021052D01*
X925401Y1018996D01*
X927919Y1017543D01*
X930727Y1016790D01*
X933633D01*
X936441Y1017543D01*
X938959Y1018996D01*
X941014Y1021052D01*
X942468Y1023569D01*
X943220Y1026377D01*
Y1029284D01*
X942468Y1032092D01*
X941014Y1034609D01*
X938959Y1036665D01*
X936441Y1038118D01*
X933633Y1038870D01*
D02*
G37*
G36*
X955023Y535550D02*
X952116D01*
X949309Y534798D01*
X946791Y533344D01*
X944736Y531289D01*
X943282Y528771D01*
X942530Y525963D01*
Y523057D01*
X943282Y520249D01*
X944736Y517731D01*
X946791Y515676D01*
X949309Y514222D01*
X952116Y513470D01*
X955023D01*
X957831Y514222D01*
X960349Y515676D01*
X962404Y517731D01*
X963857Y520249D01*
X964610Y523057D01*
Y525963D01*
X963857Y528771D01*
X962404Y531289D01*
X960349Y533344D01*
X957831Y534798D01*
X955023Y535550D01*
D02*
G37*
G36*
X1391947Y510840D02*
X1389353D01*
X1386848Y510168D01*
X1384602Y508872D01*
X1382768Y507038D01*
X1381471Y504791D01*
X1380800Y502286D01*
Y499693D01*
X1381471Y497188D01*
X1382768Y494942D01*
X1384602Y493108D01*
X1386848Y491811D01*
X1389353Y491140D01*
X1391947D01*
X1394452Y491811D01*
X1396698Y493108D01*
X1398532Y494942D01*
X1399829Y497188D01*
X1400500Y499693D01*
Y502286D01*
X1399829Y504791D01*
X1398532Y507038D01*
X1396698Y508872D01*
X1394452Y510168D01*
X1391947Y510840D01*
D02*
G37*
G36*
X1291773Y458280D02*
X1288867D01*
X1286059Y457528D01*
X1283541Y456074D01*
X1281486Y454019D01*
X1280032Y451501D01*
X1279280Y448694D01*
Y445787D01*
X1280032Y442979D01*
X1281486Y440461D01*
X1283541Y438406D01*
X1286059Y436953D01*
X1288867Y436200D01*
X1291773D01*
X1294581Y436953D01*
X1297099Y438406D01*
X1299154Y440461D01*
X1300608Y442979D01*
X1301360Y445787D01*
Y448694D01*
X1300608Y451501D01*
X1299154Y454019D01*
X1297099Y456074D01*
X1294581Y457528D01*
X1291773Y458280D01*
D02*
G37*
G36*
X1104900Y449792D02*
X1101506Y449345D01*
X1098344Y448035D01*
X1095628Y445952D01*
X1093544Y443236D01*
X1092235Y440074D01*
X1091788Y436680D01*
X1092235Y433286D01*
X1093544Y430124D01*
X1095628Y427408D01*
X1096409Y426628D01*
X1099125Y424544D01*
X1102287Y423234D01*
X1105502Y422811D01*
X1105661Y422744D01*
X1109055Y422298D01*
X1109055Y422298D01*
X1182370D01*
X1185764Y422744D01*
X1188926Y424054D01*
X1191642Y426138D01*
X1193726Y428854D01*
X1195035Y432016D01*
X1195482Y435410D01*
X1195035Y438803D01*
X1193726Y441966D01*
X1191642Y444682D01*
X1188926Y446765D01*
X1185764Y448075D01*
X1182370Y448522D01*
X1112062D01*
X1111959Y448565D01*
X1109349Y448908D01*
X1108294Y449345D01*
X1104900Y449792D01*
D02*
G37*
G36*
X1291773Y398190D02*
X1288867D01*
X1286059Y397438D01*
X1283541Y395984D01*
X1281486Y393929D01*
X1280032Y391411D01*
X1279280Y388603D01*
Y385696D01*
X1280032Y382889D01*
X1281486Y380371D01*
X1283541Y378316D01*
X1286059Y376862D01*
X1288867Y376110D01*
X1291773D01*
X1294581Y376862D01*
X1297099Y378316D01*
X1299154Y380371D01*
X1300608Y382889D01*
X1301360Y385696D01*
Y388603D01*
X1300608Y391411D01*
X1299154Y393929D01*
X1297099Y395984D01*
X1294581Y397438D01*
X1291773Y398190D01*
D02*
G37*
G36*
X496871Y340369D02*
X493964D01*
X491156Y339617D01*
X488639Y338163D01*
X486583Y336108D01*
X485130Y333591D01*
X484377Y330783D01*
Y327876D01*
X485130Y325068D01*
X486583Y322551D01*
X488639Y320495D01*
X491156Y319042D01*
X493964Y318289D01*
X496871D01*
X499679Y319042D01*
X502196Y320495D01*
X504252Y322551D01*
X505705Y325068D01*
X506457Y327876D01*
Y330783D01*
X505705Y333591D01*
X504252Y336108D01*
X502196Y338163D01*
X499679Y339617D01*
X496871Y340369D01*
D02*
G37*
G36*
X853440Y302012D02*
X850046Y301565D01*
X846884Y300256D01*
X844168Y298172D01*
X842085Y295456D01*
X841071Y293008D01*
X838518Y292652D01*
X836865Y292914D01*
X835762Y294825D01*
X833965Y296622D01*
X831765Y297892D01*
X829311Y298550D01*
X826769D01*
X824315Y297892D01*
X822115Y296622D01*
X820318Y294825D01*
X819048Y292625D01*
X818390Y290171D01*
Y287630D01*
X819048Y285175D01*
X820318Y282975D01*
X822115Y281178D01*
X824315Y279908D01*
X826769Y279250D01*
X829311D01*
X831765Y279908D01*
X833965Y281178D01*
X835762Y282975D01*
X836865Y284886D01*
X838518Y285149D01*
X841071Y284792D01*
X842085Y282344D01*
X844168Y279628D01*
X881608Y242188D01*
X884324Y240105D01*
X887486Y238795D01*
X890880Y238348D01*
X1150420D01*
X1150420Y238348D01*
X1153813Y238795D01*
X1156976Y240105D01*
X1159692Y242188D01*
X1191642Y274138D01*
X1193726Y276854D01*
X1195035Y280016D01*
X1195482Y283410D01*
X1195035Y286804D01*
X1193726Y289966D01*
X1191642Y292682D01*
X1188926Y294766D01*
X1185764Y296076D01*
X1182370Y296522D01*
X1178976Y296075D01*
X1175814Y294766D01*
X1173098Y292682D01*
X1144989Y264572D01*
X896311D01*
X884454Y276429D01*
X884765Y281178D01*
X886562Y282975D01*
X887832Y285175D01*
X888490Y287630D01*
Y290171D01*
X887832Y292625D01*
X886562Y294825D01*
X884765Y296622D01*
X882565Y297892D01*
X880110Y298550D01*
X877570D01*
X875115Y297892D01*
X872915Y296622D01*
X871417Y295124D01*
X870889Y294810D01*
X866369Y294515D01*
X862712Y298172D01*
X859996Y300256D01*
X856834Y301565D01*
X853440Y302012D01*
D02*
G37*
G36*
X905510Y298550D02*
X902970D01*
X900515Y297892D01*
X898315Y296622D01*
X896518Y294825D01*
X895248Y292625D01*
X894590Y290171D01*
Y287630D01*
X895248Y285175D01*
X896518Y282975D01*
X898315Y281178D01*
X900515Y279908D01*
X902970Y279250D01*
X905510D01*
X907965Y279908D01*
X910165Y281178D01*
X911962Y282975D01*
X913232Y285175D01*
X913890Y287630D01*
Y290171D01*
X913232Y292625D01*
X911962Y294825D01*
X910165Y296622D01*
X907965Y297892D01*
X905510Y298550D01*
D02*
G37*
G36*
X1104900Y297792D02*
X1027430D01*
X1024036Y297346D01*
X1020874Y296036D01*
X1018158Y293952D01*
X1016075Y291236D01*
X1014765Y288074D01*
X1014318Y284680D01*
X1014765Y281287D01*
X1016075Y278124D01*
X1018158Y275408D01*
X1020874Y273325D01*
X1024036Y272015D01*
X1027430Y271568D01*
X1104900D01*
X1108294Y272015D01*
X1111456Y273325D01*
X1114172Y275408D01*
X1116255Y278124D01*
X1117565Y281287D01*
X1118012Y284680D01*
X1117565Y288074D01*
X1116255Y291236D01*
X1114172Y293952D01*
X1111456Y296036D01*
X1108294Y297346D01*
X1104900Y297792D01*
D02*
G37*
G36*
X1177290Y232622D02*
X1173896Y232175D01*
X1170734Y230865D01*
X1168018Y228782D01*
X1166979Y227742D01*
X1128830D01*
X1125436Y227295D01*
X1122274Y225986D01*
X1119558Y223902D01*
X1117474Y221186D01*
X1116164Y218024D01*
X1115718Y214630D01*
X1116164Y211236D01*
X1117474Y208074D01*
X1119558Y205358D01*
X1122274Y203274D01*
X1125436Y201965D01*
X1128830Y201518D01*
X1163818D01*
X1163976Y201397D01*
X1167138Y200086D01*
X1170532Y199640D01*
X1173926Y200086D01*
X1177088Y201397D01*
X1179804Y203480D01*
X1186562Y210238D01*
X1188645Y212954D01*
X1189955Y216116D01*
X1190402Y219510D01*
X1189955Y222903D01*
X1188645Y226066D01*
X1186562Y228782D01*
X1183846Y230865D01*
X1180684Y232175D01*
X1177290Y232622D01*
D02*
G37*
G36*
X722688Y177730D02*
X720032D01*
X717465Y177042D01*
X715165Y175714D01*
X713286Y173835D01*
X711958Y171535D01*
X711270Y168968D01*
Y166312D01*
X711958Y163745D01*
X713286Y161445D01*
X714825Y159905D01*
X715179Y159263D01*
X715392Y154816D01*
X712088Y151512D01*
X710005Y148796D01*
X708695Y145634D01*
X708248Y142240D01*
X708695Y138846D01*
X710005Y135684D01*
X712088Y132968D01*
X714804Y130885D01*
X717966Y129575D01*
X721360Y129128D01*
X724754Y129575D01*
X727916Y130885D01*
X730632Y132968D01*
X735681Y138018D01*
X766929D01*
X777058Y127888D01*
X779774Y125805D01*
X782936Y124495D01*
X786330Y124048D01*
X789724Y124495D01*
X792886Y125805D01*
X795602Y127888D01*
X797686Y130604D01*
X798996Y133766D01*
X799442Y137160D01*
X798996Y140554D01*
X797686Y143716D01*
X795602Y146432D01*
X781632Y160402D01*
X778916Y162486D01*
X775754Y163795D01*
X772360Y164242D01*
X772360Y164242D01*
X733038D01*
X731450Y166312D01*
Y168968D01*
X730762Y171535D01*
X729434Y173835D01*
X727555Y175714D01*
X725255Y177042D01*
X722688Y177730D01*
D02*
G37*
%LPD*%
D19*
X1864050Y1559600D02*
D03*
X1838650D02*
D03*
X1813250D02*
D03*
X1787850D02*
D03*
X1762450D02*
D03*
X1737050D02*
D03*
X1711650D02*
D03*
X1686250D02*
D03*
X1660850D02*
D03*
X1635450D02*
D03*
X1610050D02*
D03*
X1584650D02*
D03*
X1559250D02*
D03*
X1533850D02*
D03*
X1508450D02*
D03*
X1322070Y1554480D02*
D03*
D20*
X1483050Y1559600D02*
D03*
D24*
X134620Y1060450D02*
D03*
Y869950D02*
D03*
D38*
X938530Y1513840D02*
D03*
D39*
Y1593840D02*
D03*
D61*
X2098440Y116570D02*
D03*
Y241570D02*
D03*
X2148440Y116570D02*
D03*
X1853800Y484870D02*
D03*
X1803800Y609870D02*
D03*
Y484870D02*
D03*
X2002390Y671560D02*
D03*
X1952390Y796560D02*
D03*
Y671560D02*
D03*
X1853800D02*
D03*
X1803800Y796560D02*
D03*
Y671560D02*
D03*
X2002390Y487410D02*
D03*
X1952390Y612410D02*
D03*
Y487410D02*
D03*
X1853800Y302413D02*
D03*
X1803800Y427413D02*
D03*
Y302413D02*
D03*
X2002390D02*
D03*
X1952390Y427413D02*
D03*
Y302413D02*
D03*
X1853800Y116570D02*
D03*
X1803800Y241570D02*
D03*
Y116570D02*
D03*
X1709020Y302413D02*
D03*
X1659020Y427413D02*
D03*
Y302413D02*
D03*
X1709020Y116570D02*
D03*
X1659020Y241570D02*
D03*
Y116570D02*
D03*
X2002390D02*
D03*
X1952390Y241570D02*
D03*
Y116570D02*
D03*
X1709020Y484870D02*
D03*
X1659020Y609870D02*
D03*
Y484870D02*
D03*
X1709020Y671560D02*
D03*
X1659020Y796560D02*
D03*
Y671560D02*
D03*
X2148440Y483600D02*
D03*
X2098440Y608600D02*
D03*
Y483600D02*
D03*
X2148440Y671560D02*
D03*
X2098440Y796560D02*
D03*
Y671560D02*
D03*
X2148440Y302413D02*
D03*
X2098440Y427413D02*
D03*
Y302413D02*
D03*
D62*
X2148440Y241570D02*
D03*
X1853800Y609870D02*
D03*
X2002390Y796560D02*
D03*
X1853800D02*
D03*
X2002390Y612410D02*
D03*
X1853800Y427413D02*
D03*
X2002390D02*
D03*
X1853800Y241570D02*
D03*
X1709020Y427413D02*
D03*
Y241570D02*
D03*
X2002390D02*
D03*
X1709020Y609870D02*
D03*
Y796560D02*
D03*
X2148440Y608600D02*
D03*
Y796560D02*
D03*
Y427413D02*
D03*
D63*
X2156460Y969899D02*
D03*
D64*
Y919861D02*
D03*
D67*
X2195830Y1131238D02*
G03*
X2192901Y1138309I-10000J-0D01*
G01*
X2218013Y236847D02*
X2223143D01*
X2216100Y238760D02*
X2218013Y236847D01*
X986790Y1179830D02*
X990524Y1176096D01*
X1001954D01*
X1002030Y1176020D01*
X932180Y1179830D02*
X986790D01*
X852790Y1162050D02*
X856600Y1158240D01*
X1002030D01*
X996938Y1193800D02*
X1002030D01*
X990772Y1199966D02*
Y1201166D01*
Y1199966D02*
X996938Y1193800D01*
X731266Y1201166D02*
X990772D01*
X155632Y441022D02*
X161490Y446880D01*
Y467360D01*
X116348Y441022D02*
X155632D01*
X110490Y446880D02*
Y468630D01*
Y446880D02*
X116348Y441022D01*
X453390Y186690D02*
X543560Y96520D01*
X1220800D01*
X453390Y186690D02*
Y641350D01*
X2223143Y236847D02*
X2249792Y210198D01*
X2243523Y136593D02*
X2249792Y205103D01*
Y210198D01*
X2214830Y211836D02*
X2230146Y193159D01*
X2225537Y146547D02*
X2230146Y193159D01*
X2120900Y41910D02*
X2225537Y146547D01*
X2187250Y155380D02*
X2195830Y163960D01*
X2187250Y155380D02*
X2187250D01*
X2195830Y176094D02*
X2195830Y1131238D01*
X2195830Y163960D02*
Y176094D01*
X2148440Y116570D02*
X2187250Y155380D01*
X2153412Y1177798D02*
X2192901Y1138309D01*
X429260Y41910D02*
X2120900D01*
X2131060Y24130D02*
X2243523Y136593D01*
X1954784Y937260D02*
X2164080D01*
X2176780Y824900D02*
Y924560D01*
X2164080Y937260D02*
X2176780Y924560D01*
X1918462Y900938D02*
X1954784Y937260D01*
X2148440Y796560D02*
X2176780Y824900D01*
X1067460Y556260D02*
X1068070D01*
X1036320Y525120D02*
X1067460Y556260D01*
X1062072Y61570D02*
X1080511Y80010D01*
X1163686D02*
X1176186Y67510D01*
X1080511Y80010D02*
X1163686D01*
X1079148Y960120D02*
X1079500D01*
X430024Y981840D02*
X909843D01*
X919989Y971694D01*
X1076722Y957694D02*
X1079148Y960120D01*
X441760Y951230D02*
X458370Y967840D01*
X989474Y971694D02*
X1079500Y1061720D01*
X414020Y951560D02*
Y965836D01*
X458370Y967840D02*
X904044D01*
X414020Y951560D02*
X622300Y743280D01*
X919989Y971694D02*
X989474D01*
X414020Y965836D02*
X430024Y981840D01*
X914190Y957694D02*
X1076722D01*
X904044Y967840D02*
X914190Y957694D01*
X314270Y113720D02*
Y117329D01*
Y113720D02*
X403860Y24130D01*
X2131060D01*
X313490Y118110D02*
X314270Y117329D01*
X386070Y85100D02*
Y426760D01*
Y85100D02*
X429260Y41910D01*
X375531Y437300D02*
X386070Y426760D01*
X1220800Y96520D02*
X1351280Y227000D01*
X345471Y467360D02*
X375531Y437300D01*
X375531D01*
X2081530Y1287780D02*
X2172970Y1196340D01*
X1830070Y1287780D02*
X2081530D01*
X1682750Y1140460D02*
X1830070Y1287780D01*
X1768856Y1201166D02*
X1954276D01*
X1708150Y1140460D02*
X1768856Y1201166D01*
X1439110Y1597460D02*
X1461516Y1575054D01*
X1184910Y1597460D02*
X1439110D01*
X1461516Y1220470D02*
Y1575054D01*
X389890Y1414110D02*
X442560D01*
X482600Y1454150D01*
Y1487170D01*
X525680Y1546760D02*
Y1574800D01*
X436110Y1535330D02*
X514250D01*
X525680Y1546760D01*
X389890Y1489110D02*
X436110Y1535330D01*
X1108566Y435899D02*
X1109055Y435410D01*
X1104900Y436680D02*
X1105681Y435899D01*
X1108566D01*
X1109055Y435410D02*
X1182370D01*
X1384300Y665480D02*
X1416050Y633730D01*
Y580390D02*
Y633730D01*
X1384300Y665480D02*
X1400302Y681482D01*
X1326361Y797279D02*
X1363702Y759938D01*
X1159149Y934471D02*
X1162299D01*
X1363702Y759938D02*
X1965768D01*
X1162299Y934471D02*
X1353244Y743526D01*
X1158900Y934720D02*
X1159149Y934471D01*
X1965768Y759938D02*
X2002390Y796560D01*
X1353244Y743526D02*
X1507526D01*
X1282700Y897890D02*
Y970398D01*
X1406652Y773938D02*
X1831178D01*
X1282700Y897890D02*
X1406652Y773938D01*
X1784350Y1140460D02*
X1803400Y1159510D01*
X1816100D02*
X1835150Y1140460D01*
X1803400Y1159510D02*
X1816100D01*
X1291590Y1105752D02*
X1333918D01*
X1418492Y1021179D02*
X1903631D01*
X1333918Y1105752D02*
X1418492Y1021179D01*
X1271748Y1077753D02*
X1318737D01*
X1132088Y1089914D02*
X1259586D01*
X1271748Y1077753D01*
X1268800Y1105597D02*
X1282644Y1091752D01*
X1325172D01*
X1118088Y1105597D02*
X1268800D01*
X1095502Y1112520D02*
X1104138Y1121156D01*
X1071168Y1112520D02*
X1095502D01*
X1044019Y1139669D02*
X1071168Y1112520D01*
X1085088Y1136650D02*
X1411986D01*
X725932Y1092200D02*
X1104691D01*
X673177Y1039445D02*
X725932Y1092200D01*
X1104691D02*
X1118088Y1105597D01*
X953570Y689610D02*
X954351Y690391D01*
X957235D01*
X957725Y690880D02*
X1003300D01*
X957235Y690391D02*
X957725Y690880D01*
X2172650Y1121010D02*
Y1121844D01*
X2171110Y1123384D02*
X2172650Y1121844D01*
X2159508Y1135888D02*
X2171110Y1124286D01*
Y1123384D02*
Y1124286D01*
X2081276Y1135888D02*
X2159508D01*
X2119249Y882650D02*
X2156460Y919861D01*
X2052120Y882650D02*
X2119249D01*
X1574850Y703072D02*
X1627508D01*
X1507526Y743526D02*
X1573022Y678030D01*
Y653796D02*
Y678030D01*
X1598980Y484870D02*
X1659020D01*
X1620520Y404876D02*
X1659020Y366376D01*
X867410Y570230D02*
X1002030D01*
X134620Y890778D02*
X360172D01*
X383540Y867410D02*
X507670Y743280D01*
X1018794Y434340D02*
X1021942Y431192D01*
X1168654Y214630D02*
X1170532Y212752D01*
X1783080Y882650D02*
X1803146Y862584D01*
X2032054D01*
X2052120Y882650D01*
X498910Y1573530D02*
X500180Y1574800D01*
X367130Y1573530D02*
X498910D01*
X1002030Y570230D02*
X1036320Y604520D01*
X596900Y645414D02*
X672084Y570230D01*
X596900Y645414D02*
Y663880D01*
X828040Y368300D02*
Y530860D01*
X867410Y570230D01*
X672084D02*
X867410D01*
X1107440Y883920D02*
Y984860D01*
X1158900Y1036320D01*
X1036320Y140970D02*
X1055370Y121920D01*
X1203452D01*
X1326896Y245364D01*
X1485316D01*
X1503680Y227000D01*
X1036320Y604520D02*
X1056270Y584570D01*
X1218576D01*
X1253744Y549402D01*
X1347216D01*
X1362710Y533908D01*
X1408532D01*
X1441450Y500990D01*
X1163320Y1283970D02*
X1212920D01*
X1216060Y1287110D01*
X1228090D01*
X1336310Y123190D02*
X1368060Y91440D01*
X1464910D01*
X1497930Y124460D01*
X1733550Y1140460D02*
X1770888Y1177798D01*
X2153412D01*
X1599692Y1119378D02*
X1737868D01*
X1758950Y1140460D01*
X121920Y325120D02*
X161490D01*
X102870Y344170D02*
X121920Y325120D01*
X134620Y869950D02*
Y890778D01*
X360172D02*
X383540Y867410D01*
X495300Y743280D02*
X507670D01*
X520700D01*
X571500Y663880D02*
X586562Y678942D01*
X607238D01*
X622300Y663880D01*
X681050D01*
X721360Y623570D01*
X895150Y886460D02*
X916690Y864920D01*
X1139900D01*
X1158900Y883920D01*
X1165860D01*
X1384300Y665480D01*
X1400302Y681482D02*
X1539478D01*
X1556750Y664210D01*
X1207170Y1383030D02*
X1228090Y1362110D01*
X1160780Y1383030D02*
X1207170D01*
X1087120Y1309370D02*
X1160780Y1383030D01*
X1064260Y1545590D02*
X1287780D01*
X1322070Y1579880D01*
X717550Y1187450D02*
X731266Y1201166D01*
X585470Y1187450D02*
X717550D01*
X564480Y1424940D02*
X575310Y1414110D01*
X538480Y1424940D02*
X564480D01*
X525710Y1412170D02*
X538480Y1424940D01*
X482600Y1412170D02*
X525710D01*
X1584650Y1559600D02*
X1649888Y1624838D01*
X1798812D01*
X1864050Y1559600D01*
X343408Y1489109D02*
X389890Y1489110D01*
X297180Y1489109D02*
X343408D01*
X135620D02*
X297180D01*
X106680Y1518050D02*
X135620Y1489109D01*
X1558290Y639064D02*
X1573022Y653796D01*
X1525524Y639064D02*
X1558290D01*
X1466850Y580390D02*
X1525524Y639064D01*
X2070354Y1124966D02*
X2081276Y1135888D01*
X1825244Y1124966D02*
X2070354D01*
X1809750Y1140460D02*
X1825244Y1124966D01*
X1784350Y1140460D02*
X1836674Y1088136D01*
X2166366D01*
X2172650Y1081852D01*
Y1071010D02*
Y1081852D01*
X1008380Y1360840D02*
X1029808D01*
X1055878Y1334770D01*
X1087120D01*
X1008380Y1285840D02*
X1073728D01*
X1075598Y1283970D01*
X1087120D01*
X656590Y1055695D02*
X762945Y1162050D01*
X852790D01*
X454970Y1159550D02*
X520192D01*
X527852Y1151890D01*
X585470D01*
X105410Y536265D02*
X147645D01*
X166370Y554990D01*
X102870Y266080D02*
X114920Y278130D01*
X149860D01*
X166370Y261620D01*
X129540Y158750D02*
Y179070D01*
X135890Y185420D01*
X166370D01*
X520700Y1182370D02*
X533400Y1169670D01*
X585470D01*
X111760Y137160D02*
Y158750D01*
Y137160D02*
X130810Y118110D01*
X161490D01*
X1671445Y834136D02*
X1709020Y796560D01*
X1382214Y834136D02*
X1671445D01*
X1298140Y918210D02*
X1382214Y834136D01*
X1831178Y773938D02*
X1853800Y796560D01*
X1282700Y970398D02*
X1298140Y985837D01*
X1399032Y900938D02*
X1918462D01*
X1345692Y954278D02*
X1399032Y900938D01*
X1087120Y604520D02*
X1122680Y640080D01*
X1187450D01*
X759660Y648970D02*
X801570Y607060D01*
X721360Y648970D02*
X759660D01*
X953570Y607060D02*
X966016Y619506D01*
X1046734D01*
X1061720Y604520D01*
X878840Y368300D02*
X944880Y434340D01*
X953570D01*
X1018794D01*
X1021942Y431192D02*
X1027430Y436680D01*
Y284680D02*
X1104900D01*
X717550Y232610D02*
X747322Y262382D01*
X747522D01*
X853440Y368300D01*
X938330Y213360D02*
X946912D01*
X948182Y214630D01*
X976830D01*
X1013460D01*
X1087120Y140970D01*
X1128830Y214630D02*
X1168654D01*
X1170532Y212752D02*
X1177290Y219510D01*
X721360Y142240D02*
X730250Y151130D01*
X772360D01*
X786330Y137160D01*
X938330D02*
X957126Y155956D01*
X1046734D01*
X1061720Y140970D01*
X495417Y177330D02*
X590322D01*
X590812Y177819D01*
X593697D01*
X594477Y178600D01*
X1390650Y580390D02*
X1404874Y566166D01*
X1478026D01*
X1492250Y580390D01*
X1371800Y599240D02*
X1390650Y580390D01*
X1290320Y599240D02*
X1371800D01*
X1492250Y580390D02*
X1517650D01*
X1659020Y671560D02*
X1677292Y653288D01*
X1785527D01*
X1803800Y671560D01*
X1627508Y703072D02*
X1659020Y671560D01*
X1803800D02*
X1822072Y653288D01*
X1934117D01*
X1952390Y671560D01*
X1970662Y653288D01*
X2080168D01*
X2098440Y671560D01*
X1659020Y484870D02*
X1677292Y466598D01*
X1785527D01*
X1803800Y484870D01*
X1822072Y466598D01*
X1931577D01*
X1952390Y487410D01*
X1970662Y469138D01*
X2083978D01*
X2098440Y483600D01*
X1659020Y302413D02*
X1677461Y283972D01*
X1785358D01*
X1803800Y302413D01*
X1659020D02*
Y366376D01*
X1803800Y302413D02*
X1822241Y283972D01*
X1933948D01*
X1952390Y302413D01*
X1970831Y283972D01*
X2079998D01*
X2098440Y302413D01*
X1659020Y116570D02*
X1677292Y98298D01*
X1785527D01*
X1803800Y116570D01*
X1822072Y98298D01*
X1934117D01*
X1952390Y116570D01*
X1970662Y98298D01*
X2080168D01*
X2098440Y116570D01*
X520700Y1030370D02*
X529775Y1039445D01*
X673177D01*
X1325172Y1091752D02*
X1412218Y1004707D01*
X1894703D01*
X1911350Y988060D01*
X1104138Y1121156D02*
X1276186D01*
X1291590Y1105752D01*
X1903631Y1021179D02*
X1936750Y988060D01*
X1079500Y1010920D02*
X1144270Y1075690D01*
X1179068D01*
X1216660Y1038098D01*
X1300734D01*
X1399286Y939546D01*
X1913636D01*
X1962150Y988060D01*
X1411986Y1136650D02*
X1434800Y1113836D01*
Y1045210D02*
Y1113836D01*
Y1045210D02*
X1441885Y1038125D01*
X1937485D01*
X1987550Y988060D01*
X1079500Y1061720D02*
X1103894D01*
X1132088Y1089914D01*
X1318737Y1077753D02*
X1431290Y965200D01*
X1857502D01*
X1503680Y306400D02*
X1568704Y371424D01*
Y547370D01*
X1655064Y633730D01*
X1880362D01*
X313490Y467360D02*
X345471D01*
X2070862Y995172D02*
X2160524D01*
X2063750Y988060D02*
X2070862Y995172D01*
X686308Y547116D02*
X724662D01*
X801570Y470208D01*
Y434340D02*
Y470208D01*
X520700Y380238D02*
Y663880D01*
Y380238D02*
X687578Y213360D01*
X786330D01*
X853440Y288900D02*
X890880Y251460D01*
X1150420D01*
X1182370Y283410D01*
X1061720Y61570D02*
X1062072D01*
X1176186Y67510D02*
X1177290D01*
X469900Y743280D02*
X488772Y724408D01*
X766772D01*
X801570Y689610D01*
X1061720Y525120D02*
X1098760Y488080D01*
X1187450D01*
X566420Y867410D02*
X633730Y934720D01*
X1079500D01*
X1087120Y525120D02*
X1105560Y543560D01*
X1229360D01*
X1252982Y519938D01*
X1346962D01*
X1145001Y1341850D02*
X1163320Y1360170D01*
X1145001Y1312641D02*
Y1341850D01*
X1077976Y1245616D02*
X1145001Y1312641D01*
X608384Y1245616D02*
X1077976D01*
X517960Y1336040D02*
X608384Y1245616D01*
X443576Y1336040D02*
X517960D01*
X365506Y1414110D02*
X443576Y1336040D01*
X297180Y1414110D02*
X365506D01*
X128270Y468630D02*
Y488188D01*
X383362Y743280D01*
X444500D01*
X270510Y1147755D02*
X282305Y1159550D01*
X334970D01*
X360735Y1133785D01*
X656590D01*
X704525D01*
X732790Y1162050D01*
X551180Y1574800D02*
X570220Y1593840D01*
X938530D01*
X970290Y1625600D01*
X1468120D01*
X1499108Y1594612D01*
Y1568942D02*
Y1594612D01*
Y1568942D02*
X1508450Y1559600D01*
X1524492Y1543558D01*
X1822608D01*
X1838650Y1559600D01*
X1322070Y1254760D02*
X1334316D01*
X1450140Y1138936D01*
Y1121093D02*
Y1138936D01*
Y1053465D02*
X2142617D01*
X2152650Y1063498D01*
Y1071010D01*
X276860Y1337310D02*
X292354Y1321816D01*
X351736D01*
X365960Y1336040D01*
X1290320Y235150D02*
Y328730D01*
X1367990Y406400D01*
X1397660D01*
X1492250Y500990D01*
X1415898Y551942D02*
X1466850Y500990D01*
X1376934Y551942D02*
X1415898D01*
X1364488Y564388D02*
X1376934Y551942D01*
X1296924Y564388D02*
X1364488D01*
X1274826Y586486D02*
X1296924Y564388D01*
X1274826Y586486D02*
Y608838D01*
X1285240Y619252D01*
X1312672D01*
X1358900Y665480D01*
X1461516Y1220470D02*
X1600200Y1081786D01*
X1682750D01*
X938530Y1513840D02*
X940530Y1511840D01*
X944578D01*
X961628Y1494790D01*
X1049020D01*
X1058983Y1504753D01*
Y1509845D01*
X1059168Y1510030D01*
X1064260D01*
Y1527810D02*
X1102560D01*
X1184910Y1445460D01*
D68*
X379730Y641350D02*
X453390D01*
X472770D01*
X135570Y1207300D02*
X367220D01*
X325120Y363220D02*
X334010Y372110D01*
X369570D01*
X185620Y363220D02*
X325120D01*
X161490Y387350D02*
X185620Y363220D01*
X313490Y387350D02*
X323650Y397510D01*
X369570D01*
X344170Y554990D02*
Y605790D01*
X379730Y641350D01*
X472770D02*
X495300Y663880D01*
D69*
X367220Y1207300D02*
X394970Y1179550D01*
X289760Y951230D02*
X369770Y1031240D01*
X426448D01*
X449088Y1008600D01*
X671224D01*
X702675Y1040050D01*
X732790D01*
D71*
X95570Y1208170D02*
D03*
X115570D02*
D03*
X135570D02*
D03*
X115570Y1258170D02*
D03*
X135570D02*
D03*
X2172650Y1121010D02*
D03*
X2152650D02*
D03*
X2132650D02*
D03*
X2152650Y1071010D02*
D03*
X2132650D02*
D03*
D72*
X95570Y1258170D02*
D03*
X2172650Y1071010D02*
D03*
D73*
X1036320Y604520D02*
D03*
X1112520Y525120D02*
D03*
X1087120D02*
D03*
X1061720D02*
D03*
X1036320D02*
D03*
X1061720Y604520D02*
D03*
X1087120D02*
D03*
X1351280Y306400D02*
D03*
X1376680D02*
D03*
X1402080D02*
D03*
X1427480D02*
D03*
X1452880D02*
D03*
X1478280D02*
D03*
X1503680D02*
D03*
X1529080D02*
D03*
Y227000D02*
D03*
X1503680D02*
D03*
X1478280D02*
D03*
X1452880D02*
D03*
X1427480D02*
D03*
X1402080D02*
D03*
X1376680D02*
D03*
X878840Y368300D02*
D03*
X853440D02*
D03*
X828040Y288900D02*
D03*
X853440D02*
D03*
X878840D02*
D03*
X904240D02*
D03*
X828040Y368300D02*
D03*
X1087120Y140970D02*
D03*
X1061720D02*
D03*
X1036320Y61570D02*
D03*
X1061720D02*
D03*
X1087120D02*
D03*
X1112520D02*
D03*
X1036320Y140970D02*
D03*
X469900Y663880D02*
D03*
X495300D02*
D03*
X520700D02*
D03*
X546100D02*
D03*
X571500D02*
D03*
X596900D02*
D03*
X622300D02*
D03*
Y743280D02*
D03*
X596900D02*
D03*
X571500D02*
D03*
X546100D02*
D03*
X520700D02*
D03*
X495300D02*
D03*
X469900D02*
D03*
X444500D02*
D03*
X1158900Y909320D02*
D03*
Y934720D02*
D03*
Y960120D02*
D03*
Y985520D02*
D03*
Y1010920D02*
D03*
Y1036320D02*
D03*
Y1061720D02*
D03*
X1079500D02*
D03*
Y1036320D02*
D03*
Y1010920D02*
D03*
Y985520D02*
D03*
Y960120D02*
D03*
Y934720D02*
D03*
Y909320D02*
D03*
Y883920D02*
D03*
D74*
X1112520Y604520D02*
D03*
X1351280Y227000D02*
D03*
X904240Y368300D02*
D03*
X1112520Y140970D02*
D03*
X444500Y663880D02*
D03*
D75*
X1833880Y882650D02*
D03*
X1808480D02*
D03*
X1783080D02*
D03*
X1757680D02*
D03*
X1732280D02*
D03*
D76*
X1706880D02*
D03*
D77*
X151920Y1357620D02*
D03*
D78*
X121920Y1404620D02*
D03*
D79*
X181920D02*
D03*
D80*
X2178050Y1244600D02*
D03*
X1428050D02*
D03*
X2178050Y1554600D02*
D03*
X1428050D02*
D03*
D81*
X1322070Y1579880D02*
D03*
D82*
X161490Y387350D02*
D03*
X313490D02*
D03*
X289760Y951230D02*
D03*
X441760D02*
D03*
X661270D02*
D03*
X509270D02*
D03*
X1177290Y67510D02*
D03*
Y219510D02*
D03*
X1128830Y214630D02*
D03*
X976830D02*
D03*
X938330Y137160D02*
D03*
X786330D02*
D03*
X938330Y68580D02*
D03*
X786330D02*
D03*
X938330Y213360D02*
D03*
X786330D02*
D03*
X953570Y689610D02*
D03*
X801570D02*
D03*
X953570Y607060D02*
D03*
X801570D02*
D03*
X1187450Y488080D02*
D03*
Y640080D02*
D03*
X1155300Y690880D02*
D03*
X1003300D02*
D03*
X1290320Y235150D02*
D03*
Y387150D02*
D03*
Y599240D02*
D03*
Y447240D02*
D03*
X717550Y384610D02*
D03*
Y232610D02*
D03*
X953570Y524510D02*
D03*
X801570D02*
D03*
X953570Y434340D02*
D03*
X801570D02*
D03*
X1182370Y283410D02*
D03*
Y435410D02*
D03*
X1104900Y436680D02*
D03*
Y284680D02*
D03*
X1027430D02*
D03*
Y436680D02*
D03*
X1519990Y406400D02*
D03*
X1367990D02*
D03*
X622217Y487009D02*
D03*
X470218D02*
D03*
X495417Y177330D02*
D03*
Y329329D02*
D03*
X470218Y401919D02*
D03*
X622217D02*
D03*
X594477Y330599D02*
D03*
Y178600D02*
D03*
X1298140Y918210D02*
D03*
X1450140D02*
D03*
X1298140Y985837D02*
D03*
X1450140D02*
D03*
X1298140Y1053465D02*
D03*
X1450140D02*
D03*
X1298140Y1121093D02*
D03*
X1450140D02*
D03*
X520700Y1030370D02*
D03*
Y1182370D02*
D03*
X932180Y1179830D02*
D03*
Y1027830D02*
D03*
X1184910Y1597460D02*
D03*
Y1445460D02*
D03*
X1319530Y1485700D02*
D03*
Y1333700D02*
D03*
X517960Y1336040D02*
D03*
X365960D02*
D03*
X2052120Y882650D02*
D03*
X1900120D02*
D03*
X161490Y467360D02*
D03*
X313490D02*
D03*
Y325120D02*
D03*
X161490D02*
D03*
X895150Y886460D02*
D03*
X743150D02*
D03*
X897690Y952500D02*
D03*
X745690D02*
D03*
X313490Y118110D02*
D03*
X161490D02*
D03*
D83*
X93980Y158750D02*
D03*
X111760D02*
D03*
X129540D02*
D03*
X92710Y468630D02*
D03*
X110490D02*
D03*
X128270D02*
D03*
D84*
X344170Y185420D02*
D03*
X293370D02*
D03*
X242570D02*
D03*
X166370D02*
D03*
Y261620D02*
D03*
X242570D02*
D03*
X293370D02*
D03*
X344170D02*
D03*
Y631190D02*
D03*
X293370D02*
D03*
X242570D02*
D03*
X166370D02*
D03*
Y554990D02*
D03*
X242570D02*
D03*
X293370D02*
D03*
X344170D02*
D03*
D85*
X721360Y116840D02*
D03*
Y623570D02*
D03*
X721260Y511810D02*
D03*
X1322070Y1203960D02*
D03*
X369570Y372110D02*
D03*
D86*
X721360Y142240D02*
D03*
Y167640D02*
D03*
X591820Y867410D02*
D03*
X617220D02*
D03*
X383540D02*
D03*
X408940D02*
D03*
X1358900Y665480D02*
D03*
X1333500D02*
D03*
X721360Y674370D02*
D03*
Y648970D02*
D03*
X721260Y486410D02*
D03*
Y461010D02*
D03*
X276860Y1337310D02*
D03*
X302260D02*
D03*
X1322070Y1229360D02*
D03*
Y1254760D02*
D03*
X369570Y422910D02*
D03*
Y397510D02*
D03*
D87*
X1064260Y1545590D02*
D03*
Y1527810D02*
D03*
Y1510030D02*
D03*
X585470Y1187450D02*
D03*
Y1169670D02*
D03*
Y1151890D02*
D03*
X1002030Y1193800D02*
D03*
Y1176020D02*
D03*
Y1158240D02*
D03*
D88*
X566420Y867410D02*
D03*
X358140D02*
D03*
X1384300Y665480D02*
D03*
X251460Y1337310D02*
D03*
D89*
X1336310Y123190D02*
D03*
X1453150Y664210D02*
D03*
D90*
X1439910Y123190D02*
D03*
X1556750Y664210D02*
D03*
X270510Y1069665D02*
D03*
X656590Y1055695D02*
D03*
X105410Y614355D02*
D03*
X102870Y344170D02*
D03*
D91*
X1497930Y124460D02*
D03*
X1572930D02*
D03*
X482600Y1412170D02*
D03*
Y1487170D02*
D03*
X1228090Y1287110D02*
D03*
Y1362110D02*
D03*
X1008380Y1360840D02*
D03*
Y1285840D02*
D03*
X297180Y1489109D02*
D03*
Y1414110D02*
D03*
X389890Y1489110D02*
D03*
Y1414110D02*
D03*
X575310Y1489110D02*
D03*
Y1414110D02*
D03*
D92*
X1441450Y580390D02*
D03*
X1492250D02*
D03*
X1466850D02*
D03*
X1416050D02*
D03*
X1390650D02*
D03*
X1365250D02*
D03*
Y500990D02*
D03*
X1390650D02*
D03*
X1416050D02*
D03*
X1441450D02*
D03*
X1466850D02*
D03*
X1492250D02*
D03*
X1517650D02*
D03*
D93*
Y580390D02*
D03*
D94*
X270510Y1147755D02*
D03*
X656590Y1133785D02*
D03*
X105410Y536265D02*
D03*
X102870Y266080D02*
D03*
D95*
X454970Y1037550D02*
D03*
X334970D02*
D03*
Y1159550D02*
D03*
X732790Y1162050D02*
D03*
Y1040050D02*
D03*
X852790D02*
D03*
D96*
X394970Y1179550D02*
D03*
X792790Y1182050D02*
D03*
D97*
X454970Y1159550D02*
D03*
X852790Y1162050D02*
D03*
D98*
X1581150Y1140460D02*
D03*
X1606550D02*
D03*
X1631950D02*
D03*
X1657350D02*
D03*
X2063750Y988060D02*
D03*
X2038350D02*
D03*
X1682750Y1140460D02*
D03*
X1708150D02*
D03*
X1733550D02*
D03*
X1758950D02*
D03*
X2012950Y988060D02*
D03*
X1987550D02*
D03*
X1784350Y1140460D02*
D03*
X1809750D02*
D03*
X1835150D02*
D03*
X1860550D02*
D03*
X1962150Y988060D02*
D03*
X1936750D02*
D03*
X1885950Y1140460D02*
D03*
X1911350D02*
D03*
X1936750D02*
D03*
X1962150D02*
D03*
X1911350Y988060D02*
D03*
X1885950D02*
D03*
X1987550Y1140460D02*
D03*
X2012950D02*
D03*
X1860550Y988060D02*
D03*
X2038350Y1140460D02*
D03*
X2063750D02*
D03*
X1835150Y988060D02*
D03*
X1809750D02*
D03*
X1784350D02*
D03*
X1758950D02*
D03*
X1733550D02*
D03*
X1708150D02*
D03*
X1682750D02*
D03*
X1657350D02*
D03*
X1631950D02*
D03*
X1606550D02*
D03*
D99*
X1581150D02*
D03*
D100*
X1158900Y883920D02*
D03*
D101*
X1087120Y1360170D02*
D03*
D102*
Y1334770D02*
D03*
Y1309370D02*
D03*
Y1283970D02*
D03*
X1163320D02*
D03*
Y1309370D02*
D03*
Y1334770D02*
D03*
Y1360170D02*
D03*
D103*
X106680Y1518050D02*
D03*
D104*
Y1568050D02*
D03*
D105*
X71120Y1642110D02*
D03*
X2232660Y55880D02*
D03*
X58420Y53340D02*
D03*
X2232660Y1640840D02*
D03*
D106*
X367130Y1573530D02*
D03*
X341630D02*
D03*
X551180Y1574800D02*
D03*
X525680D02*
D03*
D107*
X316130Y1573530D02*
D03*
X500180Y1574800D02*
D03*
D108*
X2216100Y238760D02*
D03*
X2214830Y211836D02*
D03*
X2172970Y1196340D02*
D03*
X1954276Y1201166D02*
D03*
X1326361Y797279D02*
D03*
X1085088Y1136650D02*
D03*
X1574850Y703072D02*
D03*
X1598980Y484870D02*
D03*
X1620520Y404876D02*
D03*
X1107440Y883920D02*
D03*
X1599692Y1119378D02*
D03*
X1345692Y954278D02*
D03*
X1044019Y1139669D02*
D03*
X1857502Y965200D02*
D03*
X1880362Y633730D02*
D03*
X2160524Y995172D02*
D03*
X686308Y547116D02*
D03*
X1346962Y519938D02*
D03*
X1682750Y1081786D02*
D03*
D109*
X1068070Y558800D02*
D03*
M02*
