M48
;Layer_Color=9474304
;FILE_FORMAT=4:4
METRIC,LZ
;TYPE=PLATED
T1F00S00C0.7100
T2F00S00C0.7112
T3F00S00C0.7700
T4F00S00C0.7800
T5F00S00C0.8000
T6F00S00C0.8128
T7F00S00C0.8400
T8F00S00C0.8500
T9F00S00C0.8890
T10F00S00C0.9000
T11F00S00C0.9906
T12F00S00C1.0000
T14F00S00C1.0600
T15F00S00C1.1176
T16F00S00C1.2700
T17F00S00C1.2900
T18F00S00C1.3200
T19F00S00C1.4000
T20F00S00C2.5000
T21F00S00C4.5000
%
T01
X0036957Y0037211
X0072136Y0016764
Y0014224
Y0011684
X013335Y0066548
X013589
X013843
X0072136Y0067437
Y0064897
Y0062357
X0072126Y0051181
Y0048641
Y0046101
X0036957Y0042291
Y0039751
X0035814Y0086741
X0038354
X0040894
X0056642
X0059182
X0061722
X0132207Y0120396
Y0122936
Y0125476
X0030226Y0133731
X0027686
X0025146
T02
X0106807Y005588
T03
X0136525Y0050099
X0139065
X0141605
X0144145
X0146685
X0149225
X0151765
Y0058039
X0149225
X0146685
X0144145
X0141605
X0139065
X0136525
T04
X0103632Y0006157
X0106172
X0108712
X0111252
Y0014097
X0108712
X0106172
X0103632
X0090424Y002889
X0087884
X0085344
X0082804
Y003683
X0085344
X0087884
X0090424
X0135128Y003064
X0137668
X0140208
X0142748
X0145288
X0147828
X0150368
X0152908
Y00227
X0150368
X0147828
X0145288
X0142748
X0140208
X0137668
X0135128
X0111252Y0052512
X0108712
X0106172
X0103632
Y0060452
X0106172
X0108712
X0111252
X006223Y0066388
X005969
X005715
X005461
X005207
X004953
X004699
X004445
Y0074328
X004699
X004953
X005207
X005461
X005715
X005969
X006223
X010795Y0088392
Y0090932
Y0093472
Y0096012
Y0098552
Y0101092
Y0103632
Y0106172
X011589
Y0103632
Y0101092
Y0098552
Y0096012
Y0093472
Y0090932
Y0088392
T05
X0221483Y00211836
X022161Y0023876
X01880362Y0063373
X0157485Y00703072
X0159898Y0048487
X0162052Y00404876
X01346962Y00519938
X00686308Y00547116
X0110744Y0088392
X01085088Y0113665
X01044019Y01139669
X01345692Y00954278
X01326361Y00797279
X01599692Y01119378
X0168275Y01081786
X01857502Y009652
X02160524Y00995172
X0215265Y0107101
X0217265
X0213265
Y0112101
X0215265
X0217265
X0217297Y0119634
X01954276Y01201166
X0013557Y0120817
X0011557
X0009557
Y0125817
X0011557
X0013557
T06
X0170688Y0088265
X0173228
X0175768
X0178308
X0180848
X0183388
T07
X0009398Y0015875
X0011176
X0012954
X0012827Y0046863
X0011049
X0009271
X0058547Y0115189
Y0116967
Y0118745
X0100203Y0117602
Y0115824
Y011938
X0106426Y0151003
Y0152781
Y0154559
T08
X0149793Y0012446
X0157293
X0122809Y0128711
Y0136211
X0100838Y0136084
Y0128584
X0057531Y0141411
Y0148911
X004826Y0148717
Y0141217
X0038989Y0141411
Y0148911
X0029718Y01489109
Y0141411
T09
X0158115Y0098806
X0160655
X0163195
X0165735
X0168275
X0170815
X0173355
X0175895
X0178435
X0180975
X0183515
X0186055
X0188595
X0191135
X0193675
Y0114046
X0191135
X0188595
X0186055
X0183515
X0180975
X0178435
X0175895
X0173355
X0170815
X0168275
X0165735
X0163195
X0160655
X0158115
X0196215
X0198755
X0201295
X0203835
X0206375
Y0098806
X0203835
X0201295
X0198755
X0196215
T10
X0016149Y0011811
X0031349
Y0032512
Y0038735
X0016149
Y0032512
X00495417Y00329329
X00594477Y00330599
Y001786
X00495417Y0017733
X0071755Y0023261
Y0038461
X0078633Y0021336
Y0013716
Y0006858
X0093833
Y0013716
Y0021336
X0097683Y0021463
X0102743Y0028468
X011049
X0112883Y0021463
X0117729Y0021951
X0118237Y0028341
X0129032Y0023515
Y0038715
X0117729Y0006751
X0118237Y0043541
X0118745Y0048808
X0129032Y0044724
X0136799Y004064
X0151999
X0129032Y0059924
X0118745Y0064008
X011553Y0069088
X010033
X0095357Y0068961
Y0060706
Y0052451
Y0043434
X0102743Y0043668
X011049
X0080157Y0043434
Y0052451
Y0060706
Y0068961
X00622217Y00487009
Y00401919
X00470218
Y00487009
X0031349Y0046736
X0016149
X0028976Y0095123
X0044176
X0050927
X005207Y0103037
Y0118237
X0066127Y0095123
X0074569Y009525
X0074315Y0088646
X0089515
X0089769Y009525
X0093218Y0102783
Y0117983
X0129814Y01121093
Y01053465
Y00985837
Y0091821
X0145014
Y00985837
Y01053465
Y01121093
X0190012Y0088265
X0205212
X0131953Y013337
Y014857
X0118491Y0144546
X0093853Y0151384
X0051796Y0133604
X0036596
X0093853Y0159384
X0118491Y0159746
T11
X0215646Y00919861
Y00969899
T12
X0016637Y0018542
X0024257
X0029337
X0034417
Y0026162
X0029337
X0024257
X0016637
Y0055499
Y0063119
X0024257
X0029337
X0034417
Y0055499
X0029337
X0024257
X0155925Y015596
X0158465
X0161005
X0163545
X0166085
X0168625
X0171165
X0173705
X0176245
X0178785
X0181325
X0183865
X0186405
X0153385
X0150845
X0148305
X0132207Y0155448
Y0157988
T14
X0010287Y0026608
Y0034417
X0133631Y0012319
X0143991
X0155675Y0066421
X0145315
X0010541Y00614355
Y00536265
X0027051Y01069665
Y01147755
X0065659Y01133785
Y01055695
T15
X0116332Y0128397
Y0130937
Y0133477
Y0136017
X0108712
Y0133477
Y0130937
Y0128397
T16
X0036713Y0157353
X0050018Y015748
X0052568
X0055118
X0034163Y0157353
X0031613
T17
X0165902Y0011657
X0170902
X018038
X018538
Y0024157
X018038
Y00302413
X018538
X0170902
X0165902
Y0024157
X0170902
X0195239
X0200239
Y00302413
X0195239
X0209844
X0214844
Y0024157
X0209844
Y0011657
X0214844
X0200239
X0195239
Y00427413
X0200239
Y0048741
X0195239
Y0061241
X0200239
Y0067156
X0195239
X0209844
X0214844
Y006086
X0209844
Y004836
X0214844
Y00427413
X0209844
X018538
X018038
Y0048487
X018538
Y0060987
X018038
Y0067156
X018538
X0170902
X0165902
Y0060987
X0170902
Y0048487
X0165902
Y00427413
X0170902
X0039497Y0117955
X0079279Y0118205
X0165902Y0079656
X0170902
X018038
X018538
X0195239
X0200239
X0209844
X0214844
T18
X0033497Y0103755
Y0115955
X0045497
Y0103755
X0073279Y0104005
Y0116205
X0085279
Y0104005
T19
X0010668Y0151805
Y0156805
T20
X0217805Y012446
Y015546
X0142805
Y012446
T21
X0013462Y0086995
Y0106045
M30
